<?xml version="1.0" encoding="utf-8"?><svg xmlns="http://www.w3.org/2000/svg" xmlns:xlink="http://www.w3.org/1999/xlink"><symbol viewBox="0 0 97.713 97.713" id="contacts-address"><path d="M48.855 0C29.021 0 12.883 16.138 12.883 35.974c0 5.174 1.059 10.114 3.146 14.684 8.994 19.681 26.238 40.46 31.31 46.359a2.003 2.003 0 0 0 3.034 0c5.07-5.898 22.314-26.676 31.311-46.359 2.088-4.57 3.146-9.51 3.146-14.684C84.828 16.138 68.69 0 48.855 0zm0 54.659c-10.303 0-18.686-8.383-18.686-18.686 0-10.304 8.383-18.687 18.686-18.687s18.686 8.383 18.686 18.687c.001 10.303-8.382 18.686-18.686 18.686z"/></symbol><symbol viewBox="0 0 512 512" id="contacts-clock"><path d="M437.02 74.981C388.668 26.629 324.38 0 256 0S123.332 26.629 74.98 74.981C26.628 123.333 0 187.62 0 256s26.628 132.668 74.98 181.019C123.332 485.37 187.62 512 256 512s132.668-26.629 181.02-74.981C485.372 388.667 512 324.38 512 256s-26.628-132.668-74.98-181.019zM256 461.752c-113.453 0-205.752-92.3-205.752-205.752 0-.186.006-.37.007-.554 0-.047-.007-.092-.007-.139 0-.079.01-.155.012-.233.499-112.093 91.086-203.29 202.944-204.79.234-.011.466-.035.703-.035.142 0 .28.017.421.021.558-.004 1.114-.021 1.673-.021 113.453 0 205.752 92.3 205.752 205.752S369.453 461.752 256 461.752z"/><path d="M412.287 268.36c-8.366 0-15.148-6.782-15.148-15.148s6.782-15.148 15.148-15.148h18.259c-8.576-84.076-76.762-150.773-161.492-157.035v15.895c0 8.366-6.782 15.148-15.148 15.148s-15.148-6.782-15.148-15.148V81.391c-83.476 8.18-149.969 75.102-157.492 158.766h16.352c8.366 0 15.148 6.782 15.148 15.148s-6.782 15.148-15.148 15.148H81.142c6.965 85.011 74.791 153.045 159.71 160.342v-19.203c0-8.366 6.782-15.148 15.148-15.148s15.148 6.782 15.148 15.148v19.203c85.614-7.357 153.853-76.451 159.867-162.435h-18.728zm-94.967-52.258l-50.608 50.609a15.146 15.146 0 0 1-21.422 0l-88.093-88.093c-5.916-5.915-5.916-15.506 0-21.422 5.915-5.916 15.506-5.916 21.422 0l77.383 77.382L295.9 194.68c5.915-5.916 15.506-5.916 21.422 0 5.914 5.915 5.914 15.507-.002 21.422z"/></symbol><symbol viewBox="0 0 463.313 463.313" id="contacts-email"><path d="M292.962 320.542l136.195 122.59v-245.18zM34.157 197.952v245.18l136.194-122.59zm383.789-30.272L231.657 0 45.367 167.68l186.29 167.681zM231.657 375.724l-38.885-35L56.577 463.313h350.159L270.541 340.724z"/></symbol><symbol viewBox="-47 51 384 384" id="contacts-tel"><path d="M-35 63H66l20 98-45 59 27 47 101 80 60-48 98 21v102l-78-8.3L146 388l-77-50-71-95.5L-35 116z"/><path d="M326.9 434.4h-.4C199.4 429.6 102.3 390.1 37.7 317c-50-56.6-70.2-123-78.4-168.7-8.8-49.4-5.9-85.3-5.8-86.8.5-5.2 4.8-9.3 10.1-9.3H70.5c4.9 0 9.2 3.6 10 8.4L97.4 160c.5 2.9-.3 5.8-2.1 8.1l-43.9 54.6c2.2 5.6 7.4 16.6 18.7 31.2 15 19.4 44 49 97.6 81.5l53.3-42.9c2.3-1.8 5.2-2.6 8.1-2.1l99.4 16.9c4.9.8 8.4 5.1 8.4 10v106.9c0 2.8-1.1 5.4-3.1 7.3-1.8 1.9-4.3 2.9-6.9 2.9zM-26.6 72.6c-.3 13.4.2 40.2 6 72.9 7.7 43 26.8 105.4 73.6 158.3 59 66.6 147.6 103.6 263.7 109.9V326l-86.5-14.7-55.3 44.5c-3.3 2.7-7.9 3-11.5.8C44.9 286.4 30.7 225.4 30.2 222.8c-.6-3 .1-6.1 2-8.5L76.7 159 62 72.6h-88.6zm307 133.6c-5.6 0-10.1-4.5-10.1-10.1 0-42.3-34.4-76.7-76.7-76.7-5.6 0-10.1-4.5-10.1-10.1s4.5-10.1 10.1-10.1c53.5 0 97 43.5 97 97 0 5.4-4.6 10-10.2 10z"/><path d="M326.9 206.2c-5.6 0-10.1-4.5-10.1-10.1 0-67.9-55.2-123.1-123.1-123.1-5.6 0-10.1-4.5-10.1-10.1s4.5-10.1 10.1-10.1C272.7 52.6 337 117 337 196c0 5.6-4.5 10.2-10.1 10.2z"/></symbol><symbol viewBox="0 0 26 33" id="docs-pdf"><path d="M25.682 6.934L18.96.313A1.101 1.101 0 0 0 18.19 0H1.423C.738 0 0 .521 0 1.665v30.197c0 .476.486.94 1.062 1.087.029.007.057.018.087.024.09.017.182.027.274.027h23.154c.092 0 .184-.01.274-.027.03-.006.058-.017.087-.024.576-.146 1.062-.61 1.062-1.087V7.953c0-.436-.053-.758-.318-1.019zm-1.742-.106h-4.873v-4.8l4.873 4.8zM1.423 31.862c-.041 0-.078-.015-.114-.028a.26.26 0 0 1-.153-.235v-8.271h23.688v8.27a.261.261 0 0 1-.153.236c-.036.013-.073.028-.114.028H1.423zm-.267-9.672V1.665c0-.124.019-.527.267-.527h16.522a.867.867 0 0 0-.034.222v6.606h6.707a.899.899 0 0 0 .226-.033V22.19H1.156z"/><path d="M8.98 25.458a1.995 1.995 0 0 0-.652-.35 2.385 2.385 0 0 0-.734-.117H5.919v5.733h.949v-2.07h.703c.305 0 .584-.043.837-.131.252-.088.469-.213.648-.373.179-.16.318-.36.419-.596.1-.236.15-.499.15-.79 0-.274-.06-.522-.178-.742a1.834 1.834 0 0 0-.467-.564zm-.36 1.894a.936.936 0 0 1-.228.37.868.868 0 0 1-.312.19 1.059 1.059 0 0 1-.344.058h-.869V25.7h.71c.243 0 .437.038.585.113a.924.924 0 0 1 .506.63 1.726 1.726 0 0 1-.047.91zm6.087-1.521a2.677 2.677 0 0 0-.925-.61c-.371-.153-.802-.23-1.291-.23h-1.754v5.733h2.204c.073 0 .187-.009.34-.027.152-.018.32-.06.505-.125.184-.065.375-.162.573-.292.197-.13.375-.307.533-.533.158-.226.288-.506.391-.84.103-.335.155-.738.155-1.21a2.84 2.84 0 0 0-.182-1 2.519 2.519 0 0 0-.55-.866zm-.691 3.602c-.285.404-.748.606-1.39.606h-.94V25.7h.552c.453 0 .822.058 1.106.175.285.116.51.27.676.459.165.19.277.4.335.634.058.233.087.47.087.707 0 .768-.142 1.355-.426 1.759zm2.796 1.291h.964v-2.582h2.433v-.638h-2.433v-1.805h2.677v-.708h-3.641v5.733zm1.635-17.66c-.53 0-1.182.068-1.94.204-1.057-1.105-2.16-2.719-2.94-4.303.773-3.202.386-3.656.216-3.87-.181-.227-.437-.597-.728-.597a2.89 2.89 0 0 0-.588.098c-.332.11-.511.362-.655.691-.408.941.152 2.544.729 3.78-.493 1.93-1.32 4.241-2.189 6.117-2.19.987-3.353 1.957-3.458 2.883-.038.337.043.831.644 1.276a.937.937 0 0 0 .56.185c.505 0 1.015-.381 1.606-1.199.431-.596.894-1.41 1.377-2.418a27.99 27.99 0 0 1 5.101-1.606c.913.863 1.73 1.3 2.433 1.3.518 0 .961-.234 1.283-.678.334-.461.41-.874.225-1.229-.223-.426-.77-.634-1.676-.634zM8.11 18.568c-.27-.205-.255-.342-.25-.394.037-.316.54-.878 1.775-1.561-.936 1.702-1.44 1.928-1.525 1.955zm4.738-13.042c.024-.008.603.626.055 1.83-.824-.83-.112-1.811-.055-1.83zm-1.195 9.118a40.138 40.138 0 0 0 1.545-4.304 19.476 19.476 0 0 0 2.209 3.155 29.102 29.102 0 0 0-3.754 1.15zm7.454-.273c-.178.246-.564.252-.699.252-.308 0-.423-.18-.894-.538a8.433 8.433 0 0 1 1.047-.061c.513 0 .608.074.679.112a.88.88 0 0 1-.133.236z"/></symbol><symbol viewBox="0 0 139.4 44.7" id="dorohovdesign"><path d="M52.2 19.5V8.1H57c3.6 0 6.1 2.1 6.1 5.7 0 3.5-2.6 5.7-6.1 5.7h-4.8zm7.9-5.7c0-1.8-1.1-3.1-3.1-3.1h-1.9v6.2H57c2 0 3.1-1.4 3.1-3.1m4.1 0c0-3.4 2.6-5.9 6.1-5.9 3.5 0 6.1 2.4 6.1 5.9 0 3.5-2.6 5.9-6.1 5.9-3.5 0-6.1-2.4-6.1-5.9m9.2 0c0-1.9-1.2-3.3-3.1-3.3-1.9 0-3.1 1.4-3.1 3.3 0 1.8 1.2 3.3 3.1 3.3 1.9 0 3.1-1.4 3.1-3.3m11 5.7l-1.9-3.8H81v3.8h-2.9V8.1h5.7c2.5 0 3.9 1.7 3.9 3.8 0 2-1.2 3-2.3 3.4l2.3 4.2h-3.3zm.3-7.6c0-.8-.6-1.2-1.4-1.2H81v2.4h2.3c.8 0 1.4-.4 1.4-1.2m4.2 1.9c0-3.4 2.6-5.9 6.1-5.9 3.5 0 6.1 2.4 6.1 5.9 0 3.5-2.6 5.9-6.1 5.9-3.5 0-6.1-2.4-6.1-5.9m9.1 0c0-1.9-1.2-3.3-3.1-3.3-1.9 0-3.1 1.4-3.1 3.3 0 1.8 1.2 3.3 3.1 3.3 1.9 0 3.1-1.4 3.1-3.3m12.4 5.7v-4.6h-4.7v4.6h-3V8.1h3v4.3h4.7V8.1h2.9v11.4zm4.6-5.7c0-3.4 2.6-5.9 6.1-5.9 3.5 0 6.1 2.4 6.1 5.9 0 3.5-2.6 5.9-6.1 5.9-3.5 0-6.1-2.4-6.1-5.9m9.2 0c0-1.9-1.2-3.3-3.1-3.3-1.9 0-3.1 1.4-3.1 3.3 0 1.8 1.2 3.3 3.1 3.3 1.9 0 3.1-1.4 3.1-3.3m7.3 5.7l-4.3-11.4h3.3l2.8 8.2 2.8-8.2h3.3l-4.2 11.4zm-79.3 17V25.1H57c3.6 0 6.1 2.1 6.1 5.7 0 3.5-2.6 5.7-6.1 5.7h-4.8zm7.9-5.7c0-1.8-1.1-3.1-3.1-3.1h-1.9v6.2H57c2 0 3.1-1.4 3.1-3.1m4.7 5.7V25.1h8.3v2.6h-5.3v1.8H73V32h-5.2v1.9h5.3v2.6zm9.6-1.6l1.5-2.2c.8.8 2.1 1.5 3.6 1.5 1 0 1.6-.4 1.6-.9 0-1.5-6.4-.3-6.4-4.7 0-1.9 1.6-3.6 4.5-3.6 1.8 0 3.4.5 4.6 1.6l-1.6 2.1c-1-.8-2.2-1.2-3.3-1.2-.8 0-1.2.3-1.2.8 0 1.4 6.4.4 6.4 4.6 0 2.3-1.7 3.8-4.7 3.8-2.2 0-3.8-.7-5-1.8m11.5-9.8h2.9v11.3h-2.9zm4.7 5.7c0-3.6 2.8-5.9 6.1-5.9 2.5 0 4.1 1.3 4.8 2.8L99.1 29c-.4-.7-1.3-1.4-2.4-1.4-1.9 0-3.2 1.4-3.2 3.3s1.3 3.3 3.2 3.3c.8 0 1.7-.3 2.1-.7v-.9h-2.6V30h5.5v4.5c-1.2 1.3-2.9 2.2-5 2.2-3.4 0-6.1-2.3-6.1-5.9m20.9 5.7l-4.8-6.6v6.6h-2.9V25.1h3l4.6 6.3v-6.3h2.9v11.4zM17.7 0H0v44.7h17.8c15 0 24.6-8.8 24.6-22.4C42.4 8.7 32.7 0 17.7 0m-.4 35.7h-8V9.5h8c9.3 0 15.7 3.7 15.7 12.7.1 7.5-5.8 13.5-15.7 13.5"/><path d="M19.1 17H17v10.6h2c4 0 6.4-2.4 6.4-5.4 0-3.7-2.6-5.2-6.3-5.2"/></symbol><symbol viewBox="0 0 34 34" id="fb"><path d="M34 0H0v34h12.656V21.5H10v-4.309h2.657v-2.593c0-1.841.447-3.234 1.343-4.18C14.896 9.473 16.37 9 18.422 9h3.547v4.308H19.75c-.406 0-.732.033-.976.099-.245.066-.422.184-.532.356a1.43 1.43 0 0 0-.21.524 4.622 4.622 0 0 0-.047.75v2.154H22l-.469 4.309h-3.546V34H34V0z"/></symbol><symbol viewBox="-104 105.4 290.6 290.6" id="icon-acomplishment"><path d="M182.1 386.7h-23.9v-46.8h23.9c2.5 0 4.5-2 4.5-4.5s-2-4.5-4.5-4.5h-23.9v-10h14.3c2.5 0 4.5-2 4.5-4.5v-19c0-2.5-2-4.5-4.5-4.5h-14.3v-10h14.3c2.5 0 4.5-2 4.5-4.5v-19c0-2.5-2-4.5-4.5-4.5H3.8c-2.5 0-4.5 2-4.5 4.5v19c0 2.5 2 4.5 4.5 4.5h14v10h-14c-2.5 0-4.5 2-4.5 4.5v19c0 2.5 2 4.5 4.5 4.5h14v10h-24c-2.5 0-4.5 2-4.5 4.5s2 4.5 4.5 4.5h24v46.8h-56.5v-24.3c0-2.5-2-4.5-4.5-4.5h-9.5V231c0-2.5-2-4.5-4.5-4.5h-4.6v-85.7c0-14.2 11.6-25.8 25.8-25.8 13.6 0 24.7 10.5 25.7 23.8-15.8 2.3-28 16-28 32.4v4.7h18.8c0 7.8 6.3 14.1 14.1 14.1s14.1-6.3 14.1-14.1h18.8v-4.7c0-16.5-12.3-30.2-28.2-32.5-1-18.5-16.3-33.2-35.1-33.2-19.4 0-35.2 15.8-35.2 35.2v85.7h-5.6c-2.5 0-4.5 2-4.5 4.5v126.9h-9.1c-2.5 0-4.5 2-4.5 4.5v24.3h-4.6c-2.5 0-4.5 2-4.5 4.5s2 4.5 4.5 4.5h281.6c2.5 0 4.5-2 4.5-4.5s-2.2-4.4-4.7-4.4zm-187.7-206c-2.6 0-4.7-2.1-4.7-4.7h9.4c0 2.6-2.1 4.7-4.7 4.7zm23-14.1h-45.9c2.2-10.7 11.6-18.8 23-18.8s20.7 8.1 22.9 18.8zm-89.6 68.9h10.5v122.4h-10.5V235.5zm24.4 151.2h-38.1v-19.8h38.1v19.8zM8.3 273.9v-10H168v10H8.3zm141 9.1v10H140v-10h9.3zm-18.3 0v10H45.8v-10H131zm-94.2 0v10h-10v-10h10zM131 386.4H46.8v-32.5H131v32.5zm18.3.3H140v-37.3c0-2.5-2-4.5-4.5-4.5H42.3c-2.5 0-4.5 2-4.5 4.5v37.3h-11v-46.8h122.6v46.8zM26.8 330.9v-10h10.1v10H26.8zm19 0v-10H131v10H45.8zm103.5 0H140v-10h9.3v10zm0-19H8.3v-10h159.6v10h-18.6z"/></symbol><symbol viewBox="6 -6 512 512" id="icon-architecture"><path d="M372.9 471.9H134c-4.7 0-8.5 3.8-8.5 8.5v17.1c0 4.7 3.8 8.5 8.5 8.5s8.5-3.8 8.5-8.5V489h230.4c4.7 0 8.5-3.8 8.5-8.5s-3.8-8.6-8.5-8.6zM193.7 207.3c0 4.7 3.8 8.5 8.5 8.5h34.1c4.7 0 8.5-3.8 8.5-8.5v-51.2c0-4.7-3.8-8.5-8.5-8.5h-34.1c-4.7 0-8.5 3.8-8.5 8.5v51.2zm17.1-42.6h17.1v34.1h-17.1v-34.1zm-93.9-68.3H14.5c-4.7 0-8.5 3.8-8.5 8.5v170.7c0 4.7 3.8 8.5 8.5 8.5s8.5-3.8 8.5-8.5V113.5h93.9c4.7 0 8.5-3.8 8.5-8.5s-3.8-8.6-8.5-8.6zm298.7 315.7c0 4.7 3.8 8.5 8.5 8.5h34.1c4.7 0 8.5-3.8 8.5-8.5v-51.2c0-4.7-3.8-8.5-8.5-8.5h-34.1c-4.7 0-8.5 3.8-8.5 8.5v51.2zm17.1-42.6h17.1v34.1h-17.1v-34.1zm-384-68.3C6.5 301.2 6 411 6 412.1c0 20.6 14.7 37.8 34.1 41.8v43.5c0 4.7 3.8 8.5 8.5 8.5s8.5-3.8 8.5-8.5v-43.5c19.4-4 34.1-21.2 34.1-41.8.1-1.1-.4-110.9-42.5-110.9zm0 136.5c-14.1 0-25.6-11.5-25.6-25.6 0-42.5 11.4-93.9 25.6-93.9s25.6 51.4 25.6 93.9c0 14.1-11.5 25.6-25.6 25.6zM99.9 250H65.7c-4.7 0-8.5 3.8-8.5 8.5v17.1c0 4.7 3.8 8.5 8.5 8.5s8.5-3.8 8.5-8.5v-8.5h17.1v42.7c0 4.7 3.8 8.5 8.5 8.5s8.5-3.8 8.5-8.5v-51.2c.1-4.8-3.7-8.6-8.4-8.6zm324.2-34.1h34.1c4.7 0 8.5-3.8 8.5-8.5v-51.2c0-4.7-3.8-8.5-8.5-8.5h-34.1c-4.7 0-8.5 3.8-8.5 8.5v51.2c0 4.6 3.8 8.5 8.5 8.5zm8.6-51.2h17.1v34.1h-17.1v-34.1z"/><path d="M99.9 147.6H65.7c-4.7 0-8.5 3.8-8.5 8.5v51.2c0 4.7 3.8 8.5 8.5 8.5h34.1c4.7 0 8.5-3.8 8.5-8.5v-51.2c.1-4.7-3.7-8.5-8.4-8.5zm-8.6 51.2h-17v-34.1h17.1l-.1 34.1zm187.8 8.5c0 4.7 3.8 8.5 8.5 8.5h34.1c4.7 0 8.5-3.8 8.5-8.5v-51.2c0-4.7-3.8-8.5-8.5-8.5h-34.1c-4.7 0-8.5 3.8-8.5 8.5v51.2zm17-42.6h17.1v34.1h-17.1v-34.1zm213.4-68.3H407.1c-4.7 0-8.5 3.8-8.5 8.5s3.8 8.5 8.5 8.5H501v342.9c-2.7-1-5.5-1.6-8.5-1.6-1.5 0-2.9.1-4.4.4-5.9-10.6-17.1-17.5-29.7-17.5s-23.9 6.8-29.7 17.5c-1.4-.3-2.9-.4-4.4-.4-14.1 0-25.6 11.5-25.6 25.6S410 506 424.1 506h68.3c14.1 0 25.6-11.5 25.6-25.6V104.9c0-4.7-3.8-8.5-8.5-8.5zm-17.1 392.5h-68.3c-4.7 0-8.5-3.8-8.5-8.5s3.8-8.5 8.5-8.5c1.6 0 3.2.5 4.6 1.4 2.3 1.5 5.3 1.8 7.8.7 2.6-1 4.5-3.3 5.1-6 1.8-7.8 8.6-13.2 16.6-13.2s14.8 5.4 16.6 13.2c.6 2.7 2.5 4.9 5.1 6 2.6 1 5.5.8 7.8-.7 5.6-3.6 13.2.8 13.2 7.1 0 4.7-3.8 8.5-8.5 8.5zM287.6 113.5h34.1c4.7 0 8.5-3.8 8.5-8.5V53.7c0-4.7-3.8-8.5-8.5-8.5h-34.1c-4.7 0-8.5 3.8-8.5 8.5v51.2c0 4.7 3.8 8.6 8.5 8.6zm8.5-51.2h17.1v34.1h-17.1V62.3zm-17 247.4c0 4.7 3.8 8.5 8.5 8.5h34.1c4.7 0 8.5-3.8 8.5-8.5v-51.2c0-4.7-3.8-8.5-8.5-8.5h-34.1c-4.7 0-8.5 3.8-8.5 8.5v51.2zm17-42.6h17.1v34.1h-17.1v-34.1zm-93.8-153.6h34.1c4.7 0 8.5-3.8 8.5-8.5V53.7c0-4.7-3.8-8.5-8.5-8.5h-34.1c-4.7 0-8.5 3.8-8.5 8.5v51.2c-.1 4.7 3.8 8.6 8.5 8.6zm8.5-51.2h17.1v34.1h-17.1V62.3zm45.1 343.8c-1.5 1.6-2.5 3.8-2.5 6.1s.9 4.4 2.5 6.1c1.6 1.5 3.8 2.5 6.1 2.5s4.4-.9 6.1-2.5c1.5-1.6 2.5-3.8 2.5-6.1s-.9-4.4-2.5-6.1c-3.3-3.2-8.9-3.2-12.2 0zm-62.2-96.4c0 4.7 3.8 8.5 8.5 8.5h34.1c4.7 0 8.5-3.8 8.5-8.5v-51.2c0-4.7-3.8-8.5-8.5-8.5h-34.1c-4.7 0-8.5 3.8-8.5 8.5v51.2zm17.1-42.6h17.1v34.1h-17.1v-34.1z"/><path d="M176.7 360.9c0 4.7 3.8 8.5 8.5 8.5h25.6v76.8c0 4.7 3.8 8.5 8.5 8.5s8.5-3.8 8.5-8.5v-76.8h68.3v76.8c0 4.7 3.8 8.5 8.5 8.5s8.5-3.8 8.5-8.5v-76.8h25.6c4.7 0 8.5-3.8 8.5-8.5s-3.8-8.5-8.5-8.5H185.2c-4.7 0-8.5 3.8-8.5 8.5zm238.9-51.2c0 4.7 3.8 8.5 8.5 8.5h34.1c4.7 0 8.5-3.8 8.5-8.5v-51.2c0-4.7-3.8-8.5-8.5-8.5h-34.1c-4.7 0-8.5 3.8-8.5 8.5v51.2zm17.1-42.6h17.1v34.1h-17.1v-34.1z"/><path d="M372.9-6H151.1c-4.7 0-8.5 3.8-8.5 8.5v443.7c0 4.7 3.8 8.5 8.5 8.5s8.5-3.8 8.5-8.5V11.1h204.8v435.2c0 4.7 3.8 8.5 8.5 8.5s8.5-3.8 8.5-8.5V2.5c.1-4.7-3.8-8.5-8.5-8.5z"/></symbol><symbol viewBox="-241.1 40.9 480 485" id="icon-award"><path d="M44.8 399.6L-3 373.2l-46.6 26.3-30.6-48-51.3 1-.1-53.1-47-28.8 26.3-48.3-26.4-46 48-30.7-1-51.3 54.6-1 27.3-46.2 49 26.3L44.5 47 75 95.3l51.4-1.1.6 53.8 46.6 28-26.3 49 26.4 45.3-48 30.7 1 51.2-56 1.9-25.9 45.5zm-119.8-58l28.6 44.8 43.2-24.5L41 386.3l23.8-41.8 51.8-1.7-.9-47 44.7-28.6-24.4-42 24.5-45.6-43.3-26.1-.5-49.4-47 1-28.4-44.8-42 24.4-45.5-24.5-25.3 42.8-50.2.9.9 46.9-44.7 28.6 24.4 42.6-24.5 44.9 43.7 26.8.1 48.6 46.8-.7zm18.8 75.9c1.3-2.4.5-5.4-1.8-6.7-2.4-1.3-5.4-.5-6.7 1.8l-44 77.2-8.3-59.1-59.4 20.6 46-80.3c1.3-2.4.5-5.4-1.8-6.7-2.4-1.3-5.4-.5-6.7 1.8l-59.1 103 72.9-25.2 10.7 75.8 58.2-102.2zm178 26.4l72.9 25.2L135.6 366c-1.3-2.4-4.3-3.2-6.7-1.8-2.4 1.3-3.2 4.3-1.8 6.7l46 80.3-59.4-20.6-8.3 59.1-44-77.2c-1.3-2.4-4.3-3.2-6.7-1.8-2.4 1.3-3.2 4.3-1.8 6.7l58.2 102.2 10.7-75.7zM-2.6 327.2c-57.3 0-103.8-46.6-103.8-103.8S-59.8 119.5-2.6 119.5c57.3 0 103.8 46.6 103.8 103.8S54.7 327.2-2.6 327.2zm0-197.9c-51.8 0-94 42.2-94 94s42.2 94 94 94 94-42.2 94-94-42.1-94-94-94zm0 213.9c-66.1 0-119.9-53.8-119.9-119.9S-68.7 103.5-2.6 103.5c66.1 0 119.9 53.8 119.9 119.9S63.5 343.2-2.6 343.2zm0-229.9c-60.7 0-110.1 49.4-110.1 110.1 0 60.7 49.4 110.1 110.1 110.1S107.5 284 107.5 223.3c0-60.6-49.4-110-110.1-110zm35.4 161.2l-33.9-17.8-33.9 17.8 6.5-37.8L-56 210l37.9-5.5 17-34.4 17 34.4 37.9 5.5-27.4 26.7 6.4 37.8zm-67.7-57.7l16.9 16.5-4 23.2 20.9-11 20.9 11-4-23.2 16.9-16.5-23.3-3.4L-1 192.3l-10.4 21.1-23.5 3.4z"/></symbol><symbol viewBox="0 0 512.009 512.009" id="icon-building"><path d="M432.001 200.014c44.111 0 79.999-39.471 79.999-87.999V80.102c.049-3.761-2.565-7.15-6.392-7.927L153.613.177a7.895 7.895 0 0 0-1.985-.16h-47.622c-.058 0-.114.007-.172.009a9.095 9.095 0 0 0-.798.056 9.394 9.394 0 0 0-.786.135 7.545 7.545 0 0 0-.412.106 7.09 7.09 0 0 0-.732.246c-.12.047-.24.095-.357.147-.118.053-.234.11-.35.169a7.665 7.665 0 0 0-1.028.622c-.054.039-.111.071-.165.111L3.207 73.616c-.052.039-.097.083-.148.123a8.711 8.711 0 0 0-.621.541 8.797 8.797 0 0 0-.548.587c-.049.059-.096.119-.144.179a8.198 8.198 0 0 0-.331.442c-.041.059-.078.12-.117.18-.1.155-.198.311-.287.471-.039.07-.074.143-.111.214a8.056 8.056 0 0 0-.226.468c-.038.087-.071.176-.106.265-.059.15-.116.299-.165.452-.032.098-.059.198-.087.298a7.953 7.953 0 0 0-.117.454c-.022.099-.04.2-.058.301a9.019 9.019 0 0 0-.075.489c-.011.09-.018.181-.026.273a7.59 7.59 0 0 0-.027.544c-.001.04-.006.079-.006.119v31.999c0 4.416 3.584 8 8 8h24v24c0 4.416 3.584 8 8 8h32c4.416 0 8-3.576 8-8v-24h16V400.01h-16c-4.416 0-8 3.584-8 8v55.999h-16c-8.824 0-16 7.176-16 16v24c0 4.416 3.584 8 8 8h159.997c4.416 0 8-3.576 8-8v-24c0-8.824-7.176-16-16-16h-16V408.01c0-4.416-3.584-8-8-8h-16V120.015h199.997v143.998h-16a8.006 8.006 0 0 0-7.76 9.944l8 32a8.003 8.003 0 0 0 7.76 6.056h8v8c0 8.824 7.176 16 16 16h4.84a3.162 3.162 0 0 1 3.16 3.16c0 1.648-1.04 2.448-1.664 2.784-.624.328-1.864.752-3.24-.16l-6.656-4.44a7.984 7.984 0 0 0-11.096 2.216 7.976 7.976 0 0 0-1.341 4.44H256.003c-8.824 0-16 7.176-16 16v111.998c0 8.824 7.176 16 16 16H480c8.824 0 16-7.176 16-16v-112c0-8.824-7.176-16-16-16h-80.625c.406-1.559.626-3.181.626-4.84 0-10.568-8.6-19.16-19.16-19.16h-4.84v-8h8a7.994 7.994 0 0 0 7.76-6.056l8-32a8.006 8.006 0 0 0-7.76-9.944h-16v-94.105c12.773 18.883 32.401 30.108 56 30.108zm48.007 271.995H256.003V360.011H480l.008 111.998zM377.753 296.012H358.25l-4-16h27.504l-4.001 16zm54.248-111.998c-30.858 0-52.999-25.93-55.715-63.999h119.309c-3.551 35.944-30.712 63.999-63.594 63.999zM160.005 17.812L425 72.016H160.005V17.812zm-16-1.796v55.999h-32V16.016h32zm-31.999 238.946l32 21.333v15.434l-32 21.333v-58.1zm31.999 2.101l-32-21.333v-15.434l32-21.333v58.1zm-31.999 75.231l32-21.333v58.1l-32-21.333v-15.434zm31.999-152.563l-32 21.333v-58.1l32 21.333v15.434zm0-91.716v16h-32v-16h32zM72.006 72.016h-40l63.999-47.999v47.999H72.006zm-55.999 31.999v-16h16v16h-16zm47.999 31.999h-16V88.015h16v47.999zm16-31.999v-16h16v16h-16zm119.998 391.994H56.006v-16h143.998v16zm-31.999-32H88.006V416.01h79.999v47.999zm-55.999-63.999v-33.05l32 21.333v11.717h-32zm31.999-254.945l-32-21.333v-3.717h32v25.05zm16-57.05H496v16H160.005v-16z"/><path d="M448 456.009c4.416 0 8-3.576 8-8V384.01c0-4.416-3.584-8-8-8s-8 3.584-8 8v63.999c0 4.417 3.584 8 8 8zm-39.999 0c4.416 0 8-3.576 8-8V384.01c0-4.416-3.584-8-8-8s-8 3.584-8 8v63.999c0 4.417 3.584 8 8 8zm-39.999 0c4.416 0 8-3.576 8-8V384.01c0-4.416-3.584-8-8-8s-8 3.584-8 8v63.999c0 4.417 3.584 8 8 8zm-40 0c4.416 0 8-3.576 8-8V384.01c0-4.416-3.584-8-8-8s-8 3.584-8 8v63.999c0 4.417 3.584 8 8 8zm-39.999 0c4.416 0 8-3.576 8-8V384.01c0-4.416-3.584-8-8-8s-8 3.584-8 8v63.999c0 4.417 3.584 8 8 8z"/></symbol><symbol viewBox="0 0 512 512" id="icon-chart"><path d="M488.399 492h-21.933V173.536c0-14.823-12.06-26.882-26.882-26.882H390.56c-14.823 0-26.882 12.06-26.882 26.882V492h-55.692V317.825c0-14.823-12.059-26.882-26.882-26.882H232.08c-14.823 0-26.882 12.06-26.882 26.882V492h-55.692v-90.204c0-14.823-12.06-26.882-26.882-26.882H73.599c-14.823 0-26.882 12.06-26.882 26.882V492H23.601c-5.523 0-10 4.477-10 10s4.477 10 10 10h464.798c5.523 0 10-4.477 10-10s-4.477-10-10-10zm-358.895 0H66.716v-90.204a6.89 6.89 0 0 1 6.882-6.882h49.024a6.89 6.89 0 0 1 6.882 6.882V492zm158.481 0h-62.788V317.825a6.89 6.89 0 0 1 6.882-6.882h49.024a6.89 6.89 0 0 1 6.882 6.882V492zm158.481 0h-62.788V173.536a6.89 6.89 0 0 1 6.882-6.882h49.024a6.89 6.89 0 0 1 6.882 6.882V492zm19.976-481.484A9.965 9.965 0 0 0 455.95.024c-.161-.007-.32-.024-.484-.024h-60.5c-5.523 0-10 4.477-10 10s4.477 10 10 10h37.357l-98.857 98.858-37.28-37.28a10.001 10.001 0 0 0-14.142 0l-179.769 179.77c-3.905 3.905-3.905 10.237 0 14.143 1.953 1.951 4.512 2.927 7.071 2.927s5.119-.976 7.071-2.929L289.115 102.79l37.28 37.28c3.905 3.905 10.237 3.905 14.143 0L446.466 34.143v33.81c0 5.523 4.477 10 10 10s10-4.477 10-10V11c0-.163-.017-.322-.024-.484z"/><circle cx="75.64" cy="303.31" r="10"/></symbol><symbol viewBox="0 0 67 76" id="icon-del"><path d="M62.553 7.125H43.876V5.987C43.876 2.686 41.194 0 37.898 0h-8.796c-3.296 0-5.978 2.686-5.978 5.987v1.138H4.447A4.455 4.455 0 0 0 0 11.578v7.719c0 .82.664 1.484 1.482 1.484h2.076v15.982a1.483 1.483 0 1 0 2.964 0V20.781h19.831a1.483 1.483 0 0 0 0-2.968H2.965v-6.235c0-.818.665-1.484 1.482-1.484h58.107c.816 0 1.481.666 1.481 1.484v6.235H40.004a1.484 1.484 0 0 0 0 2.968h20.474v46.61c0 3.11-2.527 5.64-5.633 5.64h-42.69c-3.106 0-5.633-2.53-5.633-5.64V51.409a1.484 1.484 0 1 0-2.964 0V67.39c0 4.747 3.856 8.609 8.597 8.609h42.69c4.74 0 8.598-3.862 8.598-8.61V20.782h2.075c.818 0 1.482-.665 1.482-1.484v-7.719a4.455 4.455 0 0 0-4.447-4.453zm-21.642 0H26.088V5.987a3.02 3.02 0 0 1 3.014-3.018h8.796a3.02 3.02 0 0 1 3.013 3.018v1.138z"/><path d="M34.548 19.138a1.492 1.492 0 0 0-1.048-.435c-.39 0-.772.159-1.048.435s-.434.66-.434 1.05.158.773.434 1.049c.276.276.658.435 1.048.435s.772-.159 1.048-.435.434-.66.434-1.05-.158-.773-.434-1.049zm-16.464 6.69a5.049 5.049 0 0 0-5.04 5.047v32.063a5.049 5.049 0 0 0 5.04 5.046 5.049 5.049 0 0 0 5.04-5.047V30.875a5.049 5.049 0 0 0-5.04-5.047zm2.075 37.11c0 1.145-.93 2.078-2.075 2.078a2.079 2.079 0 0 1-2.075-2.078V30.875c0-1.146.93-2.078 2.075-2.078 1.144 0 2.075.932 2.075 2.078v32.063zm13.36-37.11a5.049 5.049 0 0 0-5.04 5.047v32.063a5.049 5.049 0 0 0 5.04 5.046 5.049 5.049 0 0 0 5.04-5.047V30.875a5.049 5.049 0 0 0-5.04-5.047zm2.075 37.11c0 1.145-.93 2.078-2.075 2.078a2.079 2.079 0 0 1-2.075-2.078V30.875c0-1.146.93-2.078 2.075-2.078 1.144 0 2.075.932 2.075 2.078v32.063zm13.36-37.11a5.049 5.049 0 0 0-5.04 5.047v32.063a5.049 5.049 0 0 0 5.04 5.046 5.049 5.049 0 0 0 5.04-5.047V30.875a5.049 5.049 0 0 0-5.04-5.047zm2.075 37.11a2.08 2.08 0 0 1-2.075 2.078 2.079 2.079 0 0 1-2.076-2.078V30.875c0-1.146.931-2.078 2.076-2.078 1.144 0 2.075.932 2.075 2.078v32.063zM6.088 43.234a1.492 1.492 0 0 0-1.048-.435c-.39 0-.772.158-1.048.435a1.489 1.489 0 0 0 1.048 2.534 1.486 1.486 0 0 0 1.048-2.534z"/></symbol><symbol viewBox="0 0 512 512" id="icon-diamond"><path d="M256 156c-5.52 0-10 4.48-10 10s4.48 10 10 10 10-4.48 10-10-4.48-10-10-10z"/><path d="M511.996 165.917a9.874 9.874 0 0 0-.04-.788c-.005-.056-.005-.113-.01-.169a10.284 10.284 0 0 0-.138-.907c-.026-.131-.061-.257-.092-.386-.041-.172-.082-.344-.132-.514-.042-.141-.091-.279-.139-.418a9.75 9.75 0 0 0-.168-.46 11.226 11.226 0 0 0-.389-.849 10.047 10.047 0 0 0-.707-1.169 10.45 10.45 0 0 0-.3-.401c-.09-.115-.179-.229-.273-.339-.038-.045-.071-.093-.111-.137l-106-120c-.025-.028-.053-.052-.078-.079a9.898 9.898 0 0 0-.518-.527c-.067-.064-.131-.132-.2-.194a9.65 9.65 0 0 0-.662-.543c-.044-.033-.085-.071-.13-.103a10.09 10.09 0 0 0-.852-.56l-.011-.007a10.092 10.092 0 0 0-1.882-.852l-.016-.004c-.1-.033-.204-.055-.305-.085-.234-.07-.469-.14-.704-.192-.081-.018-.165-.027-.247-.042a10.172 10.172 0 0 0-.785-.127c-.081-.009-.163-.01-.244-.017a9.667 9.667 0 0 0-.795-.042l-.066-.003H116c-.023 0-.046.003-.07.004-.257.002-.516.02-.775.042-.088.008-.176.009-.264.018-.254.029-.507.074-.761.123-.09.017-.181.027-.27.046-.23.051-.46.12-.689.188-.105.031-.214.054-.318.088l-.016.004c-.669.223-1.297.511-1.882.852l-.011.007c-.296.173-.579.36-.852.56-.045.033-.086.07-.13.104-.228.173-.45.352-.661.542-.069.063-.134.131-.201.195a9.86 9.86 0 0 0-.517.526c-.025.028-.053.052-.078.079l-106 120c-.039.044-.072.092-.111.137-.094.11-.184.224-.273.339a10.45 10.45 0 0 0-.3.401 9.872 9.872 0 0 0-1.096 2.018 9.75 9.75 0 0 0-.168.46c-.048.139-.097.277-.139.418-.05.17-.091.342-.132.514-.031.129-.066.256-.092.386a9.64 9.64 0 0 0-.138.907c-.006.056-.006.113-.01.169a9.874 9.874 0 0 0-.04.788c-.002.027-.006.053-.006.082 0 .082.01.162.012.243.005.208.013.415.031.622.011.131.027.26.043.389.023.179.049.357.082.534a9.27 9.27 0 0 0 .208.903c.039.141.078.282.123.42.051.156.111.31.17.465.052.135.101.272.158.404.068.157.147.31.224.464.061.123.117.249.183.369.092.167.197.329.299.492.063.1.12.204.186.302.17.25.352.495.547.733l.01.012.012.015L248.266 472.34c.021.025.045.047.066.072.214.255.436.502.673.733.027.027.057.051.085.077a9.969 9.969 0 0 0 .874.743c.236.179.478.349.729.506l.08.053c.277.169.564.322.856.464.076.037.153.071.23.106.244.111.493.213.746.304.063.023.124.048.187.069.31.105.626.195.947.27.063.015.127.025.191.038.264.056.531.101.802.135.089.011.177.023.266.032.33.033.663.056 1 .056.337 0 .67-.023 1-.056.089-.009.177-.021.266-.032.27-.034.537-.079.801-.135.064-.013.128-.024.191-.038.321-.074.637-.165.947-.27.063-.021.125-.047.187-.069.253-.092.502-.193.746-.304.077-.035.154-.069.23-.106.292-.142.579-.295.856-.464l.08-.053a10.145 10.145 0 0 0 .944-.674c.227-.182.448-.373.659-.574l.085-.078c.237-.232.46-.478.673-.733.021-.025.045-.046.066-.072l245.978-299.973.012-.015.01-.012c.195-.238.378-.483.547-.733.066-.098.123-.202.186-.302.102-.163.207-.325.299-.492.066-.12.122-.246.183-.369.077-.154.155-.307.224-.464.058-.132.106-.269.158-.404.059-.154.119-.308.17-.465.045-.138.084-.279.123-.42.045-.162.088-.323.125-.487a10.755 10.755 0 0 0 .208-1.339 9.96 9.96 0 0 0 .031-.622c.007-.082.017-.162.017-.243 0-.029-.004-.055-.004-.083zM399.997 65.63L479.824 156h-109.95l30.123-90.37zM382.125 56l-29.936 89.808L277.35 56h104.775zM234.65 56l-74.84 89.808L129.874 56H234.65zm-122.647 9.63L142.126 156H32.176l79.827-90.37zM31.132 176h117.66l80.589 241.768L31.132 176zM256 434.377L169.874 176H216c5.523 0 10-4.477 10-10s-4.477-10-10-10h-38.649L256 61.62 334.649 156H295.06c-5.523 0-10 4.477-10 10s4.477 10 10 10h47.066L256 434.377zm26.618-16.609L363.208 176h117.66l-198.25 241.768z"/></symbol><symbol viewBox="0 0 402 487" id="icon-docs"><path d="M393 289h-38V94.8c0-2.9-1.4-5.5-3.5-7.1l.3-.3L268 3.6l-.3.3c-1.6-2.4-4.3-3.9-7.4-3.9H9C4 0 0 4 0 9v469c0 5 4 9 9 9h337c5 0 9-4 9-9v-42h38c5 0 9-4 9-9V298c0-5-4-9-9-9zM269.3 30.4l55.4 55.4-55.4-.1V30.4zM337 469H18V18h233.3v76.7c0 5 4 9 9 9l76.7.1V289H115c-5 0-9 4-9 9v129c0 5 4 9 9 9h222v33zm47-51H124V307h260v111z"/><path d="M45.3 451.5c-5 0-9-4-9-9v-70.3c0-5 4-9 9-9s9 4 9 9v70.3c0 5-4.1 9-9 9zm0-103.5c-5 0-9-4-9-9v-11.8c0-5 4-9 9-9s9 4 9 9V339c0 5-4.1 9-9 9zm137.009 27.209V403h-15.958v-79.031h26.922c7.816 0 14.04 2.425 18.672 7.274 4.668 4.849 7.002 11.145 7.002 18.889s-2.298 13.859-6.893 18.346c-4.596 4.488-10.965 6.731-19.106 6.731h-10.639zm0-13.298h10.964c3.04 0 5.392-.995 7.057-2.986 1.664-1.99 2.496-4.885 2.496-8.684 0-3.945-.85-7.075-2.551-9.391-1.701-2.352-3.98-3.546-6.839-3.582h-11.127v24.643zM229.64 403v-79.031h20.898c9.227 0 16.573 2.932 22.037 8.794 5.5 5.862 8.305 13.895 8.413 24.1v12.81c0 10.385-2.75 18.545-8.25 24.48-5.464 5.898-13.009 8.847-22.634 8.847H229.64zm15.958-65.732v52.488h4.777c5.319 0 9.065-1.393 11.236-4.18 2.171-2.822 3.311-7.671 3.419-14.546v-13.733c0-7.382-1.031-12.52-3.094-15.415-2.062-2.931-5.572-4.469-10.53-4.614h-5.808zm87.661 33.49h-24.805V403h-15.958v-79.031h43.749v13.299h-27.791v20.246h24.805v13.244z"/></symbol><symbol viewBox="0 0 53 53" id="icon-download"><path d="M42.01 0H11.416v8.658h1.579V1.574h28.36l10.066 10.034v39.818H12.995v-3.831h-1.58V53H53V10.956L42.01 0z"/><path d="M42.472 10.495V4.46h-1.579v7.61h7.633v-1.575h-6.054zm-24.837 21.62V13.8h-1.579v19.888h2.351l-7.582 9.003-7.47-9.003h2.229V13.801h-1.58v18.314H0L10.816 45.15l10.98-13.036h-4.16zM5.584 10.757h-1.58v1.575h1.58v-1.575zm12.052 0h-1.58v1.575h1.58v-1.575zm28.258 18.839H25.576v1.574h20.318v-1.574zm0 4.723H25.576v1.574h20.318V34.32zM32.63 39.041h-7.054v1.575h7.053V39.04zm3.158 0h-1.58v1.575h1.58V39.04zm6.317 0h-1.58v1.575h1.58V39.04zm-3.159 0h-1.58v1.575h1.58V39.04zm6.948-14.168H20.627v1.574h25.267v-1.574zm0-4.723H20.627v1.575h25.267V20.15zm0-4.722H20.627v1.574h25.267v-1.574z"/><path d="M11.416 18.734h-1.58v1.574h1.58v-1.574zm0-3.149h-1.58v1.574h1.58v-1.574zm0 6.297h-1.58v1.574h1.58v-1.574zm0 9.446h-1.58v1.574h1.58v-1.574zm0-3.148h-1.58v1.573h1.58V28.18zm0-3.15h-1.58v1.575h1.58V25.03z"/></symbol><symbol viewBox="0 0 324.958 324.958" id="icon-edit"><path d="M310.399 104.002c21.42-21.419 18.911-58.779-5.592-83.282-24.285-24.284-60.956-27.251-82.537-6.975a5.945 5.945 0 0 0-1.124.876L13.98 222.015a6.04 6.04 0 0 0-.698.854c-.073.107-.131.219-.196.329a5.892 5.892 0 0 0-.329.624c-.059.132-.11.266-.158.4-.076.209-.138.42-.189.637-.032.137-.066.273-.089.411-.012.066-.034.13-.043.197L.052 317.856a5.999 5.999 0 0 0 6.687 6.741l92.99-11.547c.074-.009.145-.034.219-.046.146-.023.289-.057.434-.091a6.385 6.385 0 0 0 1.035-.346 6.12 6.12 0 0 0 .616-.324c.113-.067.228-.126.337-.201.307-.209.6-.44.865-.706l181.02-181.218.015-.012.012-.015 25.81-25.838c.099-.087.211-.155.307-.251zm-14.077-74.798c18.107 18.108 21.759 44.485 9.502 61.678l-71.486-71.555c17.216-12.197 43.715-8.39 61.984 9.877zM98.99 298.606l-14.14-14.152L257.41 111.71l14.137 14.15L98.99 298.606zm-48.51 8.468L17.898 274.47l4.68-35.369 13.759 13.773c.052.056.089.12.143.174.053.053.116.089.171.139l49.421 49.468-35.592 4.419zm25.889-31.11l-27.152-27.178L221.775 76.041l27.153 27.18L76.369 275.964zm-35.634-35.667l-14.029-14.043L199.263 53.508l14.03 14.044L40.735 240.297zm-24.82 49.164l19.473 19.486-22.42 2.784 2.947-22.27zm264.112-172.09l-72.283-72.353 17.648-17.667 72.283 72.353-17.648 17.667z"/></symbol><symbol viewBox="0 0 404 404" id="icon-flag"><path d="M245.975 175.6c-4.4 0-8 3.6-8 8v12c0 4.4 3.6 8 8 8s8-3.6 8-8v-12c0-4.4-3.6-8-8-8z"/><path d="M362.775 175.6l34-85.6c2-4.8 1.6-10.4-1.2-14.8-2.8-4.8-8-7.2-13.2-7.2h-128.4v-8c0-22-18-40-40-40h-136V8c0-4.4-3.6-8-8-8s-8 3.6-8 8v380h-48c-4.4 0-8 3.6-8 8s3.6 8 8 8h112c4.4 0 8-3.6 8-8s-3.6-8-8-8h-48V227.6h112.4v8c0 22 18 40 40 40h151.6c5.6 0 10.4-2.8 13.2-7.2 3.2-4.8 3.6-10.4 1.2-15.2l-33.6-77.6zm-132.4 84c-13.2 0-24-10.8-24-24v-16c0-4.4-3.6-8-8-8-.8 0-1.2 0-2 .4-.8 0-1.2-.4-2-.4h-116.4v-176h136c13.2 0 24 10.8 24 24v88c0 4.4 3.6 8 8 8s8-3.6 8-8v-64h128v.4l-35.2 88.8c-.8 2-.8 4 0 6l35.2 80.8h-151.6z"/></symbol><symbol viewBox="0 0 480 485" id="icon-func"><path d="M189.6 362.5h-42.7c-2.8 0-5-2.2-5-5V337c-10.8-2.7-21.1-7.1-30.6-13l-14.7 14.7c-.9.9-2.2 1.5-3.5 1.5s-2.6-.5-3.5-1.5l-30.2-30.2c-2-2-2-5.1 0-7.1l15.2-15.2c-5.5-9.4-9.6-19.5-12-30.1h-22c-2.8 0-5-2.2-5-5v-42.7c0-2.8 2.2-5 5-5h22.5c2.7-10.3 6.8-20.1 12.3-29.1l-16.1-16.1c-2-2-2-5.1 0-7.1l30.2-30.2c2-2 5.1-2 7.1 0l16.3 16.3c9.1-5.4 18.8-9.5 29-12v-23c0-2.8 2.2-5 5-5h42.7c2.8 0 5 2.2 5 5v22.7c10.3 2.5 20.2 6.5 29.4 11.9l15.8-15.8c.9-.9 2.2-1.5 3.5-1.5s2.6.5 3.5 1.5l30.2 30.2c.9.9 1.5 2.2 1.5 3.5s-.5 2.6-1.5 3.5l-15.4 15.4c5.8 9.3 10.1 19.3 12.8 29.9h21.3c2.8 0 5 2.2 5 5v42.7c0 2.8-2.2 5-5 5H275c-2.6 10.9-6.7 21.2-12.5 30.9l14.4 14.4c2 2 2 5.1 0 7.1L247 338.8c-.9.9-2.2 1.5-3.5 1.5s-2.6-.5-3.5-1.5l-14.2-14.2c-9.7 5.9-20.1 10.2-31 12.8v20.2c-.2 2.7-2.4 4.9-5.2 4.9zm-37.7-10h32.7v-19.2c0-2.4 1.7-4.4 4-4.9 12.5-2.5 24.3-7.4 35-14.5 2-1.3 4.6-1 6.3.6l13.5 13.5 23.1-23.1-13.7-13.7c-1.7-1.7-1.9-4.3-.7-6.3 6.9-10.7 11.7-22.4 14.1-34.8.5-2.3 2.5-4 4.9-4h19.7v-32.7h-20.2c-2.3 0-4.4-1.6-4.9-3.9-2.7-12.2-7.6-23.6-14.5-33.9-1.3-2-1.1-4.6.6-6.3l14.7-14.7-23.1-23.1-15.1 15.1c-1.7 1.7-4.2 1.9-6.2.7-10.3-6.6-21.6-11.1-33.5-13.5-2.3-.5-4-2.5-4-4.9v-21.7h-32.7v22c0 2.4-1.6 4.4-4 4.9-11.8 2.5-22.9 7.1-33 13.7-2 1.3-4.6 1-6.3-.7L93 131.5l-23.1 23.1L85.3 170c1.7 1.7 1.9 4.3.6 6.3-6.7 10.1-11.4 21.3-14.1 33.2-.5 2.3-2.5 3.9-4.9 3.9H45.6v32.7h20.9c2.4 0 4.4 1.7 4.9 4 2.4 12.1 7 23.6 13.6 34.1 1.3 2 1 4.6-.7 6.2L69.9 305 93 328.1l14-14c1.7-1.7 4.3-1.9 6.3-.6 10.5 7.1 22.1 12 34.5 14.7 2.3.5 4 2.5 4 4.9v19.4zm16.4-66.3c-31 0-56.3-25.3-56.3-56.3 0-31 25.3-56.3 56.3-56.3s56.3 25.3 56.3 56.3c-.1 31-25.3 56.3-56.3 56.3zm0-102.6c-25.5 0-46.3 20.8-46.3 46.3 0 25.5 20.8 46.3 46.3 46.3s46.3-20.8 46.3-46.3c-.1-25.6-20.8-46.3-46.3-46.3zM377.5 315V37.1h-10.3V3h-151v34.1h-10V77c0 2.8 2.2 5 5 5s5-2.2 5-5V47.1h151.3V315h-47.9c-2.8 0-5 2.2-5 5s2.2 5 5 5h92v44c0 2.8 2.2 5 5 5s5-2.2 5-5v-54h-44.1zM226.2 13h131v24.1h-131V13zm213.2 459h-4.7c6-7.7 9.7-19.4 9.7-32.6 0-23.9-12.2-42.5-27.9-42.5s-27.9 18.7-27.9 42.5c0 13.2 3.7 24.8 9.7 32.6h-99.9V354.1c0-2.8-2.2-5-5-5s-5 2.2-5 5V472h-68.2v-88.6c0-2.8-2.2-5-5-5s-5 2.2-5 5V472h-63.1c5.6-7.7 9.1-19.4 9.1-32.6 0-23.9-11.4-42.5-26.1-42.5S104 415.6 104 439.4c0 13.2 3.5 24.8 9.1 32.6H88.7c5.3-7.7 8.6-19.4 8.6-32.6 0-23.9-10.9-42.5-24.7-42.5-13.9 0-24.7 18.7-24.7 42.5 0 13.2 3.3 24.8 8.6 32.6h-16c-2.8 0-5 2.2-5 5s2.2 5 5 5h398.8c2.8 0 5-2.2 5-5s-2.1-5-4.9-5zm-325.1-32.5c0-19.2 8.5-32.5 16.1-32.5s16.1 13.4 16.1 32.5c0 19.2-8.5 32.6-16.1 32.6s-16.1-13.4-16.1-32.6zm-56.4 0c0-18.6 7.8-32.5 14.7-32.5 6.9 0 14.7 13.9 14.7 32.5S79.6 472 72.6 472c-6.9 0-14.7-13.9-14.7-32.5zm340.8 0c0-17.6 8.2-32.5 17.9-32.5s17.9 14.9 17.9 32.5-8.2 32.6-17.9 32.6-17.9-15-17.9-32.6zm-127 6h-10v-15.2h10v15.2zm-25.1 0h-10v-15.2h10v15.2zm108.9-25.8h-10v-15.2h10v15.2zm-83.8-6.5h-10V398h10v15.2zm-25.1 0h-10V398h10v15.2zm130.8-25.9h-10v-15.2h10v15.2zm-21.9 0h-10v-15.2h10v15.2zm-83.8-6.5h-10v-15.2h10v15.2zM398.6 355h-10v-15.2h10V355zm-21.2 0h-10v-15.2h10V355zm-21.9 0h-10v-15.2h10V355zm-4.4-77.6h-10v-15.2h10v15.2zm0-32.4h-10v-15.2h10V245zm0-32.4h-10v-15.2h10v15.2zm0-32.3h-10V165h10v15.3zm-25.1 0h-10V165h10v15.3zm25.1-32.4h-10v-15.2h10v15.2zm-25.1 0h-10v-15.2h10v15.2zm25.1-32.4h-10v-15.2h10v15.2zm-25.1 0h-10v-15.2h10v15.2zm-25.1 0h-10v-15.2h10v15.2zM326 83.1h-10V67.9h10v15.2zm-25.1 0h-10V67.9h10v15.2zm-25 0h-10V67.9h10v15.2zm-25.1 0h-10V67.9h10v15.2z"/></symbol><symbol viewBox="6 -6 512 512" id="icon-interiors"><path d="M380.9 399.6v-82c0-12.3-10-22.3-22.3-22.3H71c-12.3 0-22.3 10-22.3 22.3v82c-9.2 3.1-15.9 11.9-15.9 22.1 0 12.9 10.5 23.4 23.4 23.4h317.2c12.9 0 23.4-10.5 23.4-23.4-.1-10.2-6.7-18.9-15.9-22.1zm-317.2-82c0-4 3.3-7.3 7.3-7.3h287.6c4 0 7.3 3.3 7.3 7.3v80.8H63.7v-80.8zm309.7 112.5H56.2c-4.6 0-8.4-3.8-8.4-8.4 0-4.6 3.8-8.4 8.4-8.4h317.2c4.6 0 8.4 3.8 8.4 8.4-.1 4.7-3.8 8.4-8.4 8.4zm22.3-106h-6.5v15h6.5c8.5 0 8.5 2 8.5 4.8v100.2c0 6.8-4.6 14.9-8.5 14.9H33.9c-4.4 0-10.5-8.6-10.5-14.9V343.9c0-1.6 0-4.8 10.5-4.8h6.5v-15h-6.5c-6.7 0-12.2 1.2-16.3 3.6-5.9 3.4-9.2 9.2-9.2 16.3v100.2c0 6.3 2.6 13.5 6.9 19.3 5.1 6.8 11.8 10.6 18.6 10.6h6.5v32h15v-32h325.9v32h15v-32c14.8-.4 23-17.8 23-29.9V343.9c-.1-7.4-3.2-19.8-23.6-19.8zm-307.4 16h16v15h-16v-15zm236.9 0h17v15h-17v-15zm-117.9 0h16v15h-16v-15zM9.1 167.6H254V-6H9.1v173.6zM24.1 9h215v143.6h-215V9zm8.8 8.8v126h197.4v-126H32.9zm182.3 111H47.8v-96h167.4v96zm47.6 39.6v110.1h141.9V168.4H262.8zm126.9 95.2H277.8v-80.2h111.9v80.2zm-103.1-71.4v62.6h94.3v-62.6h-94.3zm79.3 47.6h-64.3v-32.6h64.3v32.6zM333.7 25.7c-34.7 0-63 28.3-63 63s28.3 63 63 63 63-28.3 63-63-28.2-63-63-63zm7.5 110.4v-8h-15v8c-20.2-3.2-36.2-19-39.8-39h8.8v-15h-9.1c2.9-20.9 19.3-37.6 40-40.8v10.8h15V41.3c20.8 3.3 37.2 19.9 40 40.8H371v15h9.8c-3.4 20.1-19.4 35.9-39.6 39zm-15-72v18h-25v15h40v-33h-15zm150 402.7V290.1h-15v176.7h-39.8v38.8h94.3v-38.8h-39.5zm24.5 23.7h-64.3v-8.8h64.3v8.8zM437.2 97.1v173.6h23.9v12.4h15v-12.4h23.6V97.1h-62.5zm47.6 135h-23.6v15h23.6v8.6h-32.6V112.1h32.6v120zM98.5 67.6l15.9-15.9L125 62.3l-15.9 15.9-10.6-10.6zm0 31.7L154 43.8l10.6 10.6-55.5 55.5-10.6-10.6zm39.6 0L154 83.4 164.6 94l-15.9 15.9-10.6-10.6z"/></symbol><symbol viewBox="0 0 480 480" id="icon-journal"><path d="M208 136h-40a8 8 0 0 0-8 8v40a8 8 0 0 0 8 8h40a8 8 0 0 0 8-8v-40a8 8 0 0 0-8-8zm-8 40h-24v-24h24v24zm168-40H240a8 8 0 0 0 0 16h128a8 8 0 0 0 0-16zm-64 40h-64a8 8 0 0 0 0 16h64a8 8 0 0 0 0-16zm-96 56h-40a8 8 0 0 0-8 8v40a8 8 0 0 0 8 8h40a8 8 0 0 0 8-8v-40a8 8 0 0 0-8-8zm-8 40h-24v-24h24v24zm168-40H240a8 8 0 0 0 0 16h128a8 8 0 0 0 0-16zm-160 96h-40a8 8 0 0 0-8 8v40a8 8 0 0 0 8 8h40a8 8 0 0 0 8-8v-40a8 8 0 0 0-8-8zm-8 40h-24v-24h24v24zm168-40H240a8 8 0 0 0 0 16h128a8 8 0 0 0 0-16z"/><path d="M352 32h-40v-8c0-13.255-10.745-24-24-24h-48c-13.255 0-24 10.745-24 24v8h-40a8 8 0 0 0-8 8v16h-56a8 8 0 0 0-8 8v336a8 8 0 0 0 16 0V72h48v16a8 8 0 0 0 8 8h112a8 8 0 0 0 0-16H184V48h40a8 8 0 0 0 8-8V24a8 8 0 0 1 8-8h48a8 8 0 0 1 8 8v16a8 8 0 0 0 8 8h40v32h-24a8 8 0 0 0 0 16h32a8 8 0 0 0 8-8V40a8 8 0 0 0-8-8zm64 24h-40a8 8 0 0 0 0 16h32v80a8 8 0 0 0 16 0V64a8 8 0 0 0-8-8zm0 120a8 8 0 0 0-8 8v8a8 8 0 0 0 16 0v-8a8 8 0 0 0-8-8z"/><path d="M416 216a8 8 0 0 0-8 8v224c0 8.837-7.163 16-16 16s-16-7.163-16-16v-16a8 8 0 0 0-8-8H64a8 8 0 0 0-8 8v16c0 17.673 14.327 32 32 32h264a8 8 0 0 0 0-16H88c-8.837 0-16-7.163-16-16v-8h288v8c0 17.673 14.327 32 32 32 17.673 0 32-14.327 32-32V224a8 8 0 0 0-8-8zm-72-40h-8a8 8 0 0 0 0 16h8a8 8 0 0 0 0-16z"/><path d="M304 272h-64a8 8 0 0 0 0 16h64a8 8 0 0 0 0-16zm40 0h-8a8 8 0 0 0 0 16h8a8 8 0 0 0 0-16zm-40 96h-64a8 8 0 0 0 0 16h64a8 8 0 0 0 0-16zm40 0h-8a8 8 0 0 0 0 16h8a8 8 0 0 0 0-16z"/></symbol><symbol viewBox="0 0 448 448" id="icon-lift"><path d="M296 16H24C10.767 16 0 26.767 0 40v368c0 13.233 10.767 24 24 24h272c13.233 0 24-10.767 24-24V40c0-13.233-10.767-24-24-24zm8 392c0 4.411-3.589 8-8 8H168V88a8 8 0 0 0-16 0v328H24c-4.411 0-8-3.589-8-8V40c0-4.411 3.589-8 8-8h128v24a8 8 0 0 0 16 0V32h128c4.411 0 8 3.589 8 8v368zm130.343-109.657L408 324.686V144a8 8 0 0 0-16 0v180.686l-26.343-26.343a8 8 0 0 0-11.314 11.314l40 40c.054.054.114.101.169.153.135.127.27.255.414.374.106.088.219.165.328.246.1.074.197.152.301.221.122.082.248.152.373.227.099.059.196.122.298.176.124.067.252.123.379.183.11.052.219.107.332.154.121.05.245.091.368.135.124.044.245.092.372.13.122.037.245.063.368.095.13.033.259.069.391.095.141.028.283.045.425.065.116.017.231.039.349.05a8.006 8.006 0 0 0 1.58 0c.118-.012.233-.034.349-.05.142-.02.284-.037.425-.065.133-.026.261-.063.391-.095.123-.031.247-.058.368-.095.126-.039.248-.086.372-.13.123-.044.247-.084.368-.135.113-.047.222-.102.332-.154.127-.06.254-.116.379-.183.102-.055.199-.117.298-.176.125-.074.251-.145.373-.227.104-.069.201-.147.301-.221.11-.081.222-.158.328-.246.144-.118.279-.246.414-.374.056-.052.115-.099.169-.153l40-40a8 8 0 0 0-11.314-11.314z"/><path d="M360 152a7.974 7.974 0 0 0 5.657-2.343L400 115.315l34.343 34.343c1.563 1.562 3.609 2.343 5.657 2.343s4.095-.781 5.657-2.343a8 8 0 0 0 0-11.314l-40-40a8.003 8.003 0 0 0-11.314 0l-40 40A8 8 0 0 0 360 152z"/></symbol><symbol viewBox="0 0 97 68" id="icon-play"><path d="M95.201 10.862c-1.186-5.152-5.4-8.953-10.473-9.52C72.715 0 60.556-.006 48.453 0 36.348-.006 24.187 0 12.174 1.34c-5.07.568-9.281 4.369-10.467 9.52C.019 18.2 0 26.209 0 33.762c0 7.555 0 15.563 1.688 22.899 1.184 5.15 5.396 8.952 10.469 9.52 12.012 1.342 24.172 1.349 36.277 1.342 12.107.007 24.264 0 36.275-1.342 5.07-.567 9.285-4.368 10.471-9.52 1.689-7.337 1.695-15.345 1.695-22.898 0-7.554.014-15.563-1.674-22.9zM35.936 48.798V16.76a497491.15 497491.15 0 0 0 30.798 16.068c-10.3 5.342-20.504 10.63-30.798 15.969z"/><path d="M35.936 16.76v32.038l30.798-15.97a497491.15 497491.15 0 0 1-30.798-16.067z"/><path d="M35.936 16.76v32.038l30.798-15.97a497491.15 497491.15 0 0 1-30.798-16.067z"/><path d="M38 19v28c9.025-4.665 17.97-9.288 27-13.957-9.058-4.71-18-9.361-27-14.043z" fill="#F2F2F2"/></symbol><symbol viewBox="0 0 480 480" id="icon-print"><path d="M472 160h-40v-56a8 8 0 0 0-8-8h-24V8a8 8 0 0 0-8-8H88a8 8 0 0 0-8 8v88H56a8 8 0 0 0-8 8v56H8a8 8 0 0 0-8 8v224a8 8 0 0 0 8 8h72v72a8 8 0 0 0 8 8h304a8 8 0 0 0 8-8v-72h72a8 8 0 0 0 8-8V168a8 8 0 0 0-8-8zm-72-48h16v48h-16v-48zM96 16h288v144H96V16zm-32 96h16v48H64v-48zm16 240h-8v-24h8v24zm304 112H96V328h288v136zm80-80h-64v-16h16a8 8 0 0 0 8-8v-40a8 8 0 0 0-8-8H64a8 8 0 0 0-8 8v40a8 8 0 0 0 8 8h16v16H16V176h448v208zm-64-32v-24h8v24h-8z"/><path d="M176 352h176v16H176zm-48 32h224v16H128zm0 32h176v16H128zm0-64h32v16h-32zm-24-160H40a8 8 0 0 0-8 8v32a8 8 0 0 0 8 8h64a8 8 0 0 0 8-8v-32a8 8 0 0 0-8-8zm-8 32H48v-16h48v16zm32 0h80v16h-80zm96 0h16v16h-16z"/></symbol><symbol viewBox="0 0 16 17" id="icon-search"><path d="M15.757 15.484l-3.944-4.208a6.949 6.949 0 0 0 1.57-4.412C13.382 3.079 10.38 0 6.69 0 3.001 0 0 3.08 0 6.864s3.002 6.863 6.691 6.863a6.505 6.505 0 0 0 3.834-1.242l3.974 4.24a.856.856 0 0 0 1.234.025.913.913 0 0 0 .024-1.266zM6.69 1.791c2.727 0 4.946 2.275 4.946 5.073 0 2.797-2.219 5.073-4.946 5.073S1.746 9.66 1.746 6.864c0-2.798 2.218-5.073 4.945-5.073z"/></symbol><symbol viewBox="0 0 480 485" id="icon-security"><path d="M457.2 63.4L243.9 3.1l-1.4-.4L24.1 63.4l51.2 311.2 1.3 1.2c2.3 2.1 57.5 52.6 77.8 65.6 20.8 13.4 83.9 39.1 86.6 40.2l1.9.8 1.9-.8c2.8-1.2 67.8-28.9 89.2-42.9 18.9-12.4 70.1-60.9 72.2-62.9l1.2-1.2 49.8-311.2zM328.5 430.2c-16.7 11-63.5 31.6-80.9 39.2v-23.1c12.2-5.3 57.2-24.9 73.3-35.5 16.2-10.6 60-52.1 61.9-53.9l1.2-1.2 42.7-266.9-30.3-8.6c-2.7-.8-5.5.8-6.2 3.5-.8 2.7.8 5.5 3.5 6.2l21.7 6.1-40.7 254.7c-7.3 6.9-45.2 42.4-59.2 51.6-15.7 10.3-62.7 30.7-72.8 35.1-2.7-1.1-7.8-3.2-14.3-6-2.6-1.1-5.5.1-6.6 2.7-1.1 2.6.1 5.5 2.7 6.6 5.6 2.4 10.3 4.3 13.2 5.5v22.9c-17.5-7.3-61.7-26.1-77.6-36.3-17.9-11.5-66.6-55.6-75.1-63.4L35.6 70.7l201.9-56.1V38L54.7 88.8l44 267 1.3 1.2c2 1.8 49.3 45 66.6 56.2 5.1 3.3 13.7 7.8 25.6 13.3.7.3 1.4.5 2.1.5 1.9 0 3.7-1.1 4.6-2.9 1.2-2.5.1-5.5-2.4-6.7-11.5-5.4-19.7-9.6-24.4-12.7-15.1-9.7-56.2-46.9-64-54l-42-254.6 176.1-48.9 118.5 33.5c2.7.8 5.5-.8 6.2-3.5.8-2.7-.8-5.5-3.5-6.2L247.6 38.2V14.7l198.2 56L398 369.6c-8 7.6-53 49.8-69.5 60.6z"/><path d="M240 304.2c-1.3 0-2.6-.5-3.5-1.5l-69.9-69.9c-.9-.9-1.5-2.2-1.5-3.5V192c0-2 1.2-3.8 3.1-4.6 1.9-.8 4-.3 5.4 1.1l66.3 66.3 97.1-97.1c1.4-1.4 3.6-1.9 5.4-1.1 1.9.8 3.1 2.6 3.1 4.6v37.3c0 1.3-.5 2.6-1.5 3.5L243.5 302.7c-1 1-2.2 1.5-3.5 1.5zm-64.9-77l64.9 64.9 95.6-95.6v-23.2l-92.1 92.1c-2 2-5.1 2-7.1 0L175.1 204v23.2z"/></symbol><symbol viewBox="0 0 122 154" id="icon-upload"><path d="M51.369 19.25H19.263v6.417H51.37V19.25zM25.684 32.084h-6.42V38.5h6.42v-6.416zm12.842 0h-6.42V38.5h6.42v-6.416z"/><path d="M121.059 26.607L95.375.94a3.212 3.212 0 0 0-2.27-.94H9.633C4.312 0 0 4.31 0 9.625v134.75C0 149.691 4.312 154 9.632 154h102.736c5.32 0 9.632-4.309 9.632-9.625v-115.5c0-.85-.338-1.667-.941-2.268zm-5.48 117.768a3.209 3.209 0 0 1-3.211 3.208H9.632a3.21 3.21 0 0 1-3.211-3.208V9.625a3.21 3.21 0 0 1 3.21-3.208h82.145l23.803 23.786v114.172z"/><path d="M99.526 25.666a3.21 3.21 0 0 1-3.21-3.208V3.208h-6.421v19.25c0 5.316 4.312 9.625 9.631 9.625h6.421v-6.417h-6.42zm-9.631 35.293H54.579v6.416h38.527v-3.208a3.21 3.21 0 0 0-3.211-3.208z"/><path d="M96.316 70.584H57.789v-9.625a6.419 6.419 0 0 0-6.42-6.417H25.684a6.419 6.419 0 0 0-6.42 6.417v67.375a6.419 6.419 0 0 0 6.42 6.416h22.474v-6.416H25.684V60.959H51.37v12.833A3.21 3.21 0 0 0 54.579 77h41.737v51.334H73.842v6.416h22.474a6.419 6.419 0 0 0 6.421-6.416V77a6.419 6.419 0 0 0-6.421-6.416z"/><path d="M54.58 70.584H41.736V77H54.58v-6.416zm8.69 20.189a3.212 3.212 0 0 0-4.54 0l-12.842 12.834 4.54 4.537L61 97.578l10.572 10.565 4.54-4.536L63.27 90.773z"/><path d="M64.21 93.042h-6.42v41.708h6.42V93.042z"/></symbol><symbol viewBox="0 0 512 512" id="icon-wall"><path d="M501.801 245.801H387.908V134.629c0-5.632-4.566-10.199-10.199-10.199h-111.17V10.199C266.539 4.567 261.973 0 256.34 0H10.199C4.566 0 0 4.567 0 10.199v491.602C0 507.433 4.566 512 10.199 512h491.602c5.633 0 10.199-4.567 10.199-10.199V256c0-5.632-4.566-10.199-10.199-10.199zM367.51 144.829v100.972H144.489V144.829H367.51zM20.398 20.398H246.14V124.43H20.398V20.398zm0 124.431H124.09v100.972H20.398V144.829zm0 121.37H246.14v101.652H20.398V266.199zm103.693 225.403H20.398V388.25H124.09v103.352zm243.42 0H144.489V388.25h223.022v103.352zm124.091 0H387.909V388.25h33.318c5.633 0 10.199-4.567 10.199-10.199s-4.566-10.199-10.199-10.199H266.539V266.199h225.063v225.403z"/><path d="M464.064 367.852h-6.12c-5.633 0-10.199 4.567-10.199 10.199s4.566 10.199 10.199 10.199h6.12c5.633 0 10.199-4.567 10.199-10.199s-4.566-10.199-10.199-10.199z"/></symbol><symbol viewBox="0 0 264.5 296.2" id="icon-window"><path d="M260.1 281.1H4.1c-2.3 0-4.1-1.8-4.1-4.1v-26.3c0-2.3 1.8-4.1 4.1-4.1h8.8V21c0-2.3 1.8-4.1 4.1-4.1h231.2c2.3 0 4.1 1.8 4.1 4.1v225.5h7.7c2.3 0 4.1 1.8 4.1 4.1V277c.1 2.2-1.7 4.1-4 4.1zM8.3 272.8H256v-18.1H8.3v18.1zm12.9-26.3h222.9V25.1H21.2v221.4zm211-7.2H32.5c-2.3 0-4.1-1.8-4.1-4.1V36c0-2.3 1.8-4.1 4.1-4.1h199.7c2.3 0 4.1 1.8 4.1 4.1v199.2c.1 2.2-1.8 4.1-4.1 4.1zm-95.4-8.3h91.3v-91.3h-91.3V231zm-100.2 0h91.9v-91.3H36.6V231zm100.2-99.6h91.3V40.1h-91.3v91.3zm-100.2 0h91.9V40.1H36.6v91.3zm18.4-43h-8.3v-7.9H55v7.9zm0-19.8h-8.3V53.3c0-2.3 1.8-4.1 4.1-4.1h16.9v8.3H55v11.1z"/></symbol><symbol viewBox="0 0 34 34" id="inst"><path d="M19.935 11.498c0-.396.324-.72.72-.72h1.809c.396 0 .72.324.72.72v1.724c0 .396-.324.72-.72.72h-1.809a.722.722 0 0 1-.72-.72v-1.724zm1.849 4.268h1.408v6.759c0 .35-.286.636-.636.636H11.414a.638.638 0 0 1-.636-.636v-6.759h1.47a4.673 4.673 0 0 0-.206 1.373c0 2.661 2.227 4.819 4.973 4.819 2.747 0 4.974-2.158 4.974-4.82 0-.476-.072-.937-.205-1.372z"/><path d="M13.802 16.965c0-1.72 1.439-3.113 3.213-3.113 1.775 0 3.214 1.394 3.214 3.113 0 1.72-1.44 3.114-3.214 3.114s-3.213-1.394-3.213-3.114z"/><path fill-rule="evenodd" clip-rule="evenodd" d="M34 0H0v34h34V0zM22.947 9H11.053C9.924 9 9 9.836 9 11.054v11.892C9 24.164 9.924 25 11.054 25h11.893C24.076 25 25 24.164 25 22.946V11.054C25 9.836 24.076 9 22.947 9z"/></symbol><symbol viewBox="0 0 120 8" id="link-more"><path d="M118.896 4.626a.5.5 0 0 0 0-.707L115.714.737a.5.5 0 1 0-.707.707l2.828 2.828-2.828 2.829a.5.5 0 0 0 .707.707l3.182-3.182zM.458 4.772h118.084v-1H.458v1z"/></symbol><symbol viewBox="0 0 371.23 371.23" id="modal-close"><path d="M371.23 21.213L350.018 0 185.615 164.402 21.213 0 0 21.213l164.402 164.402L0 350.018l21.213 21.212 164.402-164.402L350.018 371.23l21.212-21.212-164.402-164.403z"/></symbol><symbol viewBox="0 0 7 4" id="navbar-dropdown"><path d="M3.5 4a.488.488 0 0 1-.347-.144L.143.84a.492.492 0 0 1 0-.695.49.49 0 0 1 .694 0L3.5 2.814 6.163.144a.49.49 0 0 1 .693 0 .492.492 0 0 1 0 .695l-3.01 3.017A.488.488 0 0 1 3.5 4z"/></symbol><symbol viewBox="0 0 34 34" id="ok"><path d="M17 9.585a2.464 2.464 0 0 1 2.472 2.472 2.46 2.46 0 0 1-2.459 2.483 2.465 2.465 0 0 1-2.49-2.453 2.468 2.468 0 0 1 2.478-2.502z"/><path fill-rule="evenodd" clip-rule="evenodd" d="M0 0h34v34H0V0zm16.016 21.087c-1.549-.161-2.946-.543-4.142-1.48l-.087-.067a4.253 4.253 0 0 1-.35-.291c-.523-.503-.576-1.08-.162-1.673.355-.509.95-.644 1.568-.353.12.057.233.128.343.203 2.229 1.533 5.29 1.576 7.528.07.221-.17.458-.31.733-.38.534-.137 1.032.059 1.318.526.328.534.323 1.055-.08 1.47-.619.636-1.363 1.095-2.19 1.416-.781.303-1.637.456-2.485.557l.086.094.015.016c.066.072.112.123.167.178l1.265 1.27c.73.732 1.461 1.465 2.189 2.2.39.396.472.887.257 1.346-.235.503-.762.834-1.278.798-.327-.022-.583-.185-.81-.414-.247-.25-.496-.497-.745-.745l-.11-.11-.028-.028c-.578-.575-1.157-1.15-1.72-1.74-.248-.26-.367-.21-.585.014-.874.9-1.762 1.787-2.655 2.668-.401.395-.878.467-1.343.24-.495-.24-.81-.744-.785-1.252.017-.343.186-.605.421-.84.883-.883 1.764-1.767 2.645-2.652l.766-.767a5.75 5.75 0 0 0 .144-.154l.11-.12zm-4.07-9.037c-.016 2.77 2.25 5.064 5.014 5.073 2.792.01 5.074-2.23 5.088-4.996.014-2.83-2.23-5.12-5.027-5.127-2.791-.008-5.059 2.25-5.075 5.05z"/></symbol><symbol viewBox="0 0 7 13" id="pagin-next"><path d="M6.892 6.76L.641 12.891a.379.379 0 0 1-.53 0 .362.362 0 0 1 0-.52L6.094 6.5.11.63a.362.362 0 0 1 0-.521A.38.38 0 0 1 .374 0a.37.37 0 0 1 .264.109l6.251 6.133a.361.361 0 0 1 .003.517z"/></symbol><symbol viewBox="0 0 7 13" id="pagin-prev"><path d="M.108 6.76l6.251 6.132a.379.379 0 0 0 .53 0 .362.362 0 0 0 0-.52L.906 6.5 6.89.63a.362.362 0 0 0 0-.521A.381.381 0 0 0 6.626 0a.37.37 0 0 0-.264.109L.111 6.242a.361.361 0 0 0-.003.517z"/></symbol><symbol viewBox="0 0 459.325 459.325" id="plus"><path d="M459.319 229.668c0 22.201-17.992 40.193-40.205 40.193H269.85v149.271c0 22.207-17.998 40.199-40.196 40.193-11.101 0-21.149-4.492-28.416-11.763-7.276-7.281-11.774-17.324-11.769-28.419l-.006-149.288H40.181c-11.094 0-21.134-4.492-28.416-11.774C4.501 250.817.006 240.769.006 229.668 0 207.471 17.992 189.475 40.202 189.475h149.267V40.202C189.469 17.998 207.471 0 229.671 0c22.192.006 40.178 17.986 40.19 40.187v149.288h149.282c22.196.012 40.165 17.996 40.176 40.193z"/></symbol><symbol viewBox="0 0 493 410" id="slick-left"><path d="M7.864 223.772l177.68 177.684c5.072 5.072 11.832 7.856 19.04 7.856 7.216 0 13.972-2.788 19.044-7.856l16.132-16.136c5.068-5.064 7.86-11.828 7.86-19.04 0-7.208-2.792-14.2-7.86-19.264L136.104 243.132h329.32c14.848 0 26.58-11.624 26.58-26.476v-22.812c0-14.852-11.732-27.648-26.58-27.648H134.928L239.756 61.732c5.068-5.072 7.86-11.652 7.86-18.864 0-7.204-2.792-13.88-7.86-18.948L223.624 7.836C218.552 2.764 211.796 0 204.58 0c-7.208 0-13.968 2.8-19.04 7.872L7.86 185.552c-5.084 5.088-7.88 11.88-7.86 19.1-.016 7.244 2.776 14.04 7.864 19.12z"/></symbol><symbol viewBox="0 0 493 410" id="slick-right"><path d="M484.14 185.54L306.46 7.856C301.388 2.784 294.628 0 287.42 0c-7.216 0-13.972 2.788-19.044 7.856l-16.132 16.136c-5.068 5.064-7.86 11.828-7.86 19.04 0 7.208 2.792 14.2 7.86 19.264L355.9 166.18H26.58C11.732 166.18 0 177.804 0 192.656v22.812c0 14.852 11.732 27.648 26.58 27.648h330.496L252.248 347.58c-5.068 5.072-7.86 11.652-7.86 18.864 0 7.204 2.792 13.88 7.86 18.948l16.132 16.084c5.072 5.072 11.828 7.836 19.044 7.836 7.208 0 13.968-2.8 19.04-7.872l177.68-177.68c5.084-5.088 7.88-11.88 7.86-19.1.016-7.244-2.776-14.04-7.864-19.12z"/></symbol><symbol viewBox="0 0 480.56 480.56" id="tel"><path d="M365.354 317.9c-15.7-15.5-35.3-15.5-50.9 0-11.9 11.8-23.8 23.6-35.5 35.6-3.2 3.3-5.9 4-9.8 1.8-7.7-4.2-15.9-7.6-23.3-12.2-34.5-21.7-63.4-49.6-89-81-12.7-15.6-24-32.3-31.9-51.1-1.6-3.8-1.3-6.3 1.8-9.4 11.9-11.5 23.5-23.3 35.2-35.1 16.3-16.4 16.3-35.6-.1-52.1-9.3-9.4-18.6-18.6-27.9-28-9.6-9.6-19.1-19.3-28.8-28.8-15.7-15.3-35.3-15.3-50.9.1-12 11.8-23.5 23.9-35.7 35.5-11.3 10.7-17 23.8-18.2 39.1-1.9 24.9 4.2 48.4 12.8 71.3 17.6 47.4 44.4 89.5 76.9 128.1 43.9 52.2 96.3 93.5 157.6 123.3 27.6 13.4 56.2 23.7 87.3 25.4 21.4 1.2 40-4.2 54.9-20.9 10.2-11.4 21.7-21.8 32.5-32.7 16-16.2 16.1-35.8.2-51.8-19-19.1-38.1-38.1-57.2-57.1zm-19.1-79.7l36.9-6.3c-5.8-33.9-21.8-64.6-46.1-89-25.7-25.7-58.2-41.9-94-46.9l-5.2 37.1c27.7 3.9 52.9 16.4 72.8 36.3 18.8 18.8 31.1 42.6 35.6 68.8zm57.7-160.4c-42.6-42.6-96.5-69.5-156-77.8l-5.2 37.1c51.4 7.2 98 30.5 134.8 67.2 34.9 34.9 57.8 79 66.1 127.5l36.9-6.3c-9.7-56.2-36.2-107.2-76.6-147.7z"/></symbol><symbol viewBox="0 0 200 200" id="tw"><path fill-rule="evenodd" clip-rule="evenodd" d="M200 0H0v200h200V0zm-61.779 71.841A40.966 40.966 0 0 0 150 68.611a40.96 40.96 0 0 1-10.26 10.598l.068 2.656c0 27.107-20.627 58.364-58.364 58.364-11.585 0-22.364-3.4-31.444-9.23a43.65 43.65 0 0 0 4.893.281c9.61 0 18.46-3.268 25.476-8.767-8.973-.162-16.547-6.093-19.159-14.247a19.69 19.69 0 0 0 3.862.381c1.875 0 3.687-.256 5.406-.719-9.38-1.887-16.454-10.179-16.454-20.115v-.256a20.515 20.515 0 0 0 9.292 2.575 20.504 20.504 0 0 1-9.123-17.072c0-3.762 1.006-7.286 2.774-10.31C67.084 75.16 82.2 83.326 99.247 84.182c-.35-1.5-.531-3.069-.531-4.674C98.716 68.186 107.9 59 119.23 59c5.906 0 11.23 2.487 14.973 6.48a41.36 41.36 0 0 0 13.035-4.98 20.598 20.598 0 0 1-9.017 11.341z"/></symbol><symbol viewBox="0 0 44 44" id="view"><path fill-rule="evenodd" clip-rule="evenodd" d="M42 2H2v40h40V2zM0 0v44h44V0H0z"/><path d="M22.8 12.8a.8.8 0 0 0-1.6 0v8.4h-8.4a.8.8 0 0 0 0 1.6h8.4v8.4a.8.8 0 0 0 1.6 0v-8.4h8.4a.8.8 0 0 0 0-1.6h-8.4v-8.4z"/></symbol><symbol viewBox="0 0 34 34" id="vk"><path fill-rule="evenodd" clip-rule="evenodd" d="M34 0H0v34h34V0zm-6.2 22.634c.025.04.05.088.08.144.024.06.054.16.079.308.03.145.03.273-.004.39-.03.115-.13.22-.298.316-.164.096-.403.143-.705.143l-3.067.045c-.193.04-.415.02-.671-.056a2.945 2.945 0 0 1-.625-.253l-.24-.136a5.484 5.484 0 0 1-.839-.733 17.85 17.85 0 0 1-.822-.885 3.85 3.85 0 0 0-.73-.665c-.26-.176-.483-.236-.676-.176a.558.558 0 0 0-.096.04.837.837 0 0 0-.206.164 1.59 1.59 0 0 0-.256.337c-.08.132-.147.328-.205.592-.063.26-.088.557-.08.886 0 .116-.013.22-.042.316a.63.63 0 0 1-.088.212l-.046.056c-.143.145-.353.229-.634.253h-1.376a5.646 5.646 0 0 1-1.75-.188 6.914 6.914 0 0 1-1.573-.605c-.449-.248-.86-.5-1.234-.757a7.244 7.244 0 0 1-.843-.657l-.298-.277a6.818 6.818 0 0 1-.331-.344 27.04 27.04 0 0 1-.856-1.041 28.353 28.353 0 0 1-1.272-1.727 33.457 33.457 0 0 1-1.468-2.41A33.371 33.371 0 0 1 5.07 12.8a.906.906 0 0 1-.07-.307.35.35 0 0 1 .038-.184l.046-.069c.122-.144.348-.216.684-.216L9.048 12c.097.016.19.04.278.076a.663.663 0 0 1 .193.096l.059.037a.74.74 0 0 1 .29.364c.159.384.339.777.549 1.185.205.409.369.722.49.933l.194.333c.23.457.457.853.67 1.19.22.336.412.597.584.785.168.188.336.332.495.44.16.108.294.16.407.16a1 1 0 0 0 .323-.055.187.187 0 0 0 .059-.057c.021-.032.071-.116.143-.252a1.73 1.73 0 0 0 .163-.537c.034-.22.072-.529.114-.925.016-.17.025-.252.027-.334.003-.108-.006-.218-.027-.535a5.333 5.333 0 0 0-.11-.833 2.166 2.166 0 0 0-.167-.525l-.072-.136c-.201-.26-.54-.425-1.02-.493-.104-.016-.083-.108.06-.276a1.53 1.53 0 0 1 .453-.345c.423-.2 1.376-.292 2.861-.276.655.008 1.192.056 1.616.149.159.04.293.091.402.155a.65.65 0 0 1 .248.277c.054.116.096.24.126.364.029.128.042.3.042.52 0 .221-.005.434-.013.63-.004.085-.007.078-.011.071-.005-.01-.011-.02-.018.173-.013.34-.017.657-.017.945 0 .085-.004.245-.013.481l-.001.08a9.65 9.65 0 0 0-.003.469c.004.132.017.284.042.464.025.177.071.325.139.445a.74.74 0 0 0 .268.28c.055.01.11.022.167.036l.039.008c.071.017.176-.023.31-.124a3.73 3.73 0 0 0 .457-.392 5.87 5.87 0 0 0 .621-.765c.248-.349.52-.757.814-1.23.483-.793.907-1.65 1.284-2.571a.735.735 0 0 1 .118-.2.515.515 0 0 1 .13-.12l.046-.037.059-.028.155-.036a.48.48 0 0 1 .24-.004l3.448-.024c.31-.04.566-.028.768.028.197.056.323.12.37.188l.07.112c.185.485-.415 1.607-1.795 3.361-.193.244-.454.569-.78.973-.622.761-.983 1.262-1.08 1.498-.133.313-.079.62.169.926.134.16.457.472.969.937h.013l.012.012.013.011.025.025c1.124.997 1.888 1.842 2.287 2.527z"/></symbol></svg>