<?xml version="1.0" encoding="utf-8"?><svg xmlns="http://www.w3.org/2000/svg" xmlns:xlink="http://www.w3.org/1999/xlink"><symbol viewBox="0 0 54.757 54.757" id="contacts-address"><path d="M27.557 12c-3.859 0-7 3.141-7 7s3.141 7 7 7 7-3.141 7-7-3.141-7-7-7zm0 12c-2.757 0-5-2.243-5-5s2.243-5 5-5 5 2.243 5 5-2.243 5-5 5z"/><path d="M40.94 5.617A19.052 19.052 0 0 0 27.38 0a19.05 19.05 0 0 0-13.56 5.617c-6.703 6.702-7.536 19.312-1.804 26.952L27.38 54.757 42.721 32.6c5.755-7.671 4.922-20.281-1.781-26.983zm.159 25.814L27.38 51.243 13.639 31.4C8.44 24.468 9.185 13.08 15.235 7.031 18.479 3.787 22.792 2 27.38 2s8.901 1.787 12.146 5.031c6.05 6.049 6.795 17.437 1.573 24.4z"/></symbol><symbol viewBox="0 0 205.996 205.996" id="contacts-email"><path d="M102.996 61.363c22.958 0 41.635 18.678 41.635 41.635a6 6 0 0 0 12 0c0-29.574-24.061-53.635-53.635-53.635S49.36 73.424 49.36 102.998s24.061 53.635 53.635 53.635c18.99 0 36.745-10.195 46.336-26.607a6 6 0 0 0-10.361-6.055c-7.448 12.745-21.233 20.662-35.976 20.662-22.958 0-41.635-18.678-41.635-41.635s18.679-41.635 41.637-41.635z"/><path d="M205.698 95.053c-3.76-50.059-44.326-90.782-94.359-94.727C81.095-2.059 51.51 8.817 30.163 30.165 8.815 51.513-2.061 81.1.324 111.341c3.931 49.847 44.483 90.399 94.329 94.329 2.747.217 5.484.323 8.214.323 27.329 0 53.553-10.753 72.962-30.161a6 6 0 0 0-8.485-8.486c-18.862 18.861-45.012 28.47-71.747 26.361-44.023-3.471-79.838-39.286-83.31-83.31-2.108-26.735 7.5-52.887 26.361-71.747 18.861-18.861 45.008-28.473 71.747-26.361 44.189 3.483 80.016 39.451 83.337 83.662a93.044 93.044 0 0 1-.397 18.086 19.122 19.122 0 0 1-10.208 14.713c-5.095 2.633-10.819 2.623-15.706-.026a5.996 5.996 0 0 0-8.134 2.415 5.998 5.998 0 0 0 2.415 8.134c8.435 4.573 18.251 4.623 26.933.139a31.108 31.108 0 0 0 16.613-23.935c.812-6.719.963-13.59.45-20.424z"/></symbol><symbol viewBox="0 0 405.333 405.333" id="contacts-tel"><path d="M373.333 266.88c-25.003 0-49.493-3.904-72.725-11.584-11.328-3.904-24.171-.896-31.637 6.699l-46.016 34.752c-52.779-28.16-86.571-61.931-114.389-114.368l33.813-44.928c8.512-8.533 11.563-20.971 7.915-32.64C142.592 81.472 138.667 56.96 138.667 32c0-17.643-14.357-32-32-32H32C14.357 0 0 14.357 0 32c0 205.845 167.488 373.333 373.333 373.333 17.643 0 32-14.357 32-32V298.88c0-17.643-14.357-32-32-32zM384 373.333c0 5.888-4.8 10.667-10.667 10.667-194.091 0-352-157.909-352-352 0-5.888 4.8-10.667 10.667-10.667h74.667c5.867 0 10.667 4.779 10.667 10.667 0 27.243 4.267 53.995 12.629 79.36 1.237 3.989.235 8.107-3.669 12.16l-38.827 51.413a10.665 10.665 0 0 0-.981 11.264c31.637 62.144 70.059 100.587 132.651 132.651 3.605 1.877 8.021 1.493 11.285-.981l52.523-39.808a10.7 10.7 0 0 1 10.859-2.539c25.515 8.427 52.267 12.693 79.531 12.693 5.867 0 10.667 4.779 10.667 10.667v74.453z"/></symbol><symbol viewBox="0 0 26 33" id="docs-pdf"><path d="M25.682 6.934L18.96.313A1.101 1.101 0 0 0 18.19 0H1.423C.738 0 0 .521 0 1.665v30.197c0 .476.486.94 1.062 1.087.029.007.057.018.087.024.09.017.182.027.274.027h23.154c.092 0 .184-.01.274-.027.03-.006.058-.017.087-.024.576-.146 1.062-.61 1.062-1.087V7.953c0-.436-.053-.758-.318-1.019zm-1.742-.106h-4.873v-4.8l4.873 4.8zM1.423 31.862c-.041 0-.078-.015-.114-.028a.26.26 0 0 1-.153-.235v-8.271h23.688v8.27a.261.261 0 0 1-.153.236c-.036.013-.073.028-.114.028H1.423zm-.267-9.672V1.665c0-.124.019-.527.267-.527h16.522a.867.867 0 0 0-.034.222v6.606h6.707a.899.899 0 0 0 .226-.033V22.19H1.156z"/><path d="M8.98 25.458a1.995 1.995 0 0 0-.652-.35 2.385 2.385 0 0 0-.734-.117H5.919v5.733h.949v-2.07h.703c.305 0 .584-.043.837-.131.252-.088.469-.213.648-.373.179-.16.318-.36.419-.596.1-.236.15-.499.15-.79 0-.274-.06-.522-.178-.742a1.834 1.834 0 0 0-.467-.564zm-.36 1.894a.936.936 0 0 1-.228.37.868.868 0 0 1-.312.19 1.059 1.059 0 0 1-.344.058h-.869V25.7h.71c.243 0 .437.038.585.113a.924.924 0 0 1 .506.63 1.726 1.726 0 0 1-.047.91zm6.087-1.521a2.677 2.677 0 0 0-.925-.61c-.371-.153-.802-.23-1.291-.23h-1.754v5.733h2.204c.073 0 .187-.009.34-.027.152-.018.32-.06.505-.125.184-.065.375-.162.573-.292.197-.13.375-.307.533-.533.158-.226.288-.506.391-.84.103-.335.155-.738.155-1.21a2.84 2.84 0 0 0-.182-1 2.519 2.519 0 0 0-.55-.866zm-.691 3.602c-.285.404-.748.606-1.39.606h-.94V25.7h.552c.453 0 .822.058 1.106.175.285.116.51.27.676.459.165.19.277.4.335.634.058.233.087.47.087.707 0 .768-.142 1.355-.426 1.759zm2.796 1.291h.964v-2.582h2.433v-.638h-2.433v-1.805h2.677v-.708h-3.641v5.733zm1.635-17.66c-.53 0-1.182.068-1.94.204-1.057-1.105-2.16-2.719-2.94-4.303.773-3.202.386-3.656.216-3.87-.181-.227-.437-.597-.728-.597a2.89 2.89 0 0 0-.588.098c-.332.11-.511.362-.655.691-.408.941.152 2.544.729 3.78-.493 1.93-1.32 4.241-2.189 6.117-2.19.987-3.353 1.957-3.458 2.883-.038.337.043.831.644 1.276a.937.937 0 0 0 .56.185c.505 0 1.015-.381 1.606-1.199.431-.596.894-1.41 1.377-2.418a27.99 27.99 0 0 1 5.101-1.606c.913.863 1.73 1.3 2.433 1.3.518 0 .961-.234 1.283-.678.334-.461.41-.874.225-1.229-.223-.426-.77-.634-1.676-.634zM8.11 18.568c-.27-.205-.255-.342-.25-.394.037-.316.54-.878 1.775-1.561-.936 1.702-1.44 1.928-1.525 1.955zm4.738-13.042c.024-.008.603.626.055 1.83-.824-.83-.112-1.811-.055-1.83zm-1.195 9.118a40.138 40.138 0 0 0 1.545-4.304 19.476 19.476 0 0 0 2.209 3.155 29.102 29.102 0 0 0-3.754 1.15zm7.454-.273c-.178.246-.564.252-.699.252-.308 0-.423-.18-.894-.538a8.433 8.433 0 0 1 1.047-.061c.513 0 .608.074.679.112a.88.88 0 0 1-.133.236z"/></symbol><symbol viewBox="0 0 139.4 44.7" id="dorohovdesign"><path d="M52.2 19.5V8.1H57c3.6 0 6.1 2.1 6.1 5.7 0 3.5-2.6 5.7-6.1 5.7h-4.8zm7.9-5.7c0-1.8-1.1-3.1-3.1-3.1h-1.9v6.2H57c2 0 3.1-1.4 3.1-3.1m4.1 0c0-3.4 2.6-5.9 6.1-5.9 3.5 0 6.1 2.4 6.1 5.9 0 3.5-2.6 5.9-6.1 5.9-3.5 0-6.1-2.4-6.1-5.9m9.2 0c0-1.9-1.2-3.3-3.1-3.3-1.9 0-3.1 1.4-3.1 3.3 0 1.8 1.2 3.3 3.1 3.3 1.9 0 3.1-1.4 3.1-3.3m11 5.7l-1.9-3.8H81v3.8h-2.9V8.1h5.7c2.5 0 3.9 1.7 3.9 3.8 0 2-1.2 3-2.3 3.4l2.3 4.2h-3.3zm.3-7.6c0-.8-.6-1.2-1.4-1.2H81v2.4h2.3c.8 0 1.4-.4 1.4-1.2m4.2 1.9c0-3.4 2.6-5.9 6.1-5.9 3.5 0 6.1 2.4 6.1 5.9 0 3.5-2.6 5.9-6.1 5.9-3.5 0-6.1-2.4-6.1-5.9m9.1 0c0-1.9-1.2-3.3-3.1-3.3-1.9 0-3.1 1.4-3.1 3.3 0 1.8 1.2 3.3 3.1 3.3 1.9 0 3.1-1.4 3.1-3.3m12.4 5.7v-4.6h-4.7v4.6h-3V8.1h3v4.3h4.7V8.1h2.9v11.4zm4.6-5.7c0-3.4 2.6-5.9 6.1-5.9 3.5 0 6.1 2.4 6.1 5.9 0 3.5-2.6 5.9-6.1 5.9-3.5 0-6.1-2.4-6.1-5.9m9.2 0c0-1.9-1.2-3.3-3.1-3.3-1.9 0-3.1 1.4-3.1 3.3 0 1.8 1.2 3.3 3.1 3.3 1.9 0 3.1-1.4 3.1-3.3m7.3 5.7l-4.3-11.4h3.3l2.8 8.2 2.8-8.2h3.3l-4.2 11.4zm-79.3 17V25.1H57c3.6 0 6.1 2.1 6.1 5.7 0 3.5-2.6 5.7-6.1 5.7h-4.8zm7.9-5.7c0-1.8-1.1-3.1-3.1-3.1h-1.9v6.2H57c2 0 3.1-1.4 3.1-3.1m4.7 5.7V25.1h8.3v2.6h-5.3v1.8H73V32h-5.2v1.9h5.3v2.6zm9.6-1.6l1.5-2.2c.8.8 2.1 1.5 3.6 1.5 1 0 1.6-.4 1.6-.9 0-1.5-6.4-.3-6.4-4.7 0-1.9 1.6-3.6 4.5-3.6 1.8 0 3.4.5 4.6 1.6l-1.6 2.1c-1-.8-2.2-1.2-3.3-1.2-.8 0-1.2.3-1.2.8 0 1.4 6.4.4 6.4 4.6 0 2.3-1.7 3.8-4.7 3.8-2.2 0-3.8-.7-5-1.8m11.5-9.8h2.9v11.3h-2.9zm4.7 5.7c0-3.6 2.8-5.9 6.1-5.9 2.5 0 4.1 1.3 4.8 2.8L99.1 29c-.4-.7-1.3-1.4-2.4-1.4-1.9 0-3.2 1.4-3.2 3.3s1.3 3.3 3.2 3.3c.8 0 1.7-.3 2.1-.7v-.9h-2.6V30h5.5v4.5c-1.2 1.3-2.9 2.2-5 2.2-3.4 0-6.1-2.3-6.1-5.9m20.9 5.7l-4.8-6.6v6.6h-2.9V25.1h3l4.6 6.3v-6.3h2.9v11.4zM17.7 0H0v44.7h17.8c15 0 24.6-8.8 24.6-22.4C42.4 8.7 32.7 0 17.7 0m-.4 35.7h-8V9.5h8c9.3 0 15.7 3.7 15.7 12.7.1 7.5-5.8 13.5-15.7 13.5"/><path d="M19.1 17H17v10.6h2c4 0 6.4-2.4 6.4-5.4 0-3.7-2.6-5.2-6.3-5.2"/></symbol><symbol viewBox="0 0 64 64" id="facilty-agrotehnika"><path d="M14.002 50.316a5.24 5.24 0 0 0-3.745-1.564 5.24 5.24 0 0 0-2.368.562C.754 39.126.73 25.165 7.95 14.953a1.266 1.266 0 0 0-.292-1.757 1.244 1.244 0 0 0-1.743.295C1.93 19.124-.112 25.776.004 32.728c.112 6.616 2.174 12.892 5.971 18.22-1.509 2.086-1.33 5.034.537 6.916a5.26 5.26 0 0 0 3.745 1.56c1.356 0 2.712-.52 3.745-1.56 2.064-2.081 2.064-5.467 0-7.548zm-1.768 5.766a2.784 2.784 0 0 1-3.954 0 2.836 2.836 0 0 1 0-3.985 2.767 2.767 0 0 1 1.977-.825c.746 0 1.449.293 1.976.825a2.836 2.836 0 0 1 0 3.985zm38.761.501a1.243 1.243 0 0 0-1.745-.283 29.019 29.019 0 0 1-11.94 5.124 3.41 3.41 0 0 1-2.82-.747 3.437 3.437 0 0 1-1.224-2.638v-9.234h.109c1.447 0 2.625-1.187 2.625-2.645v-2.127a11.353 11.353 0 0 0 7.25-10.596v-5.965a4.789 4.789 0 0 0 3.5-4.617c0-2.426-1.8-4.435-4.125-4.744v-7.853c0-2.084-1.682-3.78-3.75-3.78s-3.75 1.696-3.75 3.78v7.81h-6.25v-7.81c0-2.084-1.682-3.78-3.75-3.78s-3.75 1.696-3.75 3.78v7.853c-2.325.31-4.125 2.318-4.125 4.744a4.789 4.789 0 0 0 3.5 4.617v5.965c0 4.832 3.016 8.967 7.25 10.596v2.127c0 1.459 1.178 2.645 2.625 2.645h.14v9.234c0 1.771.775 3.438 2.124 4.572a5.891 5.891 0 0 0 4.869 1.291 31.49 31.49 0 0 0 12.956-5.56c.56-.408.686-1.195.281-1.76zm-13.37-46.325c0-.695.56-1.26 1.25-1.26s1.25.565 1.25 1.26v7.81h-2.5v-7.81zm-13.75 0c0-.695.56-1.26 1.25-1.26s1.25.565 1.25 1.26v7.81h-2.5v-7.81zM19.75 22.855c0-1.25 1.01-2.268 2.25-2.268h20c1.24 0 2.25 1.018 2.25 2.268 0 1.25-1.01 2.267-2.25 2.267H22a2.261 2.261 0 0 1-2.25-2.267zm3.5 10.582v-5.795h17.5v5.795c0 4.862-3.925 8.818-8.75 8.818s-8.75-3.956-8.75-8.818zm8.797 12.849l-.03-.002-.032.002h-1.36a.126.126 0 0 1-.125-.126v-1.487a11.201 11.201 0 0 0 3 0v1.487c0 .07-.056.126-.125.126h-1.328zm22.55 6.882a1.243 1.243 0 0 0-1.77.064 1.267 1.267 0 0 0 .061 1.781 1.24 1.24 0 0 0 1.77-.064 1.267 1.267 0 0 0-.061-1.78z"/><path d="M63.915 29.822a32.35 32.35 0 0 0-9.287-20.448C49.29 3.994 42.158.699 34.546.1c-7.518-.593-15.001 1.464-21.072 5.789a1.266 1.266 0 0 0-.3 1.756 1.244 1.244 0 0 0 1.743.301c11.61-8.27 27.921-6.891 37.943 3.21 10.358 10.438 11.61 26.647 2.978 38.542a1.266 1.266 0 0 0 .271 1.76 1.245 1.245 0 0 0 1.747-.273c4.459-6.144 6.61-13.73 6.06-21.363zM10.989 9.52a1.243 1.243 0 0 0-1.768.008l-.02.02a1.267 1.267 0 0 0 .007 1.782 1.241 1.241 0 0 0 1.768-.008l.02-.02a1.267 1.267 0 0 0-.007-1.782z"/><path d="M34.819 32.97a1.248 1.248 0 0 0-1.08-.625h-.894l1.646-2.095a1.266 1.266 0 0 0-.205-1.77 1.244 1.244 0 0 0-1.756.207l-3.249 4.136a1.268 1.268 0 0 0-.145 1.33 1.25 1.25 0 0 0 1.125.711h1.333l-1.53 2.724a1.265 1.265 0 0 0 .47 1.717 1.249 1.249 0 0 0 1.704-.475l2.588-4.605c.22-.39.217-.868-.007-1.255z"/></symbol><symbol viewBox="0 0 64 64" id="faculty-agrobiznes"><path d="M52.273 13.972C51.451 5.83 45.166.512 44.9.289a1.25 1.25 0 0 0-1.584-.012c-.065.052-6.542 5.36-7.349 13.677a17.41 17.41 0 0 0-.081 1.701 1.25 1.25 0 0 0 1.25 1.248h.002a1.25 1.25 0 0 0 1.248-1.252 14.894 14.894 0 0 1 .309-3.033l4.01 4.01c.052.053.11.099.168.14v3.045a1.25 1.25 0 0 0 2.5 0V13.36l3.37-3.37c.507 1.291.89 2.71 1.044 4.233.05.482.074.972.075 1.456a1.25 1.25 0 0 0 1.25 1.248h.002a1.25 1.25 0 0 0 1.248-1.253 17.295 17.295 0 0 0-.088-1.702zm-9.401-1.158v.448l-3.366-3.367c.924-2.347 2.258-4.256 3.366-5.582v8.501zm2.5-2.99V4.379a22.184 22.184 0 0 1 2.225 3.22l-2.225 2.225zM62.746 61.5h-.014a1.25 1.25 0 0 0 0 2.5h.014a1.25 1.25 0 0 0 0-2.5z"/><path d="M58.663 61.5h-13.29v-4.57l1.842-1.843a1.25 1.25 0 0 0-1.768-1.767l-.074.074v-3.418a26.063 26.063 0 0 0 5.659-9.313 1.25 1.25 0 1 0-2.36-.825 23.534 23.534 0 0 1-3.3 6.245v-8.971l1.55-1.554c.92.722 2.441 1.615 4.408 1.699.102.004.203.006.305.006 2.292 0 4.55-1.1 6.717-3.274 6.41-6.432 5.637-15.762 5.601-16.156a1.25 1.25 0 0 0-1.112-1.13c-.095-.01-9.585-.942-16.126 5.621-1.189 1.193-2.052 2.413-2.592 3.651-.54-1.238-1.403-2.458-2.592-3.65-6.54-6.564-16.032-5.632-16.127-5.621a1.25 1.25 0 0 0-1.111 1.129c-.036.394-.808 9.724 5.601 16.156 2.167 2.174 4.425 3.274 6.717 3.274.101 0 .203-.002.305-.006 1.967-.084 3.487-.977 4.408-1.7l1.549 1.554v11.08l-.825-.825a1.25 1.25 0 0 0-1.768 1.768l2.593 2.593V61.5H1.25a1.25 1.25 0 0 0 0 2.5h57.413a1.25 1.25 0 0 0 0-2.5zm1.708-35.554h-3.87l4.896-4.913a21.74 21.74 0 0 1-1.026 4.913zm-9.666-3.686c3.098-2.092 6.557-2.794 8.941-3.011l-8.941 8.971v-5.96zm3.305 6.186h5.304a15.233 15.233 0 0 1-2.733 3.777c-1.738 1.744-3.46 2.597-5.117 2.537-1.167-.043-2.123-.54-2.76-.99l5.306-5.324zm-5.805-4.066v6.349l-1.265 1.27c-.446-.635-.933-1.583-.983-2.74-.067-1.583.69-3.223 2.248-4.88zm-10.664-2.12v5.96l-8.94-8.971c2.383.218 5.842.919 8.94 3.011zM26.85 21.033l4.896 4.913h-3.87a21.765 21.765 0 0 1-1.026-4.913zm9.96 13.726c-1.667.07-3.397-.782-5.144-2.536a15.224 15.224 0 0 1-2.732-3.777h5.304l3.67 3.683 1.636 1.64c-.631.449-1.577.94-2.733.99zm5.481-5.528c-.042 1.17-.535 2.127-.984 2.767l-1.265-1.27V24.38c1.55 1.646 2.307 3.277 2.25 4.851zM34.056 6.93l-.015-.005a1.25 1.25 0 0 0-.746 2.386l.027.008a1.25 1.25 0 1 0 .734-2.39z"/><path d="M41.106 42.896l-1.313-.307a9.094 9.094 0 0 0-10.423 5.244l-3.427 7.911a23.712 23.712 0 0 1-5.13-.624l-1.577-5.257a8.452 8.452 0 0 1 4.399-10.054l1.256-.614a4.462 4.462 0 0 0 2.306-2.713 4.461 4.461 0 0 0-.422-3.534 4.464 4.464 0 0 0-3.837-2.198h-2.983a2.403 2.403 0 0 1-2.175-1.33 2.403 2.403 0 0 1 .19-2.541l2.697-3.75a4.944 4.944 0 0 0-.214-6.05l-5.132-6.163a23.601 23.601 0 0 1 10.927-2.668c.743 0 1.493.035 2.23.103a1.25 1.25 0 1 0 .232-2.49 26.695 26.695 0 0 0-2.462-.113 26.085 26.085 0 0 0-13.354 3.66c-.091.04-.18.092-.262.156C5.064 14.174 0 22.506 0 31.998 0 44.104 8.238 54.321 19.4 57.34c.062.022.126.04.19.052 2.127.558 4.358.856 6.658.856 4.673 0 9.26-1.243 13.269-3.596a1.25 1.25 0 0 0-1.266-2.156 23.682 23.682 0 0 1-9.528 3.122l2.941-6.791a6.597 6.597 0 0 1 7.56-3.804l1.313.307a1.25 1.25 0 0 0 .57-2.434zM2.5 31.998c0-8.254 4.233-15.536 10.64-19.794l5.392 6.475c.713.857.756 2.086.106 2.991l-2.697 3.75a4.924 4.924 0 0 0-.386 5.141 4.923 4.923 0 0 0 4.4 2.689h2.983a1.953 1.953 0 0 1 1.866 2.511 1.93 1.93 0 0 1-1.01 1.188l-1.257.614a10.943 10.943 0 0 0-5.695 13.019l1.1 3.666C8.93 50.872 2.5 42.173 2.5 31.998z"/></symbol><symbol viewBox="0 0 64 64" id="faculty-biotehnologija"><path d="M58.25 20.966H47.2a18.943 18.943 0 0 0-4.165-4.165V10.78a.996.996 0 1 0-1.992 0v4.746a18.63 18.63 0 0 0-5.21-1.922l-.09-.018c-.124-.026-.249-.05-.373-.072l-.155-.027c-.114-.02-.229-.04-.343-.057l-.22-.031a18.722 18.722 0 0 0-.791-.096c-.076-.008-.152-.014-.227-.02a18.1 18.1 0 0 0-.328-.026l-.214-.014c-.121-.007-.243-.012-.364-.017l-.18-.007a19.437 19.437 0 0 0-1.093 0l-.181.007a18.992 18.992 0 0 0-.906.057 8.689 8.689 0 0 0-.227.02c-.106.01-.21.022-.316.034-.159.019-.317.04-.475.062l-.22.03c-.115.018-.23.038-.343.058-.052.009-.104.017-.155.027-.125.023-.25.047-.373.072l-.09.018a18.623 18.623 0 0 0-5.21 1.922V5.75a3.762 3.762 0 0 1 3.757-3.758h10.57a3.762 3.762 0 0 1 3.757 3.758v1.769a.996.996 0 1 0 1.992 0v-1.77c0-3.17-2.58-5.749-5.75-5.749h-10.57c-3.17 0-5.75 2.58-5.75 5.75V16.8a18.945 18.945 0 0 0-4.164 4.165H5.75A5.757 5.757 0 0 0 0 26.715v3.27a.996.996 0 1 0 1.992 0v-3.27a3.762 3.762 0 0 1 3.758-3.758h9.775a18.628 18.628 0 0 0-1.922 5.21l-.018.09c-.026.124-.05.248-.072.373l-.027.155c-.02.114-.04.229-.057.343l-.031.22a19.313 19.313 0 0 0-.096.791 19.643 19.643 0 0 0-.076 1.133l-.008.18a19.436 19.436 0 0 0 0 1.093l.007.18a19.002 19.002 0 0 0 .056.907l.02.227.035.316a25.587 25.587 0 0 0 .093.694c.017.115.037.23.057.344l.027.155c.022.124.046.249.071.373l.02.09a18.622 18.622 0 0 0 1.921 5.21H5.75a3.762 3.762 0 0 1-3.758-3.757V33.26a.996.996 0 1 0-1.992 0v4.025c0 3.17 2.58 5.75 5.75 5.75H16.8a18.943 18.943 0 0 0 4.165 4.164V58.25c0 3.17 2.58 5.75 5.75 5.75h10.569c3.17 0 5.75-2.58 5.75-5.75V47.2a18.945 18.945 0 0 0 4.164-4.165H58.25c3.17 0 5.75-2.579 5.75-5.75V26.717c0-3.171-2.58-5.75-5.75-5.75zM41.042 58.25a3.762 3.762 0 0 1-3.758 3.758H26.715a3.762 3.762 0 0 1-3.757-3.758v-9.776a18.616 18.616 0 0 0 5.21 1.922l.09.02c.124.024.249.048.373.07l.155.028c.114.02.229.04.343.057l.22.031a19.693 19.693 0 0 0 .791.096l.227.02a19.56 19.56 0 0 0 .906.056 19.437 19.437 0 0 0 1.273.007 18.992 18.992 0 0 0 1.087-.063l.227-.02c.106-.01.21-.023.316-.035.159-.018.317-.039.475-.06.073-.011.147-.02.22-.032.115-.018.229-.037.343-.057l.155-.027c.125-.023.249-.047.373-.072l.09-.019a18.623 18.623 0 0 0 5.21-1.922v9.776zm7.387-22.744c-.079.367-.168.73-.27 1.087A16.867 16.867 0 0 1 36.594 48.16a16.704 16.704 0 0 1-2.783.541c-.175.019-.35.036-.526.05l-.08.004a16.954 16.954 0 0 1-2.41 0l-.08-.005a16.665 16.665 0 0 1-1.735-.224 16.784 16.784 0 0 1-.287-.055l-.2-.041a17.048 17.048 0 0 1-1.086-.27A16.867 16.867 0 0 1 15.84 36.594a16.636 16.636 0 0 1-.54-2.783c-.02-.175-.037-.35-.05-.526l-.005-.08a16.967 16.967 0 0 1 0-2.41l.005-.08a16.961 16.961 0 0 1 .59-3.308v-.001A16.867 16.867 0 0 1 27.406 15.84a16.652 16.652 0 0 1 2.783-.54c.175-.02.35-.036.526-.05l.08-.005a16.967 16.967 0 0 1 2.41 0l.08.005a16.933 16.933 0 0 1 3.308.59A16.867 16.867 0 0 1 48.16 27.406a16.769 16.769 0 0 1 .59 3.309l.005.08A16.623 16.623 0 0 1 48.798 32a17.321 17.321 0 0 1-.044 1.206c-.001.026-.002.053-.005.08a16.373 16.373 0 0 1-.161 1.368 17.307 17.307 0 0 1-.118.653l-.041.2zm13.579 1.778a3.762 3.762 0 0 1-3.758 3.758h-9.776a18.65 18.65 0 0 0 1.923-5.21l.018-.09c.025-.124.05-.249.072-.373l.027-.155c.02-.114.04-.229.057-.343l.031-.22a19.628 19.628 0 0 0 .096-.791c.008-.076.014-.152.02-.227a19.548 19.548 0 0 0 .056-.906c.003-.06.006-.12.007-.181a19.437 19.437 0 0 0 0-1.093l-.006-.18a19.002 19.002 0 0 0-.057-.906l-.02-.227c-.01-.106-.023-.21-.035-.316a19.678 19.678 0 0 0-.06-.475c-.011-.073-.02-.147-.032-.22a20.426 20.426 0 0 0-.057-.343l-.027-.155a19.29 19.29 0 0 0-.072-.373l-.018-.09a18.621 18.621 0 0 0-1.922-5.21h9.775a3.762 3.762 0 0 1 3.758 3.758v10.568z"/><path d="M33.667 31.117l-.041-.041c-1.004-1.004-2.565-1.535-4.513-1.535-3.35 0-7.159 1.545-8.489 3.443-.698.997-.606 1.861-.406 2.411.48 1.322 1.43 2.413 2.823 3.243a8.727 8.727 0 0 1 1.722 1.347c.519.515.97 1.093 1.342 1.717.83 1.393 1.92 2.343 3.243 2.823.261.095.532.143.807.143 1.503 0 2.957-1.43 3.99-3.924 1.291-3.115 1.692-7.457-.478-9.627zm-1.362 8.865c-.725 1.75-1.649 2.694-2.15 2.694a.366.366 0 0 1-.127-.023c-.879-.32-1.623-.983-2.212-1.97a10.703 10.703 0 0 0-1.644-2.107 10.702 10.702 0 0 0-2.112-1.65c-.987-.588-1.65-1.332-1.97-2.212-.02-.057-.084-.23.166-.587.857-1.224 3.972-2.594 6.857-2.594 1.389 0 2.491.338 3.104.952l.042.04c1.387 1.389 1.113 4.882.046 7.457zm3.178-20.365a4.36 4.36 0 0 0-1.55-.285 4.4 4.4 0 0 0-4.094 2.826c-.398 1.05-.466 2.52-.177 3.834.355 1.62 1.169 2.747 2.29 3.172.32.122.664.184 1.02.184 2.064 0 4.32-2.154 5.052-4.087a4.382 4.382 0 0 0-2.541-5.644zm.678 4.938c-.468 1.234-2.063 2.8-3.19 2.8a.876.876 0 0 1-.314-.054c-.456-.173-.849-.822-1.05-1.736-.204-.929-.166-2.014.095-2.701a2.398 2.398 0 0 1 2.23-1.54 2.387 2.387 0 0 1 2.23 3.23zm-7.889-.845a3.901 3.901 0 0 0-4.584-3.043 3.896 3.896 0 0 0-3.044 4.585c.353 1.747 2.204 4.285 4.3 4.285.171 0 .341-.017.507-.05 2.223-.45 3.228-3.762 2.821-5.776zm-3.215 3.824a.549.549 0 0 1-.113.011c-.81 0-2.104-1.482-2.347-2.688a1.901 1.901 0 0 1 1.864-2.275c.899 0 1.68.64 1.859 1.523.259 1.283-.473 3.27-1.263 3.43zm20.069 1.726a4.4 4.4 0 0 0-4.093-2.826 4.36 4.36 0 0 0-1.551.285c-2.16.819-4.818 3.658-3.903 6.073.69 1.82 3.037 2.467 4.836 2.467.806 0 1.556-.123 2.17-.355a4.381 4.381 0 0 0 2.54-5.644zm-3.247 3.781c-.385.146-.905.226-1.464.226-1.44 0-2.718-.508-2.974-1.182-.386-1.018 1.308-2.958 2.747-3.504.273-.103.557-.155.845-.155a2.4 2.4 0 0 1 2.23 1.54 2.387 2.387 0 0 1-1.384 3.075zm-.847 3.429a4.804 4.804 0 0 0-.947-.088c-2.056 0-4.447 1.02-4.829 2.91-.461 2.282 2.244 4.404 4.235 4.806.255.052.515.078.774.078a3.901 3.901 0 0 0 3.81-3.122 3.896 3.896 0 0 0-3.043-4.584zm1.091 4.19a1.903 1.903 0 0 1-2.237 1.486c-1.283-.259-2.834-1.684-2.677-2.46.133-.662 1.558-1.312 2.876-1.312.205 0 .391.017.552.05a1.901 1.901 0 0 1 1.486 2.236z"/></symbol><symbol viewBox="0 0 64 64" id="faculty-econom"><path d="M56.25 0c-.255 0-.507.013-.756.037A1.25 1.25 0 0 0 55.196 0H17.5c-4.411 0-8 3.589-8 8v5a1.25 1.25 0 0 0 2.5 0V8c0-3.033 2.467-5.5 5.5-5.5h33.056A7.72 7.72 0 0 0 48.5 7.75c0 .042.002.084.006.125A1.258 1.258 0 0 0 48.5 8v8.542a1.25 1.25 0 0 0 2.5 0V9h11.75C63.44 9 64 8.44 64 7.75 64 3.477 60.523 0 56.25 0zm-5.098 6.5a5.259 5.259 0 0 1 5.098-4 5.258 5.258 0 0 1 5.099 4H51.151z"/><path d="M42.233 6.749H34.29a1.25 1.25 0 0 0 0 2.5h5.084L25.195 23.428l-8.311-8.312a1.25 1.25 0 0 0-1.768 0L3.897 26.335a1.25 1.25 0 0 0 1.768 1.768L16 17.768l8.311 8.311a1.25 1.25 0 0 0 1.768 0l14.904-14.903v4.766a1.25 1.25 0 0 0 2.5 0V7.999c0-.69-.56-1.25-1.25-1.25zM2.134 29.866a1.259 1.259 0 0 0-.884-.366 1.26 1.26 0 0 0-.884.366A1.259 1.259 0 0 0 0 30.75c0 .329.134.651.366.884.233.232.555.366.884.366.329 0 .651-.134.884-.366a1.26 1.26 0 0 0 .366-.884 1.26 1.26 0 0 0-.366-.884z"/><path d="M57.001 39.252c0-.69-.56-1.25-1.25-1.25h-9.5v-9.5c0-.69-.56-1.25-1.25-1.25-6.616 0-12 5.384-12 12 0 6.617 5.384 12 12 12 1.217 0 2.392-.182 3.499-.52v5.518a5.256 5.256 0 0 1-5.25 5.25A5.256 5.256 0 0 1 38 56.25c0-.039-.002-.077-.006-.115a1.25 1.25 0 0 0-1.242-1.385H12V28.004a1.25 1.25 0 0 0-2.5 0V54.75H4c-.69 0-1.25.56-1.25 1.25 0 4.411 3.589 8 8 8h32.5c4.273 0 7.75-3.476 7.75-7.75v-6.502c0-.035-.002-.069-.005-.102C54.582 47.567 57 43.688 57 39.252zM10.75 61.5a5.51 5.51 0 0 1-5.357-4.25h30.174c.21 1.629.927 3.1 1.989 4.25H10.75zm34.251-12.748c-5.238 0-9.5-4.261-9.5-9.5 0-4.814 3.6-8.804 8.25-9.418v9.418c0 .69.56 1.25 1.25 1.25h9.419c-.614 4.65-4.604 8.25-9.419 8.25z"/><path d="M49.25 20.254c-.69 0-1.25.56-1.25 1.25v13.5c0 .69.56 1.25 1.25 1.25h13.5c.69 0 1.25-.56 1.25-1.25 0-8.133-6.617-14.75-14.75-14.75zm1.25 13.5V22.817c5.759.586 10.35 5.178 10.937 10.937H50.5zM26.375 40.5h-10.75a1.25 1.25 0 0 0 0 2.5h10.75a1.25 1.25 0 0 0 0-2.5zm5.821 6.366a1.259 1.259 0 0 0-.884-.366 1.26 1.26 0 0 0-.883.366 1.26 1.26 0 0 0-.367.884c0 .329.134.651.367.884.232.232.555.366.883.366.33 0 .652-.134.884-.366a1.26 1.26 0 0 0 .366-.884 1.26 1.26 0 0 0-.366-.884zm-5.821-.366h-10.75a1.25 1.25 0 0 0 0 2.5h10.75a1.25 1.25 0 0 0 0-2.5zm-6.448-12h-4.302a1.25 1.25 0 0 0 0 2.5h4.302a1.25 1.25 0 0 0 0-2.5z"/></symbol><symbol viewBox="0 0 64 64" id="faculty-isi"><path d="M61.733 50.347a11.323 11.323 0 0 0-7.588-8.905l-8.857-2.96v-1.32h-2.059v1.805l-7.205 13.55-7.204-13.55v-1.806h-2.06v2.323l8.234 15.484v1.806h-12.35v2.065h12.351v3.097H19.693l.821-6.591a4.738 4.738 0 0 0 2.13-3.976v-.788h-2.059v.788a2.69 2.69 0 0 1-1.489 2.418l-.493.247-.985 7.902h-7.14l1.172-7.057-2.03-.339L8.048 64H64l-2.267-13.653zm-24.68 11.589v-3.097h12.352v-2.065H37.054v-1.806l7.704-14.487 4.647 1.553v9.334c0 1.623.803 3.1 2.13 3.977l.82 6.59h-15.3zm17.378 0l-.985-7.902-.493-.247a2.69 2.69 0 0 1-1.49-2.418v-8.647l2.03.678a9.267 9.267 0 0 1 6.209 7.287l1.868 11.249h-7.14z"/><path d="M18.527 22.71c0 2.648 2.007 4.812 4.572 5.103a11.291 11.291 0 0 0 2.861 4.844l4.013 4.024a5.107 5.107 0 0 0 3.64 1.513h4.823a5.107 5.107 0 0 0 3.64-1.513l4.013-4.024a11.302 11.302 0 0 0 2.861-4.844c2.565-.29 4.572-2.455 4.572-5.103a5.117 5.117 0 0 0-1.056-3.097h2.085v-6.194h-3.235C50.498 7.326 46.063 2.228 40.141.582V0h-8.234v.582c-5.92 1.646-10.355 6.744-11.174 12.837h-3.235v6.194h2.085a5.117 5.117 0 0 0-1.056 3.097zm2.058 0c0-1.344.864-2.48 2.059-2.907v4.824c0 .337.02.672.048 1.004a3.09 3.09 0 0 1-2.107-2.921zm26.761 1.917a9.25 9.25 0 0 1-2.713 6.57l-4.013 4.025a3.063 3.063 0 0 1-2.184.907h-4.823a3.06 3.06 0 0 1-2.184-.907l-4.013-4.025a9.247 9.247 0 0 1-2.714-6.57v-5.014h22.644v5.014zm2.01 1.004c.03-.332.049-.666.049-1.004v-4.824a3.092 3.092 0 0 1 2.058 2.907 3.09 3.09 0 0 1-2.106 2.921zm-17.449-22.9v8.624h2.059v-9.29h4.117v9.29h2.058V2.73c4.77 1.552 8.331 5.718 9.105 10.688H22.802c.775-4.971 4.336-9.136 9.105-10.688zm-12.35 14.817v-2.064h32.936v2.064H19.556z"/><path d="M44.259 9.29H42.2v2.065h2.059V9.29zm-14.41 0H27.79v2.065h2.059V9.29zM9.45 52.645h5.804l.532-2.661c.34-.12.674-.258.998-.412l2.251 1.504 4.104-4.116-1.5-2.257c.154-.324.292-.66.411-1.001l2.653-.534v-5.821l-2.654-.534a10.216 10.216 0 0 0-.704-1.57l-1.8 1.005a8.18 8.18 0 0 1 .717 1.742l.173.605 2.209.444v2.437l-2.209.444-.173.605a8.159 8.159 0 0 1-.716 1.742l-.306.55 1.248 1.877-1.718 1.723-1.871-1.251-.55.306a8.127 8.127 0 0 1-1.736.719l-.604.172-.442 2.218h-2.43l-.443-2.216-.603-.172a8.107 8.107 0 0 1-1.737-.719l-.549-.306-1.871 1.25-2.315-2.32-1.455 1.46 3.506 3.518 2.251-1.504c.323.154.658.292.999.412l.53 2.661zm-6.093-7.373l1.8-1.004a8.178 8.178 0 0 1-.717-1.743l-.173-.605-2.208-.443V39.04l2.208-.444.173-.605c.174-.614.415-1.2.717-1.742l.305-.55-1.247-1.877L5.933 32.1l1.87 1.251.55-.306a8.13 8.13 0 0 1 1.737-.719l.603-.172.443-2.217h2.43l.442 2.215.604.172a8.106 8.106 0 0 1 1.737.719l.549.306 1.87-1.25 2.316 2.32 1.455-1.46-3.507-3.518-2.25 1.504a10.196 10.196 0 0 0-1-.412l-.53-2.66H9.45l-.532 2.66c-.341.12-.675.258-.999.412l-2.25-1.504-4.105 4.116 1.5 2.257c-.153.324-.291.66-.41 1.002L0 37.348v5.821l2.653.534c.193.545.428 1.071.704 1.569z"/><path d="M12.351 35.097c-2.837 0-5.146 2.315-5.146 5.161 0 2.846 2.309 5.161 5.146 5.161 2.838 0 5.147-2.315 5.147-5.161 0-2.846-2.31-5.161-5.147-5.161zm0 8.258a3.096 3.096 0 0 1-3.088-3.097 3.096 3.096 0 0 1 3.088-3.097 3.096 3.096 0 0 1 3.088 3.097 3.096 3.096 0 0 1-3.088 3.097z"/></symbol><symbol viewBox="0 0 64 64" id="faculty-kolledj"><path d="M23.467 39.467c0 .588.477 1.066 1.066 1.066H28.8c.589 0 1.067-.478 1.067-1.066v-6.4c0-.59-.478-1.067-1.067-1.067h-4.267c-.588 0-1.066.478-1.066 1.067v6.4zm2.133-5.334h2.133V38.4H25.6v-4.267zm-1.067-6.4H28.8c.589 0 1.067-.478 1.067-1.066v-6.4c0-.59-.478-1.067-1.067-1.067h-4.267c-.588 0-1.066.478-1.066 1.067v6.4c0 .588.477 1.066 1.066 1.066zm1.067-6.4h2.133V25.6H25.6v-4.267z"/><path d="M16.55 20.114L32 10.844l15.45 9.27a1.065 1.065 0 0 0 1.464-.365c.304-.505.14-1.16-.365-1.463l-15.482-9.29V2.133H38.4v2.134h-3.2a1.067 1.067 0 0 0 0 2.133h4.267c.588 0 1.066-.478 1.066-1.067V1.067c0-.59-.478-1.067-1.066-1.067H32c-.589 0-1.067.478-1.067 1.067v7.93l-15.482 9.289a1.066 1.066 0 1 0 1.098 1.828zm-4.817 20.419c.59 0 1.067-.478 1.067-1.066v-6.4c0-.59-.478-1.067-1.067-1.067H7.467c-.59 0-1.067.478-1.067 1.067V35.2a1.067 1.067 0 0 0 2.133 0v-1.067h2.134v5.334c0 .588.477 1.066 1.066 1.066zM19.2 54.4V23.467a1.067 1.067 0 0 0-2.133 0V54.4a1.067 1.067 0 0 0 2.133 0z"/><path d="M13.867 59.733h36.266a1.067 1.067 0 0 0 0-2.133h-9.6V46.934H41.6a1.067 1.067 0 0 0 0-2.134H22.4a1.067 1.067 0 0 0 0 2.134h1.067V57.6h-9.6a1.067 1.067 0 0 0 0 2.133zm19.2-6.4a1.067 1.067 0 0 0 0-2.133v-4.266H38.4V57.6h-5.333v-4.267zm-7.467-6.4h5.333V51.2a1.067 1.067 0 0 0 0 2.133V57.6H25.6V46.933zm30.933-1.066h-4.266c-.589 0-1.067.478-1.067 1.066v6.4c0 .59.478 1.067 1.067 1.067h4.266c.59 0 1.067-.478 1.067-1.067v-6.4c0-.588-.478-1.066-1.067-1.066zm-1.066 6.4h-2.134V48h2.134v4.267zm1.066-19.2h-4.266c-.589 0-1.067.478-1.067 1.066v6.4c0 .59.478 1.067 1.067 1.067h4.266c.59 0 1.067-.478 1.067-1.067v-6.4c0-.588-.478-1.066-1.067-1.066zm-1.066 6.4h-2.134V35.2h2.134v4.267zm-1.067 22.4H9.6A1.067 1.067 0 0 0 9.6 64h44.8a1.067 1.067 0 0 0 0-2.133z"/><path d="M62.933 23.467c-.588 0-1.066.477-1.066 1.066V25.6H50.133a1.067 1.067 0 0 0 0 2.133h11.734v35.2a1.067 1.067 0 0 0 2.133 0v-38.4c0-.589-.478-1.066-1.067-1.066zm-28.8 16c0 .588.478 1.066 1.067 1.066h4.267c.588 0 1.066-.478 1.066-1.066v-6.4c0-.59-.478-1.067-1.066-1.067H35.2c-.589 0-1.067.478-1.067 1.067v6.4zm2.134-5.334H38.4V38.4h-2.133v-4.267zm-25.6 18.134c0-.14-.061-13.867-5.334-13.867C.061 38.4 0 52.128 0 52.266a5.343 5.343 0 0 0 4.267 5.226v5.441a1.067 1.067 0 0 0 2.133 0v-5.44a5.343 5.343 0 0 0 4.267-5.227zm-5.334 3.2a3.204 3.204 0 0 1-3.2-3.2c0-5.315 1.428-11.734 3.2-11.734 1.773 0 3.2 6.42 3.2 11.733 0 1.765-1.435 3.2-3.2 3.2zm41.6-1.067v-32a1.067 1.067 0 0 0-2.133 0v32a1.067 1.067 0 0 0 2.133 0zM35.2 27.733h4.267c.588 0 1.066-.478 1.066-1.066v-6.4c0-.59-.478-1.067-1.066-1.067H35.2c-.589 0-1.067.478-1.067 1.067v6.4c0 .588.478 1.066 1.067 1.066zm1.067-6.4H38.4V25.6h-2.133v-4.267zm-35.2 16c.588 0 1.066-.478 1.066-1.066v-8.534h11.734a1.067 1.067 0 0 0 0-2.133H2.133v-1.067a1.067 1.067 0 0 0-2.133 0v11.734c0 .588.478 1.066 1.067 1.066z"/></symbol><symbol viewBox="0 0 64 64" id="faculty-portal"><path d="M61.187 6.412h-8.751a3.588 3.588 0 0 0 1.376-2.828C53.812 1.608 52.216 0 50.254 0c-1.962 0-3.557 1.608-3.557 3.584 0 .603.15 1.172.412 1.672l-1.254 1.156H28.652A3.563 3.563 0 0 0 25.38 4.23a3.56 3.56 0 0 0-3.274 2.182H2.815C1.262 6.412 0 7.683 0 9.246v6.976c0 .522.42.945.938.945a.941.941 0 0 0 .938-.945V9.246c0-.521.42-.945.938-.945h19.04c.05.362.151.707.3 1.026l-7.91 7.218a3.517 3.517 0 0 0-1.942-.584c-1.962 0-3.558 1.608-3.558 3.584s1.596 3.584 3.558 3.584c1.962 0 3.558-1.608 3.558-3.584a3.58 3.58 0 0 0-.37-1.587l7.878-7.19a3.534 3.534 0 0 0 4.574-.475l6.387 3.822c-.047.23-.071.469-.071.713 0 1.976 1.596 3.583 3.558 3.583 1.961 0 3.557-1.607 3.557-3.583 0-.514-.109-1.003-.303-1.446l5.513-5.081h14.603c.517 0 .937.424.937.945v23.343c0 .521.42.944.938.944A.941.941 0 0 0 64 32.59V9.246c0-1.563-1.262-2.834-2.813-2.834zM12.303 21.24a1.69 1.69 0 0 1-1.682-1.694 1.69 1.69 0 0 1 1.682-1.695c.927 0 1.682.76 1.682 1.695a1.69 1.69 0 0 1-1.682 1.694zM25.379 9.508a1.69 1.69 0 0 1-1.683-1.694 1.69 1.69 0 0 1 1.683-1.695c.927 0 1.682.76 1.682 1.695a1.69 1.69 0 0 1-1.682 1.694zm12.437 7.014a1.69 1.69 0 0 1-1.682-1.694 1.69 1.69 0 0 1 1.682-1.695c.928 0 1.683.76 1.683 1.695a1.69 1.69 0 0 1-1.683 1.694zm2.069-4.607a3.52 3.52 0 0 0-2.069-.671 3.538 3.538 0 0 0-2.637 1.181l-6.338-3.792c.026-.109.046-.22.061-.332h14.903l-3.92 3.614zm10.37-6.637a1.69 1.69 0 0 1-1.683-1.694 1.69 1.69 0 0 1 1.682-1.695c.928 0 1.682.76 1.682 1.695a1.69 1.69 0 0 1-1.682 1.694z"/><path d="M63.999 36.367a.941.941 0 0 0-.938-.945.941.941 0 0 0-.938.945v7.107H55.22V13.33a.941.941 0 0 0-.938-.944h-7.055a.941.941 0 0 0-.938.944v30.143H42.78V30.9a.941.941 0 0 0-.938-.945h-7.055a.941.941 0 0 0-.938.945v12.574h-3.507V18.706a.941.941 0 0 0-.938-.945H22.35a.941.941 0 0 0-.938.945v13.051c0 .521.42.944.938.944a.941.941 0 0 0 .938-.944v-4.342h5.179v16.059h-5.18v-7.939a.941.941 0 0 0-.937-.944.941.941 0 0 0-.938.944v7.939h-3.507V30.9a.941.941 0 0 0-.938-.945H9.913a.941.941 0 0 0-.938.945v12.574h-7.1V20a.941.941 0 0 0-.937-.945A.941.941 0 0 0 0 20v31.266C0 52.829 1.262 54.1 2.813 54.1h20.54l-.534 4.694h-4.453a.941.941 0 0 0-.938.945v3.315c0 .522.42.945.938.945h27.267a.941.941 0 0 0 .938-.945V59.74a.941.941 0 0 0-.938-.945h-4.452l-.535-4.694h20.54c1.551 0 2.813-1.27 2.813-2.834v-14.9zM48.164 14.276h5.18v2.02h-5.18v-2.02zm0 3.909h5.18v1.966h-5.18v-1.966zm0 3.855h5.18v21.434h-5.18V22.04zm-12.438 9.805h5.18v2.02h-5.18v-2.02zm0 3.909h5.18v1.966h-5.18v-1.966zm0 3.855h5.18v3.865h-5.18v-3.865zM23.288 21.67v-2.02h5.18v2.02h-5.18zm0 3.856v-1.967h5.18v1.967h-5.18zM10.85 31.845h5.18v2.02h-5.18v-2.02zm0 3.909h5.18v1.966h-5.18v-1.966zm0 3.855h5.18v3.865h-5.18v-3.865zm33.846 21.076v1.425H19.304v-1.425h25.392zm-19.99-1.89l.535-4.694h13.517l.535 4.694H24.706zm36.48-6.583H2.814a.942.942 0 0 1-.938-.945V45.4h60.247v5.868c0 .521-.42.945-.937.945z"/></symbol><symbol viewBox="0 0 53 64" id="faculty-repodgotovka"><path d="M4.687 54.276l-3.651 3.317V64h2.072v-5.504l2.98-2.706-1.4-1.514zm7.771 0l-1.4 1.514 2.98 2.706V64h2.071v-6.407l-3.65-3.317zm-.798-9.305c0 .593-.125 1.013-.373 1.247-.524.496-3.444.36-3.742.36v2.053c.25 0 2.56.049 2.872.015v2.223a1.847 1.847 0 0 1-1.853 1.837 1.847 1.847 0 0 1-1.853-1.837v-2.065H4.639v2.065c0 2.145 1.76 3.89 3.925 3.89s3.925-1.745 3.925-3.89v-2.972a2.74 2.74 0 0 0 .228-.193c.674-.637 1.016-1.556 1.016-2.733H11.66zm10.846 9.305l-3.651 3.317V64h2.072v-5.504l2.98-2.706-1.401-1.514zm7.771 0l-1.4 1.514 2.98 2.706V64h2.071v-6.407l-3.65-3.317zm-.797-9.305c0 .593-.126 1.013-.374 1.247-.524.496-3.444.36-3.742.36v2.053c.25 0 2.56.049 2.872.015v2.223a1.847 1.847 0 0 1-1.853 1.837 1.847 1.847 0 0 1-1.853-1.837v-2.065h-2.072v2.065c0 2.145 1.76 3.89 3.925 3.89s3.925-1.745 3.925-3.89v-2.972a2.74 2.74 0 0 0 .228-.193c.674-.637 1.015-1.556 1.015-2.733H29.48zm10.845 9.305l-3.651 3.317V64h2.072v-5.504l2.979-2.706-1.4-1.514zm7.771 0l-1.4 1.514 2.98 2.706V64h2.071v-6.407l-3.65-3.317zm-.798-9.305c0 .593-.125 1.013-.373 1.247-.524.496-3.444.36-3.742.36v2.053c.25 0 2.56.049 2.872.015v2.223a1.847 1.847 0 0 1-1.853 1.837 1.847 1.847 0 0 1-1.853-1.837v-2.065h-2.072v2.065c0 2.145 1.76 3.89 3.925 3.89s3.925-1.745 3.925-3.89v-2.972a2.74 2.74 0 0 0 .228-.193c.674-.637 1.015-1.556 1.015-2.733h-2.072zM8.702 11.842H6.63v2.053h2.072v-2.053zm0 3.422H6.63v6.708h2.072v-6.708zm14.837-.403l-4.59 2.793-4.064-5.283-3.475-2.153-1.099 1.741 3.156 1.954 4.97 6.462 6.186-3.764-1.084-1.75zM10.763 1.027c0 .593-.126 1.012-.374 1.247-.524.495-3.444.36-3.742.36v2.053c.25 0 2.56.048 2.872.015v2.223a1.847 1.847 0 0 1-1.853 1.837 1.847 1.847 0 0 1-1.853-1.837V4.86H3.74v2.065c0 2.145 1.76 3.89 3.925 3.89s3.926-1.745 3.926-3.89V3.952c.077-.06.154-.123.227-.192.674-.637 1.016-1.557 1.016-2.733h-2.072z"/><path d="M11.898 18.953L10.576 40.59H5.732L4.334 24.71h-.95a1.308 1.308 0 0 1-1.312-1.301v-8.858l2.98-2.706-1.4-1.514L0 13.649v9.76a3.364 3.364 0 0 0 2.422 3.217l1.411 16.018h8.693l1.44-23.567-2.068-.124zM53 29.433V0H17.777v11.746h2.072V6.16h31.08v17.113h-31.08v-1.137h-2.072v7.297h16.575v9.994h-2.97v2.053h8.012v-2.053h-2.97v-9.994H53zM19.848 4.107V2.053h31.08v2.054h-31.08zm0 23.273v-2.054h31.08v2.054h-31.08z"/><path d="M31.551 17.207H29.48v2.738h2.071v-2.738zm4.144-1.369h-2.072v4.107h2.072v-4.107zm4.145-1.369h-2.073v5.476h2.072v-5.476z"/><path d="M48.245 7.258l-1.4 1.736h-.79v.98l-2.072 2.57v-2.181h-2.072v2.48L37.473 8.07l-2.818 3.777h-5.09l-4.007 6.175 1.743 1.11 3.395-5.232H35.7l1.948-2.611 4.263 4.586v4.071h2.072v-4.112l2.072-2.57v6.682h2.072v-9.252l1.736-2.154-1.618-1.281z"/></symbol><symbol viewBox="0 0 60 64" id="faculty-test"><path d="M44.997 39.467a1.07 1.07 0 0 0-1.071-1.067h-6.428a1.07 1.07 0 0 0-1.072 1.067c0 .588.48 1.066 1.072 1.066h6.428a1.07 1.07 0 0 0 1.071-1.066zm-4.286-27.734V6.4a1.07 1.07 0 0 0-1.07-1.067A1.07 1.07 0 0 0 38.568 6.4v5.333c0 2.941 2.403 5.334 5.357 5.334h9.642v20.266c0 .589.48 1.067 1.071 1.067a1.07 1.07 0 0 0 1.072-1.067V16a1.07 1.07 0 0 0-1.072-1.067H43.926a3.211 3.211 0 0 1-3.215-3.2zM43.926 25.6h-8.571a1.07 1.07 0 0 0-1.072 1.067c0 .588.48 1.066 1.072 1.066h8.57a1.07 1.07 0 0 0 1.072-1.066 1.07 1.07 0 0 0-1.071-1.067zM32.14 26.667a1.07 1.07 0 0 0-1.07-1.067h-6.43a1.07 1.07 0 0 0-1.071 1.067c0 .588.48 1.066 1.071 1.066h6.428a1.07 1.07 0 0 0 1.072-1.066zM24.641 32a1.07 1.07 0 0 0-1.071 1.067c0 .588.48 1.066 1.071 1.066h2.143a1.07 1.07 0 0 0 1.071-1.066A1.07 1.07 0 0 0 26.784 32H24.64zm0-10.667h10.714a1.07 1.07 0 0 0 1.071-1.066 1.07 1.07 0 0 0-1.071-1.067H24.64a1.07 1.07 0 0 0-1.071 1.067c0 .588.48 1.066 1.071 1.066zm6.429 12.8h10.713a1.07 1.07 0 0 0 1.071-1.066A1.07 1.07 0 0 0 41.783 32H31.069a1.07 1.07 0 0 0-1.071 1.067c0 .588.48 1.066 1.071 1.066zM37.497 44.8a1.07 1.07 0 0 0-1.07 1.067c0 .588.48 1.066 1.07 1.066h2.143a1.07 1.07 0 0 0 1.071-1.066 1.07 1.07 0 0 0-1.07-1.067h-2.144zm-4.285-6.4h-8.57a1.07 1.07 0 0 0-1.072 1.067c0 .588.48 1.066 1.071 1.066h8.571a1.07 1.07 0 0 0 1.071-1.066 1.07 1.07 0 0 0-1.071-1.067zm0 6.4h-8.57a1.07 1.07 0 0 0-1.072 1.067c0 .588.48 1.066 1.071 1.066h8.571a1.07 1.07 0 0 0 1.071-1.066 1.07 1.07 0 0 0-1.071-1.067zm25.508-.863l-2.143-2.133c-1.646-1.64-4.156-1.637-5.8 0L36.74 55.779c-.2.2-.314.472-.314.754v6.4c0 .589.48 1.067 1.071 1.067h6.429c.283 0 .557-.113.757-.313L58.72 49.712c1.707-1.7 1.707-4.075 0-5.775zm-9.328 2.262l1.699 1.692-9.308 9.267-1.7-1.691 9.309-9.268zM38.569 61.866v-4.891l4.913 4.891H38.57zm6.428-1.508l-1.7-1.692 9.309-9.267 1.699 1.692-9.308 9.267zm12.208-12.154l-1.385 1.379-4.913-4.892 1.385-1.38c.846-.84 1.92-.845 2.77 0l2.143 2.134c.867.864.867 1.896 0 2.759z"/><path d="M33.212 61.867H5.357a3.211 3.211 0 0 1-3.214-3.2V5.332c0-1.764 1.442-3.2 3.214-3.2h33.84l10.4 10.355a1.073 1.073 0 0 0 1.514 0 1.062 1.062 0 0 0 0-1.509L40.398.312c-.2-.2-.474-.312-.758-.312H5.357C2.403 0 0 2.393 0 5.333v53.334C0 61.607 2.403 64 5.357 64h27.855a1.07 1.07 0 0 0 1.071-1.067 1.07 1.07 0 0 0-1.071-1.066z"/><path d="M33.212 51.2h-8.57a1.07 1.07 0 0 0-1.072 1.066c0 .59.48 1.067 1.071 1.067h8.571a1.07 1.07 0 0 0 1.071-1.067 1.07 1.07 0 0 0-1.071-1.066zM19.284 20.267a1.07 1.07 0 0 0-1.07-1.067h-6.429a1.07 1.07 0 0 0-1.071 1.067v6.4c0 .588.48 1.066 1.071 1.066h6.428a1.07 1.07 0 0 0 1.071-1.066v-6.4zM17.142 25.6h-4.286v-4.267h4.286V25.6zm-5.357 27.733h6.428a1.07 1.07 0 0 0 1.071-1.066v-6.4a1.07 1.07 0 0 0-1.07-1.067h-6.43a1.07 1.07 0 0 0-1.07 1.067v6.4c0 .588.48 1.066 1.07 1.066zm1.071-6.4h4.286V51.2h-4.286v-4.267zm.314-6.713a1.075 1.075 0 0 0 1.649-.162l4.285-6.4a1.065 1.065 0 0 0-.296-1.48 1.074 1.074 0 0 0-1.486.296l-3.56 5.318-1.22-1.213a1.073 1.073 0 0 0-1.515 0 1.062 1.062 0 0 0 0 1.508l2.143 2.134z"/></symbol><symbol viewBox="0 0 64 64" id="faculty-text"><path d="M53.527 18.258L34.133.291A.878.878 0 0 0 33.455 0H.97C.388 0 0 .388 0 .971V63.03c0 .583.388.971.97.971h51.878c.582 0 .97-.389.97-.971V18.84c.097-.097-.097-.486-.29-.583zM34.424 3.205l16 14.762h-16V3.205zm17.455 58.95H1.939V1.942h30.546v16.996c0 .583.388.971.97.971h18.424v42.246zm7.951-42.246a4.142 4.142 0 0 0-4.17 4.176v24.959l3.2 14.179c.098.486.486.777.97.777.485 0 .873-.291.97-.777L64 49.14V24.085a4.142 4.142 0 0 0-4.17-4.176zm0 38.847l-2.036-8.838h4.073l-2.037 8.838zm2.134-10.877h-4.558V24.085h.097c0-1.262.97-2.234 2.23-2.234 1.261 0 2.23.971 2.23 2.234v23.794z"/><path d="M29.09 29.912l-1.745 1.262-1.648-2.233c2.327-1.943 3.782-4.662 4.266-7.575.485-3.302-.29-6.604-2.23-9.324-4.073-5.535-11.927-6.895-17.551-2.719-5.819 3.982-6.885 11.849-2.812 17.384 3.782 5.244 11.151 6.798 16.775 3.302l1.649 2.234-1.746 1.262c-.193.195-.387.389-.387.68 0 .292 0 .486.194.68l6.787 9.323c.97 1.36 2.813 1.651 4.17.68l1.746-1.262c1.357-.972 1.648-2.817.678-4.176l-6.788-9.324c-.29-.388-.97-.485-1.357-.194zm-5.332-1.942c-4.752 3.496-11.443 2.33-14.837-2.331-1.066-1.554-1.745-3.302-1.94-5.05h10.377c.581 0 .97-.389.97-.971 0-.583-.389-.971-.97-.971H6.885c.097-.972.29-1.943.679-3.108h9.212c.582 0 .97-.389.97-.971 0-.583-.389-.971-.97-.971H8.533c.68-1.166 1.552-2.137 2.715-2.914 4.849-3.496 11.443-2.33 14.837 2.33a11.09 11.09 0 0 1 1.94 7.965c-.389 2.816-1.94 5.244-4.267 6.992zm11.636 13.887l-1.746 1.263c-.484.291-1.163.194-1.454-.194l-6.206-8.547 3.394-2.525 6.206 8.547c.388.485.29 1.165-.194 1.456zm-29.091.583h17.745c.582 0 .97-.388.97-.971s-.388-.971-.97-.971H6.303c-.582 0-.97.388-.97.97 0 .584.388.972.97.972zm-.97 6.119c0 .582.388.97.97.97h41.31c.581 0 .969-.388.969-.97 0-.583-.388-.972-.97-.972H6.303c-.582 0-.97.389-.97.972zm42.279 6.215H6.303c-.582 0-.97.388-.97.971s.388.971.97.971h41.31c.581 0 .969-.388.969-.971s-.388-.971-.97-.971z"/></symbol><symbol viewBox="0 0 96.124 96.123" id="fb"><path d="M72.089.02L59.624 0C45.62 0 36.57 9.285 36.57 23.656v10.907H24.037a1.96 1.96 0 0 0-1.96 1.961v15.803a1.96 1.96 0 0 0 1.96 1.96H36.57v39.876a1.96 1.96 0 0 0 1.96 1.96h16.352a1.96 1.96 0 0 0 1.96-1.96V54.287h14.654a1.96 1.96 0 0 0 1.96-1.96l.006-15.803a1.963 1.963 0 0 0-1.961-1.961H56.842v-9.246c0-4.444 1.059-6.7 6.848-6.7l8.397-.003a1.96 1.96 0 0 0 1.959-1.96V1.98A1.96 1.96 0 0 0 72.089.02z"/></symbol><symbol viewBox="0 0 22 19" id="form-argeement"><path d="M0 17.935V2.855c0-.588.49-1.064 1.098-1.064h13.785l-2.191 2.125H2.19v12.955h13.358v-5.502l2.19-2.125v8.691c0 .585-.49 1.065-1.097 1.065H1.098C.49 19 0 18.524 0 17.935zm9.542-8.159l-2.34-2.269a1.72 1.72 0 0 0-2.38 0 1.6 1.6 0 0 0-.494 1.156c0 .437.175.847.495 1.152l3.527 3.421a1.72 1.72 0 0 0 2.38 0l10.775-10.45c.32-.31.495-.72.495-1.152a1.6 1.6 0 0 0-.495-1.156 1.72 1.72 0 0 0-2.38 0L9.542 9.776z"/></symbol><symbol viewBox="0 0 53 53" id="icon-download"><path d="M42.01 0H11.416v8.658h1.579V1.574h28.36l10.066 10.034v39.818H12.995v-3.831h-1.58V53H53V10.956L42.01 0z"/><path d="M42.472 10.495V4.46h-1.579v7.61h7.633v-1.575h-6.054zm-24.837 21.62V13.8h-1.579v19.888h2.351l-7.582 9.003-7.47-9.003h2.229V13.801h-1.58v18.314H0L10.816 45.15l10.98-13.036h-4.16zM5.584 10.757h-1.58v1.575h1.58v-1.575zm12.052 0h-1.58v1.575h1.58v-1.575zm28.258 18.839H25.576v1.574h20.318v-1.574zm0 4.723H25.576v1.574h20.318V34.32zM32.63 39.041h-7.054v1.575h7.053V39.04zm3.158 0h-1.58v1.575h1.58V39.04zm6.317 0h-1.58v1.575h1.58V39.04zm-3.159 0h-1.58v1.575h1.58V39.04zm6.948-14.168H20.627v1.574h25.267v-1.574zm0-4.723H20.627v1.575h25.267V20.15zm0-4.722H20.627v1.574h25.267v-1.574z"/><path d="M11.416 18.734h-1.58v1.574h1.58v-1.574zm0-3.149h-1.58v1.574h1.58v-1.574zm0 6.297h-1.58v1.574h1.58v-1.574zm0 9.446h-1.58v1.574h1.58v-1.574zm0-3.148h-1.58v1.573h1.58V28.18zm0-3.15h-1.58v1.575h1.58V25.03z"/></symbol><symbol viewBox="0 0 54 50" id="icon-entrants"><path fill-rule="evenodd" clip-rule="evenodd" d="M9.34 13.67a.893.893 0 0 1 .902.02l16.25 9.984.45.125 16.454-10.11a.893.893 0 0 1 1.357.756v4.607l3.403-.948a.892.892 0 0 1 1.13.855v5.417c0 .49-.399.887-.89.887a.889.889 0 0 1-.89-.887v-4.248L27.89 25.591v22.361l19.615-5.297V38.46c0-.49.399-.887.89-.887.492 0 .89.397.89.887v4.875a.888.888 0 0 1-.657.857L27.233 49.97a.892.892 0 0 1-.931-.306L5.372 44.01a.888.888 0 0 1-.658-.857v-4.875a.889.889 0 1 1 1.78 0v4.196l19.616 5.297V25.524l-.34-.208-15.815-4.404a.895.895 0 0 1-.786-.22l-2.674-.744v4.247a.889.889 0 1 1-1.78 0v-5.417a.887.887 0 0 1 1.129-.855l3.04.847v-4.325c0-.322.175-.618.457-.775zm1.325 5.596l9.62 2.679-9.62-5.91v3.231zm21.85 3.194l10.457-6.426v3.514L32.515 22.46z"/><path d="M33.527 16.612c0 .897-.73 1.625-1.631 1.625a1.628 1.628 0 0 1-1.632-1.625c0-.898.73-1.625 1.632-1.625.9 0 1.631.727 1.631 1.625zm-10.153 0c0 .897-.731 1.625-1.632 1.625a1.628 1.628 0 0 1-1.632-1.625c0-.898.73-1.625 1.632-1.625.901 0 1.632.727 1.632 1.625z"/><path fill-rule="evenodd" clip-rule="evenodd" d="M20.626 13.475a1.831 1.831 0 0 0-.801.812.891.891 0 0 1-1.188.416.886.886 0 0 1-.418-1.184c.259-.537.8-1.244 1.636-1.644.893-.428 2.011-.452 3.233.24a.886.886 0 0 1 .334 1.21.892.892 0 0 1-1.213.334c-.751-.425-1.253-.343-1.583-.184zm12.385 0c.387.185.673.545.802.812a.891.891 0 0 0 1.187.416.886.886 0 0 0 .418-1.184c-.258-.537-.8-1.244-1.636-1.644-.893-.428-2.01-.452-3.233.24a.886.886 0 0 0-.334 1.21.892.892 0 0 0 1.214.334c.75-.425 1.252-.343 1.582-.184z"/><path d="M15.679 9.546a11.698 11.698 0 0 0-.465 3.274c0 1.86.434 3.616 1.206 5.177a.54.54 0 0 1-.248.726.545.545 0 0 1-.728-.247 12.726 12.726 0 0 1-1.318-5.656C14.126 5.74 19.89 0 27 0s12.874 5.74 12.874 12.82v.016l-.002.024c-.062.829-.21 2.101-.455 3.23-.123.562-.273 1.11-.459 1.554-.093.222-.2.434-.326.613a1.41 1.41 0 0 1-.51.464.545.545 0 0 1-.73-.242.54.54 0 0 1 .244-.727.441.441 0 0 0 .105-.117 2.12 2.12 0 0 0 .212-.407c.15-.358.284-.833.4-1.368.23-1.056.372-2.264.433-3.06a11.66 11.66 0 0 0-.817-4.28c-.12.37-.364.72-.815.87-7.797 3.25-13.055-.723-13.962-2.529-.973 4.846-5.244 3.886-7.513 2.685z"/><path fill-rule="evenodd" clip-rule="evenodd" d="M4.024 25.404c.289.397.2.952-.198 1.24-1.178.852-2.046 2.516-2.046 4.509 0 2.19 1.044 3.968 2.389 4.729a.886.886 0 0 1 .335 1.21.892.892 0 0 1-1.214.334C1.286 36.292 0 33.856 0 31.153c0-2.474 1.074-4.711 2.78-5.946a.892.892 0 0 1 1.244.197zm45.952 0a.886.886 0 0 0 .198 1.24c1.178.852 2.046 2.516 2.046 4.509 0 2.19-1.044 3.968-2.389 4.729a.886.886 0 0 0-.335 1.21.892.892 0 0 0 1.214.334c2.004-1.134 3.29-3.57 3.29-6.273 0-2.474-1.074-4.711-2.78-5.946a.892.892 0 0 0-1.244.197z"/></symbol><symbol viewBox="0 0 97 68" id="icon-play"><path d="M95.201 10.862c-1.186-5.152-5.4-8.953-10.473-9.52C72.715 0 60.556-.006 48.453 0 36.348-.006 24.187 0 12.174 1.34c-5.07.568-9.281 4.369-10.467 9.52C.019 18.2 0 26.209 0 33.762c0 7.555 0 15.563 1.688 22.899 1.184 5.15 5.396 8.952 10.469 9.52 12.012 1.342 24.172 1.349 36.277 1.342 12.107.007 24.264 0 36.275-1.342 5.07-.567 9.285-4.368 10.471-9.52 1.689-7.337 1.695-15.345 1.695-22.898 0-7.554.014-15.563-1.674-22.9zM35.936 48.798V16.76a497491.15 497491.15 0 0 0 30.798 16.068c-10.3 5.342-20.504 10.63-30.798 15.969z"/><path d="M35.936 16.76v32.038l30.798-15.97a497491.15 497491.15 0 0 1-30.798-16.067z"/><path d="M35.936 16.76v32.038l30.798-15.97a497491.15 497491.15 0 0 1-30.798-16.067z"/><path d="M38 19v28c9.025-4.665 17.97-9.288 27-13.957-9.058-4.71-18-9.361-27-14.043z" fill="#F2F2F2"/></symbol><symbol viewBox="0 0 16 17" id="icon-search"><path d="M15.757 15.484l-3.944-4.208a6.949 6.949 0 0 0 1.57-4.412C13.382 3.079 10.38 0 6.69 0 3.001 0 0 3.08 0 6.864s3.002 6.863 6.691 6.863a6.505 6.505 0 0 0 3.834-1.242l3.974 4.24a.856.856 0 0 0 1.234.025.913.913 0 0 0 .024-1.266zM6.69 1.791c2.727 0 4.946 2.275 4.946 5.073 0 2.797-2.219 5.073-4.946 5.073S1.746 9.66 1.746 6.864c0-2.798 2.218-5.073 4.945-5.073z"/></symbol><symbol viewBox="0 0 22 8" id="icon-special"><path d="M22 4c0 .162-.074.32-.203.434a.73.73 0 0 1-.358.168C21.109 6.522 19.23 8 16.969 8c-2.059 0-3.8-1.224-4.344-2.892A3.234 3.234 0 0 1 11 5.54a3.234 3.234 0 0 1-1.625-.433C8.831 6.776 7.09 8 5.031 8 2.77 8 .891 6.523.561 4.602a.73.73 0 0 1-.358-.168A.585.585 0 0 1 0 4c0-.162.074-.32.203-.434a.735.735 0 0 1 .359-.168C.892 1.477 2.77 0 5.032 0c2.276 0 4.165 1.497 4.475 3.436a.62.62 0 0 1 .06.084c.288.49.837.794 1.433.794.597 0 1.146-.305 1.433-.794a.604.604 0 0 1 .06-.084C12.803 1.496 14.692 0 16.97 0c2.261 0 4.14 1.477 4.47 3.398.134.024.26.082.358.168.13.115.203.272.203.434zM5.032 1.227C3.304 1.227 1.899 2.471 1.899 4c0 1.529 1.405 2.773 3.133 2.773 1.727 0 3.133-1.244 3.133-2.773 0-1.529-1.406-2.773-3.133-2.773zm11.937 0c-1.728 0-3.134 1.244-3.134 2.773 0 1.529 1.406 2.773 3.134 2.773 1.727 0 3.133-1.244 3.133-2.773 0-1.529-1.406-2.773-3.133-2.773z"/></symbol><symbol viewBox="0 0 51 50" id="icon-student"><path fill-rule="evenodd" clip-rule="evenodd" d="M2.914 17.97L0 16.058 25.5 0 51 16.058l-10.018 6.57v-4.745c-1.7-1.034-6.994-3.138-14.571-3.284-7.577-.146-14.086 2.128-16.393 3.284v4.745l-6.01-3.942v19.339c1.134.27 2.55 1.35 2.55 3.398 0 1.142-.466 2.537-1.003 3.769a24.088 24.088 0 0 1-1.633 3.095l-.45.709-.466-.7c-.503-.756-1.2-1.986-1.773-3.252-.562-1.241-1.05-2.615-1.05-3.62 0-1.09.491-1.96 1.133-2.548a3.57 3.57 0 0 1 1.598-.857v-20.05zm-.86 21.713a2.33 2.33 0 0 0-.779 1.74c0 .746.391 1.927.953 3.168.386.854.83 1.688 1.224 2.354.35-.614.75-1.383 1.102-2.191.526-1.208.91-2.428.91-3.33 0-1.692-1.341-2.373-2.003-2.373-.386 0-.942.205-1.407.632z"/><path fill-rule="evenodd" clip-rule="evenodd" d="M9.479 24.544a.548.548 0 0 1 .285-.576c4.848-2.553 17.849-6.084 31.44-.015a.548.548 0 0 1 .317.591.547.547 0 0 1-.102.42 1.215 1.215 0 0 0-.096.155c1.412 1.106 2.602 4.344-.996 9.151a.57.57 0 0 1-.181.155c-.091.902-.246 1.93-.49 2.98-.444 1.922-1.198 3.982-2.445 5.466-2.305 2.742-5.463 4.207-6.98 4.675-.62.963-2.256 2.454-4.913 2.454-2.69 0-4.333-1.529-4.935-2.49-1.4-.63-4.376-2.308-6.405-4.631-2.142-2.453-2.806-5.734-3.08-8.433a.543.543 0 0 1-.189-.133c-1.83-1.986-2.469-3.908-2.48-5.532-.012-1.607.592-2.883 1.19-3.588a.537.537 0 0 1 .136-.116 61.935 61.935 0 0 0-.07-.323.545.545 0 0 1-.006-.21zm18.86-2.736c-7.874-.605-14.475 1.342-17.733 2.959.176.812.422 2.027.65 3.322.086-.16.182-.322.287-.48.573-.87 1.446-1.707 2.706-2.043.683-.183 1.862-.361 3.22-.566l.22-.034c1.47-.222 3.163-.483 4.785-.821 1.629-.34 3.152-.753 4.292-1.269.57-.258 1.018-.531 1.332-.815.095-.086.175-.17.241-.253zm1.202.112c-.155.363-.407.68-.71.954-.43.388-.989.716-1.614 1-1.252.567-2.87.998-4.52 1.343-1.656.345-3.378.61-4.845.832l-.153.023c-1.417.214-2.546.385-3.169.552-.927.247-1.601.87-2.075 1.588a5.49 5.49 0 0 0-.805 1.988.55.55 0 0 1-.039.13c.106.765.188 1.493.227 2.118.184 2.94.552 6.95 2.963 9.71 1.966 2.251 4.945 3.89 6.179 4.42a.547.547 0 0 1 .265.243c.346.643 1.683 2.084 4.073 2.084 2.39 0 3.726-1.44 4.072-2.084a.547.547 0 0 1 .338-.269c1.258-.344 4.404-1.718 6.647-4.386 1.084-1.29 1.788-3.154 2.217-5.009.427-1.845.569-3.619.569-4.675v-.016c.023-.804.085-1.947.2-3.129a.561.561 0 0 1-.014-.075c-.092-.768-.495-1.54-1.147-2.3-.65-.759-1.52-1.474-2.49-2.123-1.938-1.298-4.197-2.283-5.653-2.789a.546.546 0 0 1-.163-.09l-.132-.015a34.846 34.846 0 0 0-.221-.025zm10.352 4.002c-.09.357-.169.75-.24 1.16a7.538 7.538 0 0 0-.624-.833c-.736-.86-1.693-1.638-2.711-2.32a23.36 23.36 0 0 0-1.943-1.162 37.313 37.313 0 0 1 5.913 1.979c-.161.34-.29.75-.395 1.176zM9.85 26.51a4.817 4.817 0 0 0-.529 2.262c.008 1.095.363 2.429 1.435 3.885l-.008-.142c-.104-1.664-.532-4.144-.898-6.005zm30.731 1.758c.096-.73.212-1.423.352-2.003.675.83 1.361 2.865-.678 6.173a45.37 45.37 0 0 1 .326-4.17z"/><path d="M20.218 31.934a2.005 2.005 0 0 1-2.004 2.008 2.005 2.005 0 0 1-2.003-2.008c0-1.108.897-2.007 2.003-2.007 1.107 0 2.004.899 2.004 2.007zm14.572 0a2.005 2.005 0 0 1-2.004 2.008 2.005 2.005 0 0 1-2.004-2.008c0-1.108.897-2.007 2.004-2.007 1.106 0 2.003.899 2.003 2.007z"/></symbol><symbol viewBox="0 0 97.395 97.395" id="inst"><path d="M12.501 0h72.393c6.875 0 12.5 5.09 12.5 12.5v72.395c0 7.41-5.625 12.5-12.5 12.5H12.501C5.624 97.395 0 92.305 0 84.895V12.5C0 5.09 5.624 0 12.501 0zm58.447 10.821a4.395 4.395 0 0 0-4.383 4.385v10.495a4.396 4.396 0 0 0 4.383 4.385h11.008a4.398 4.398 0 0 0 4.385-4.385V15.206a4.397 4.397 0 0 0-4.385-4.385H70.948zm15.439 30.367h-8.572a28.486 28.486 0 0 1 1.25 8.355c0 16.2-13.556 29.332-30.275 29.332-16.718 0-30.272-13.132-30.272-29.332 0-2.904.438-5.708 1.25-8.355h-8.945v41.141a3.884 3.884 0 0 0 3.872 3.872h67.822a3.883 3.883 0 0 0 3.872-3.872V41.188h-.002zM48.789 29.533c-10.802 0-19.56 8.485-19.56 18.953s8.758 18.953 19.56 18.953c10.803 0 19.562-8.485 19.562-18.953s-8.758-18.953-19.562-18.953z"/></symbol><symbol viewBox="0 0 120 8" id="link-more"><path d="M118.896 4.626a.5.5 0 0 0 0-.707L115.714.737a.5.5 0 1 0-.707.707l2.828 2.828-2.828 2.829a.5.5 0 0 0 .707.707l3.182-3.182zM.458 4.772h118.084v-1H.458v1z"/></symbol><symbol viewBox="0 0 371.23 371.23" id="modal-close"><path d="M371.23 21.213L350.018 0 185.615 164.402 21.213 0 0 21.213l164.402 164.402L0 350.018l21.213 21.212 164.402-164.402L350.018 371.23l21.212-21.212-164.402-164.403z"/></symbol><symbol viewBox="0 0 7 4" id="navbar-dropdown"><path d="M3.5 4a.488.488 0 0 1-.347-.144L.143.84a.492.492 0 0 1 0-.695.49.49 0 0 1 .694 0L3.5 2.814 6.163.144a.49.49 0 0 1 .693 0 .492.492 0 0 1 0 .695l-3.01 3.017A.488.488 0 0 1 3.5 4z"/></symbol><symbol viewBox="0 0 7 13" id="pagin-next"><path d="M6.892 6.76L.641 12.891a.379.379 0 0 1-.53 0 .362.362 0 0 1 0-.52L6.094 6.5.11.63a.362.362 0 0 1 0-.521A.38.38 0 0 1 .374 0a.37.37 0 0 1 .264.109l6.251 6.133a.361.361 0 0 1 .003.517z"/></symbol><symbol viewBox="0 0 7 13" id="pagin-prev"><path d="M.108 6.76l6.251 6.132a.379.379 0 0 0 .53 0 .362.362 0 0 0 0-.52L.906 6.5 6.89.63a.362.362 0 0 0 0-.521A.381.381 0 0 0 6.626 0a.37.37 0 0 0-.264.109L.111 6.242a.361.361 0 0 0-.003.517z"/></symbol><symbol viewBox="0 0 459.325 459.325" id="plus"><path d="M459.319 229.668c0 22.201-17.992 40.193-40.205 40.193H269.85v149.271c0 22.207-17.998 40.199-40.196 40.193-11.101 0-21.149-4.492-28.416-11.763-7.276-7.281-11.774-17.324-11.769-28.419l-.006-149.288H40.181c-11.094 0-21.134-4.492-28.416-11.774C4.501 250.817.006 240.769.006 229.668 0 207.471 17.992 189.475 40.202 189.475h149.267V40.202C189.469 17.998 207.471 0 229.671 0c22.192.006 40.178 17.986 40.19 40.187v149.288h149.282c22.196.012 40.165 17.996 40.176 40.193z"/></symbol><symbol viewBox="0 0 54 37" id="slick-left"><path d="M.736 20.268l16.069 16c.98.976 2.57.976 3.55 0a2.49 2.49 0 0 0 0-3.536L8.574 21H51.49c1.386 0 2.51-1.12 2.51-2.5S52.876 16 51.49 16H8.572L20.356 4.268c.98-.977.98-2.56 0-3.536A2.51 2.51 0 0 0 18.58 0a2.51 2.51 0 0 0-1.775.732l-16.07 16c-.98.977-.98 2.56 0 3.536z"/></symbol><symbol viewBox="0 0 54 37" id="slick-right"><path d="M53.264 16.732l-16.07-16a2.519 2.519 0 0 0-3.55 0c-.98.977-.98 2.56 0 3.536L45.427 16H2.511A2.506 2.506 0 0 0 0 18.5C0 19.88 1.124 21 2.51 21h42.917L33.644 32.732c-.98.977-.98 2.56 0 3.536A2.51 2.51 0 0 0 35.42 37a2.51 2.51 0 0 0 1.775-.732l16.07-16c.98-.977.98-2.56 0-3.536z"/></symbol><symbol viewBox="0 0 480.56 480.56" id="tel"><path d="M365.354 317.9c-15.7-15.5-35.3-15.5-50.9 0-11.9 11.8-23.8 23.6-35.5 35.6-3.2 3.3-5.9 4-9.8 1.8-7.7-4.2-15.9-7.6-23.3-12.2-34.5-21.7-63.4-49.6-89-81-12.7-15.6-24-32.3-31.9-51.1-1.6-3.8-1.3-6.3 1.8-9.4 11.9-11.5 23.5-23.3 35.2-35.1 16.3-16.4 16.3-35.6-.1-52.1-9.3-9.4-18.6-18.6-27.9-28-9.6-9.6-19.1-19.3-28.8-28.8-15.7-15.3-35.3-15.3-50.9.1-12 11.8-23.5 23.9-35.7 35.5-11.3 10.7-17 23.8-18.2 39.1-1.9 24.9 4.2 48.4 12.8 71.3 17.6 47.4 44.4 89.5 76.9 128.1 43.9 52.2 96.3 93.5 157.6 123.3 27.6 13.4 56.2 23.7 87.3 25.4 21.4 1.2 40-4.2 54.9-20.9 10.2-11.4 21.7-21.8 32.5-32.7 16-16.2 16.1-35.8.2-51.8-19-19.1-38.1-38.1-57.2-57.1zm-19.1-79.7l36.9-6.3c-5.8-33.9-21.8-64.6-46.1-89-25.7-25.7-58.2-41.9-94-46.9l-5.2 37.1c27.7 3.9 52.9 16.4 72.8 36.3 18.8 18.8 31.1 42.6 35.6 68.8zm57.7-160.4c-42.6-42.6-96.5-69.5-156-77.8l-5.2 37.1c51.4 7.2 98 30.5 134.8 67.2 34.9 34.9 57.8 79 66.1 127.5l36.9-6.3c-9.7-56.2-36.2-107.2-76.6-147.7z"/></symbol><symbol viewBox="0 0 43 43" id="view"><path fill-rule="evenodd" clip-rule="evenodd" d="M25.875 16.875h-6.75v-6.75a1.125 1.125 0 0 0-2.25 0v6.75h-6.75a1.125 1.125 0 1 0 0 2.25h6.75v6.75a1.125 1.125 0 1 0 2.25 0v-6.75h6.75a1.125 1.125 0 0 0 0-2.25z"/><path d="M42.628 40.807l-10.452-10.45a18.258 18.258 0 0 0 4.501-12.022C36.677 8.219 28.447 0 18.34 0 8.22 0 0 8.228 0 18.335 0 28.44 8.23 36.669 18.339 36.669c4.596 0 8.802-1.697 12.025-4.5l10.452 10.45c.248.248.582.381.906.381a1.289 1.289 0 0 0 .906-2.193zM2.565 18.335c0-8.696 7.076-15.76 15.764-15.76 8.697 0 15.764 7.074 15.764 15.76 0 8.685-7.067 15.77-15.764 15.77-8.688 0-15.764-7.075-15.764-15.77z"/></symbol><symbol viewBox="0 0 304.36 304.36" id="vk"><path d="M261.945 175.576c10.096 9.857 20.752 19.131 29.807 29.982 4 4.822 7.787 9.798 10.684 15.394 4.105 7.955.387 16.709-6.746 17.184l-44.34-.02c-11.436.949-20.559-3.655-28.23-11.474-6.139-6.253-11.824-12.908-17.727-19.372-2.42-2.642-4.953-5.128-7.979-7.093-6.053-3.929-11.307-2.726-14.766 3.587-3.523 6.421-4.322 13.531-4.668 20.687-.475 10.441-3.631 13.186-14.119 13.664-22.414 1.057-43.686-2.334-63.447-13.641-17.422-9.968-30.932-24.04-42.691-39.971-22.895-31.021-40.428-65.108-56.186-100.15C-2.01 76.458.584 72.22 9.295 72.07c14.465-.281 28.928-.261 43.41-.02 5.879.086 9.771 3.458 12.041 9.012 7.826 19.243 17.402 37.551 29.422 54.521 3.201 4.518 6.465 9.036 11.113 12.216 5.142 3.521 9.057 2.354 11.476-3.374 1.535-3.632 2.207-7.544 2.553-11.434 1.146-13.383 1.297-26.743-.713-40.079-1.234-8.323-5.922-13.711-14.227-15.286-4.238-.803-3.607-2.38-1.555-4.799 3.564-4.172 6.916-6.769 13.598-6.769h50.111c7.889 1.557 9.641 5.101 10.721 13.039l.043 55.663c-.086 3.073 1.535 12.192 7.07 14.226 4.43 1.448 7.35-2.096 10.008-4.905 11.998-12.734 20.561-27.783 28.211-43.366 3.395-6.852 6.314-13.968 9.143-21.078 2.096-5.276 5.385-7.872 11.328-7.757l48.229.043c1.43 0 2.877.021 4.262.258 8.127 1.385 10.354 4.881 7.844 12.817-3.955 12.451-11.65 22.827-19.174 33.251-8.043 11.129-16.645 21.877-24.621 33.072-7.328 10.223-6.746 15.376 2.357 24.255zm0 0" fill-rule="evenodd" clip-rule="evenodd"/></symbol></svg>