<?xml version="1.0" encoding="utf-8"?>
<!-- Generator: Adobe Illustrator 19.0.0, SVG Export Plug-In . SVG Version: 6.00 Build 0)  -->
<svg version="1.1" id="_x31_" xmlns="http://www.w3.org/2000/svg" xmlns:xlink="http://www.w3.org/1999/xlink" x="0px" y="0px"
	 viewBox="-168 186.7 161.5 128.3" style="enable-background:new -168 186.7 161.5 128.3;" xml:space="preserve">
<path class="st0" d="M-65.6,193.3c-9.7-10-14.7-2.1-13.1,3.9C-75.8,194.9-72.7,192.8-65.6,193.3L-65.6,193.3z M-87.6,196.4
	c-30.2,4.8-54.2,15.1-70.9,32c0-6.4,0-12.8,0-19.2c0.5-5.3,2.9-9.8,8.5-12.8c3.8-2,5.4-1.6,9.5-1.8c13.5-0.5,26.9-1,40.4-1.4
	C-94.8,193.4-90.4,194.3-87.6,196.4L-87.6,196.4z M-133.9,219.9c-12.4,7.2-34.6,23.7-34.1,39.7c0.3,8.1,5,14.9,12.2,19.2
	c0.1,1.3,0.4,2.4,1.5,4.2c1.5,2.6,3.6,4.6,6.9,5.8c3.3,1.2,5.5,0.9,8.9,0.7c12.5-0.5,24.9-1.1,37.4-1.6c5.9-0.3,8.1-0.3,13.8-2.6
	c5.7-2.3,10.8-5.7,14.5-11.2c2.8-4.1,3.7-7.7,3.9-12.8c0-0.5,0-1.2,0-2.1c-0.2-4.3-1.4-7.2-1.8-8.1c-0.1-0.1-0.3-0.6-0.6-1.2
	c-2.1-4-5.2-6.4-6.2-7.2c-0.9-0.7-1.8-1.3-2.8-1.8c-4.5-2.5-8.9-3-10.4-3.2c12.8-7.4,18.3-21,10.1-33.2c-16.8,1.3-30,4.6-39.7,9.8
	c1.8-0.1,4.3-0.2,7.5-0.3c3.2,0,4.6-0.2,7,2.3c2.9,3.1,3.8,8.4-0.6,12.4c-2.3,1.6-5,2.2-7.8,2.4c-2.7,0-5.4,0-8.2,0
	c-2.7,0-4.3,0.2-6.8-1.3C-132.4,228.1-133.8,224.6-133.9,219.9z M-156.9,246.5l1,29c0,0.5,0,1,0,1.5c-5.2-3.3-8.8-8.2-9.3-14
	C-165.8,256.6-162.5,250.7-156.9,246.5L-156.9,246.5z M-122.1,249.9h16.9c4.7,0,8.5,3.8,8.5,8.5l0,0c0,4.7-3.8,8.5-8.5,8.5h-16.9
	c-4.7,0-8.5-3.8-8.5-8.5l0,0C-130.6,253.7-126.8,249.9-122.1,249.9z"/>
<path class="st1" d="M-31.3,189.5c-12.5-2.7-25.2-3.1-38-2.6c6.9,3.7,10.8,9.7,9.7,19.3C-49.7,198.2-40.1,191.8-31.3,189.5z"/>
<path class="st2" d="M-64.3,284.4c10.5,5.7,21.7,8.3,33.9,5.2c4.6-1.2,11.7-3,13.4-8c1.3-3.8-0.3-7.7-2.4-9.9
	c-2.7-2.9-4.9-1.8-8.4-1.5c-6.1,0.7-13.5,2.3-19.3,0.1c-4.2-2-6.8-4.6-8.2-7.6c-1.2-2.6-2.4-5.5,1.6-5.2c8.8,1.2,17.6,2.4,26.4,3.5
	c4.1,0.5,8.2,0.9,11.9-0.2c3-0.9,4.9-2.3,6.2-4.2c4.9-7.6,2.1-21.1-2.6-28.3C-22,212.6-44,207.2-60.4,216.1
	c-5.2,2.8-10,6.9-14.2,12.4c-6.3,9.1-7.9,19.4-6.4,30.5C-78.1,270.7-72.5,279.1-64.3,284.4L-64.3,284.4z M-49.4,234.3
	c6.1-4.1,15.9-2.4,18.1,5.2c1.1,3.8-0.3,5.9-4.2,5.6c-4.2-0.3-8.5-0.5-12.7-0.8C-54.3,243-53.7,237.3-49.4,234.3z"/>
<path class="st3" d="M-150.9,296.5c0-1.4-0.9-2.3-2.3-2.3c-1.4,0-2.3,0.9-2.3,2.3v15.9c0,1.4,0.9,2.3,2.3,2.3c1.4,0,2.3-0.9,2.3-2.3
	V296.5L-150.9,296.5z M-145.3,307.9c0-1.3,1-2.4,2.3-2.4c1,0,1.8,0.9,1.8,2.2v4.7c0,1.4,0.9,2.3,2.3,2.3c1.4,0,2.3-0.9,2.3-2.3v-4.9
	c0-4.4-1.7-6.6-5.2-6.6c-1.4,0-2.7,0.5-3.8,1.4c-0.4-0.7-1.1-1.1-2-1.1c-1.4,0-2.3,0.9-2.3,2.3v8.9c0,1.4,0.9,2.3,2.3,2.3
	c1.4,0,2.3-0.9,2.3-2.3V307.9L-145.3,307.9z M-134.1,305.8v4.6c0,3.4,1.7,4.6,4.7,4.6c0.9,0,1.6-0.1,2.1-0.2c1-0.3,1.6-1.1,1.6-2.1
	c0-1.3-0.7-2.4-2-2.4c-0.2,0-0.8,0.1-1,0.1c-0.4,0-0.6-0.1-0.6-0.6c-0.1-0.4-0.1-0.7-0.1-1.5v-2.5h1.3c1.4,0,2.3-0.9,2.3-2.3
	s-0.9-2.3-2.3-2.3h-1.3v-1.3c0-1.4-0.9-2.3-2.3-2.3c-1.4,0-2.3,0.9-2.3,2.3v1.3h-0.1c-1.4,0-2.3,0.9-2.3,2.3
	C-136.5,304.9-135.6,305.8-134.1,305.8L-134.1,305.8L-134.1,305.8z M-113.9,308.9L-113.9,308.9c1.3,1,1.5,2.1,0.4,3.7
	c-1.2,1.5-3.2,2.4-5.4,2.4c-1.9,0-3.6-0.7-5-2c-1.4-1.4-2-3-2-5c0-1.9,0.7-3.6,2-5c1.4-1.4,3-2.1,5-2.1c1.8,0,3.2,0.5,4.5,1.5
	c1.2,0.9,1.9,2.1,1.9,3.5c0,1.3-0.9,2.2-2.3,2.2h-6.3c0.1,1.4,0.8,2.4,2.3,2.4c0.8,0,1.4-0.3,1.8-0.9
	C-116.4,308.4-115,308.1-113.9,308.9L-113.9,308.9z M-120.8,305.5h3.3c-0.3-0.7-0.9-1.1-1.7-1.1
	C-119.9,304.3-120.4,304.7-120.8,305.5L-120.8,305.5z M-107.4,312.4V308c0-1.4,1-2.5,2.3-2.5h0.6c1.4,0,2.3-0.9,2.3-2.2
	c0-1.4-0.9-2.3-2.3-2.3h-0.1c-1.2,0-2.3,0.4-3.2,1.3c-0.4-0.6-1.1-1-1.9-1c-1.4,0-2.3,0.9-2.3,2.3v8.9c0,1.4,0.9,2.3,2.3,2.3
	C-108.4,314.7-107.4,313.8-107.4,312.4L-107.4,312.4z M-97.1,307.9c0-1.3,1-2.4,2.3-2.4c1,0,1.8,0.9,1.8,2.2v4.7
	c0,1.4,0.9,2.3,2.3,2.3s2.3-0.9,2.3-2.3v-4.9c0-4.4-1.7-6.6-5.2-6.6c-1.4,0-2.7,0.5-3.8,1.4c-0.4-0.7-1.1-1.1-2-1.1
	c-1.4,0-2.3,0.9-2.3,2.3v8.9c0,1.4,0.9,2.3,2.3,2.3s2.3-0.9,2.3-2.3L-97.1,307.9L-97.1,307.9z M-73.4,303.5c0-1.4-0.9-2.3-2.3-2.3
	c-1,0-1.7,0.4-2.1,1.2c-1.1-1-2.4-1.5-3.8-1.5c-1.9,0-3.3,0.7-4.4,2.1c-1.1,1.4-1.6,3.1-1.6,5c0,1.9,0.5,3.6,1.6,5
	c1.1,1.4,2.5,2.1,4.4,2.1c1.5,0,2.8-0.5,3.9-1.4c0.4,0.7,1.1,1.1,2,1.1c1.4,0,2.3-0.9,2.3-2.3V303.5L-73.4,303.5z M-82.1,306.2
	c0.9-1,2.5-1,3.4,0c0.5,0.5,0.7,1.1,0.7,1.8s-0.2,1.3-0.7,1.8c-0.9,0.9-2.5,0.9-3.4,0c-0.5-0.5-0.7-1.1-0.7-1.8
	C-82.8,307.3-82.5,306.7-82.1,306.2L-82.1,306.2z M-70.4,305.8v4.6c0,3.4,1.7,4.6,4.7,4.6c0.9,0,1.6-0.1,2.1-0.2
	c1-0.3,1.6-1.1,1.6-2.1c0-1.3-0.7-2.4-2-2.4c-0.2,0-0.8,0.1-1,0.1c-0.4,0-0.6-0.1-0.6-0.6c-0.1-0.4-0.1-0.7-0.1-1.5v-2.5h1.3
	c1.4,0,2.3-0.9,2.3-2.3s-0.9-2.3-2.3-2.3h-1.3v-1.3c0-1.4-0.9-2.3-2.3-2.3s-2.3,0.9-2.3,2.3v1.3h-0.1c-1.4,0-2.3,0.9-2.3,2.3
	C-72.8,304.9-71.9,305.8-70.4,305.8L-70.4,305.8L-70.4,305.8z M-56.7,303.5c0-1.4-0.9-2.3-2.3-2.3s-2.3,0.9-2.3,2.3v8.9
	c0,1.4,0.9,2.3,2.3,2.3s2.3-0.9,2.3-2.3V303.5L-56.7,303.5z M-48.7,301c-2,0-3.7,0.7-5.1,2.1s-2.1,3-2.1,5c0,1.9,0.7,3.6,2.1,5
	s3.1,2,5.1,2s3.7-0.7,5.1-2c1.4-1.4,2.1-3,2.1-5c0-1.9-0.7-3.6-2.1-5C-45,301.7-46.7,301-48.7,301L-48.7,301z M-50.4,306.2
	c0.9-1,2.5-1,3.4,0c0.5,0.5,0.7,1.1,0.7,1.8s-0.2,1.3-0.7,1.8c-0.9,0.9-2.5,0.9-3.4,0c-0.5-0.5-0.7-1.1-0.7-1.8
	S-50.9,306.7-50.4,306.2L-50.4,306.2z M-36.2,307.9c0-1.3,1-2.4,2.3-2.4c1,0,1.8,0.9,1.8,2.2v4.7c0,1.4,0.9,2.3,2.3,2.3
	c1.4,0,2.3-0.9,2.3-2.3v-4.9c0-4.4-1.7-6.6-5.2-6.6c-1.4,0-2.7,0.5-3.8,1.4c-0.4-0.7-1.1-1.1-2-1.1c-1.4,0-2.3,0.9-2.3,2.3v8.9
	c0,1.4,0.9,2.3,2.3,2.3c1.4,0,2.3-0.9,2.3-2.3L-36.2,307.9L-36.2,307.9z M-12.4,303.5c0-1.4-0.9-2.3-2.3-2.3c-1,0-1.7,0.4-2.1,1.2
	c-1.1-1-2.4-1.5-3.8-1.5c-1.9,0-3.3,0.7-4.4,2.1c-1.1,1.4-1.6,3.1-1.6,5c0,1.9,0.5,3.6,1.6,5c1.1,1.4,2.5,2.1,4.4,2.1
	c1.5,0,2.8-0.5,3.9-1.4c0.4,0.7,1.1,1.1,2,1.1c1.4,0,2.3-0.9,2.3-2.3L-12.4,303.5L-12.4,303.5z M-21.1,306.2c0.9-1,2.5-1,3.4,0
	c0.5,0.5,0.7,1.1,0.7,1.8s-0.2,1.3-0.7,1.8c-0.9,0.9-2.5,0.9-3.4,0c-0.5-0.5-0.7-1.1-0.7-1.8S-21.6,306.7-21.1,306.2L-21.1,306.2z
	 M-11.5,312.5c0,1.4,0.9,2.3,2.3,2.3c1.4,0,2.3-0.9,2.3-2.3v-12.6c0-1.4-0.9-2.3-2.3-2.3c-1.4,0-2.3,0.9-2.3,2.3V312.5z
	 M-56.6,298.2c0,1.3-1,2.3-2.3,2.3s-2.3-1-2.3-2.3c0-1.3,1-2.3,2.3-2.3S-56.6,296.9-56.6,298.2z"/>
<path class="st4" d="M-80.3,240.9c0,0,9.8,5.1,11.2,15.4c1.3,9.5-1.8,15.3-4.6,19.1c-3.1-4.4-6.5-10.4-7.4-17.5
	C-82.4,248.2-80.3,240.9-80.3,240.9z"/>
</svg>
