<?xml version="1.0" encoding="utf-8"?>
<!-- Generator: Adobe Illustrator 19.0.0, SVG Export Plug-In . SVG Version: 6.00 Build 0)  -->
<svg version="1.1" id="Слой_1" xmlns="http://www.w3.org/2000/svg" xmlns:xlink="http://www.w3.org/1999/xlink" x="0px" y="0px"
	 viewBox="0 0 54 54" style="enable-background:new 0 0 54 54;" xml:space="preserve">

<g>
	<g>
		<path d="M26.7,0C16,0.4,7.1,8.8,6.1,19.4c-0.2,2.1-0.1,4.2,0.3,6.2l0,0c0,0,0,0.2,0.1,0.7c0.3,1.5,0.8,2.9,1.5,4.3
			c2.2,5.1,7.2,13.7,18.4,23c0.7,0.6,1.7,0.6,2.4,0c11.2-9.3,16.2-17.9,18.4-23c0.6-1.4,1.1-2.8,1.5-4.3c0.1-0.4,0.1-0.7,0.1-0.7
			l0,0c0.3-1.3,0.4-2.7,0.4-4.1C49,9.4,39-0.4,26.7,0z M27.5,32.3c-5.8,0-10.5-4.7-10.5-10.5s4.7-10.5,10.5-10.5S38,16,38,21.8
			S33.3,32.3,27.5,32.3z"/>
	</g>
</g>
</svg>
