<?xml version="1.0" encoding="utf-8"?>
<!-- Generator: Adobe Illustrator 19.0.0, SVG Export Plug-In . SVG Version: 6.00 Build 0)  -->
<svg version="1.1" id="Слой_1" xmlns="http://www.w3.org/2000/svg" xmlns:xlink="http://www.w3.org/1999/xlink" x="0px" y="0px"
	 viewBox="0 0 500 500" enable-background="new 0 0 500 500" xml:space="preserve">
<path d="M382.3,43.6C355.4,16.7,318.2,0,277.4,0H153.1h-24.2v24.2v278.6v53H74.1v48.4h54.8V500h48.4v-95.8h170v-48.4
	h-170v-53h100.1c40.9,0,78-16.7,104.9-43.6s43.6-64,43.6-104.9v-5.8C425.9,107.6,409.2,70.5,382.3,43.6z M377.5,154.3
	c0,27.5-11.3,52.5-29.4,70.7c-18.2,18.2-43.2,29.4-70.7,29.4H177.3v-206h100.1c27.5,0,52.5,11.3,70.7,29.4
	c18.2,18.2,29.4,43.2,29.4,70.7V154.3z"/>
</svg>
