<svg width="32" height="23" viewBox="0 0 32 23" version="1.1" xmlns="http://www.w3.org/2000/svg" xmlns:xlink="http://www.w3.org/1999/xlink">
<path id="path0_fill" d="M 21.221 21.808C 20.777 22.252 20.078 22.252 19.634 21.808C 19.205 21.379 19.205 20.665 19.634 20.237L 27.681 12.19L 1.127 12.19C 0.507999 12.19 -7.58056e-17 11.698 0 11.079C 7.58056e-17 10.46 0.507999 9.952 1.127 9.952L 27.681 9.952L 19.634 1.92C 19.205 1.476 19.205 0.761 19.634 0.333C 20.078 -0.111 20.777 -0.111 21.221 0.333L 31.173 10.285C 31.602 10.714 31.602 11.428 31.173 11.856L 21.221 21.808Z"/>
</svg>