<?xml version="1.0" encoding="utf-8"?>
<!-- Generator: Adobe Illustrator 19.0.0, SVG Export Plug-In . SVG Version: 6.00 Build 0)  -->
<svg version="1.1" id="Capa_1" xmlns="http://www.w3.org/2000/svg" xmlns:xlink="http://www.w3.org/1999/xlink" x="0px" y="0px"
	 viewBox="-47 51 384 384" style="enable-background:new -47 51 384 384;" xml:space="preserve">
<polygon points="-35,63 66,63 86,161 41,220 68,267 169,347 229,299 327,320 327,422 249,413.7 146,388 69,338 -2,242.5 -35,116 "/>
<path d="M326.9,434.4c-0.1,0-0.3,0-0.4,0c-127.1-4.8-224.2-44.3-288.8-117.4c-50-56.6-70.2-123-78.4-168.7
	c-8.8-49.4-5.9-85.3-5.8-86.8c0.5-5.2,4.8-9.3,10.1-9.3H70.5c4.9,0,9.2,3.6,10,8.4l16.9,99.4c0.5,2.9-0.3,5.8-2.1,8.1l-43.9,54.6
	c2.2,5.6,7.4,16.6,18.7,31.2c15,19.4,44,49,97.6,81.5l53.3-42.9c2.3-1.8,5.2-2.6,8.1-2.1l99.4,16.9c4.9,0.8,8.4,5.1,8.4,10v106.9
	c0,2.8-1.1,5.4-3.1,7.3C332,433.4,329.5,434.4,326.9,434.4z M-26.6,72.6c-0.3,13.4,0.2,40.2,6,72.9c7.7,43,26.8,105.4,73.6,158.3
	c59,66.6,147.6,103.6,263.7,109.9V326l-86.5-14.7l-55.3,44.5c-3.3,2.7-7.9,3-11.5,0.8C44.9,286.4,30.7,225.4,30.2,222.8
	c-0.6-3,0.1-6.1,2-8.5l44.5-55.3L62,72.6H-26.6z"/>
<path d="M280.4,206.2c-5.6,0-10.1-4.5-10.1-10.1c0-42.3-34.4-76.7-76.7-76.7c-5.6,0-10.1-4.5-10.1-10.1c0-5.6,4.5-10.1,10.1-10.1
	c53.5,0,97,43.5,97,97C290.6,201.6,286,206.2,280.4,206.2z"/>
<path d="M326.9,206.2c-5.6,0-10.1-4.5-10.1-10.1c0-67.9-55.2-123.1-123.1-123.1c-5.6,0-10.1-4.5-10.1-10.1s4.5-10.1,10.1-10.1
	C272.7,52.6,337,117,337,196C337,201.6,332.5,206.2,326.9,206.2z"/>
</svg>
