<svg width="26" height="33" viewBox="0 0 26 33" version="1.1" xmlns="http://www.w3.org/2000/svg" xmlns:xlink="http://www.w3.org/1999/xlink">
<path d="M 25.6822 6.93398L 18.9586 0.312931C 18.757 0.114362 18.4773 0 18.1913 0L 1.42307 0C 0.737822 0 0 0.521172 0 1.66479L 0 31.8621C 0 32.3383 0.486489 32.8026 1.06196 32.9488C 1.09084 32.9562 1.11858 32.967 1.14862 32.9727C 1.23876 32.9903 1.33062 33 1.42307 33L 24.5769 33C 24.6694 33 24.7612 32.9903 24.8514 32.9727C 24.8814 32.967 24.9092 32.9562 24.938 32.9488C 25.5135 32.8026 26 32.3383 26 31.8621L 26 7.953C 26 7.5166 25.9468 7.19457 25.6822 6.93398ZM 23.9402 6.82759L 19.0667 6.82759L 19.0667 2.02836L 23.9402 6.82759ZM 1.42307 31.8621C 1.38204 31.8621 1.34507 31.8473 1.30867 31.8342C 1.21853 31.7921 1.15556 31.7033 1.15556 31.5986L 1.15556 23.3276L 24.8444 23.3276L 24.8444 31.5986C 24.8444 31.7033 24.7815 31.7915 24.6913 31.8342C 24.6549 31.8473 24.618 31.8621 24.5769 31.8621L 1.42307 31.8621ZM 1.15556 22.1897L 1.15556 1.66479C 1.15556 1.54133 1.17462 1.13793 1.42307 1.13793L 17.9446 1.13793C 17.9256 1.20962 17.9111 1.28359 17.9111 1.3604L 17.9111 7.96552L 24.6185 7.96552C 24.6965 7.96552 24.7711 7.95129 24.8439 7.93252C 24.8439 7.94105 24.8444 7.94447 24.8444 7.953L 24.8444 22.1897L 1.15556 22.1897Z"/>
<path d="M 8.97992 25.4578C 8.78752 25.3024 8.57028 25.1852 8.32819 25.1078C 8.0861 25.0299 7.84112 24.9912 7.59383 24.9912L 5.91943 24.9912L 5.91943 30.7241L 6.86757 30.7241L 6.86757 28.6548L 7.57072 28.6548C 7.87579 28.6548 8.15543 28.611 8.40792 28.5228C 8.66041 28.4346 8.8765 28.31 9.05561 28.1495C 9.23472 27.9891 9.37397 27.7905 9.4745 27.5544C 9.57446 27.3183 9.62472 27.0554 9.62472 26.7647C 9.62472 26.4899 9.56521 26.2424 9.44677 26.0216C 9.32832 25.8008 9.17232 25.6137 8.97992 25.4578ZM 8.62054 27.3519C 8.56219 27.51 8.4865 27.6329 8.39174 27.7211C 8.29699 27.8093 8.19299 27.873 8.07974 27.9117C 7.9665 27.9504 7.85152 27.9703 7.73597 27.9703L 6.86699 27.9703L 6.86699 25.699L 7.57766 25.699C 7.81974 25.699 8.01446 25.7366 8.16237 25.8117C 8.3097 25.8868 8.4241 25.9801 8.50614 26.0916C 8.58761 26.2031 8.64135 26.3197 8.66792 26.4415C 8.69392 26.5633 8.70721 26.6708 8.70721 26.7641C 8.70721 26.998 8.67832 27.1937 8.62054 27.3519Z"/>
<path d="M 14.7066 25.831C 14.4617 25.5772 14.1537 25.373 13.7822 25.2205C 13.4107 25.068 12.9802 24.9912 12.4909 24.9912L 10.7373 24.9912L 10.7373 30.7241L 12.941 30.7241C 13.0143 30.7241 13.1276 30.715 13.2807 30.6968C 13.4332 30.6786 13.6019 30.6376 13.7862 30.5722C 13.9705 30.5073 14.1612 30.41 14.3588 30.2803C 14.5564 30.1506 14.7338 29.9731 14.8921 29.7472C 15.0504 29.5213 15.1804 29.2414 15.2833 28.9068C 15.3861 28.5723 15.4375 28.1689 15.4375 27.6972C 15.4375 27.3547 15.3769 27.0213 15.2561 26.6975C 15.1342 26.3744 14.9516 26.0853 14.7066 25.831ZM 14.0156 29.4326C 13.7313 29.8371 13.268 30.0391 12.6255 30.0391L 11.6854 30.0391L 11.6854 25.6984L 12.2384 25.6984C 12.6913 25.6984 13.06 25.757 13.3442 25.8737C 13.6285 25.9903 13.8538 26.1434 14.0197 26.3328C 14.1855 26.5223 14.297 26.7334 14.3553 26.9667C 14.4131 27.1999 14.442 27.4361 14.442 27.6745C 14.442 28.442 14.2999 29.0286 14.0156 29.4326Z"/>
<path d="M 16.812 30.7241L 17.7757 30.7241L 17.7757 28.1416L 20.2088 28.1416L 20.2088 27.5038L 17.7757 27.5038L 17.7757 25.699L 20.4532 25.699L 20.4532 24.9912L 16.812 24.9912L 16.812 30.7241Z"/>
<path d="M 18.4474 13.0641C 17.9165 13.0641 17.2647 13.1323 16.5073 13.2678C 15.4499 12.1628 14.3464 10.5492 13.5675 8.96524C 14.34 5.76253 13.9535 5.30907 13.783 5.09514C 13.6016 4.86755 13.3457 4.49829 13.0545 4.49829C 12.9325 4.49829 12.5997 4.55291 12.4674 4.59615C 12.1346 4.70539 11.9555 4.95801 11.8122 5.28745C 11.4037 6.22795 11.9642 7.83129 12.5408 9.06708C 12.048 10.9976 11.2212 13.3082 10.3522 15.1835C 8.16241 16.1712 6.99934 17.1413 6.89419 18.067C 6.85605 18.4038 6.93694 18.8982 7.53841 19.3426C 7.70308 19.4638 7.89605 19.5281 8.09712 19.5281C 8.60268 19.5281 9.11343 19.1469 9.7045 18.3293C 10.1355 17.733 10.5983 16.9199 11.0813 15.9106C 12.6286 15.2443 14.5428 14.6424 16.182 14.305C 17.0949 15.1681 17.9124 15.6051 18.615 15.6051C 19.1327 15.6051 19.5764 15.3707 19.8977 14.9274C 20.2322 14.466 20.3085 14.0529 20.123 13.6985C 19.9005 13.2723 19.3522 13.0641 18.4474 13.0641ZM 8.10983 18.5677C 7.83943 18.3634 7.85503 18.2257 7.86081 18.1739C 7.89663 17.8576 8.39988 17.296 9.63459 16.6127C 8.69859 18.3151 8.19592 18.5409 8.10983 18.5677ZM 12.8476 5.52584C 12.8725 5.51788 13.4514 6.15227 12.9031 7.35564C 12.0792 6.52552 12.791 5.54462 12.8476 5.52584ZM 11.6533 14.6441C 12.2398 13.2678 12.7852 11.748 13.1983 10.3404C 13.8472 11.4886 14.6266 12.6026 15.4066 13.4948C 14.1736 13.7798 12.8609 14.1821 11.6533 14.6441ZM 19.1073 14.3715C 18.9293 14.6168 18.5433 14.6225 18.4081 14.6225C 18.1002 14.6225 17.9852 14.4421 17.5143 14.0854C 17.9026 14.0364 18.2689 14.0239 18.5607 14.0239C 19.0743 14.0239 19.1685 14.0984 19.2396 14.136C 19.2269 14.1764 19.1933 14.2526 19.1073 14.3715Z"/>
</svg>