<svg width="64" height="64" viewBox="0 0 64 64" version="1.1" xmlns="http://www.w3.org/2000/svg" xmlns:xlink="http://www.w3.org/1999/xlink">
<path id="Vector" d="M 14.0015 37.3539C 13.0012 36.3458 11.6712 35.7906 10.2567 35.7906C 9.42104 35.7906 8.61554 35.9859 7.88941 36.3522C 0.754028 26.1643 0.729278 12.2034 7.94979 1.99085C 8.35029 1.42422 8.21929 0.637653 7.65704 0.233912C 7.09479 -0.169829 6.31428 -0.0378095 5.91366 0.528814C 1.93078 6.16217 -0.112473 12.8145 0.00477678 19.7665C 0.116402 26.3825 2.17765 32.6584 5.97528 37.9862C 4.46628 40.0723 4.64491 43.0203 6.51179 44.9019C 7.54429 45.9423 8.90041 46.4626 10.2567 46.4626C 11.6129 46.4626 12.969 45.9423 14.0015 44.9019C 16.0664 42.8209 16.0664 39.435 14.0015 37.3539ZM 12.2337 43.1203C 11.1433 44.2189 9.36966 44.2189 8.27954 43.1203C 7.18929 42.0216 7.18929 40.2339 8.27954 39.1353C 8.80766 38.6031 9.50979 38.3099 10.2565 38.3099C 11.0033 38.3099 11.7055 38.6031 12.2335 39.1353C 13.3239 40.234 13.3239 42.0217 12.2337 43.1203Z" transform="translate(0 12.9617)"/>
<path id="Vector_2" d="M 33.7453 50.1043C 33.3414 49.5405 32.5602 49.4135 32.0003 49.821C 28.4268 52.4232 24.4097 54.1472 20.0604 54.945C 19.0526 55.1299 18.0249 54.8577 17.2408 54.1983C 16.4623 53.5438 16.0159 52.5821 16.0159 51.5601L 16.0159 42.3266L 16.125 42.3266C 17.5724 42.3266 18.75 41.1399 18.75 39.6811L 18.75 37.5544C 22.9842 35.9255 26 31.7904 26 26.9581L 26 20.9939C 28.0145 20.4394 29.5 18.5799 29.5 16.3764C 29.5 13.9505 27.6997 11.9417 25.375 11.6322L 25.375 3.77917C 25.375 1.69534 23.6928 -8.45761e-08 21.625 -8.45761e-08C 19.5573 -8.45761e-08 17.875 1.69534 17.875 3.77917L 17.875 11.5895L 11.625 11.5895L 11.625 3.77917C 11.625 1.69534 9.94276 -8.45761e-08 7.87501 -8.45761e-08C 5.80726 -8.45761e-08 4.125 1.69534 4.125 3.77917L 4.125 11.6322C 1.80038 11.9417 0 13.9504 0 16.3764C 0 18.5799 1.4855 20.4394 3.5 20.9939L 3.5 26.9581C 3.5 31.7904 6.51588 35.9255 10.75 37.5544L 10.75 39.6813C 10.75 41.14 11.9276 42.3267 13.375 42.3267L 13.5159 42.3267L 13.5159 51.5602C 13.5159 53.3316 14.2898 54.9982 15.639 56.1329C 16.7159 57.0384 18.0579 57.5215 19.4364 57.5215C 19.7925 57.5215 20.151 57.4892 20.508 57.4237C 25.227 56.558 29.5862 54.6872 33.4642 51.8632C 34.0238 51.4556 34.1495 50.6682 33.7453 50.1043ZM 20.3752 3.77917C 20.3752 3.08456 20.9359 2.51945 21.6252 2.51945C 22.3144 2.51945 22.8752 3.08456 22.8752 3.77917L 22.8752 11.5895L 20.3752 11.5895L 20.3752 3.77917ZM 6.62513 3.77917C 6.62513 3.08456 7.18588 2.51945 7.87514 2.51945C 8.56439 2.51945 9.12514 3.08456 9.12514 3.77917L 9.12514 11.5895L 6.62513 11.5895L 6.62513 3.77917ZM 2.50013 16.3764C 2.50013 15.1261 3.50951 14.1089 4.75013 14.1089L 24.7502 14.1089C 25.9908 14.1089 27.0002 15.1261 27.0002 16.3764C 27.0002 17.6267 25.9908 18.6439 24.7502 18.6439L 4.75013 18.6439C 3.50951 18.6439 2.50013 17.6267 2.50013 16.3764ZM 6.00013 26.9581L 6.00013 21.1633L 23.5002 21.1633L 23.5002 26.9581C 23.5002 31.8203 19.5749 35.7761 14.7501 35.7761C 9.92539 35.7761 6.00013 31.8203 6.00013 26.9581ZM 14.7975 39.8072C 14.787 39.807 14.7766 39.8056 14.7661 39.8056C 14.7556 39.8056 14.7453 39.807 14.7348 39.8072L 13.3754 39.8072C 13.3061 39.8072 13.2501 39.7507 13.2501 39.6813L 13.2501 38.1945C 13.741 38.2608 14.2416 38.2956 14.7501 38.2956C 15.2586 38.2956 15.7593 38.2608 16.2501 38.1945L 16.2501 39.6813C 16.2501 39.7507 16.1941 39.8072 16.1251 39.8072L 14.7975 39.8072Z" transform="translate(17.25 6.47852)"/>
<path id="Vector_3" d="M 2.10559 0.338774C 1.61022 -0.127323 0.838342 -0.109307 0.364592 0.373293C 0.354966 0.383118 0.345343 0.393194 0.336218 0.402894C -0.134908 0.91157 -0.107533 1.7086 0.397093 2.18339C 0.638093 2.41001 0.944216 2.52213 1.24972 2.52213C 1.57259 2.52213 1.89472 2.39679 2.1381 2.14887C 2.14772 2.13905 2.15734 2.12897 2.16647 2.11927C 2.6376 1.61059 2.61022 0.813564 2.10559 0.338774Z" transform="translate(52.491 52.8296)"/>
<path id="Vector_4" d="M 50.9698 29.8222C 50.413 22.1104 47.1146 14.8484 41.6827 9.37401C 36.3437 3.9931 29.2117 0.699431 21.6006 0.0999289C 14.0822 -0.492519 6.59954 1.5636 0.52853 5.88899C -0.0352205 6.29059 -0.169095 7.07678 0.229405 7.64479C 0.627781 8.2128 1.40803 8.34796 1.97166 7.94624C 13.5808 -0.324723 29.8928 1.0548 39.915 11.1555C 50.2721 21.5937 51.5245 37.8032 42.8926 49.698C 42.4851 50.2596 42.6065 51.0477 43.1637 51.4585C 43.3862 51.6225 43.6446 51.7015 43.9007 51.7015C 44.2858 51.7015 44.6658 51.5227 44.9107 51.1852C 49.3692 45.041 51.5212 37.4542 50.9698 29.8222Z" transform="translate(12.9454 0)"/>
<path id="Vector_5" d="M 2.15042 0.365032C 1.66005 -0.124622 0.868545 -0.121346 0.382544 0.372969L 0.362169 0.39388C -0.123832 0.887944 -0.120206 1.6856 0.370044 2.17538C 0.613795 2.41876 0.93192 2.54032 1.25005 2.54032C 1.57167 2.54032 1.89342 2.41586 2.13792 2.16744L 2.1583 2.14653C 2.6443 1.65247 2.64067 0.854812 2.15042 0.365032Z" transform="translate(8.83826 9.15479)"/>
<path id="Vector_6" d="M 5.80716 4.76139C 5.58316 4.37415 5.17191 4.13607 4.72716 4.13607L 3.83391 4.13607L 5.47916 2.04165C 5.90766 1.49619 5.81616 0.703825 5.27491 0.272118C 4.73366 -0.159841 3.94741 -0.0675017 3.51891 0.477832L 0.269902 4.61388C -0.0275984 4.99268 -0.0839728 5.50954 0.124777 5.9444C 0.333528 6.37926 0.770653 6.65551 1.25003 6.65551L 2.58253 6.65551L 1.05178 9.37929C 0.711528 9.98471 0.922777 10.7534 1.52328 11.0962C 1.71803 11.2073 1.92941 11.2601 2.13828 11.2601C 2.57416 11.2599 2.99728 11.03 3.22728 10.6209L 5.81491 6.01658C 6.03416 5.62657 6.03116 5.14863 5.80716 4.76139Z" transform="translate(29.0114 28.2087)"/>
</svg>