<svg width="64" height="64" viewBox="0 0 64 64" version="1.1" xmlns="http://www.w3.org/2000/svg" xmlns:xlink="http://www.w3.org/1999/xlink">
<path id="Vector" d="M 53.6847 13.1861C 52.993 9.0271 50.0853 5.61445 46.0969 4.28077L 37.24 1.32026L 37.24 1.5751e-07L 35.1815 1.5751e-07L 35.1815 1.80542L 27.9766 15.3548L 20.7717 1.80645L 20.7717 1.5751e-07L 18.7132 1.5751e-07L 18.7132 2.32258L 26.9473 17.8065L 26.9473 19.6129L 14.5961 19.6129L 14.5961 21.6774L 26.9473 21.6774L 26.9473 24.7742L 11.6452 24.7742L 12.4665 18.1832C 13.7932 17.3079 14.5961 15.8307 14.5961 14.208L 14.5961 13.4194L 12.5375 13.4194L 12.5375 14.208C 12.5375 15.2382 11.9663 16.1652 11.0482 16.6255L 10.5552 16.8723L 9.57015 24.7742L 2.43011 24.7742L 3.60245 17.7177L 1.57169 17.3791L -2.39508e-07 26.8387L 55.9521 26.8387L 53.6847 13.1861ZM 29.0059 24.7742L 29.0059 21.6774L 41.3571 21.6774L 41.3571 19.6129L 29.0059 19.6129L 29.0059 17.8065L 36.7099 3.31974L 41.3571 4.87226L 41.3571 14.207C 41.3571 15.8297 42.1599 17.3068 43.4867 18.1832L 44.308 24.7742L 29.0059 24.7742ZM 46.383 24.7742L 45.398 16.8723L 44.905 16.6255C 43.9869 16.1641 43.4156 15.2382 43.4156 14.208L 43.4156 5.56078L 45.4454 6.23897C 48.7092 7.3311 51.0878 10.1234 51.6539 13.5257L 53.522 24.7742L 46.383 24.7742Z" transform="translate(8.04787 37.1614)"/>
<path id="Vector_2" d="M 1.02927 22.7097C 1.02927 25.3584 3.03635 27.5221 5.60129 27.8132C 6.12621 29.6248 7.09579 31.2857 8.46266 32.6565L 12.4758 36.6813C 13.4474 37.6557 14.7402 38.1935 16.1153 38.1935L 20.9384 38.1935C 22.3135 38.1935 23.6063 37.6557 24.5779 36.6813L 28.5911 32.6565C 29.9579 31.2857 30.9265 29.6248 31.4524 27.8132C 34.0174 27.5221 36.0244 25.3584 36.0244 22.7097C 36.0244 21.5432 35.622 20.4779 34.9684 19.6129L 37.0537 19.6129L 37.0537 13.4194L 33.8187 13.4194C 33.0004 7.32594 28.5653 2.22761 22.6439 0.582194L 22.6439 3.69164e-09L 14.4098 3.69164e-09L 14.4098 0.582194C 8.48942 2.22761 4.05429 7.32594 3.23499 13.4194L 0 13.4194L 0 19.6129L 2.0853 19.6129C 1.43171 20.4779 1.02927 21.5432 1.02927 22.7097ZM 3.08781 22.7097C 3.08781 21.3657 3.95137 20.2302 5.14635 19.8028L 5.14635 24.6266C 5.14635 24.9641 5.16591 25.2986 5.19473 25.631C 3.97504 25.2181 3.08781 24.0712 3.08781 22.7097ZM 29.8488 24.6266C 29.8488 27.1092 28.8844 29.441 27.1357 31.1969L 23.1225 35.2217C 22.5389 35.807 21.7639 36.129 20.9384 36.129L 16.1153 36.129C 15.2898 36.129 14.5137 35.807 13.9312 35.2217L 9.91804 31.1969C 8.16931 29.4421 7.20489 27.1092 7.20489 24.6276L 7.20489 19.6129L 29.8488 19.6129L 29.8488 24.6266ZM 31.859 25.631C 31.8878 25.2986 31.9074 24.9652 31.9074 24.6266L 31.9074 19.8028C 33.1023 20.2302 33.9659 21.3657 33.9659 22.7097C 33.9659 24.0712 33.0787 25.2181 31.859 25.631ZM 14.4098 2.73135L 14.4098 11.3548L 16.4683 11.3548L 16.4683 2.06452L 20.5854 2.06452L 20.5854 11.3548L 22.6439 11.3548L 22.6439 2.73135C 27.4136 4.28284 30.9748 8.44903 31.7489 13.4194L 5.30486 13.4194C 6.0799 8.448 9.64014 4.28284 14.4098 2.73135ZM 2.05854 17.5484L 2.05854 15.4839L 34.9952 15.4839L 34.9952 17.5484L 2.05854 17.5484Z" transform="translate(17.4976 0)"/>
<path id="Vector_3" d="M 2.05854 0L 0 0L 0 2.06452L 2.05854 2.06452L 2.05854 0Z" transform="translate(42.2001 9.29028)"/>
<path id="Vector_4" d="M 2.05854 0L 0 0L 0 2.06452L 2.05854 2.06452L 2.05854 0Z" transform="translate(27.7903 9.29028)"/>
<path id="Vector_5" d="M 7.2862 17.4018L 13.0903 17.4018L 13.6224 14.7406C 13.9631 14.6209 14.2966 14.4826 14.6208 14.3288L 16.8718 15.8328L 20.9755 11.7172L 19.4758 9.45961C 19.6292 9.13548 19.7671 8.8 19.8865 8.45832L 22.539 7.92465L 22.539 2.10374L 19.8855 1.57006C 19.693 1.024 19.4583 0.497547 19.1815 -1.6066e-06L 17.3823 1.00439C 17.6839 1.54632 17.9247 2.13368 18.0987 2.74684L 18.2716 3.35174L 20.4804 3.79561L 20.4804 6.23277L 18.2716 6.67665L 18.0987 7.28155C 17.9247 7.89574 17.6839 8.48206 17.3823 9.024L 17.0766 9.57419L 18.3241 11.4508L 16.6062 13.1737L 14.735 11.9226L 14.1864 12.2292C 13.6461 12.5316 13.0604 12.7732 12.449 12.9476L 11.8459 13.12L 11.4033 15.3373L 8.97317 15.3373L 8.53059 13.1221L 7.92744 12.9497C 7.31502 12.7752 6.7304 12.5337 6.19003 12.2312L 5.64143 11.9246L 3.77022 13.1757L 1.45539 10.8552L -1.96317e-09 12.3148L 3.50672 15.8328L 5.75774 14.3288C 6.08093 14.4826 6.41544 14.6209 6.75613 14.7406L 7.2862 17.4018Z" transform="translate(2.16354 35.2432)"/>
<path id="Vector_6" d="M 3.35748 17.4008L 5.15664 16.3964C 4.85507 15.8545 4.61422 15.2671 4.44027 14.6539L 4.26735 14.049L 2.05854 13.6062L 2.05854 11.169L 4.26735 10.7252L 4.44027 10.1203C 4.61422 9.50607 4.85507 8.91974 5.15664 8.37781L 5.46234 7.82761L 4.21486 5.95097L 5.93271 4.22813L 7.80392 5.47922L 8.35252 5.17265C 8.89289 4.8702 9.47855 4.62865 10.0899 4.45419L 10.6931 4.28181L 11.1357 2.06452L 13.5658 2.06452L 14.0084 4.27974L 14.6115 4.45213C 15.2239 4.62658 15.8086 4.86813 16.3489 5.17058L 16.8975 5.47716L 18.7687 4.22606L 21.0836 6.54658L 22.539 5.08697L 19.0322 1.56903L 16.7812 3.07303C 16.458 2.91923 16.1235 2.7809 15.7828 2.66116L 15.2527 1.5751e-07L 9.4487 1.5751e-07L 8.91656 2.66116C 8.57588 2.7809 8.24239 2.91923 7.91817 3.07303L 5.66716 1.56903L 1.56346 5.68465L 3.06311 7.94219C 2.90975 8.26632 2.77182 8.60181 2.65243 8.94349L 0 9.47716L 0 15.2981L 2.65346 15.8317C 2.84593 16.3768 3.0806 16.9032 3.35748 17.4008Z" transform="translate(0 27.8711)"/>
<path id="Vector_7" d="M 5.14635 1.5751e-07C 2.30865 1.5751e-07 0 2.31536 0 5.16129C 0 8.00723 2.30865 10.3226 5.14635 10.3226C 7.98405 10.3226 10.2927 8.00723 10.2927 5.16129C 10.2927 2.31536 7.98405 1.5751e-07 5.14635 1.5751e-07ZM 5.14635 8.25807C 3.44394 8.25807 2.05854 6.86865 2.05854 5.16129C 2.05854 3.45394 3.44394 2.06452 5.14635 2.06452C 6.84876 2.06452 8.23416 3.45394 8.23416 5.16129C 8.23416 6.86865 6.84876 8.25807 5.14635 8.25807Z" transform="translate(7.2049 35.0967)"/>
</svg>