<svg width="64" height="64" viewBox="0 0 64 64" version="1.1" xmlns="http://www.w3.org/2000/svg" xmlns:xlink="http://www.w3.org/1999/xlink">
<path id="Vector" d="M 2.13623e-07 7.46663C 2.13623e-07 8.05538 0.477876 8.53325 1.06663 8.53325L 5.33337 8.53325C 5.92212 8.53325 6.4 8.05538 6.4 7.46663L 6.4 1.06662C 6.4 0.477874 5.92212 0 5.33337 0L 1.06675 0C 0.478 0 0.000124191 0.477874 0.000124191 1.06662L 0.000124191 7.46663L 2.13623e-07 7.46663ZM 2.13338 2.13337L 4.26675 2.13337L 4.26675 6.4L 2.13338 6.4L 2.13338 2.13337Z" transform="translate(23.4666 32)"/>
<path id="Vector_2" d="M 1.06662 8.53325L 5.33325 8.53325C 5.922 8.53325 6.39987 8.05538 6.39987 7.46662L 6.39987 1.06663C 6.39987 0.477875 5.922 -2.59399e-07 5.33325 -2.59399e-07L 1.06662 -2.59399e-07C 0.477875 -2.59399e-07 -7.84199e-07 0.477875 -7.84199e-07 1.06663L -7.84199e-07 7.46662C -0.000125784 8.05538 0.47775 8.53325 1.06662 8.53325ZM 2.13325 2.13325L 4.26663 2.13325L 4.26663 6.39988L 2.13325 6.39988L 2.13325 2.13325Z" transform="translate(23.4667 19.2)"/>
<path id="Vector_3" d="M 1.6161 20.1141L 17.0667 10.8438L 32.5173 20.1141C 32.6891 20.2176 32.879 20.2666 33.0656 20.2666C 33.4282 20.2666 33.7813 20.0821 33.9808 19.7493C 34.2848 19.2436 34.1206 18.5887 33.6161 18.2857L 18.1333 8.99625L 18.1333 2.13337L 23.4667 2.13337L 23.4667 4.26675L 20.2667 4.26675C 19.678 4.26675 19.2001 4.74463 19.2001 5.33337C 19.2001 5.92212 19.678 6.4 20.2667 6.4L 24.5333 6.4C 25.1221 6.4 25.6 5.92212 25.6 5.33337L 25.6 1.06662C 25.6 0.477875 25.1221 0 24.5333 0L 17.0667 0C 16.478 0 16.0001 0.477875 16.0001 1.06662L 16.0001 8.99625L 0.517472 18.2859C 0.0129725 18.5888 -0.151277 19.2437 0.152723 19.7494C 0.454473 20.2539 1.11147 20.4181 1.6161 20.1141Z" transform="translate(14.9333 0)"/>
<path id="Vector_4" d="M 5.33337 8.53325C 5.92213 8.53325 6.4 8.05538 6.4 7.46663L 6.4 1.06662C 6.4 0.477875 5.92213 8.8501e-07 5.33337 8.8501e-07L 1.06663 8.8501e-07C 0.477875 8.8501e-07 9.53674e-08 0.477875 9.53674e-08 1.06662L 9.53674e-08 3.19988C 9.53674e-08 3.78863 0.477875 4.2665 1.06663 4.2665C 1.65538 4.2665 2.13325 3.78863 2.13325 3.19988L 2.13325 2.13325L 4.26663 2.13325L 4.26663 7.46663C 4.26663 8.05538 4.7445 8.53325 5.33337 8.53325Z" transform="translate(6.39999 32)"/>
<path id="Vector_5" d="M 2.13325 32L 2.13325 1.06663C 2.13325 0.477875 1.65537 -3.8147e-07 1.06662 -3.8147e-07C 0.477875 -3.8147e-07 -4.27246e-07 0.477875 -4.27246e-07 1.06663L -4.27246e-07 32C -4.27246e-07 32.5887 0.477875 33.0666 1.06662 33.0666C 1.65537 33.0666 2.13325 32.5887 2.13325 32Z" transform="translate(17.0667 22.3999)"/>
<path id="Vector_6" d="M 1.06662 14.9331L 37.3333 14.9331C 37.922 14.9331 38.3999 14.4553 38.3999 13.8665C 38.3999 13.2778 37.922 12.7999 37.3333 12.7999L 27.7332 12.7999L 27.7332 2.13325L 28.7999 2.13325C 29.3886 2.13325 29.8665 1.65537 29.8665 1.06662C 29.8665 0.477875 29.3886 1.00708e-06 28.7999 1.00708e-06L 9.6 1.00708e-06C 9.01125 1.00708e-06 8.53338 0.477875 8.53338 1.06662C 8.53338 1.65537 9.01125 2.13325 9.6 2.13325L 10.6666 2.13325L 10.6666 12.7997L 1.06662 12.7997C 0.477875 12.7997 1.90735e-07 13.2776 1.90735e-07 13.8664C 1.90735e-07 14.4551 0.477875 14.9331 1.06662 14.9331ZM 20.2666 8.53312C 20.8554 8.53312 21.3333 8.05525 21.3333 7.4665C 21.3333 6.87775 20.8554 6.39988 20.2666 6.39988L 20.2666 2.13325L 25.6 2.13325L 25.6 12.7997L 20.2666 12.7997L 20.2666 8.53312ZM 12.8 2.13313L 18.1334 2.13313L 18.1334 6.39975C 17.5446 6.39975 17.0668 6.87762 17.0668 7.46637C 17.0668 8.05512 17.5446 8.533 18.1334 8.533L 18.1334 12.7997L 12.8 12.7997L 12.8 2.13313Z" transform="translate(12.8 44.8003)"/>
<path id="Vector_7" d="M 5.33325 1.7395e-06L 1.06663 1.7395e-06C 0.477875 1.7395e-06 1.64795e-06 0.477875 1.64795e-06 1.06663L 1.64795e-06 7.46662C 1.64795e-06 8.05537 0.477875 8.53325 1.06663 8.53325L 5.33325 8.53325C 5.922 8.53325 6.39987 8.05537 6.39987 7.46662L 6.39987 1.06663C 6.39987 0.477875 5.922 1.7395e-06 5.33325 1.7395e-06ZM 4.2665 6.4L 2.13312 6.4L 2.13312 2.13337L 4.2665 2.13337L 4.2665 6.4Z" transform="translate(51.2001 45.8667)"/>
<path id="Vector_8" d="M 5.33325 -1.31226e-06L 1.06663 -1.31226e-06C 0.477875 -1.31226e-06 1.64795e-06 0.477876 1.64795e-06 1.06663L 1.64795e-06 7.46662C 1.64795e-06 8.05537 0.477875 8.53325 1.06663 8.53325L 5.33325 8.53325C 5.922 8.53325 6.39987 8.05537 6.39987 7.46662L 6.39987 1.06663C 6.39987 0.477876 5.922 -1.31226e-06 5.33325 -1.31226e-06ZM 4.2665 6.4L 2.13312 6.4L 2.13312 2.13338L 4.2665 2.13338L 4.2665 6.4Z" transform="translate(51.2001 33.0667)"/>
<path id="Vector_9" d="M 45.8666 1.7395e-06L 1.06663 1.7395e-06C 0.477875 1.7395e-06 -2.13623e-07 0.477875 -2.13623e-07 1.06663C -2.13623e-07 1.65538 0.477875 2.13337 1.06663 2.13337L 45.8666 2.13337C 46.4554 2.13337 46.9333 1.6555 46.9333 1.06675C 46.9333 0.478001 46.4554 1.7395e-06 45.8666 1.7395e-06Z" transform="translate(8.53339 61.8667)"/>
<path id="Vector_10" d="M 13.8666 2.13623e-07C 13.2779 2.13623e-07 12.8 0.477876 12.8 1.06663L 12.8 2.13325L 1.06662 2.13325C 0.477873 2.13325 -4.27246e-07 2.61112 -4.27246e-07 3.19988C -4.27246e-07 3.78863 0.477873 4.2665 1.06662 4.2665L 12.8 4.2665L 12.8 39.4665C 12.8 40.0552 13.2779 40.5331 13.8666 40.5331C 14.4554 40.5331 14.9333 40.0552 14.9333 39.4665L 14.9333 1.0665C 14.9333 0.477875 14.4554 2.13623e-07 13.8666 2.13623e-07Z" transform="translate(49.0668 23.4666)"/>
<path id="Vector_11" d="M -1.7395e-06 7.46663C -1.7395e-06 8.05538 0.477876 8.53325 1.06663 8.53325L 5.33325 8.53325C 5.922 8.53325 6.39987 8.05538 6.39987 7.46663L 6.39987 1.06662C 6.39987 0.477874 5.922 0 5.33325 0L 1.06663 0C 0.477876 0 -1.7395e-06 0.477874 -1.7395e-06 1.06662L -1.7395e-06 7.46663ZM 2.13325 2.13337L 4.26663 2.13337L 4.26663 6.4L 2.13325 6.4L 2.13325 2.13337Z" transform="translate(34.1334 32)"/>
<path id="Vector_12" d="M 10.6666 13.8666C 10.6666 13.728 10.6059 1.52588e-06 5.33325 1.52588e-06C 0.06075 1.52588e-06 0 13.728 0 13.8666C 0 16.4426 1.83575 18.5963 4.26662 19.0923L 4.26662 24.5334C 4.26662 25.1221 4.7445 25.6 5.33325 25.6C 5.922 25.6 6.39988 25.1221 6.39988 24.5334L 6.39988 19.0923C 8.83088 18.5963 10.6666 16.4426 10.6666 13.8666ZM 5.33337 17.0666C 3.56912 17.0666 2.13337 15.6309 2.13337 13.8666C 2.13337 8.5525 3.56063 2.13325 5.33337 2.13325C 7.10612 2.13325 8.53337 8.5525 8.53337 13.8666C 8.53337 15.6309 7.09762 17.0666 5.33337 17.0666Z" transform="translate(0 38.3999)"/>
<path id="Vector_13" d="M 2.13325 33.0666L 2.13325 1.06662C 2.13325 0.477875 1.65537 9.30786e-07 1.06662 9.30786e-07C 0.477874 9.30786e-07 1.2207e-07 0.477875 1.2207e-07 1.06662L 1.2207e-07 33.0666C 1.2207e-07 33.6554 0.477874 34.1332 1.06662 34.1332C 1.65537 34.1332 2.13325 33.6554 2.13325 33.0666Z" transform="translate(44.8001 21.3333)"/>
<path id="Vector_14" d="M 1.06663 8.53325L 5.33325 8.53325C 5.922 8.53325 6.39987 8.05538 6.39987 7.46662L 6.39987 1.06663C 6.39987 0.477875 5.922 -2.59399e-07 5.33325 -2.59399e-07L 1.06663 -2.59399e-07C 0.477876 -2.59399e-07 -1.7395e-06 0.477875 -1.7395e-06 1.06663L -1.7395e-06 7.46662C -1.7395e-06 8.05538 0.477876 8.53325 1.06663 8.53325ZM 2.13325 2.13325L 4.26663 2.13325L 4.26663 6.39988L 2.13325 6.39988L 2.13325 2.13325Z" transform="translate(34.1334 19.2)"/>
<path id="Vector_15" d="M 1.06663 13.8665C 1.65538 13.8665 2.13325 13.3886 2.13325 12.7999L 2.13325 4.2665L 13.8666 4.2665C 14.4554 4.2665 14.9333 3.78862 14.9333 3.19987C 14.9333 2.61112 14.4554 2.13325 13.8666 2.13325L 2.13338 2.13325L 2.13338 1.06663C 2.13338 0.477876 1.6555 7.62939e-08 1.06675 7.62939e-08C 0.478 7.62939e-08 0 0.477625 0 1.0665L 0 12.7999C 0 13.3886 0.477875 13.8665 1.06663 13.8665Z" transform="translate(0 23.4668)"/>
</svg>