<svg width="53" height="64" viewBox="0 0 53 64" version="1.1" xmlns="http://www.w3.org/2000/svg" xmlns:xlink="http://www.w3.org/1999/xlink">
<path id="Vector" d="M 3.65108 -1.06812e-06L -1.27019e-07 3.317L -1.27019e-07 9.72375L 2.07186 9.72375L 2.07186 4.22025L 5.05108 1.51388L 3.65108 -1.06812e-06Z" transform="translate(1.03598 54.2761)"/>
<path id="Vector_2" d="M 1.40012 -1.06812e-06L 3.07924e-08 1.51388L 2.97921 4.22025L 2.97921 9.72375L 5.0512 9.72375L 5.0512 3.317L 1.40012 -1.06812e-06Z" transform="translate(11.0583 54.2761)"/>
<path id="Vector_3" d="M 7.02179 1.5564e-06C 7.02179 0.593127 6.89604 1.01263 6.64795 1.24713C 6.12416 1.74238 3.20422 1.60637 2.90656 1.60637L 2.90656 3.65988C 3.15566 3.65988 5.46704 3.7085 5.77857 3.67525L 5.77857 5.89813C 5.77857 6.91088 4.94715 7.73488 3.92528 7.73488C 2.90341 7.73488 2.07199 6.91088 2.07199 5.89813L 2.07199 3.83325L -3.00226e-07 3.83325L -3.00226e-07 5.89813C -3.00226e-07 8.04325 1.76084 9.78837 3.92528 9.78837C 6.08985 9.78837 7.85056 8.04325 7.85056 5.89813L 7.85056 2.92575C 7.92838 2.8655 8.00481 2.80237 8.07822 2.733C 8.75198 2.09587 9.09378 1.17637 9.09378 0.000123627L 7.02179 0.000123627L 7.02179 1.5564e-06Z" transform="translate(4.63876 44.9712)"/>
<path id="Vector_4" d="M 3.65108 -1.06812e-06L -6.92829e-07 3.317L -6.92829e-07 9.72375L 2.07199 9.72375L 2.07199 4.22025L 5.05121 1.51388L 3.65108 -1.06812e-06Z" transform="translate(18.8549 54.2761)"/>
<path id="Vector_5" d="M 1.40012 -1.06812e-06L -1.01615e-06 1.51388L 2.97921 4.22025L 2.97921 9.72375L 5.05121 9.72375L 5.05121 3.317L 1.40012 -1.06812e-06Z" transform="translate(28.8772 54.2761)"/>
<path id="Vector_6" d="M 7.02179 1.5564e-06C 7.02179 0.593127 6.89604 1.01263 6.64795 1.24713C 6.12415 1.74238 3.20422 1.60637 2.90656 1.60637L 2.90656 3.65988C 3.15566 3.65988 5.46704 3.7085 5.77857 3.67525L 5.77857 5.89813C 5.77857 6.91088 4.94715 7.73488 3.92528 7.73488C 2.90341 7.73488 2.07199 6.91088 2.07199 5.89813L 2.07199 3.83325L -3.84905e-07 3.83325L -3.84905e-07 5.89813C -3.84905e-07 8.04325 1.76084 9.78837 3.92528 9.78837C 6.08985 9.78837 7.85056 8.04325 7.85056 5.89813L 7.85056 2.92575C 7.92838 2.8655 8.00481 2.80237 8.07822 2.733C 8.75198 2.09587 9.09378 1.17637 9.09378 0.000123627L 7.02179 0.000123627L 7.02179 1.5564e-06Z" transform="translate(22.4577 44.9712)"/>
<path id="Vector_7" d="M 3.65108 -1.06812e-06L 1.84754e-07 3.317L 1.84754e-07 9.72375L 2.07199 9.72375L 2.07199 4.22025L 5.05121 1.51388L 3.65108 -1.06812e-06Z" transform="translate(36.6738 54.2761)"/>
<path id="Vector_8" d="M 1.40012 -1.06812e-06L 1.78596e-06 1.51388L 2.97921 4.22025L 2.97921 9.72375L 5.0512 9.72375L 5.0512 3.317L 1.40012 -1.06812e-06Z" transform="translate(46.6961 54.2761)"/>
<path id="Vector_9" d="M 7.02167 1.5564e-06C 7.02167 0.593127 6.89592 1.01263 6.64783 1.24713C 6.12403 1.74238 3.20409 1.60637 2.90644 1.60637L 2.90644 3.65988C 3.15553 3.65988 5.46692 3.7085 5.77845 3.67525L 5.77845 5.89813C 5.77845 6.91088 4.94703 7.73488 3.92516 7.73488C 2.90329 7.73488 2.07187 6.91088 2.07187 5.89813L 2.07187 3.83325L 1.38566e-06 3.83325L 1.38566e-06 5.89813C 1.38566e-06 8.04325 1.76084 9.78837 3.92528 9.78837C 6.08985 9.78837 7.85056 8.04325 7.85056 5.89813L 7.85056 2.92575C 7.92838 2.8655 8.00481 2.80237 8.07822 2.733C 8.75198 2.09587 9.09378 1.17637 9.09378 0.000123627L 7.02167 0.000123627L 7.02167 1.5564e-06Z" transform="translate(40.2767 44.9712)"/>
<path id="Vector_10" d="M 2.07199 0L 0 0L 0 2.0535L 2.07199 2.0535L 2.07199 0Z" transform="translate(6.62979 11.8416)"/>
<path id="Vector_11" d="M 2.07199 0L 0 0L 0 6.708L 2.07199 6.708L 2.07199 0Z" transform="translate(6.62979 15.2642)"/>
<path id="Vector_12" d="M 13.2274 4.64313L 8.63834 7.43575L 4.57357 2.15275L 1.09818 3.43323e-07L 4.00301e-07 1.74138L 3.15516 3.6955L 8.1264 10.157L 14.3117 6.393L 13.2274 4.64313Z" transform="translate(10.3114 10.218)"/>
<path id="Vector_13" d="M 7.02167 -3.14713e-08C 7.02167 0.593125 6.89592 1.01262 6.64783 1.24713C 6.12403 1.74238 3.20409 1.60638 2.90644 1.60638L 2.90644 3.65987C 3.15554 3.65987 5.46691 3.7085 5.77844 3.67525L 5.77844 5.89812C 5.77844 6.91087 4.94703 7.73488 3.92516 7.73488C 2.90329 7.73488 2.07187 6.91087 2.07187 5.89812L 2.07187 3.83313L 1.77056e-07 3.83313L 1.77056e-07 5.898C 0.000126303 8.04313 1.76084 9.78825 3.92528 9.78825C 6.08972 9.78825 7.85056 8.04313 7.85056 5.898L 7.85056 2.92562C 7.92838 2.86537 8.00481 2.80225 8.07822 2.73287C 8.75198 2.09575 9.09378 1.17625 9.09378 -3.14713e-08L 7.02167 -3.14713e-08Z" transform="translate(3.741 1.02686)"/>
<path id="Vector_14" d="M 11.8984 8.62062L 10.5761 30.2585L 5.73228 30.2585L 4.33368 14.3783L 3.3842 14.3783C 2.66062 14.3783 2.07199 13.7947 2.07199 13.0777L 2.07199 4.22025L 5.05108 1.51363L 3.65108 -1.52588e-07L -2.15547e-07 3.317L -2.15547e-07 13.0777C -2.15547e-07 14.5962 1.02338 15.8822 2.42249 16.2939L 3.83321 32.312L 12.5263 32.312L 13.9665 8.74475L 11.8984 8.62062Z" transform="translate(0 10.332)"/>
<path id="Vector_15" d="M 35.2235 29.4331L 35.2235 0L 0.000125941 0L 0.000125941 11.7459L 2.07212 11.7459L 2.07212 6.16038L 33.1516 6.16038L 33.1516 23.2726L 2.07199 23.2726L 2.07199 22.1356L 8.46791e-07 22.1356L 8.46791e-07 29.433L 16.5757 29.433L 16.5757 39.4266L 13.6058 39.4266L 13.6058 41.4801L 21.6174 41.4801L 21.6174 39.4266L 18.6475 39.4266L 18.6475 29.433L 35.2235 29.433L 35.2235 29.4331ZM 2.07199 4.107L 2.07199 2.0535L 33.1515 2.0535L 33.1515 4.107L 2.07199 4.107ZM 2.07199 27.3796L 2.07199 25.3263L 33.1515 25.3263L 33.1515 27.3797L 2.07199 27.3797L 2.07199 27.3796Z" transform="translate(17.7765 0)"/>
<path id="Vector_16" d="M 2.07199 0L 0 0L 0 2.738L 2.07199 2.738L 2.07199 0Z" transform="translate(29.4795 17.2068)"/>
<path id="Vector_17" d="M 2.07199 0L 0 0L 0 4.107L 2.07199 4.107L 2.07199 0Z" transform="translate(33.6234 15.8376)"/>
<path id="Vector_18" d="M 2.07199 0L 0 0L 0 5.47588L 2.07199 5.47588L 2.07199 0Z" transform="translate(37.7673 14.4688)"/>
<path id="Vector_19" d="M 22.6866 1.71661e-07L 21.2871 1.736L 20.4974 1.736L 20.4974 2.71563L 18.4254 5.28575L 18.4254 3.105L 16.3534 3.105L 16.3534 5.586L 11.9147 0.811L 9.09731 4.588L 4.0065 4.588L -1.53962e-07 10.7636L 1.7428 11.8743L 5.1376 6.6415L 10.1421 6.6415L 12.09 4.03013L 16.3534 8.61688L 16.3534 12.6879L 18.4254 12.6879L 18.4254 8.57563L 20.4974 6.0055L 20.4974 12.6879L 22.5693 12.6879L 22.5693 3.43525L 24.3054 1.28188L 22.6866 1.71661e-07Z" transform="translate(25.5579 7.25757)"/>
</svg>