<svg width="64" height="64" viewBox="0 0 64 64" version="1.1" xmlns="http://www.w3.org/2000/svg" xmlns:xlink="http://www.w3.org/1999/xlink">
<path id="Vector" d="M 53.5274 18.258L 34.1333 0.291373C 33.9394 0.0971245 33.7454 -1.66061e-09 33.4545 -1.66061e-09L 0.969644 -1.66061e-09C 0.387909 -1.66061e-09 0 0.388498 0 0.971245L 0 63.0289C 0 63.6116 0.387909 64 0.969644 64L 52.8484 64C 53.4302 64 53.818 63.6115 53.818 63.0289L 53.818 18.8407C 53.9151 18.7436 53.7212 18.3551 53.5274 18.258ZM 34.4242 3.20498L 50.4242 17.9667L 34.4242 17.9667L 34.4242 3.20498ZM 51.8789 62.1549L 1.93942 62.1549L 1.93942 62.0578L 1.93942 1.94236L 32.4848 1.94236L 32.4848 18.9379C 32.4848 19.5206 32.8727 19.909 33.4545 19.909L 51.8787 19.909L 51.8787 62.1549L 51.8789 62.1549Z"/>
<path id="Vector_2" d="M 4.16964 5.03841e-07C 1.84231 5.03841e-07 -5.97405e-07 1.84524 -5.97405e-07 4.17597L -5.97405e-07 28.9408L -5.97405e-07 29.0379L -5.97405e-07 29.135L 3.2 43.314C 3.29697 43.7997 3.68488 44.091 4.16964 44.091C 4.6544 44.091 5.0423 43.7997 5.13928 43.314L 8.33928 29.2321L 8.33928 29.135L 8.33928 29.0379L 8.33928 4.1761C 8.33928 1.84524 6.49684 5.03841e-07 4.16964 5.03841e-07ZM 4.16964 38.8468L 2.13324 30.0091L 6.20603 30.0091L 4.16964 38.8468ZM 6.30288 27.9697L 1.74533 27.9697L 1.74533 4.1761L 1.84231 4.1761C 1.84231 2.91361 2.81196 1.94236 4.07266 1.94236C 5.33324 1.94236 6.30301 2.91348 6.30301 4.1761L 6.30301 27.9697L 6.30288 27.9697Z" transform="translate(55.6608 19.9089)"/>
<path id="Vector_3" d="M 24.1665 23.0301L 22.421 24.2926L 20.7725 22.0588C 23.0998 20.1165 24.5544 17.3973 25.0391 14.4838C 25.524 11.1818 24.7482 7.87983 22.8088 5.1606C 18.736 -0.375109 10.8815 -1.73472 5.25729 2.44137C -0.56083 6.42309 -1.62745 14.2897 2.44534 19.8252C 6.2272 25.0696 13.5968 26.6234 19.2211 23.1272L 20.8696 25.3609L 19.1241 26.6234C 18.9302 26.8177 18.7362 27.0119 18.7362 27.3033C 18.7362 27.5947 18.7362 27.7889 18.9302 27.9832L 25.7181 37.3063C 26.6877 38.666 28.5302 38.9573 29.8877 37.9862L 31.6332 36.7237C 32.9907 35.7526 33.2817 33.9074 32.312 32.5478L 25.5241 23.2246C 25.2332 22.8358 24.5544 22.7387 24.1665 23.0301ZM 18.8332 21.0879C 14.0817 24.5841 7.3908 23.4187 3.99685 18.757C 2.93023 17.2031 2.25138 15.455 2.05743 13.7069L 12.4332 13.7069C 13.0151 13.7069 13.4029 13.3184 13.4029 12.7358C 13.4029 12.1532 13.015 11.7647 12.4332 11.7647L 1.96045 11.7647C 2.05743 10.7936 2.25138 9.82232 2.63929 8.65695L 11.8514 8.65695C 12.4332 8.65695 12.821 8.26845 12.821 7.68584C 12.821 7.10322 12.4331 6.71472 11.8514 6.71472L 3.60894 6.71472C 4.28778 5.54936 5.16045 4.57811 6.32405 3.80124C 11.1725 0.305021 17.7665 1.47039 21.1604 6.1321C 22.8089 8.46296 23.4877 11.2793 23.0998 14.0957C 22.7119 16.9118 21.1604 19.3397 18.8332 21.0879ZM 30.4696 34.9755L 28.7241 36.238C 28.2392 36.5294 27.5605 36.4322 27.2696 36.0437L 21.0636 27.4974L 24.4575 24.9724L 30.6635 33.5188C 31.0513 34.0044 30.9544 34.6841 30.4696 34.9755Z" transform="translate(4.92432 6.88184)"/>
<path id="Vector_4" d="M 0.969645 1.94223L 18.7151 1.94223C 19.2969 1.94223 19.6847 1.55373 19.6847 0.971115C 19.6847 0.388497 19.2968 5.03841e-07 18.7151 5.03841e-07L 0.969645 5.03841e-07C 0.387781 5.03841e-07 -1.61142e-07 0.388497 -1.61142e-07 0.971115C -1.61142e-07 1.55373 0.387909 1.94223 0.969645 1.94223Z" transform="translate(5.33337 40.4978)"/>
<path id="Vector_5" d="M -1.61142e-07 0.971114C -1.61142e-07 1.55386 0.387909 1.94223 0.969645 1.94223L 42.2788 1.94223C 42.8606 1.94223 43.2484 1.55373 43.2484 0.971114C 43.2484 0.388496 42.8605 -8.81722e-07 42.2788 -8.81722e-07L 0.969645 -8.81722e-07C 0.387909 -8.81722e-07 -1.61142e-07 0.388367 -1.61142e-07 0.971114Z" transform="translate(5.33337 47.5874)"/>
<path id="Vector_6" d="M 42.2788 4.72351e-07L 0.969645 4.72351e-07C 0.387781 4.72351e-07 -1.61142e-07 0.388497 -1.61142e-07 0.971115C -1.61142e-07 1.55373 0.387909 1.94223 0.969645 1.94223L 42.2788 1.94223C 42.8606 1.94223 43.2484 1.55373 43.2484 0.971115C 43.2484 0.388497 42.8606 4.72351e-07 42.2788 4.72351e-07Z" transform="translate(5.33337 54.7739)"/>
</svg>