<svg width="64" height="64" viewBox="0 0 64 64" version="1.1" xmlns="http://www.w3.org/2000/svg" xmlns:xlink="http://www.w3.org/1999/xlink">
<path id="Vector" d="M 46.75 0C 46.495 0 46.2431 0.013125 45.9944 0.037375C 45.8985 0.013875 45.799 0 45.6959 0L 8 0C 3.58875 0 0 3.58875 0 8L 0 13C 0 13.6904 0.55975 14.25 1.25 14.25C 1.94025 14.25 2.5 13.6904 2.5 13L 2.5 8C 2.5 4.96725 4.96725 2.5 8 2.5L 41.0556 2.5C 39.7806 3.88175 39 5.72612 39 7.75C 39 7.79225 39.0023 7.83388 39.0064 7.875C 39.0023 7.91612 39 7.95775 39 8L 39 16.5416C 39 17.232 39.5597 17.7916 40.25 17.7916C 40.9403 17.7916 41.5 17.232 41.5 16.5416L 41.5 9L 53.25 9C 53.9403 9 54.5 8.44038 54.5 7.75C 54.5 3.47662 51.0234 0 46.75 0ZM 41.6516 6.5C 42.214 4.20687 44.2859 2.5 46.7501 2.5C 49.2144 2.5 51.2861 4.20687 51.8485 6.5L 41.6516 6.5Z" transform="translate(9.5 0)"/>
<path id="Vector_2" d="M 38.702 2.09808e-07L 30.7592 2.09808e-07C 30.069 2.09808e-07 29.5092 0.559625 29.5092 1.25C 29.5092 1.94038 30.069 2.5 30.7592 2.5L 35.8431 2.5L 21.6642 16.6789L 13.3527 8.36738C 12.8645 7.87925 12.0732 7.87938 11.5848 8.36738L 0.366094 19.5862C -0.122031 20.0744 -0.122031 20.8659 0.366094 21.3541C 0.610219 21.5981 0.929969 21.7201 1.24997 21.7201C 1.56997 21.7201 1.88972 21.5981 2.13384 21.354L 12.4688 11.019L 20.7803 19.3305C 21.2686 19.8186 22.0598 19.8186 22.5482 19.3305L 37.452 4.42675L 37.452 9.19275C 37.452 9.88313 38.0117 10.4427 38.702 10.4427C 39.3922 10.4427 39.952 9.88313 39.952 9.19275L 39.952 1.25C 39.952 0.559625 39.3922 2.09808e-07 38.702 2.09808e-07Z" transform="translate(3.53113 6.74878)"/>
<path id="Vector_3" d="M 2.13363 0.366249C 1.90125 0.133749 1.57875 0 1.25 0C 0.92125 0 0.59875 0.133749 0.36625 0.366249C 0.133625 0.598749 0 0.92125 0 1.25C 0 1.57875 0.133625 1.90125 0.36625 2.13375C 0.598875 2.36625 0.92125 2.5 1.25 2.5C 1.57875 2.5 1.90125 2.36625 2.13363 2.13375C 2.36625 1.90125 2.5 1.57875 2.5 1.25C 2.5 0.92125 2.36625 0.598749 2.13363 0.366249Z" transform="translate(0 29.5)"/>
<path id="Vector_4" d="M 54.2513 12.4986C 54.2514 11.8083 53.6916 11.2486 53.0014 11.2486L 43.5014 11.2486L 43.5014 1.74863C 43.5014 1.05825 42.9416 0.498626 42.2514 0.498626C 35.6345 0.498626 30.2514 5.88175 30.2514 12.4986C 30.2514 19.1155 35.6345 24.4986 42.2514 24.4986C 43.468 24.4986 44.6426 24.316 45.75 23.9779L 45.75 29.4964C 45.75 32.3913 43.3949 34.7464 40.5 34.7464C 37.6051 34.7464 35.25 32.3913 35.25 29.4964C 35.25 29.4575 35.2476 29.4191 35.2443 29.3813C 35.249 29.3369 35.2518 29.292 35.2518 29.2464C 35.2518 28.556 34.692 27.9964 34.0018 27.9964L 9.25 27.9964L 9.25 1.25C 9.25 0.559626 8.69025 8.69751e-07 8 8.69751e-07C 7.30975 8.69751e-07 6.75 0.559626 6.75 1.25L 6.75 27.9964L 1.25 27.9964C 0.55975 27.9964 0 28.556 0 29.2464C 0 33.6576 3.58875 37.2464 8 37.2464L 40.5 37.2464C 44.7734 37.2464 48.25 33.7698 48.25 29.4964L 48.25 22.9943C 48.25 22.9596 48.2476 22.9256 48.2448 22.8916C 51.8324 20.8146 54.2513 16.9339 54.2513 12.4986ZM 8 34.7464C 5.39713 34.7464 3.21075 32.9289 2.64325 30.4964L 32.8166 30.4964C 33.0275 32.1248 33.7441 33.5961 34.8055 34.7464L 8 34.7464ZM 42.2514 21.9986C 37.0131 21.9986 32.7514 17.737 32.7514 12.4986C 32.7514 7.68388 36.3516 3.69425 41.0014 3.0805L 41.0014 12.4986C 41.0014 13.189 41.5611 13.7486 42.2514 13.7486L 51.6695 13.7486C 51.0556 18.3984 47.066 21.9986 42.2514 21.9986Z" transform="translate(2.75 26.7539)"/>
<path id="Vector_5" d="M 1.25 8.69751e-07C 0.55975 8.69751e-07 0 0.559626 0 1.25L 0 14.75C 0 15.4404 0.55975 16 1.25 16L 14.75 16C 15.4403 16 16 15.4404 16 14.75C 16 6.61675 9.38313 8.69751e-07 1.25 8.69751e-07ZM 2.5 13.5L 2.5 2.56325C 8.259 3.14938 12.8506 7.74087 13.4367 13.5L 2.5 13.5Z" transform="translate(48 20.2539)"/>
<path id="Vector_6" d="M 12 0L 1.25 0C 0.55975 0 0 0.559625 0 1.25C 0 1.94037 0.55975 2.5 1.25 2.5L 12 2.5C 12.6903 2.5 13.25 1.94037 13.25 1.25C 13.25 0.559625 12.6903 0 12 0Z" transform="translate(14.375 40.5)"/>
<path id="Vector_7" d="M 2.13363 0.366249C 1.90125 0.133749 1.57875 0 1.25 0C 0.92125 0 0.598749 0.133749 0.366249 0.366249C 0.133749 0.598749 0 0.92125 0 1.25C 0 1.57875 0.133624 1.90125 0.366249 2.13375C 0.598874 2.36625 0.92125 2.5 1.25 2.5C 1.57875 2.5 1.90125 2.36625 2.13363 2.13375C 2.36613 1.90125 2.5 1.57875 2.5 1.25C 2.5 0.92125 2.36625 0.598749 2.13363 0.366249Z" transform="translate(30.0625 46.5)"/>
<path id="Vector_8" d="M 12 0L 1.25 0C 0.55975 0 0 0.559625 0 1.25C 0 1.94037 0.55975 2.5 1.25 2.5L 12 2.5C 12.6903 2.5 13.25 1.94037 13.25 1.25C 13.25 0.559625 12.6903 0 12 0Z" transform="translate(14.375 46.5)"/>
<path id="Vector_9" d="M 5.55238 0L 1.25 0C 0.55975 0 0 0.559625 0 1.25C 0 1.94037 0.55975 2.5 1.25 2.5L 5.55238 2.5C 6.24263 2.5 6.80238 1.94037 6.80238 1.25C 6.80238 0.559625 6.24263 0 5.55238 0Z" transform="translate(14.375 34.5)"/>
</svg>