<svg width="64" height="64" viewBox="0 0 64 64" version="1.1" xmlns="http://www.w3.org/2000/svg" xmlns:xlink="http://www.w3.org/1999/xlink">
<path id="Vector" d="M 16.3885 13.9717C 15.5661 5.83031 9.28093 0.511753 9.01393 0.28936C 8.55631 -0.0916708 7.89343 -0.0969212 7.42993 0.276734C 7.36455 0.329363 0.888149 5.63767 0.0811454 13.9541C 0.0263951 14.5185 -0.000853333 15.0908 2.16703e-05 15.6553C 0.00102167 16.345 0.560523 16.9032 1.2499 16.9032C 1.25053 16.9032 1.25127 16.9032 1.2519 16.9032C 1.94228 16.9021 2.50091 16.3415 2.49978 15.6512C 2.49903 15.1683 2.52241 14.6785 2.56928 14.1955C 2.62166 13.6557 2.70353 13.1299 2.80853 12.6179L 6.81855 16.6281C 6.8713 16.6808 6.9283 16.7268 6.98742 16.7682L 6.98742 19.8126C 6.98742 20.503 7.54717 21.0625 8.2373 21.0625C 8.92756 21.0625 9.48719 20.5029 9.48719 19.8126L 9.48719 13.3595L 12.8561 9.99039C 13.3639 11.2815 13.7476 12.7005 13.9013 14.223C 13.9502 14.705 13.9753 15.1947 13.9762 15.6787C 13.9775 16.3684 14.5368 16.9265 15.2261 16.9265C 15.2268 16.9265 15.2276 16.9265 15.2285 16.9265C 15.9187 16.9252 16.4772 16.3645 16.476 15.6742C 16.475 15.1082 16.4455 14.5354 16.3885 13.9717ZM 6.98705 12.8142C 6.98667 12.8335 6.98667 12.8525 6.98705 12.8717L 6.98705 13.2613L 3.62129 9.89526C 4.54529 7.54769 5.87892 5.63929 6.98705 4.31256L 6.98705 12.8142ZM 9.48681 9.82388L 9.48681 4.37919C 10.1951 5.23376 10.9897 6.32047 11.7118 7.5987L 9.48681 9.82388Z" transform="translate(35.885 0)"/>
<path id="Vector_2" d="M 1.26438 1.3734e-06L 1.24988 1.3734e-06C 0.559628 1.3734e-06 1.3733e-06 0.559796 1.3733e-06 1.24998C 1.3733e-06 1.94028 0.559753 2.49995 1.24988 2.49995L 1.26438 2.49995C 1.95463 2.49995 2.51426 1.94016 2.51426 1.24998C 2.51426 0.559796 1.95451 1.3734e-06 1.26438 1.3734e-06Z" transform="translate(61.4821 61.5)"/>
<path id="Vector_3" d="M 58.6629 44.8475L 45.3723 44.8475L 45.3723 40.2771L 47.2144 38.4349C 47.7026 37.9467 47.7026 37.1554 47.2144 36.667C 46.7263 36.1792 45.9352 36.1789 45.4467 36.667L 45.3722 36.7415L 45.3722 33.3232C 47.91 30.6248 49.8145 27.4928 51.0315 24.0106C 51.2593 23.3588 50.9157 22.646 50.264 22.4182C 49.6121 22.1902 48.8993 22.5341 48.6717 23.1858C 47.8843 25.4384 46.7777 27.5286 45.3721 29.4303L 45.3721 20.4593L 46.9212 18.9049C 47.8419 19.6277 49.3627 20.5204 51.3292 20.6042C 51.4311 20.6084 51.5328 20.6107 51.6346 20.6107C 53.9261 20.6107 56.1841 19.5101 58.3511 17.3359C 64.7608 10.9045 63.9888 1.57438 63.9528 1.18022C 63.8984 0.58705 63.4333 0.114513 62.841 0.0511324C 62.7458 0.0408816 53.2553 -0.891569 46.7143 5.67146C 45.5256 6.86418 44.6623 8.08441 44.1224 9.32238C 43.5826 8.08466 42.7194 6.86431 41.5307 5.67146C 34.9898 -0.891444 25.499 0.0407565 25.404 0.0511324C 24.8117 0.114513 24.3466 0.587175 24.2922 1.18022C 24.2564 1.57425 23.4842 10.9045 29.8939 17.3359C 32.0609 19.5103 34.3186 20.6107 36.6103 20.6107C 36.7119 20.6107 36.8139 20.6084 36.9157 20.6042C 38.8822 20.5203 40.403 19.6276 41.3237 18.9048L 42.8722 20.4585L 42.8722 31.5387L 42.0474 30.7137C 41.5592 30.2257 40.768 30.2257 40.2797 30.7137C 39.7915 31.2019 39.7915 31.9933 40.2797 32.4816L 42.8721 35.0742L 42.8721 39.7585C 42.8721 39.7588 42.8721 39.7593 42.8721 39.7597L 42.8721 44.8474L 1.24988 44.8474C 0.559627 44.8474 0 45.4072 0 46.0973C 0 46.7877 0.559752 47.3473 1.24988 47.3473L 58.6622 47.3473C 59.3525 47.3473 59.9121 46.7875 59.9121 46.0973C 59.9123 45.4072 59.3531 44.8475 58.6629 44.8475ZM 60.371 9.29313L 56.5005 9.29313L 61.3963 4.38086C 61.2685 5.75672 60.9825 7.48436 60.371 9.29313ZM 50.7042 5.60746C 53.8025 3.51529 57.2614 2.81386 59.6455 2.59609L 50.7042 11.5676L 50.7042 5.60746ZM 54.0091 11.7932L 59.3132 11.7932C 58.632 13.1102 57.7437 14.4039 56.5809 15.5709C 54.843 17.3147 53.1212 18.1671 51.4631 18.1073C 50.2963 18.0646 49.3402 17.5682 48.7036 17.1168L 54.0091 11.7932ZM 48.2045 7.72713L 48.2045 14.0759L 46.9391 15.3456C 46.4936 14.7117 46.0062 13.7639 45.9568 12.6063C 45.8891 11.0234 46.6458 9.38339 48.2045 7.72713ZM 37.541 5.60746L 37.541 11.5676L 28.5999 2.59621C 30.984 2.8141 34.4429 3.51541 37.541 5.60746ZM 26.8489 4.38086L 31.7446 9.29313L 27.8742 9.29313C 27.2629 7.48423 26.9769 5.75659 26.8489 4.38086ZM 36.8094 18.1062C 35.1419 18.177 33.4119 17.324 31.6646 15.5709C 30.5018 14.404 29.6132 13.1103 28.9322 11.7931L 34.2363 11.7931L 37.9069 15.4761C 37.907 15.4763 37.9073 15.4765 37.9074 15.4766L 39.5425 17.1173C 38.9113 17.5652 37.9653 18.057 36.8094 18.1062ZM 42.2899 12.5786C 42.2472 13.7475 41.7549 14.7057 41.3058 15.345L 40.041 14.0759L 40.041 7.727C 41.5904 9.37363 42.3474 11.0044 42.2899 12.5786Z" transform="translate(0.000488281 16.6526)"/>
<path id="Vector_4" d="M 1.63762 0.0617981L 1.62299 0.0571724C 0.964865 -0.148594 0.263112 0.21856 0.0572365 0.877489C -0.148639 1.53642 0.218362 2.2376 0.87724 2.44349L 0.903866 2.45174C 1.02612 2.48924 1.14962 2.50712 1.27112 2.50712C 1.80574 2.50712 2.3005 2.16134 2.46562 1.6238C 2.66825 0.963746 2.2975 0.264439 1.63762 0.0617981Z" transform="translate(32.4179 6.86768)"/>
<path id="Vector_5" d="M 41.1062 37.1476L 39.7934 36.8405C 35.5038 35.8373 31.1209 38.0427 29.3702 42.0848L 25.9435 49.996C 24.1807 49.9738 22.4636 49.7595 20.8123 49.3714L 19.2363 44.1152C 18.0386 40.1206 19.8886 35.8919 23.6348 34.0604L 24.8912 33.4463C 26 32.9043 26.8404 31.9157 27.1966 30.7341C 27.553 29.5526 27.3994 28.2642 26.775 27.1996C 25.9801 25.8437 24.5096 25.0013 22.938 25.0013L 19.9547 25.0013C 19.0197 25.0013 18.2066 24.5044 17.7801 23.6722C 17.3534 22.84 17.4247 21.8896 17.9707 21.1305L 20.6668 17.3813C 21.9828 15.5514 21.8947 13.0636 20.4526 11.3313L 15.3213 5.16779C 18.5942 3.46441 22.3105 2.49995 26.248 2.49995C 26.9911 2.49995 27.7414 2.5347 28.4782 2.60321C 29.1635 2.66684 29.7745 2.16167 29.8385 1.47437C 29.9025 0.786939 29.397 0.177889 28.7097 0.114009C 27.8964 0.0383782 27.0682 -2.0601e-07 26.2482 -2.0601e-07C 21.3753 -2.0601e-07 16.8093 1.33648 12.8944 3.6598C 12.8027 3.6998 12.7148 3.75193 12.6322 3.81556C 5.06415 8.4263 0 16.7579 0 26.25C 0 38.3558 8.23766 48.5723 19.4008 51.5922C 19.4623 51.6142 19.5255 51.6313 19.5901 51.6435C 21.7172 52.2018 23.9482 52.5001 26.2481 52.5001C 30.9206 52.5001 35.5089 51.2565 39.517 48.9037C 40.1124 48.5542 40.3115 47.7884 39.9623 47.1928C 39.6129 46.5973 38.8472 46.3981 38.2515 46.7475C 35.3376 48.4582 32.0834 49.5189 28.7226 49.8697L 31.6641 43.0784C 32.934 40.1467 36.1143 38.5472 39.224 39.2747L 40.5367 39.5818C 41.2088 39.7386 41.8812 39.3217 42.0385 38.6495C 42.1958 37.9773 41.7783 37.305 41.1062 37.1476ZM 2.49976 26.25C 2.49976 17.996 6.73253 10.7134 13.1404 6.45527L 18.5317 12.931C 19.2446 13.7874 19.2882 15.0172 18.6376 15.9218L 15.9414 19.671C 14.8533 21.184 14.7054 23.1542 15.5554 24.8129C 16.4054 26.4714 18.0912 27.5016 19.9547 27.5016L 22.9381 27.5016C 23.6266 27.5016 24.2705 27.8705 24.6187 28.4644C 24.8962 28.9376 24.9617 29.4874 24.8035 30.0125C 24.645 30.5377 24.2863 30.9596 23.7937 31.2005L 22.5373 31.8146C 17.6863 34.1859 15.2911 39.6611 16.8419 44.8334L 17.9412 48.4995C 8.93104 45.124 2.49976 36.4246 2.49976 26.25Z" transform="translate(0 5.74829)"/>
</svg>