<svg width="64" height="64" viewBox="0 0 64 64" version="1.1" xmlns="http://www.w3.org/2000/svg" xmlns:xlink="http://www.w3.org/1999/xlink">
<path id="Vector" d="M 58.2501 20.9657L 47.1988 20.9657C 46.0369 19.3695 44.6302 17.9629 43.0342 16.8011L 43.0342 10.7786C 43.0342 10.2283 42.5882 9.78259 42.0382 9.78259C 41.4879 9.78259 41.0422 10.2285 41.0422 10.7786L 41.0422 15.5253C 39.4061 14.6246 37.6529 13.9806 35.8326 13.6033C 35.8023 13.5971 35.7721 13.5907 35.7417 13.5846C 35.6177 13.5594 35.4934 13.5354 35.3689 13.5129C 35.3174 13.5037 35.2657 13.4948 35.2141 13.4859C 35.0997 13.4663 34.9853 13.4464 34.8706 13.4288C 34.7977 13.4176 34.7241 13.4081 34.6508 13.3976C 34.4929 13.3753 34.3347 13.3547 34.1759 13.3364C 34.0708 13.3242 33.9656 13.3122 33.8598 13.3017C 33.7843 13.2942 33.7084 13.2881 33.6327 13.2816C 33.5238 13.2722 33.4146 13.2636 33.3051 13.2559C 33.2336 13.2511 33.1622 13.2463 33.0906 13.2423C 32.9697 13.2354 32.8484 13.2299 32.7269 13.2253C 32.6667 13.2231 32.6064 13.2202 32.5462 13.2184C 32.3647 13.2133 32.1827 13.2099 31.9999 13.2099C 31.8172 13.2099 31.6353 13.2133 31.4537 13.2184C 31.3934 13.2202 31.3331 13.2231 31.2729 13.2253C 31.1514 13.2299 31.0302 13.2354 30.9093 13.2423C 30.8377 13.2464 30.7663 13.2511 30.6948 13.2559C 30.5854 13.2636 30.4762 13.2722 30.3672 13.2816C 30.2914 13.2881 30.2157 13.2943 30.1401 13.3017C 30.0343 13.3122 29.9291 13.3243 29.8237 13.3364C 29.6651 13.3548 29.5071 13.3752 29.3493 13.3976C 29.2758 13.4079 29.2023 13.4174 29.1291 13.4288C 29.0143 13.4463 28.8999 13.4662 28.7857 13.4859C 28.7341 13.4948 28.6823 13.5034 28.6308 13.5129C 28.5062 13.5356 28.3819 13.5596 28.2581 13.5846C 28.2278 13.5907 28.1976 13.5971 28.1672 13.6033C 26.3468 13.9804 24.5938 14.6246 22.9576 15.5253L 22.9576 5.74973C 22.9576 3.67774 24.6432 1.99212 26.7152 1.99212L 37.2842 1.99212C 39.3562 1.99212 41.0418 3.67774 41.0418 5.74973L 41.0418 7.51897C 41.0418 8.06922 41.4877 8.51497 42.0378 8.51497C 42.5879 8.51497 43.0338 8.06897 43.0338 7.51897L 43.0338 5.74973C 43.0342 2.57936 40.4548 0 37.2844 0L 26.7154 0C 23.5451 0 20.9657 2.57936 20.9657 5.74973L 20.9657 16.8011C 19.3696 17.9629 17.963 19.3697 16.8011 20.9657L 5.74974 20.9657C 2.57937 20.9657 0 23.545 0 26.7154L 0 29.9856C 0 30.5359 0.445874 30.9816 0.995998 30.9816C 1.54612 30.9816 1.992 30.5358 1.992 29.9856L 1.992 26.7154C 1.992 24.6434 3.67762 22.9578 5.74961 22.9578L 15.5252 22.9578C 14.6245 24.5939 13.9805 26.347 13.6032 28.1674C 13.597 28.1976 13.5906 28.2279 13.5845 28.2583C 13.5593 28.3823 13.5355 28.5065 13.5128 28.631C 13.5036 28.6825 13.495 28.7343 13.4858 28.7859C 13.4662 28.9003 13.4463 29.0146 13.4287 29.1294C 13.4176 29.2023 13.408 29.2759 13.3975 29.349C 13.3752 29.5069 13.3546 29.6653 13.3362 29.8239C 13.324 29.929 13.312 30.0343 13.3015 30.14C 13.294 30.2155 13.2878 30.2914 13.2813 30.3671C 13.272 30.4761 13.2632 30.5853 13.2557 30.6948C 13.2508 30.7663 13.2462 30.8376 13.2421 30.9091C 13.2352 31.03 13.2297 31.1513 13.2251 31.2728C 13.2228 31.333 13.22 31.3933 13.2182 31.4535C 13.2131 31.635 13.2097 31.817 13.2097 31.9997C 13.2097 32.1825 13.2131 32.3644 13.2182 32.546C 13.22 32.6062 13.2228 32.6666 13.2251 32.7267C 13.2297 32.8482 13.2352 32.9695 13.2421 33.0904C 13.2462 33.162 13.2508 33.2334 13.2557 33.3049C 13.2633 33.4142 13.272 33.5235 13.2813 33.6325C 13.2878 33.7082 13.2941 33.784 13.3015 33.8596C 13.312 33.9654 13.3241 34.0706 13.3362 34.1759C 13.3546 34.3345 13.375 34.4925 13.3973 34.6502C 13.4077 34.7237 13.4172 34.7972 13.4286 34.8705C 13.4462 34.9852 13.466 35.0996 13.4857 35.2139C 13.4946 35.2655 13.5032 35.3172 13.5127 35.3687C 13.5353 35.4934 13.5593 35.6176 13.5843 35.7415C 13.5905 35.7717 13.5968 35.802 13.6031 35.8324C 13.9802 37.6527 14.6243 39.4057 15.5251 41.042L 5.74974 41.042C 3.67774 41.0422 1.99212 39.3566 1.99212 37.2846L 1.99212 33.2599C 1.99212 32.7096 1.54612 32.2639 0.996123 32.2639C 0.445874 32.2639 0.000125 32.7097 0.000125 33.2599L 0.000125 37.2846C 0.000125 40.455 2.57949 43.0343 5.74986 43.0343L 16.8012 43.0343C 17.9631 44.6305 19.3698 46.0371 20.9658 47.1989L 20.9658 58.2503C 20.9658 61.4206 23.5452 64 26.7156 64L 37.2846 64C 40.4549 64 43.0343 61.4206 43.0343 58.2503L 43.0343 47.1989C 44.6304 46.0371 46.037 44.6303 47.1989 43.0343L 58.2503 43.0343C 61.4206 43.0343 64 40.455 64 37.2846L 64 26.7156C 63.9999 23.545 61.4205 20.9657 58.2501 20.9657ZM 41.042 58.25C 41.042 60.322 39.3564 62.0076 37.2844 62.0076L 26.7154 62.0076C 24.6435 62.0076 22.9578 60.322 22.9578 58.25L 22.9578 48.4744C 24.594 49.3752 26.3471 50.0192 28.1674 50.3964C 28.1977 50.4027 28.2279 50.409 28.2583 50.4152C 28.3823 50.4403 28.5066 50.4643 28.6311 50.4868C 28.6826 50.4961 28.7343 50.5048 28.7859 50.5138C 28.9003 50.5334 29.0147 50.5533 29.1293 50.5709C 29.2023 50.5822 29.2761 50.5918 29.3496 50.6022C 29.5073 50.6244 29.6654 50.6449 29.8239 50.6633C 29.9291 50.6756 30.0344 50.6875 30.1403 50.6981C 30.2159 50.7054 30.2917 50.7117 30.3674 50.7182C 30.4763 50.7276 30.5856 50.7362 30.6951 50.7438C 30.7666 50.7487 30.8379 50.7533 30.9096 50.7574C 31.0304 50.7643 31.1517 50.7698 31.2732 50.7744C 31.3334 50.7767 31.3937 50.7796 31.4539 50.7813C 31.6354 50.7864 31.8174 50.7898 32.0002 50.7898C 32.1829 50.7898 32.3648 50.7864 32.5464 50.7813C 32.6067 50.7796 32.6671 50.7767 32.7272 50.7744C 32.8487 50.7698 32.9699 50.7643 33.0908 50.7574C 33.1624 50.7533 33.2338 50.7487 33.3053 50.7438C 33.4147 50.7362 33.5239 50.7276 33.6329 50.7182C 33.7087 50.7117 33.7844 50.7054 33.8601 50.6981C 33.9658 50.6875 34.0709 50.6754 34.1762 50.6633C 34.3349 50.6449 34.4932 50.6244 34.6511 50.6022C 34.7243 50.5918 34.7978 50.5823 34.8708 50.5709C 34.9857 50.5533 35.0999 50.5336 35.2142 50.5138C 35.2658 50.5049 35.3176 50.4963 35.3691 50.4868C 35.4937 50.4642 35.6179 50.4402 35.7418 50.4152C 35.7721 50.409 35.8023 50.4027 35.8327 50.3964C 37.6529 50.0193 39.4059 49.3752 41.0422 48.4744L 41.0422 58.25L 41.042 58.25ZM 48.4288 35.5064C 48.3505 35.873 48.2614 36.2356 48.1597 36.5931C 48.1595 36.5934 48.1595 36.5935 48.1594 36.5937C 46.5722 42.1696 42.1697 46.5719 36.5938 48.1593C 36.5936 48.1593 36.5934 48.1594 36.5932 48.1594C 36.2357 48.2612 35.8731 48.3503 35.5064 48.4286C 35.4402 48.4427 35.3739 48.4567 35.3073 48.4702C 35.2117 48.4893 35.1158 48.5079 35.0197 48.5254C 34.8982 48.5474 34.7764 48.5681 34.6542 48.5874C 34.5619 48.6022 34.4692 48.6158 34.3763 48.6291C 34.2537 48.6464 34.1309 48.6628 34.0078 48.6776C 33.9423 48.6854 33.8767 48.6931 33.8109 48.7002C 33.6362 48.7189 33.4609 48.7361 33.2852 48.7493C 33.2588 48.7513 33.2321 48.7526 33.2057 48.7543C 33.0427 48.7658 32.8796 48.7749 32.7159 48.7817C 32.6652 48.7838 32.6146 48.7858 32.5637 48.7876C 32.3762 48.7938 32.1883 48.7981 31.9999 48.7981C 31.8116 48.7981 31.6237 48.7938 31.4362 48.7876C 31.3854 48.7858 31.3347 48.7838 31.2839 48.7817C 31.1203 48.7748 30.9569 48.7659 30.7942 48.7543C 30.7678 48.7524 30.7411 48.7513 30.7147 48.7493C 30.5388 48.7361 30.3637 48.7189 30.1889 48.7002C 30.1232 48.6932 30.0576 48.6854 29.9921 48.6776C 29.8689 48.6629 29.7461 48.6464 29.6236 48.6291C 29.5307 48.6159 29.4381 48.6022 29.3457 48.5874C 29.2236 48.5681 29.1017 48.5474 28.9802 48.5254C 28.8839 48.5079 28.7882 48.4893 28.6926 48.4702C 28.6261 48.4569 28.5598 48.4427 28.4934 48.4286C 28.1268 48.3503 27.7642 48.2612 27.4067 48.1594C 27.4064 48.1594 27.4063 48.1593 27.4061 48.1593C 21.8301 46.5721 17.4278 42.1696 15.8403 36.5937C 15.8402 36.5935 15.8402 36.5934 15.8401 36.5931C 15.7383 36.2357 15.6492 35.873 15.571 35.5064C 15.5568 35.4401 15.5427 35.3739 15.5293 35.3072C 15.5102 35.2116 15.4916 35.1157 15.4741 35.0196C 15.4521 34.8981 15.4315 34.7764 15.4121 34.6541C 15.3973 34.5619 15.3837 34.4691 15.3705 34.3762C 15.3531 34.2536 15.3367 34.1309 15.322 34.0077C 15.3141 33.9422 15.3065 33.8766 15.2993 33.8109C 15.2806 33.6361 15.2635 33.4609 15.2502 33.2851C 15.2482 33.2587 15.247 33.232 15.2452 33.2056C 15.2337 33.0426 15.2246 32.8795 15.2178 32.7159C 15.2157 32.6651 15.2137 32.6145 15.212 32.5636C 15.2057 32.3761 15.2015 32.1882 15.2015 31.9999C 15.2015 31.8115 15.2058 31.6236 15.212 31.4361C 15.2137 31.3854 15.2157 31.3346 15.2178 31.2839C 15.2247 31.1203 15.2336 30.9569 15.2452 30.7941C 15.2471 30.7678 15.2482 30.741 15.2502 30.7146C 15.2635 30.5388 15.2806 30.3636 15.2993 30.1889C 15.3063 30.1231 15.3141 30.0575 15.322 29.992C 15.3366 29.8689 15.3531 29.746 15.3705 29.6235C 15.3836 29.5306 15.3973 29.438 15.4121 29.3456C 15.4315 29.2236 15.4521 29.1016 15.4741 28.9801C 15.4916 28.884 15.5102 28.7881 15.5293 28.6925C 15.5426 28.626 15.5567 28.5598 15.571 28.4934C 15.6492 28.1268 15.7383 27.764 15.8401 27.4066C 15.8402 27.4064 15.8402 27.4063 15.8403 27.406C 17.4276 21.83 21.8301 17.4278 27.4061 15.8403C 27.4063 15.8403 27.4064 15.8402 27.4067 15.8402C 27.7642 15.7384 28.1268 15.6493 28.4934 15.5711C 28.5597 15.5569 28.6259 15.5428 28.6926 15.5294C 28.7882 15.5103 28.8841 15.4917 28.9802 15.4742C 29.1017 15.4522 29.2234 15.4316 29.3457 15.4122C 29.4379 15.3974 29.5307 15.3838 29.6236 15.3706C 29.7462 15.3532 29.8689 15.3368 29.9921 15.3221C 30.0576 15.3142 30.1232 15.3066 30.1889 15.2994C 30.3637 15.2807 30.5389 15.2636 30.7147 15.2503C 30.7411 15.2483 30.7678 15.2472 30.7942 15.2453C 30.9572 15.2338 31.1203 15.2247 31.2839 15.2179C 31.3347 15.2158 31.3853 15.2138 31.4362 15.2121C 31.6237 15.2058 31.8114 15.2016 31.9999 15.2016C 32.1884 15.2016 32.3762 15.2058 32.5637 15.2121C 32.6144 15.2138 32.6652 15.2158 32.7159 15.2179C 32.8796 15.2248 33.0429 15.2337 33.2057 15.2453C 33.2321 15.2472 33.2588 15.2483 33.2852 15.2503C 33.4611 15.2636 33.6362 15.2807 33.8109 15.2994C 33.8767 15.3064 33.9423 15.3142 34.0078 15.3221C 34.1309 15.3367 34.2538 15.3532 34.3763 15.3706C 34.4692 15.3837 34.5618 15.3974 34.6542 15.4122C 34.7763 15.4316 34.8982 15.4522 35.0197 15.4742C 35.1158 15.4917 35.2117 15.5103 35.3073 15.5294C 35.3738 15.5427 35.4402 15.5569 35.5064 15.5711C 35.8731 15.6493 36.2357 15.7384 36.5932 15.8402C 36.5934 15.8402 36.5936 15.8403 36.5938 15.8403C 42.1698 17.4276 46.572 21.83 48.1594 27.406C 48.1595 27.4063 48.1595 27.4064 48.1597 27.4066C 48.2614 27.764 48.3505 28.1268 48.4288 28.4934C 48.4429 28.5596 48.457 28.6259 48.4704 28.6925C 48.4895 28.7881 48.5082 28.884 48.5257 28.9801C 48.5477 29.1016 48.5683 29.2234 48.5877 29.3456C 48.6024 29.4379 48.616 29.5306 48.6293 29.6235C 48.6467 29.7461 48.663 29.8689 48.6778 29.992C 48.6857 30.0575 48.6933 30.1231 48.7004 30.1889C 48.7192 30.3636 48.7363 30.5389 48.7495 30.7146C 48.7515 30.741 48.7527 30.7678 48.7545 30.7941C 48.766 30.9571 48.7752 31.1203 48.7819 31.2839C 48.784 31.3346 48.786 31.3853 48.7878 31.4361C 48.7939 31.6236 48.7983 31.8114 48.7983 31.9999C 48.7983 32.1884 48.7939 32.3761 48.7878 32.5636C 48.786 32.6144 48.784 32.6651 48.7819 32.7159C 48.775 32.8795 48.7662 33.0429 48.7545 33.2056C 48.7527 33.232 48.7515 33.2587 48.7495 33.2851C 48.7363 33.461 48.7192 33.6361 48.7004 33.8109C 48.6934 33.8766 48.6857 33.9422 48.6778 34.0077C 48.663 34.1309 48.6467 34.2537 48.6293 34.3762C 48.6162 34.4691 48.6024 34.5617 48.5877 34.6541C 48.5683 34.7761 48.5477 34.8981 48.5257 35.0196C 48.5082 35.1157 48.4895 35.2116 48.4704 35.3072C 48.457 35.3739 48.4429 35.4401 48.4288 35.5064ZM 62.0078 37.2844C 62.0078 39.3563 60.3221 41.042 58.2501 41.042L 48.4745 41.042C 49.3753 39.4058 50.0193 37.6527 50.3965 35.8324C 50.4028 35.8021 50.4092 35.7719 50.4153 35.7415C 50.4404 35.6175 50.4644 35.4932 50.4869 35.3687C 50.4962 35.3172 50.5048 35.2655 50.5139 35.2139C 50.5335 35.0995 50.5534 34.9851 50.571 34.8705C 50.5823 34.7974 50.5919 34.7237 50.6023 34.6502C 50.6245 34.4925 50.645 34.3345 50.6634 34.1759C 50.6757 34.0705 50.6877 33.9654 50.6982 33.8596C 50.7055 33.784 50.7118 33.7082 50.7183 33.6325C 50.7277 33.5236 50.7363 33.4144 50.7439 33.3049C 50.7488 33.2334 50.7534 33.162 50.7575 33.0904C 50.7644 32.9695 50.7699 32.8482 50.7745 32.7267C 50.7768 32.6665 50.7797 32.6062 50.7814 32.546C 50.7865 32.3645 50.7899 32.1825 50.7899 31.9997C 50.7899 31.817 50.7865 31.6351 50.7814 31.4535C 50.7797 31.3933 50.7768 31.3329 50.7745 31.2728C 50.7699 31.1513 50.7644 31.03 50.7575 30.9091C 50.7534 30.8375 50.7488 30.7661 50.7439 30.6948C 50.7363 30.5854 50.7277 30.4761 50.7183 30.3671C 50.7118 30.2914 50.7055 30.2156 50.6982 30.14C 50.6877 30.0343 50.6755 29.9291 50.6634 29.8239C 50.645 29.6651 50.6245 29.5069 50.6023 29.349C 50.5919 29.2758 50.5824 29.2023 50.571 29.1294C 50.5534 29.0145 50.5337 28.9003 50.5139 28.786C 50.505 28.7344 50.4964 28.6826 50.4869 28.6311C 50.4643 28.5065 50.4403 28.3823 50.4153 28.2584C 50.4092 28.2281 50.4028 28.1979 50.3965 28.1675C 50.0194 26.3471 49.3753 24.5942 48.4745 22.9579L 58.2501 22.9579C 60.3221 22.9579 62.0078 24.6435 62.0078 26.7155L 62.0078 37.2844Z"/>
<path id="Vector_2" d="M 13.5936 1.57599L 13.5525 1.53474C 12.5483 0.530747 10.9878 -6.56125e-07 9.03985 -6.56125e-07C 5.68886 -6.56125e-07 1.88062 1.54449 0.550619 3.44311C -0.147254 4.43948 -0.0555045 5.30398 0.14437 5.85385C 0.624994 7.17597 1.57474 8.26709 2.96749 9.09671C 3.59136 9.46846 4.16936 9.91996 4.68949 10.4432C 5.20811 10.9587 5.65986 11.5367 6.03173 12.1611C 6.86136 13.5536 7.95235 14.5033 9.27448 14.9839C 9.53548 15.0788 9.80673 15.1268 10.0812 15.1268C 10.0814 15.1268 10.0814 15.1268 10.0816 15.1268C 11.5842 15.1268 13.0387 13.6968 14.0717 11.2031C 15.3626 8.08747 15.7635 3.74598 13.5936 1.57599ZM 12.2313 10.4406C 11.5062 12.1907 10.5826 13.1348 10.0814 13.1347C 10.0391 13.1347 9.99773 13.1271 9.95498 13.1116C 9.07573 12.7921 8.33148 12.1291 7.74298 11.1411C 7.28561 10.3736 6.73073 9.66334 6.09811 9.03434C 5.46449 8.39697 4.75424 7.84209 3.98699 7.3851C 2.99911 6.7966 2.33637 6.05235 2.01662 5.1731C 1.99587 5.11598 1.93274 4.94223 2.18224 4.58598C 3.03999 3.36149 6.15498 1.99199 9.03985 1.99199C 10.4281 1.99199 11.5305 2.32987 12.1438 2.94324L 12.1851 2.98449C 13.5727 4.37223 13.2983 7.86522 12.2313 10.4406Z" transform="translate(20.0735 29.5413)"/>
<path id="Vector_3" d="M 5.99841 0.285124C 5.49928 0.095875 4.97754 -2.89916e-07 4.44754 -2.89916e-07C 2.64029 -2.89916e-07 0.995417 1.13575 0.354543 2.82599C -0.0435808 3.87611 -0.111705 5.34535 0.177044 6.65997C 0.532668 8.28059 1.34592 9.40709 2.46666 9.83209C 2.78766 9.95383 3.13104 10.0156 3.48741 10.0156C 3.48754 10.0156 3.48754 10.0156 3.48766 10.0156C 5.55166 10.0156 7.80665 7.86184 8.53953 5.92898C 9.39478 3.67261 8.2549 1.14062 5.99841 0.285124ZM 6.67665 5.2226C 6.20853 6.45735 4.61316 8.02347 3.48729 8.02334C 3.37166 8.02334 3.26866 8.00559 3.17266 7.96934C 2.71591 7.79609 2.32341 7.14697 2.12254 6.23272C 1.91879 5.3041 1.95666 4.21886 2.21704 3.53199C 2.56629 2.61086 3.46266 1.99187 4.44741 1.99187C 4.73528 1.99187 5.01953 2.04424 5.29203 2.14762C 6.52166 2.61386 7.14265 3.99323 6.67665 5.2226Z" transform="translate(29.4846 19.332)"/>
<path id="Vector_4" d="M 7.70539 3.12124C 7.34001 1.31262 5.73727 2.89916e-07 3.8944 2.89916e-07C 3.63627 2.89916e-07 3.37602 0.0259996 3.12102 0.0774994C 1.01815 0.502248 -0.347221 2.55887 0.0774032 4.66198C 0.430402 6.40923 2.2809 8.94722 4.37727 8.94746C 4.37739 8.94746 4.37752 8.94746 4.37764 8.94746C 4.54827 8.94746 4.71864 8.93059 4.88414 8.89709C 7.10689 8.44822 8.11226 5.13548 7.70539 3.12124ZM 4.48977 6.9446C 4.45339 6.9521 4.41677 6.95547 4.37752 6.95547C 3.56789 6.95535 2.27365 5.47323 2.03002 4.26761C 1.8229 3.24111 2.48915 2.23749 3.51552 2.03024C 3.64077 2.00499 3.76827 1.99212 3.89452 1.99212C 4.79314 1.99212 5.57452 2.63286 5.75289 3.51586C 6.01189 4.79823 5.28002 6.78497 4.48977 6.9446Z" transform="translate(20.5668 20.5896)"/>
<path id="Vector_5" d="M 9.73244 2.82599C 9.09157 1.13562 7.44657 1.52587e-07 5.63933 1.52587e-07C 5.10945 1.52587e-07 4.58758 0.0959995 4.08846 0.285249C 1.92846 1.10412 -0.729783 3.94373 0.185465 6.3581C 0.876088 8.17934 3.22258 8.82559 5.02208 8.82559C 5.82783 8.82559 6.57807 8.70259 7.19145 8.46997C 9.44819 7.6146 10.5879 5.08273 9.73244 2.82599ZM 6.48533 6.60747C 6.10058 6.75347 5.58095 6.8336 5.02208 6.8336C 3.58208 6.8336 2.30358 6.3256 2.04796 5.65185C 1.66184 4.63298 3.35571 2.69349 4.7947 2.14787C 5.06745 2.04449 5.35158 1.99212 5.63933 1.99212C 6.62407 1.99212 7.52057 2.61111 7.86982 3.53224C 8.33595 4.76198 7.71482 6.14122 6.48533 6.60747Z" transform="translate(35.3933 26.4336)"/>
<path id="Vector_6" d="M 5.82797 0.0886265C 5.53709 0.0298767 5.21846 -3.05175e-08 4.88147 -3.05175e-08C 2.82522 -3.05175e-08 0.433851 1.02 0.0519767 2.90974C -0.409147 5.19198 2.29597 7.31422 4.28747 7.71647C 4.54234 7.76797 4.80247 7.79397 5.06072 7.79397C 6.90371 7.79397 8.50633 6.48135 8.87171 4.67261C 9.29621 2.56999 7.93084 0.513375 5.82797 0.0886265ZM 6.91896 4.27861C 6.74059 5.16136 5.95922 5.80235 5.06059 5.80235C 4.93447 5.80235 4.80697 5.78948 4.68172 5.76423C 3.39922 5.50523 1.84785 4.07986 2.0046 3.30449C 2.13835 2.64236 3.56334 1.99224 4.88147 1.99224C 5.08634 1.99224 5.27209 2.00887 5.43347 2.04137C 6.45984 2.24862 7.12621 3.25224 6.91896 4.27861Z" transform="translate(35.204 36.3818)"/>
</svg>