<svg width="64" height="64" viewBox="0 0 64 64" version="1.1" xmlns="http://www.w3.org/2000/svg" xmlns:xlink="http://www.w3.org/1999/xlink">
<path id="Vector" d="M 61.1856 6.41175L 52.4346 6.41175C 53.2712 5.75536 53.8109 4.73219 53.8109 3.58374C 53.8109 1.60778 52.215 -8.40561e-10 50.2532 -8.40561e-10C 48.2915 -8.40561e-10 46.6956 1.60766 46.6956 3.58374C 46.6956 4.18749 46.8451 4.75624 47.1079 5.25587L 45.8541 6.41162L 28.6515 6.41162C 28.1088 5.13033 26.8457 4.2298 25.3776 4.2298C 23.9095 4.2298 22.6465 5.1302 22.1036 6.41162L 2.81345 6.41162C 1.2621 6.41175 0 7.68309 0 9.24567L 0 16.2224C 0 16.7441 0.419868 17.1671 0.937859 17.1671C 1.45572 17.1671 1.87572 16.7442 1.87572 16.2224L 1.87572 9.24567C 1.87572 8.72477 2.29633 8.30095 2.81358 8.30095L 21.8542 8.30095C 21.9036 8.66282 22.0055 9.00795 22.154 9.32739L 14.2446 16.5452C 13.6858 16.1767 13.0185 15.9614 12.302 15.9614C 10.3404 15.9614 8.74435 17.569 8.74435 19.5451C 8.74435 21.5212 10.3403 23.1289 12.302 23.1289C 14.2638 23.1289 15.8597 21.5212 15.8597 19.5451C 15.8597 18.9754 15.7265 18.4366 15.4906 17.9579L 23.3683 10.7688C 23.9406 11.1648 24.6326 11.3973 25.3777 11.3973C 26.3847 11.3973 27.2944 10.9731 27.9423 10.2935L 34.3288 14.1145C 34.2824 14.3452 34.2579 14.5835 34.2579 14.8277C 34.2579 16.8036 35.8539 18.4114 37.8156 18.4114C 39.7773 18.4114 41.3733 16.8037 41.3733 14.8277C 41.3733 14.3135 41.2645 13.8249 41.07 13.3824L 46.5828 8.30095L 61.1856 8.30095C 61.7027 8.30095 62.1234 8.72465 62.1234 9.24567L 62.1234 32.5886C 62.1234 33.1104 62.5433 33.5333 63.0613 33.5333C 63.5791 33.5333 63.9991 33.1105 63.9991 32.5886L 63.9991 9.24567C 63.9989 7.68309 62.7368 6.41175 61.1856 6.41175ZM 12.3019 21.2398C 11.3744 21.2398 10.6198 20.4798 10.6198 19.5455C 10.6198 18.6111 11.3744 17.8511 12.3019 17.8511C 13.2294 17.8511 13.984 18.6111 13.984 19.5455C 13.9839 20.4798 13.2294 21.2398 12.3019 21.2398ZM 25.3776 9.50795C 24.4501 9.50795 23.6955 8.74794 23.6955 7.81354C 23.6955 6.87926 24.4501 6.11913 25.3776 6.11913C 26.305 6.11913 27.0597 6.87914 27.0597 7.81354C 27.0597 8.74794 26.305 9.50795 25.3776 9.50795ZM 37.8155 16.5219C 36.8881 16.5219 36.1334 15.7619 36.1334 14.8275C 36.1334 13.8933 36.888 13.1331 37.8155 13.1331C 38.7429 13.1331 39.4976 13.8931 39.4976 14.8275C 39.4974 15.7619 38.7428 16.5219 37.8155 16.5219ZM 39.8838 11.9147C 39.3004 11.4931 38.5865 11.2439 37.8153 11.2439C 36.7704 11.2439 35.8295 11.7001 35.178 12.4251L 28.8402 8.63336C 28.8656 8.52444 28.8862 8.41351 28.9015 8.30107L 43.8042 8.30107L 39.8838 11.9147ZM 50.2531 5.27815C 49.3258 5.27815 48.571 4.51814 48.571 3.58374C 48.571 2.64934 49.3256 1.88933 50.2531 1.88933C 51.1806 1.88933 51.9352 2.64934 51.9352 3.58374C 51.9353 4.51814 51.1807 5.27815 50.2531 5.27815Z" transform="translate(0.000999451 0)"/>
<path id="Vector_2" d="M 63.999 23.9805C 63.999 23.4587 63.5791 23.0358 63.0611 23.0358C 62.5433 23.0358 62.1233 23.4586 62.1233 23.9805L 62.1233 31.0872L 55.2185 31.0872L 55.2185 8.70903L 55.2185 4.85357L 55.2185 0.944726C 55.2185 0.422942 54.7987 2.15184e-07 54.2807 2.15184e-07L 47.2258 2.15184e-07C 46.7079 2.15184e-07 46.2879 0.422816 46.2879 0.944726L 46.2879 4.85357L 46.2879 8.70903L 46.2879 31.0872L 42.7805 31.0872L 42.7805 26.2777L 42.7805 22.4222L 42.7805 18.5134C 42.7805 17.9916 42.3606 17.5687 41.8426 17.5687L 34.7878 17.5687C 34.2699 17.5687 33.8499 17.9915 33.8499 18.5134L 33.8499 22.4222L 33.8499 26.2777L 33.8499 31.0872L 30.3426 31.0872L 30.3426 14.0836L 30.3426 10.2282L 30.3426 6.31945C 30.3426 5.79767 29.9227 5.37473 29.4047 5.37473L 22.3499 5.37473C 21.832 5.37473 21.412 5.79754 21.412 6.31945L 21.412 10.2282L 21.412 14.0836L 21.412 19.37C 21.412 19.8918 21.8319 20.3147 22.3499 20.3147C 22.8679 20.3147 23.2877 19.8919 23.2877 19.37L 23.2877 15.0282L 28.467 15.0282L 28.467 31.0872L 23.2877 31.0872L 23.2877 23.1486C 23.2877 22.6268 22.8679 22.2039 22.3499 22.2039C 21.8319 22.2039 21.412 22.6267 21.412 23.1486L 21.412 31.0872L 17.9047 31.0872L 17.9047 26.2777L 17.9047 22.4222L 17.9047 18.5134C 17.9047 17.9916 17.4848 17.5687 16.9668 17.5687L 9.91258 17.5687C 9.39471 17.5687 8.97472 17.9915 8.97472 18.5134L 8.97472 22.4222L 8.97472 26.2777L 8.97472 31.0872L 1.87572 31.0872L 1.87572 7.61422C 1.87572 7.09243 1.45585 6.66949 0.937859 6.66949C 0.419993 6.66949 0 7.09231 0 7.61422L 0 38.8807C 0 40.4433 1.26198 41.7148 2.81345 41.7148L 23.3535 41.7148L 22.8186 46.4087L 18.3661 46.4087C 17.8482 46.4087 17.4282 46.8315 17.4282 47.3534L 17.4282 50.6684C 17.4282 51.1902 17.8481 51.6132 18.3661 51.6132L 45.6335 51.6132C 46.1513 51.6132 46.5713 51.1904 46.5713 50.6684L 46.5713 47.3534C 46.5713 46.8316 46.1514 46.4087 45.6335 46.4087L 41.1809 46.4087L 40.646 41.7148L 61.1859 41.7148C 62.7373 41.7148 63.9994 40.4434 63.9994 38.8807C 63.9994 38.8745 63.9986 32.0561 63.9985 32.05C 63.9986 32.044 63.9994 32.0381 63.9994 32.0319L 63.9994 23.9805L 63.999 23.9805ZM 48.1639 1.88933L 53.3432 1.88933L 53.3432 3.90872L 48.1639 3.90872L 48.1639 1.88933ZM 48.1639 5.79817L 53.3432 5.79817L 53.3432 7.76431L 48.1639 7.76431L 48.1639 5.79817ZM 48.1639 9.65376L 53.3432 9.65376L 53.3432 31.0873L 48.1639 31.0873L 48.1639 9.65376ZM 35.726 19.4581L 40.9053 19.4581L 40.9053 21.4775L 35.726 21.4775L 35.726 19.4581ZM 35.726 23.367L 40.9053 23.367L 40.9053 25.3331L 35.726 25.3331L 35.726 23.367ZM 35.726 27.2224L 40.9053 27.2224L 40.9053 31.0872L 35.726 31.0872L 35.726 27.2224ZM 23.2881 9.28332L 23.2881 7.26393L 28.4674 7.26393L 28.4674 9.28332L 23.2881 9.28332ZM 23.2882 13.1389L 23.2882 11.1728L 28.4675 11.1728L 28.4675 13.1389L 23.2882 13.1389ZM 10.8504 19.4581L 16.0296 19.4581L 16.0296 21.4775L 10.8504 21.4775L 10.8504 19.4581ZM 10.8504 23.367L 16.0296 23.367L 16.0296 25.3331L 10.8504 25.3331L 10.8504 23.367ZM 10.8504 27.2224L 16.0296 27.2224L 16.0296 31.0872L 10.8504 31.0872L 10.8504 27.2224ZM 44.6955 48.2979L 44.6955 49.7236L 19.3038 49.7236L 19.3038 48.2979L 44.6955 48.2979ZM 24.7064 46.4086L 25.2413 41.7146L 38.7577 41.7146L 39.2926 46.4086L 24.7064 46.4086ZM 61.1857 39.8254L 2.81358 39.8254C 2.29658 39.8254 1.87572 39.4017 1.87572 38.8807L 1.87572 33.0128L 62.1233 33.0128L 62.1233 38.8807L 62.1234 38.8807C 62.1234 39.4017 61.7027 39.8254 61.1857 39.8254Z" transform="translate(0 12.3867)"/>
</svg>