<svg width="22" height="19" viewBox="0 0 22 19" version="1.1" xmlns="http://www.w3.org/2000/svg" xmlns:xlink="http://www.w3.org/1999/xlink">
<path d="M 0 17.9354L 0 2.85578C 0 2.26674 0.490389 1.79114 1.09775 1.79114L 12.5746 1.79114L 14.8826 1.79114L 12.6916 3.91606L 12.5746 3.91606L 2.191 3.91606L 2.191 16.8707L 15.5485 16.8707L 15.5485 14.5451L 15.5485 11.3686L 17.7395 9.24366L 17.7395 14.5451L 17.7395 17.9354C 17.7395 18.52 17.2491 19 16.6417 19L 1.09775 19C 0.490389 19 0 18.5244 0 17.9354ZM 9.54233 9.77598L 7.20286 7.50706C 6.54601 6.87002 5.47975 6.87002 4.8229 7.50706C 4.50348 7.81686 4.32802 8.22701 4.32802 8.66334C 4.32802 9.09967 4.50348 9.50982 4.8229 9.81525L 8.3501 13.2361C 9.00695 13.8731 10.0732 13.8731 10.7301 13.2361L 21.5051 2.78597C 21.8245 2.47617 22 2.06602 22 1.63406C 22 1.19773 21.8245 0.787576 21.5051 0.477782C 20.8483 -0.159261 19.782 -0.159261 19.1252 0.477782L 9.54233 9.77598Z"/>
</svg>