<svg width="53" height="53" viewBox="0 0 53 53" version="1.1" xmlns="http://www.w3.org/2000/svg" xmlns:xlink="http://www.w3.org/1999/xlink">
<path d="M 42.0098 0L 11.4158 0L 11.4158 8.65846L 12.9949 8.65846L 12.9949 1.57427L 41.3559 1.57427L 51.4209 11.6081L 51.4209 51.4257L 12.9949 51.4257L 12.9949 47.595L 11.4158 47.595L 11.4158 53L 53.0001 53L 53.0001 10.9562L 42.0098 0Z"/>
<path d="M 42.4725 10.4951L 42.4725 4.46045L 40.8933 4.46045L 40.8933 12.0694L 48.5259 12.0694L 48.5259 10.4951L 42.4725 10.4951Z"/>
<path d="M 17.6354 32.1149L 17.6354 13.801L 16.0563 13.801L 16.0563 33.6892L 18.4072 33.6892L 10.8247 42.6923L 3.3554 33.6892L 5.58396 33.6892L 5.58396 13.801L 4.0048 13.801L 4.0048 32.1149L 0 32.1149L 10.8156 45.1513L 21.7951 32.1149L 17.6354 32.1149Z"/>
<path d="M 5.5838 10.7574L 4.00464 10.7574L 4.00464 12.3317L 5.5838 12.3317L 5.5838 10.7574Z"/>
<path d="M 17.6358 10.7574L 16.0566 10.7574L 16.0566 12.3317L 17.6358 12.3317L 17.6358 10.7574Z"/>
<path d="M 45.8941 29.5959L 25.5757 29.5959L 25.5757 31.1702L 45.8941 31.1702L 45.8941 29.5959Z"/>
<path d="M 45.8941 34.3188L 25.5757 34.3188L 25.5757 35.8931L 45.8941 35.8931L 45.8941 34.3188Z"/>
<path d="M 32.6293 39.0415L 25.5757 39.0415L 25.5757 40.6158L 32.6293 40.6158L 32.6293 39.0415Z"/>
<path d="M 35.7877 39.0415L 34.2085 39.0415L 34.2085 40.6158L 35.7877 40.6158L 35.7877 39.0415Z"/>
<path d="M 42.1045 39.0415L 40.5254 39.0415L 40.5254 40.6158L 42.1045 40.6158L 42.1045 39.0415Z"/>
<path d="M 38.9456 39.0415L 37.3665 39.0415L 37.3665 40.6158L 38.9456 40.6158L 38.9456 39.0415Z"/>
<path d="M 45.8939 24.8732L 20.6274 24.8732L 20.6274 26.4474L 45.8939 26.4474L 45.8939 24.8732Z"/>
<path d="M 45.8939 20.1504L 20.6274 20.1504L 20.6274 21.7247L 45.8939 21.7247L 45.8939 20.1504Z"/>
<path d="M 45.8939 15.4277L 20.6274 15.4277L 20.6274 17.002L 45.8939 17.002L 45.8939 15.4277Z"/>
<path d="M 11.4158 18.7336L 9.83667 18.7336L 9.83667 20.3079L 11.4158 20.3079L 11.4158 18.7336Z"/>
<path d="M 11.4158 15.5851L 9.83667 15.5851L 9.83667 17.1593L 11.4158 17.1593L 11.4158 15.5851Z"/>
<path d="M 11.4158 21.8822L 9.83667 21.8822L 9.83667 23.4565L 11.4158 23.4565L 11.4158 21.8822Z"/>
<path d="M 11.4158 31.3278L 9.83667 31.3278L 9.83667 32.902L 11.4158 32.902L 11.4158 31.3278Z"/>
<path d="M 11.4158 28.1792L 9.83667 28.1792L 9.83667 29.7535L 11.4158 29.7535L 11.4158 28.1792Z"/>
<path d="M 11.4158 25.0306L 9.83667 25.0306L 9.83667 26.6049L 11.4158 26.6049L 11.4158 25.0306Z"/>
</svg>