<?xml version="1.0" encoding="iso-8859-1"?>
<!-- Generator: Adobe Illustrator 19.0.0, SVG Export Plug-In . SVG Version: 6.00 Build 0)  -->
<svg version="1.1" id="Capa_1" xmlns="http://www.w3.org/2000/svg" xmlns:xlink="http://www.w3.org/1999/xlink" x="0px" y="0px"
	 viewBox="0 0 512 512" style="enable-background:new 0 0 512 512;" xml:space="preserve">
<g>
	<g>
		<path d="M256,156c-5.52,0-10,4.48-10,10s4.48,10,10,10s10-4.48,10-10S261.52,156,256,156z"/>
	</g>
</g>
<g>
	<g>
		<path d="M511.996,165.917c-0.002-0.263-0.017-0.526-0.04-0.788c-0.005-0.056-0.005-0.113-0.01-0.169
			c-0.032-0.304-0.079-0.607-0.138-0.907c-0.026-0.131-0.061-0.257-0.092-0.386c-0.041-0.172-0.082-0.344-0.132-0.514
			c-0.042-0.141-0.091-0.279-0.139-0.418c-0.053-0.154-0.107-0.308-0.168-0.46c-0.055-0.137-0.115-0.272-0.176-0.406
			c-0.068-0.149-0.138-0.296-0.213-0.443c-0.067-0.13-0.136-0.257-0.208-0.383c-0.082-0.144-0.169-0.286-0.259-0.426
			c-0.078-0.122-0.157-0.242-0.24-0.36c-0.096-0.136-0.197-0.269-0.3-0.401c-0.09-0.115-0.179-0.229-0.273-0.339
			c-0.038-0.045-0.071-0.093-0.111-0.137l-106-120c-0.025-0.028-0.053-0.052-0.078-0.079c-0.165-0.183-0.339-0.356-0.518-0.527
			c-0.067-0.064-0.131-0.132-0.2-0.194c-0.211-0.191-0.433-0.37-0.662-0.543c-0.044-0.033-0.085-0.071-0.13-0.103
			c-0.273-0.199-0.556-0.387-0.852-0.56c-0.004-0.002-0.007-0.005-0.011-0.007c-0.586-0.341-1.214-0.629-1.882-0.852
			c-0.005-0.002-0.011-0.003-0.016-0.004c-0.1-0.033-0.204-0.055-0.305-0.085c-0.234-0.07-0.469-0.14-0.704-0.192
			c-0.081-0.018-0.165-0.027-0.247-0.042c-0.262-0.051-0.523-0.097-0.785-0.127c-0.081-0.009-0.163-0.01-0.244-0.017
			c-0.266-0.023-0.531-0.041-0.795-0.042c-0.022,0-0.044-0.003-0.066-0.003H116c-0.023,0-0.046,0.003-0.07,0.004
			c-0.257,0.002-0.516,0.02-0.775,0.042c-0.088,0.008-0.176,0.009-0.264,0.018c-0.254,0.029-0.507,0.074-0.761,0.123
			c-0.09,0.017-0.181,0.027-0.27,0.046c-0.23,0.051-0.46,0.12-0.689,0.188c-0.105,0.031-0.214,0.054-0.318,0.088
			c-0.005,0.002-0.011,0.003-0.016,0.004c-0.669,0.223-1.297,0.511-1.882,0.852c-0.004,0.002-0.007,0.005-0.011,0.007
			c-0.296,0.173-0.579,0.36-0.852,0.56c-0.045,0.033-0.086,0.07-0.13,0.104c-0.228,0.173-0.45,0.352-0.661,0.542
			c-0.069,0.063-0.134,0.131-0.201,0.195c-0.178,0.17-0.353,0.344-0.517,0.526c-0.025,0.028-0.053,0.052-0.078,0.079l-106,120
			c-0.039,0.044-0.072,0.092-0.111,0.137c-0.094,0.11-0.184,0.224-0.273,0.339c-0.103,0.132-0.204,0.265-0.3,0.401
			c-0.083,0.118-0.162,0.238-0.24,0.36c-0.09,0.141-0.177,0.282-0.259,0.426c-0.072,0.126-0.142,0.253-0.208,0.383
			c-0.075,0.146-0.146,0.294-0.213,0.443c-0.061,0.134-0.121,0.268-0.176,0.406c-0.061,0.152-0.115,0.306-0.168,0.46
			c-0.048,0.139-0.097,0.277-0.139,0.418c-0.05,0.17-0.091,0.342-0.132,0.514c-0.031,0.129-0.066,0.256-0.092,0.386
			c-0.06,0.301-0.107,0.603-0.138,0.907c-0.006,0.056-0.006,0.113-0.01,0.169c-0.023,0.262-0.038,0.525-0.04,0.788
			C0.004,165.945,0,165.971,0,166c0,0.082,0.01,0.162,0.012,0.243c0.005,0.208,0.013,0.415,0.031,0.622
			c0.011,0.131,0.027,0.26,0.043,0.389c0.023,0.179,0.049,0.357,0.082,0.534c0.025,0.14,0.052,0.279,0.083,0.416
			c0.037,0.163,0.08,0.325,0.125,0.487c0.039,0.141,0.078,0.282,0.123,0.42c0.051,0.156,0.111,0.31,0.17,0.465
			c0.052,0.135,0.101,0.272,0.158,0.404c0.068,0.157,0.147,0.31,0.224,0.464c0.061,0.123,0.117,0.249,0.183,0.369
			c0.092,0.167,0.197,0.329,0.299,0.492c0.063,0.1,0.12,0.204,0.186,0.302c0.17,0.25,0.352,0.495,0.547,0.733l0.01,0.012
			c0.004,0.005,0.008,0.01,0.012,0.015l245.978,299.973c0.021,0.025,0.045,0.047,0.066,0.072c0.214,0.255,0.436,0.502,0.673,0.733
			c0.027,0.027,0.057,0.051,0.085,0.077c0.211,0.202,0.432,0.393,0.659,0.575c0.071,0.057,0.143,0.113,0.215,0.168
			c0.236,0.179,0.478,0.349,0.729,0.506c0.027,0.017,0.053,0.036,0.08,0.053c0.277,0.169,0.564,0.322,0.856,0.464
			c0.076,0.037,0.153,0.071,0.23,0.106c0.244,0.111,0.493,0.213,0.746,0.304c0.063,0.023,0.124,0.048,0.187,0.069
			c0.31,0.105,0.626,0.195,0.947,0.27c0.063,0.015,0.127,0.025,0.191,0.038c0.264,0.056,0.531,0.101,0.802,0.135
			c0.089,0.011,0.177,0.023,0.266,0.032c0.33,0.033,0.663,0.056,1,0.056c0.337,0,0.67-0.023,1-0.056
			c0.089-0.009,0.177-0.021,0.266-0.032c0.27-0.034,0.537-0.079,0.801-0.135c0.064-0.013,0.128-0.024,0.191-0.038
			c0.321-0.074,0.637-0.165,0.947-0.27c0.063-0.021,0.125-0.047,0.187-0.069c0.253-0.092,0.502-0.193,0.746-0.304
			c0.077-0.035,0.154-0.069,0.23-0.106c0.292-0.142,0.579-0.295,0.856-0.464c0.027-0.017,0.053-0.036,0.08-0.053
			c0.251-0.157,0.492-0.327,0.728-0.505c0.073-0.055,0.145-0.112,0.216-0.169c0.227-0.182,0.448-0.373,0.659-0.574
			c0.028-0.027,0.057-0.051,0.085-0.078c0.237-0.232,0.46-0.478,0.673-0.733c0.021-0.025,0.045-0.046,0.066-0.072l245.978-299.973
			c0.004-0.005,0.008-0.01,0.012-0.015l0.01-0.012c0.195-0.238,0.378-0.483,0.547-0.733c0.066-0.098,0.123-0.202,0.186-0.302
			c0.102-0.163,0.207-0.325,0.299-0.492c0.066-0.12,0.122-0.246,0.183-0.369c0.077-0.154,0.155-0.307,0.224-0.464
			c0.058-0.132,0.106-0.269,0.158-0.404c0.059-0.154,0.119-0.308,0.17-0.465c0.045-0.138,0.084-0.279,0.123-0.42
			c0.045-0.162,0.088-0.323,0.125-0.487c0.031-0.138,0.058-0.276,0.083-0.416c0.032-0.178,0.059-0.355,0.082-0.534
			c0.016-0.129,0.032-0.259,0.043-0.389c0.018-0.207,0.026-0.415,0.031-0.622C511.99,166.161,512,166.081,512,166
			C512,165.971,511.996,165.945,511.996,165.917z M399.997,65.63L479.824,156h-109.95L399.997,65.63z M382.125,56l-29.936,89.808
			L277.35,56H382.125z M234.65,56l-74.84,89.808L129.874,56H234.65z M112.003,65.63L142.126,156H32.176L112.003,65.63z M31.132,176
			h117.66l80.589,241.768L31.132,176z M256,434.377L169.874,176H216c5.523,0,10-4.477,10-10s-4.477-10-10-10h-38.649L256,61.62
			L334.649,156H295.06c-5.523,0-10,4.477-10,10s4.477,10,10,10h47.066L256,434.377z M282.618,417.768L363.208,176h117.66
			L282.618,417.768z"/>
	</g>
</g>
<g>
</g>
<g>
</g>
<g>
</g>
<g>
</g>
<g>
</g>
<g>
</g>
<g>
</g>
<g>
</g>
<g>
</g>
<g>
</g>
<g>
</g>
<g>
</g>
<g>
</g>
<g>
</g>
<g>
</g>
</svg>
