<svg width="54" height="50" viewBox="0 0 54 50" version="1.1" xmlns="http://www.w3.org/2000/svg" xmlns:xlink="http://www.w3.org/1999/xlink">
<path fill-rule="evenodd" clip-rule="evenodd" d="M 9.3408 13.6699C 9.62247 13.5131 9.96718 13.5205 10.2418 13.6892L 26.4912 23.6735L 26.9419 23.799L 43.3956 13.6892C 43.6702 13.5205 44.0149 13.5131 44.2966 13.6699C 44.5783 13.8267 44.7528 14.1232 44.7528 14.4448L 44.7528 19.0518L 48.1561 18.104C 48.4242 18.0293 48.712 18.084 48.9337 18.2518C 49.1555 18.4196 49.2857 18.6812 49.2857 18.9588L 49.2857 24.3756C 49.2857 24.8658 48.8872 25.2632 48.3955 25.2632C 47.9039 25.2632 47.5054 24.8658 47.5054 24.3756L 47.5054 20.1283L 27.8902 25.591L 27.8902 47.9525L 47.5054 42.6553L 47.5054 38.4594C 47.5054 37.9692 47.9039 37.5718 48.3955 37.5718C 48.8872 37.5718 49.2857 37.9692 49.2857 38.4594L 49.2857 43.3345C 49.2857 43.7353 49.0163 44.0864 48.6283 44.1912L 27.2327 49.9691C 26.9652 50.0414 26.6792 49.9852 26.4591 49.8173C 26.3997 49.772 26.347 49.72 26.3016 49.6628L 5.37175 44.0106C 4.98372 43.9058 4.71428 43.5548 4.71428 43.1539L 4.71428 38.2788C 4.71428 37.7886 5.11284 37.3912 5.60448 37.3912C 6.09612 37.3912 6.49467 37.7886 6.49467 38.2788L 6.49467 42.4748L 26.1098 47.7719L 26.1098 25.5243L 25.7707 25.3159L 9.95534 20.9115C 9.89704 20.9235 9.83665 20.9298 9.77479 20.9298C 9.54077 20.9298 9.32783 20.8397 9.16894 20.6925L 6.49467 19.9477L 6.49467 24.1951C 6.49467 24.6853 6.09612 25.0827 5.60448 25.0827C 5.11284 25.0827 4.71428 24.6853 4.71428 24.1951L 4.71428 18.7783C 4.71428 18.5007 4.84453 18.2391 5.0663 18.0713C 5.28807 17.9034 5.57581 17.8487 5.84396 17.9234L 8.8846 18.7702L 8.8846 14.4448C 8.8846 14.1232 9.05913 13.8267 9.3408 13.6699ZM 10.665 19.266L 20.2845 21.945L 10.665 16.0344L 10.665 19.266ZM 32.5149 22.4599L 42.9724 16.0344L 42.9724 19.5476L 32.5149 22.4599Z"/>
<path d="M 33.5274 16.6116C 33.5274 17.5091 32.7968 18.2366 31.8956 18.2366C 30.9943 18.2366 30.2637 17.5091 30.2637 16.6116C 30.2637 15.7141 30.9943 14.9866 31.8956 14.9866C 32.7968 14.9866 33.5274 15.7141 33.5274 16.6116Z"/>
<path d="M 23.3736 16.6116C 23.3736 17.5091 22.643 18.2366 21.7418 18.2366C 20.8405 18.2366 20.1099 17.5091 20.1099 16.6116C 20.1099 15.7141 20.8405 14.9866 21.7418 14.9866C 22.643 14.9866 23.3736 15.7141 23.3736 16.6116Z"/>
<path fill-rule="evenodd" clip-rule="evenodd" d="M 20.6261 13.4746C 20.2389 13.6601 19.9531 14.0199 19.8247 14.287C 19.6121 14.7289 19.0804 14.9154 18.6371 14.7035C 18.1938 14.4915 18.0067 13.9613 18.2193 13.5194C 18.4777 12.9822 19.0187 12.2753 19.8548 11.8746C 20.748 11.4466 21.8661 11.4234 23.0881 12.1156C 23.5155 12.3577 23.6652 12.8995 23.4224 13.3257C 23.1795 13.7519 22.6361 13.9012 22.2086 13.659C 21.4578 13.2337 20.9562 13.3164 20.6261 13.4746Z"/>
<path fill-rule="evenodd" clip-rule="evenodd" d="M 33.0113 13.4746C 33.3984 13.6601 33.6842 14.0199 33.8127 14.287C 34.0253 14.7289 34.557 14.9154 35.0003 14.7035C 35.4436 14.4915 35.6306 13.9613 35.418 13.5194C 35.1597 12.9822 34.6187 12.2753 33.7825 11.8746C 32.8894 11.4466 31.7712 11.4234 30.5493 12.1156C 30.1218 12.3577 29.9721 12.8995 30.215 13.3257C 30.4578 13.7519 31.0012 13.9012 31.4287 13.659C 32.1795 13.2337 32.6811 13.3164 33.0113 13.4746Z"/>
<path d="M 15.6788 9.54616C 15.3764 10.5852 15.2143 11.6836 15.2143 12.8198C 15.2143 14.6792 15.6481 16.4363 16.42 17.9973C 16.5528 18.2657 16.4418 18.5904 16.1723 18.7226C 15.9028 18.8547 15.5768 18.7443 15.444 18.4759C 14.6001 16.7692 14.1264 14.8488 14.1264 12.8198C 14.1264 5.73963 19.8901 0 27 0C 34.1099 0 39.8736 5.73963 39.8736 12.8198L 39.8733 12.8359C 39.8731 12.8439 39.8727 12.8518 39.8721 12.8598C 39.8104 13.6888 39.6627 14.961 39.417 16.0898C 39.2945 16.6524 39.1436 17.1994 38.9582 17.6437C 38.8655 17.866 38.7581 18.0775 38.6317 18.2571C 38.5084 18.4322 38.3431 18.6112 38.1223 18.7211C 37.8536 18.8549 37.5269 18.7464 37.3926 18.4789C 37.2582 18.2113 37.3671 17.8859 37.6358 17.7521C 37.6397 17.7495 37.6783 17.7241 37.7409 17.6351C 37.8066 17.5417 37.8789 17.4071 37.9535 17.2281C 38.1029 16.8701 38.2374 16.3947 38.3538 15.8604C 38.5836 14.8042 38.7255 13.5962 38.7856 12.7998C 38.7832 11.2891 38.494 9.84526 37.9695 8.51947C 37.8482 8.88916 37.6049 9.23942 37.1538 9.38914C 29.3571 12.6392 24.0989 8.6669 23.1923 6.8613C 22.219 11.707 17.9478 10.7471 15.6788 9.54616Z"/>
<path fill-rule="evenodd" clip-rule="evenodd" d="M 4.02397 25.4045C 4.31265 25.8013 4.22406 26.3563 3.8261 26.6442C 2.64796 27.4963 1.78039 29.1595 1.78039 31.1529C 1.78039 33.343 2.82371 35.121 4.16853 35.8817C 4.59614 36.1236 4.74612 36.6653 4.50352 37.0917C 4.26091 37.518 3.71759 37.6676 3.28998 37.4257C 1.28638 36.2923 0 33.8567 0 31.1529C 0 28.679 1.0736 26.4419 2.78069 25.2073C 3.17865 24.9194 3.73529 25.0078 4.02397 25.4045Z"/>
<path fill-rule="evenodd" clip-rule="evenodd" d="M 49.976 25.4045C 49.6874 25.8013 49.7759 26.3563 50.1739 26.6442C 51.3521 27.4963 52.2196 29.1595 52.2196 31.1529C 52.2196 33.343 51.1763 35.121 49.8315 35.8817C 49.4039 36.1236 49.2539 36.6653 49.4965 37.0917C 49.7391 37.518 50.2824 37.6676 50.71 37.4257C 52.7136 36.2923 54 33.8567 54 31.1529C 54 28.679 52.9264 26.4419 51.2193 25.2073C 50.8214 24.9194 50.2647 25.0078 49.976 25.4045Z"/>
</svg>