<svg width="51" height="50" viewBox="0 0 51 50" version="1.1" xmlns="http://www.w3.org/2000/svg" xmlns:xlink="http://www.w3.org/1999/xlink">
<path fill-rule="evenodd" clip-rule="evenodd" d="M 2.91429 17.9695L 0 16.0584L 25.5 0L 51 16.0584L 40.9821 22.6277L 40.9821 17.8832C 39.2821 16.8492 33.9879 14.7445 26.4107 14.5985C 18.8336 14.4525 12.325 16.7275 10.0179 17.8832L 10.0179 22.6277L 4.00714 18.6861L 4.00714 38.0248C 5.14225 38.2954 6.55714 39.375 6.55714 41.4234C 6.55714 42.5649 6.09156 43.9604 5.55527 45.1916C 5.01133 46.4403 4.35996 47.5967 3.92167 48.2866L 3.47139 48.9956L 3.00607 48.2964C 2.50295 47.5403 1.80578 46.3098 1.23267 45.0436C 0.671118 43.8028 0.182143 42.4291 0.182143 41.4234C 0.182143 40.3344 0.674409 39.4644 1.31556 38.8757C 1.78639 38.4433 2.35923 38.1426 2.91429 38.019L 2.91429 17.9695ZM 2.05409 39.6827C 1.60238 40.0976 1.275 40.6875 1.275 41.4234C 1.275 42.1694 1.66641 43.3505 2.22805 44.5914C 2.61412 45.4446 3.05881 46.2795 3.45155 46.9447C 3.80125 46.3311 4.20165 45.5618 4.55366 44.7537C 5.07981 43.5457 5.46429 42.3256 5.46429 41.4234C 5.46429 39.7324 4.12267 39.0511 3.46071 39.0511C 3.07473 39.0511 2.51869 39.256 2.05409 39.6827Z"/>
<path fill-rule="evenodd" clip-rule="evenodd" d="M 9.47899 24.5439C 9.44057 24.3168 9.54907 24.081 9.76368 23.968C 14.6122 21.4147 27.6129 17.8841 41.2046 23.9525C 41.4374 24.0565 41.5619 24.3035 41.521 24.5442C 41.5449 24.6868 41.5128 24.8387 41.4194 24.9635C 41.3877 25.0057 41.3554 25.0576 41.3225 25.1191C 42.7347 26.2248 43.9247 29.4634 40.3265 34.2701C 40.3087 34.2938 40.2894 34.3157 40.2688 34.3358C 40.2315 34.3718 40.1901 34.4016 40.1459 34.4251C 40.0548 35.3268 39.8996 36.3547 39.6566 37.4047C 39.2117 39.3272 38.458 41.3871 37.2109 42.8709C 34.9061 45.6129 31.7475 47.0785 30.2306 47.5457C 29.6102 48.5087 27.9754 50 25.3179 50C 22.6274 50 20.9852 48.4715 20.3826 47.5101C 18.9831 46.8796 16.0073 45.2022 13.978 42.8788C 11.8363 40.4264 11.1715 37.1447 10.8983 34.4461C 10.8286 34.4167 10.7639 34.3723 10.7093 34.3129C 8.87973 32.3273 8.2401 30.4054 8.22836 28.7814C 8.21671 27.1738 8.8213 25.8979 9.4194 25.1929C 9.43052 25.1798 9.44208 25.1674 9.45409 25.1557C 9.46138 25.1485 9.46885 25.1416 9.4765 25.1349C 9.49188 25.1214 9.5078 25.109 9.52426 25.0976C 9.5344 25.0905 9.54471 25.0838 9.55521 25.0775C 9.5303 24.962 9.50665 24.8539 9.4845 24.7538C 9.46867 24.6826 9.46752 24.6116 9.47899 24.5439ZM 28.3392 21.8084C 20.4647 21.2029 13.8635 23.1503 10.6062 24.7665C 10.7824 25.5792 11.0281 26.7938 11.2556 28.0894C 11.3425 27.9285 11.438 27.7675 11.5428 27.6087C 12.116 26.7399 12.9894 25.9023 14.2485 25.5659C 14.9323 25.3833 16.1115 25.2048 17.4682 24.9996L 17.6887 24.9662C 19.1583 24.7437 20.8518 24.4834 22.4743 24.1447C 24.1027 23.8048 25.6265 23.3925 26.7661 22.876C 27.3357 22.6178 27.7841 22.3447 28.098 22.0609C 28.1927 21.9753 28.2726 21.8911 28.3392 21.8084ZM 29.5408 21.9199C 29.3856 22.2826 29.1338 22.5993 28.8302 22.8738C 28.4013 23.2615 27.8422 23.59 27.2165 23.8735C 25.9655 24.4405 24.3473 24.8722 22.6972 25.2166C 21.0411 25.5623 19.3194 25.8266 17.852 26.0488L 17.6986 26.072C 16.2823 26.2864 15.1533 26.4574 14.5301 26.6238C 13.6034 26.8714 12.9287 27.4936 12.4546 28.2124C 11.9774 28.9356 11.7295 29.7195 11.6497 30.1995C 11.6421 30.2452 11.629 30.2887 11.6113 30.3293C 11.7174 31.0946 11.7993 31.8234 11.8382 32.4476C 12.0218 35.3889 12.3895 39.3971 14.8005 42.1578C 16.7668 44.4091 19.7459 46.0474 20.9796 46.5771C 21.0932 46.6259 21.1868 46.7118 21.2454 46.8208C 21.5912 47.4642 22.9279 48.9051 25.3179 48.9051C 27.7079 48.9051 29.0445 47.4642 29.3904 46.8208C 29.4613 46.6887 29.5833 46.5916 29.7277 46.5521C 30.9857 46.2084 34.1324 44.8336 36.3749 42.1656C 37.4592 40.8756 38.1627 39.0122 38.5921 37.1574C 39.0191 35.3121 39.1607 33.538 39.1607 32.4818L 39.1608 32.4726L 39.161 32.4661C 39.1838 31.6624 39.2459 30.519 39.361 29.3375C 39.3546 29.3131 39.3498 29.288 39.3467 29.2623C 39.2547 28.4945 38.8517 27.7221 38.2002 26.9619C 37.5503 26.2035 36.6793 25.488 35.7105 24.8392C 33.7722 23.5412 31.5128 22.5562 30.0566 22.05C 29.9958 22.0289 29.9412 21.9981 29.8937 21.96L 29.7622 21.9446C 29.6883 21.9361 29.6145 21.9279 29.5408 21.9199ZM 39.8926 25.9216C 39.8033 26.2793 39.724 26.6717 39.6537 27.0827C 39.4689 26.7943 39.2585 26.5161 39.0294 26.2487C 38.2931 25.3894 37.3359 24.6108 36.3178 23.929C 35.6888 23.5077 35.0298 23.119 34.3746 22.7673C 36.3133 23.24 38.2929 23.8875 40.2875 24.7456C 40.1268 25.086 39.9988 25.496 39.8926 25.9216ZM 9.84959 26.5107C 9.5561 27.0701 9.31446 27.8465 9.32121 28.7734C 9.32913 29.8682 9.68399 31.2018 10.7564 32.6577L 10.7475 32.5159C 10.6437 30.8516 10.2155 28.3715 9.84959 26.5107ZM 40.5814 28.2689C 40.6766 27.5383 40.7933 26.8462 40.9334 26.2662C 41.6079 27.0952 42.2942 29.1312 40.2551 32.4387C 40.287 31.3856 40.3862 29.7676 40.5814 28.2689Z"/>
<path d="M 20.2179 31.9343C 20.2179 33.0429 19.3208 33.9416 18.2143 33.9416C 17.1077 33.9416 16.2107 33.0429 16.2107 31.9343C 16.2107 30.8257 17.1077 29.927 18.2143 29.927C 19.3208 29.927 20.2179 30.8257 20.2179 31.9343Z"/>
<path d="M 34.7893 31.9343C 34.7893 33.0429 33.8923 33.9416 32.7857 33.9416C 31.6792 33.9416 30.7821 33.0429 30.7821 31.9343C 30.7821 30.8257 31.6792 29.927 32.7857 29.927C 33.8923 29.927 34.7893 30.8257 34.7893 31.9343Z"/>
</svg>