<?xml version="1.0" encoding="utf-8"?>
<!-- Generator: Adobe Illustrator 19.0.0, SVG Export Plug-In . SVG Version: 6.00 Build 0)  -->
<svg version="1.1" id="Слой_1" xmlns="http://www.w3.org/2000/svg" xmlns:xlink="http://www.w3.org/1999/xlink" x="0px" y="0px"
	 viewBox="0 0 480 485" style="enable-background:new 0 0 480 485;" xml:space="preserve">
<path id="XMLID_15_" d="M457.2,63.4L243.9,3.1l-1.4-0.4L24.1,63.4l51.2,311.2l1.3,1.2c2.3,2.1,57.5,52.6,77.8,65.6
	c20.8,13.4,83.9,39.1,86.6,40.2l1.9,0.8l1.9-0.8c2.8-1.2,67.8-28.9,89.2-42.9c18.9-12.4,70.1-60.9,72.2-62.9l1.2-1.2L457.2,63.4z
	 M328.5,430.2c-16.7,11-63.5,31.6-80.9,39.2v-23.1c12.2-5.3,57.2-24.9,73.3-35.5c16.2-10.6,60-52.1,61.9-53.9l1.2-1.2l42.7-266.9
	l-30.3-8.6c-2.7-0.8-5.5,0.8-6.2,3.5c-0.8,2.7,0.8,5.5,3.5,6.2l21.7,6.1l-40.7,254.7c-7.3,6.9-45.2,42.4-59.2,51.6
	c-15.7,10.3-62.7,30.7-72.8,35.1c-2.7-1.1-7.8-3.2-14.3-6c-2.6-1.1-5.5,0.1-6.6,2.7c-1.1,2.6,0.1,5.5,2.7,6.6
	c5.6,2.4,10.3,4.3,13.2,5.5v22.9c-17.5-7.3-61.7-26.1-77.6-36.3c-17.9-11.5-66.6-55.6-75.1-63.4L35.6,70.7l201.9-56.1v23.4
	L54.7,88.8l44,267l1.3,1.2c2,1.8,49.3,45,66.6,56.2c5.1,3.3,13.7,7.8,25.6,13.3c0.7,0.3,1.4,0.5,2.1,0.5c1.9,0,3.7-1.1,4.6-2.9
	c1.2-2.5,0.1-5.5-2.4-6.7c-11.5-5.4-19.7-9.6-24.4-12.7c-15.1-9.7-56.2-46.9-64-54L66.1,96.1l176.1-48.9l118.5,33.5
	c2.7,0.8,5.5-0.8,6.2-3.5c0.8-2.7-0.8-5.5-3.5-6.2L247.6,38.2V14.7l198.2,56l-47.8,298.9C390,377.2,345,419.4,328.5,430.2z"/>
<path id="XMLID_9_" d="M240,304.2c-1.3,0-2.6-0.5-3.5-1.5l-69.9-69.9c-0.9-0.9-1.5-2.2-1.5-3.5V192c0-2,1.2-3.8,3.1-4.6
	c1.9-0.8,4-0.3,5.4,1.1l66.3,66.3l97.1-97.1c1.4-1.4,3.6-1.9,5.4-1.1c1.9,0.8,3.1,2.6,3.1,4.6v37.3c0,1.3-0.5,2.6-1.5,3.5
	L243.5,302.7C242.5,303.7,241.3,304.2,240,304.2z M175.1,227.2l64.9,64.9l95.6-95.6v-23.2l-92.1,92.1c-2,2-5.1,2-7.1,0L175.1,204
	V227.2z"/>
</svg>
