<?xml version="1.0" encoding="utf-8"?>
<!-- Generator: Adobe Illustrator 19.0.0, SVG Export Plug-In . SVG Version: 6.00 Build 0)  -->
<svg version="1.1" id="Layer_1" xmlns="http://www.w3.org/2000/svg" xmlns:xlink="http://www.w3.org/1999/xlink" x="0px" y="0px"
	 viewBox="-104 105.4 290.6 290.6" enable-background="new -104 105.4 290.6 290.6" xml:space="preserve">
<path d="M182.1,386.7h-23.9v-46.8h23.9c2.5,0,4.5-2,4.5-4.5s-2-4.5-4.5-4.5h-23.9v-10h14.3c2.5,0,4.5-2,4.5-4.5v-19
	c0-2.5-2-4.5-4.5-4.5h-14.3v-10h14.3c2.5,0,4.5-2,4.5-4.5v-19c0-2.5-2-4.5-4.5-4.5H3.8c-2.5,0-4.5,2-4.5,4.5v19c0,2.5,2,4.5,4.5,4.5
	h14v10h-14c-2.5,0-4.5,2-4.5,4.5v19c0,2.5,2,4.5,4.5,4.5h14v10h-24c-2.5,0-4.5,2-4.5,4.5s2,4.5,4.5,4.5h24v46.8h-56.5v-24.3
	c0-2.5-2-4.5-4.5-4.5h-9.5V231c0-2.5-2-4.5-4.5-4.5h-4.6v-85.7c0-14.2,11.6-25.8,25.8-25.8c13.6,0,24.7,10.5,25.7,23.8
	c-15.8,2.3-28,16-28,32.4v4.7h18.8c0,7.8,6.3,14.1,14.1,14.1c7.8,0,14.1-6.3,14.1-14.1h18.8v-4.7c0-16.5-12.3-30.2-28.2-32.5
	c-1-18.5-16.3-33.2-35.1-33.2c-19.4,0-35.2,15.8-35.2,35.2v85.7h-5.6c-2.5,0-4.5,2-4.5,4.5v126.9h-9.1c-2.5,0-4.5,2-4.5,4.5v24.3
	h-4.6c-2.5,0-4.5,2-4.5,4.5s2,4.5,4.5,4.5h9.1h47.1h65.5h131.5h28.4c2.5,0,4.5-2,4.5-4.5S184.6,386.7,182.1,386.7z M-5.6,180.7
	c-2.6,0-4.7-2.1-4.7-4.7h9.4C-0.9,178.6-3,180.7-5.6,180.7z M17.4,166.6H8.5h-28.1h-8.9c2.2-10.7,11.6-18.8,23-18.8
	S15.2,155.9,17.4,166.6z M-72.2,235.5h10.5v122.4h-10.5V235.5z M-47.8,386.7h-38.1v-19.8h8.9c0.1,0,0.2,0,0.2,0h19.5
	c0.1,0,0.2,0,0.2,0h9.3V386.7z M8.3,273.9v-10H168v10H8.3z M149.3,283v10H140v-10H149.3z M131,283v10H45.8v-10H131z M36.8,283v10
	H26.8v-10H36.8z M131,386.4H46.8v-32.5H131V386.4z M149.3,386.7H140v-37.3c0-2.5-2-4.5-4.5-4.5H42.3c-2.5,0-4.5,2-4.5,4.5v37.3h-11
	v-46.8h14.6h94.2h13.8V386.7z M26.8,330.9v-10h10.1v10H26.8z M45.8,330.9v-10H131v10H45.8z M149.3,330.9H140v-10h9.3V330.9z
	 M149.3,311.9H26.8h-9H13H8.3v-10H13h4.7h9h122.5h9h2.1h7.6v10h-7.6h-2.1H149.3z"/>
</svg>
