<?xml version="1.0" encoding="utf-8"?>
<!-- Generator: Adobe Illustrator 19.0.0, SVG Export Plug-In . SVG Version: 6.00 Build 0)  -->
<svg version="1.1" id="Layer_1" xmlns="http://www.w3.org/2000/svg" xmlns:xlink="http://www.w3.org/1999/xlink" x="0px" y="0px"
	 viewBox="6 -6 512 512" enable-background="new 6 -6 512 512" xml:space="preserve">
<g>
	<g>
		<g>
			<path d="M372.9,471.9H134c-4.7,0-8.5,3.8-8.5,8.5v17.1c0,4.7,3.8,8.5,8.5,8.5s8.5-3.8,8.5-8.5v-8.5h230.4c4.7,0,8.5-3.8,8.5-8.5
				S377.6,471.9,372.9,471.9z"/>
			<path d="M193.7,207.3c0,4.7,3.8,8.5,8.5,8.5h34.1c4.7,0,8.5-3.8,8.5-8.5v-51.2c0-4.7-3.8-8.5-8.5-8.5h-34.1
				c-4.7,0-8.5,3.8-8.5,8.5L193.7,207.3L193.7,207.3z M210.8,164.7h17.1v34.1h-17.1V164.7z"/>
			<path d="M116.9,96.4H14.5c-4.7,0-8.5,3.8-8.5,8.5v170.7c0,4.7,3.8,8.5,8.5,8.5s8.5-3.8,8.5-8.5V113.5h93.9c4.7,0,8.5-3.8,8.5-8.5
				S121.6,96.4,116.9,96.4z"/>
			<path d="M415.6,412.1c0,4.7,3.8,8.5,8.5,8.5h34.1c4.7,0,8.5-3.8,8.5-8.5v-51.2c0-4.7-3.8-8.5-8.5-8.5h-34.1
				c-4.7,0-8.5,3.8-8.5,8.5V412.1z M432.7,369.5h17.1v34.1h-17.1V369.5z"/>
			<path d="M48.7,301.2C6.5,301.2,6,411,6,412.1c0,20.6,14.7,37.8,34.1,41.8v43.5c0,4.7,3.8,8.5,8.5,8.5s8.5-3.8,8.5-8.5v-43.5
				c19.4-4,34.1-21.2,34.1-41.8C91.3,411,90.8,301.2,48.7,301.2z M48.7,437.7c-14.1,0-25.6-11.5-25.6-25.6
				c0-42.5,11.4-93.9,25.6-93.9s25.6,51.4,25.6,93.9C74.3,426.2,62.8,437.7,48.7,437.7z"/>
			<path d="M99.9,250H65.7c-4.7,0-8.5,3.8-8.5,8.5v17.1c0,4.7,3.8,8.5,8.5,8.5s8.5-3.8,8.5-8.5v-8.5h17.1v42.7
				c0,4.7,3.8,8.5,8.5,8.5s8.5-3.8,8.5-8.5v-51.2C108.4,253.8,104.6,250,99.9,250z"/>
			<path d="M424.1,215.9h34.1c4.7,0,8.5-3.8,8.5-8.5v-51.2c0-4.7-3.8-8.5-8.5-8.5h-34.1c-4.7,0-8.5,3.8-8.5,8.5v51.2
				C415.6,212,419.4,215.9,424.1,215.9z M432.7,164.7h17.1v34.1h-17.1V164.7z"/>
			<path d="M99.9,147.6H65.7c-4.7,0-8.5,3.8-8.5,8.5v51.2c0,4.7,3.8,8.5,8.5,8.5h34.1c4.7,0,8.5-3.8,8.5-8.5v-51.2
				C108.4,151.4,104.6,147.6,99.9,147.6z M91.3,198.8H74.3v-34.1h17.1L91.3,198.8L91.3,198.8z"/>
			<path d="M279.1,207.3c0,4.7,3.8,8.5,8.5,8.5h34.1c4.7,0,8.5-3.8,8.5-8.5v-51.2c0-4.7-3.8-8.5-8.5-8.5h-34.1
				c-4.7,0-8.5,3.8-8.5,8.5L279.1,207.3L279.1,207.3z M296.1,164.7h17.1v34.1h-17.1L296.1,164.7L296.1,164.7z"/>
			<path d="M509.5,96.4H407.1c-4.7,0-8.5,3.8-8.5,8.5s3.8,8.5,8.5,8.5h93.9v342.9c-2.7-1-5.5-1.6-8.5-1.6c-1.5,0-2.9,0.1-4.4,0.4
				c-5.9-10.6-17.1-17.5-29.7-17.5s-23.9,6.8-29.7,17.5c-1.4-0.3-2.9-0.4-4.4-0.4c-14.1,0-25.6,11.5-25.6,25.6S410,506,424.1,506
				h68.3c14.1,0,25.6-11.5,25.6-25.6V104.9C518,100.2,514.2,96.4,509.5,96.4z M492.4,488.9h-68.3c-4.7,0-8.5-3.8-8.5-8.5
				s3.8-8.5,8.5-8.5c1.6,0,3.2,0.5,4.6,1.4c2.3,1.5,5.3,1.8,7.8,0.7c2.6-1,4.5-3.3,5.1-6c1.8-7.8,8.6-13.2,16.6-13.2
				s14.8,5.4,16.6,13.2c0.6,2.7,2.5,4.9,5.1,6c2.6,1,5.5,0.8,7.8-0.7c5.6-3.6,13.2,0.8,13.2,7.1
				C500.9,485.1,497.1,488.9,492.4,488.9z"/>
			<path d="M287.6,113.5h34.1c4.7,0,8.5-3.8,8.5-8.5V53.7c0-4.7-3.8-8.5-8.5-8.5h-34.1c-4.7,0-8.5,3.8-8.5,8.5v51.2
				C279.1,109.6,282.9,113.5,287.6,113.5z M296.1,62.3h17.1v34.1h-17.1L296.1,62.3L296.1,62.3z"/>
			<path d="M279.1,309.7c0,4.7,3.8,8.5,8.5,8.5h34.1c4.7,0,8.5-3.8,8.5-8.5v-51.2c0-4.7-3.8-8.5-8.5-8.5h-34.1
				c-4.7,0-8.5,3.8-8.5,8.5L279.1,309.7L279.1,309.7z M296.1,267.1h17.1v34.1h-17.1L296.1,267.1L296.1,267.1z"/>
			<path d="M202.3,113.5h34.1c4.7,0,8.5-3.8,8.5-8.5V53.7c0-4.7-3.8-8.5-8.5-8.5h-34.1c-4.7,0-8.5,3.8-8.5,8.5v51.2
				C193.7,109.6,197.6,113.5,202.3,113.5z M210.8,62.3h17.1v34.1h-17.1V62.3z"/>
			<path d="M255.9,406.1c-1.5,1.6-2.5,3.8-2.5,6.1s0.9,4.4,2.5,6.1c1.6,1.5,3.8,2.5,6.1,2.5s4.4-0.9,6.1-2.5
				c1.5-1.6,2.5-3.8,2.5-6.1s-0.9-4.4-2.5-6.1C264.8,402.9,259.2,402.9,255.9,406.1z"/>
			<path d="M193.7,309.7c0,4.7,3.8,8.5,8.5,8.5h34.1c4.7,0,8.5-3.8,8.5-8.5v-51.2c0-4.7-3.8-8.5-8.5-8.5h-34.1
				c-4.7,0-8.5,3.8-8.5,8.5L193.7,309.7L193.7,309.7z M210.8,267.1h17.1v34.1h-17.1V267.1z"/>
			<path d="M176.7,360.9c0,4.7,3.8,8.5,8.5,8.5h25.6v76.8c0,4.7,3.8,8.5,8.5,8.5s8.5-3.8,8.5-8.5v-76.8h68.3v76.8
				c0,4.7,3.8,8.5,8.5,8.5s8.5-3.8,8.5-8.5v-76.8h25.6c4.7,0,8.5-3.8,8.5-8.5s-3.8-8.5-8.5-8.5H185.2
				C180.5,352.4,176.7,356.2,176.7,360.9z"/>
			<path d="M415.6,309.7c0,4.7,3.8,8.5,8.5,8.5h34.1c4.7,0,8.5-3.8,8.5-8.5v-51.2c0-4.7-3.8-8.5-8.5-8.5h-34.1
				c-4.7,0-8.5,3.8-8.5,8.5V309.7z M432.7,267.1h17.1v34.1h-17.1V267.1z"/>
			<path d="M372.9-6H151.1c-4.7,0-8.5,3.8-8.5,8.5v443.7c0,4.7,3.8,8.5,8.5,8.5s8.5-3.8,8.5-8.5V11.1h204.8v435.2
				c0,4.7,3.8,8.5,8.5,8.5s8.5-3.8,8.5-8.5V2.5C381.5-2.2,377.6-6,372.9-6z"/>
		</g>
	</g>
</g>
</svg>
