<?xml version="1.0" encoding="iso-8859-1"?>
<!-- Generator: Adobe Illustrator 19.0.0, SVG Export Plug-In . SVG Version: 6.00 Build 0)  -->
<svg version="1.1" id="Capa_1" xmlns="http://www.w3.org/2000/svg" xmlns:xlink="http://www.w3.org/1999/xlink" x="0px" y="0px"
	 viewBox="0 0 480 480" style="enable-background:new 0 0 480 480;" xml:space="preserve">
<g>
	<g>
		<path d="M208,136h-40c-4.418,0-8,3.582-8,8v40c0,4.418,3.582,8,8,8h40c4.418,0,8-3.582,8-8v-40C216,139.582,212.418,136,208,136z
			 M200,176h-24v-24h24V176z"/>
	</g>
</g>
<g>
	<g>
		<path d="M368,136H240c-4.418,0-8,3.582-8,8s3.582,8,8,8h128c4.418,0,8-3.582,8-8S372.418,136,368,136z"/>
	</g>
</g>
<g>
	<g>
		<path d="M304,176h-64c-4.418,0-8,3.582-8,8s3.582,8,8,8h64c4.418,0,8-3.582,8-8S308.418,176,304,176z"/>
	</g>
</g>
<g>
	<g>
		<path d="M208,232h-40c-4.418,0-8,3.582-8,8v40c0,4.418,3.582,8,8,8h40c4.418,0,8-3.582,8-8v-40C216,235.582,212.418,232,208,232z
			 M200,272h-24v-24h24V272z"/>
	</g>
</g>
<g>
	<g>
		<path d="M368,232H240c-4.418,0-8,3.582-8,8s3.582,8,8,8h128c4.418,0,8-3.582,8-8S372.418,232,368,232z"/>
	</g>
</g>
<g>
	<g>
		<path d="M208,328h-40c-4.418,0-8,3.582-8,8v40c0,4.418,3.582,8,8,8h40c4.418,0,8-3.582,8-8v-40C216,331.582,212.418,328,208,328z
			 M200,368h-24v-24h24V368z"/>
	</g>
</g>
<g>
	<g>
		<path d="M368,328H240c-4.418,0-8,3.582-8,8s3.582,8,8,8h128c4.418,0,8-3.582,8-8S372.418,328,368,328z"/>
	</g>
</g>
<g>
	<g>
		<path d="M352,32h-40v-8c0-13.255-10.745-24-24-24h-48c-13.255,0-24,10.745-24,24v8h-40c-4.418,0-8,3.582-8,8v16h-56
			c-4.418,0-8,3.582-8,8v336c0,4.418,3.582,8,8,8s8-3.582,8-8V72h48v16c0,4.418,3.582,8,8,8h112c4.418,0,8-3.582,8-8s-3.582-8-8-8
			H184V48h40c4.418,0,8-3.582,8-8V24c0-4.418,3.582-8,8-8h48c4.418,0,8,3.582,8,8v16c0,4.418,3.582,8,8,8h40v32h-24
			c-4.418,0-8,3.582-8,8s3.582,8,8,8h32c4.418,0,8-3.582,8-8V40C360,35.582,356.418,32,352,32z"/>
	</g>
</g>
<g>
	<g>
		<path d="M416,56h-40c-4.418,0-8,3.582-8,8s3.582,8,8,8h32v80c0,4.418,3.582,8,8,8s8-3.582,8-8V64C424,59.582,420.418,56,416,56z"
			/>
	</g>
</g>
<g>
	<g>
		<path d="M416,176c-4.418,0-8,3.582-8,8v8c0,4.418,3.582,8,8,8s8-3.582,8-8v-8C424,179.582,420.418,176,416,176z"/>
	</g>
</g>
<g>
	<g>
		<path d="M416,216c-4.418,0-8,3.582-8,8v224c0,8.837-7.163,16-16,16s-16-7.163-16-16v-16c0-4.418-3.582-8-8-8H64
			c-4.418,0-8,3.582-8,8v16c0,17.673,14.327,32,32,32h264c4.418,0,8-3.582,8-8s-3.582-8-8-8H88c-8.837,0-16-7.163-16-16v-8h288v8
			c0,17.673,14.327,32,32,32c17.673,0,32-14.327,32-32V224C424,219.582,420.418,216,416,216z"/>
	</g>
</g>
<g>
	<g>
		<path d="M344,176h-8c-4.418,0-8,3.582-8,8s3.582,8,8,8h8c4.418,0,8-3.582,8-8S348.418,176,344,176z"/>
	</g>
</g>
<g>
	<g>
		<path d="M304,272h-64c-4.418,0-8,3.582-8,8s3.582,8,8,8h64c4.418,0,8-3.582,8-8S308.418,272,304,272z"/>
	</g>
</g>
<g>
	<g>
		<path d="M344,272h-8c-4.418,0-8,3.582-8,8s3.582,8,8,8h8c4.418,0,8-3.582,8-8S348.418,272,344,272z"/>
	</g>
</g>
<g>
	<g>
		<path d="M304,368h-64c-4.418,0-8,3.582-8,8s3.582,8,8,8h64c4.418,0,8-3.582,8-8S308.418,368,304,368z"/>
	</g>
</g>
<g>
	<g>
		<path d="M344,368h-8c-4.418,0-8,3.582-8,8s3.582,8,8,8h8c4.418,0,8-3.582,8-8S348.418,368,344,368z"/>
	</g>
</g>
<g>
</g>
<g>
</g>
<g>
</g>
<g>
</g>
<g>
</g>
<g>
</g>
<g>
</g>
<g>
</g>
<g>
</g>
<g>
</g>
<g>
</g>
<g>
</g>
<g>
</g>
<g>
</g>
<g>
</g>
</svg>
