<?xml version="1.0" encoding="utf-8"?>
<!-- Generator: Adobe Illustrator 19.0.0, SVG Export Plug-In . SVG Version: 6.00 Build 0)  -->
<svg version="1.1" id="Слой_1" xmlns="http://www.w3.org/2000/svg" xmlns:xlink="http://www.w3.org/1999/xlink" x="0px" y="0px"
	 viewBox="0 0 264.5 296.2" enable-background="new 0 0 264.5 296.2" xml:space="preserve">
<path id="XMLID_30_" d="M260.1,281.1H4.1c-2.3,0-4.1-1.8-4.1-4.1v-26.3c0-2.3,1.8-4.1,4.1-4.1h8.8V21c0-2.3,1.8-4.1,4.1-4.1h231.2
	c2.3,0,4.1,1.8,4.1,4.1v225.5h7.7c2.3,0,4.1,1.8,4.1,4.1V277C264.2,279.2,262.4,281.1,260.1,281.1z M8.3,272.8H256v-18.1H8.3V272.8z
	 M21.2,246.5h222.9V25.1H21.2V246.5z M232.2,239.3H32.5c-2.3,0-4.1-1.8-4.1-4.1V36c0-2.3,1.8-4.1,4.1-4.1h199.7
	c2.3,0,4.1,1.8,4.1,4.1v199.2C236.4,237.4,234.5,239.3,232.2,239.3z M136.8,231h91.3v-91.3h-91.3V231z M36.6,231h91.9v-91.3H36.6
	V231z M136.8,131.4h91.3V40.1h-91.3V131.4z M36.6,131.4h91.9V40.1H36.6V131.4z M55,88.4h-8.3v-7.9H55V88.4z M55,68.6h-8.3V53.3
	c0-2.3,1.8-4.1,4.1-4.1h16.9v8.3H55V68.6z"/>
</svg>
