<svg width="16" height="17" viewBox="0 0 16 17" version="1.1" xmlns="http://www.w3.org/2000/svg" xmlns:xlink="http://www.w3.org/1999/xlink">
<path id="Vector" d="M 15.7567 15.4843L 11.8125 11.2762C 12.8266 10.0396 13.3823 8.48359 13.3823 6.86374C 13.3823 3.07913 10.3806 0 6.69113 0C 3.0017 0 7.90708e-09 3.07913 7.90708e-09 6.86374C 7.90708e-09 10.6484 3.0017 13.7275 6.69113 13.7275C 8.07619 13.7275 9.39609 13.299 10.5246 12.4854L 14.4988 16.7255C 14.6649 16.9024 14.8883 17 15.1278 17C 15.3544 17 15.5694 16.9114 15.7326 16.7502C 16.0794 16.4079 16.0904 15.8403 15.7567 15.4843ZM 6.69113 1.79054C 9.4182 1.79054 11.6367 4.06632 11.6367 6.86374C 11.6367 9.66117 9.4182 11.9369 6.69113 11.9369C 3.96406 11.9369 1.74551 9.66117 1.74551 6.86374C 1.74551 4.06632 3.96406 1.79054 6.69113 1.79054Z"/>
</svg>