<?xml version="1.0" encoding="utf-8"?>
<!-- Generator: Adobe Illustrator 19.0.0, SVG Export Plug-In . SVG Version: 6.00 Build 0)  -->
<svg version="1.1" id="Capa_1" xmlns="http://www.w3.org/2000/svg" xmlns:xlink="http://www.w3.org/1999/xlink" x="0px" y="0px"
	 viewBox="-241.1 40.9 480 485" style="enable-background:new -241.1 40.9 480 485;" xml:space="preserve">
<path d="M44.8,399.6l-47.8-26.4l-46.6,26.3l-30.6-48l-51.3,1l-0.1-53.1l-47-28.8l26.3-48.3l-26.4-46l48-30.7l-1-51.3l54.6-1
	l27.3-46.2l49,26.3l45.3-26.4L75,95.3l51.4-1.1L127,148l46.6,28l-26.3,49l26.4,45.3l-48,30.7l1,51.2l-56,1.9L44.8,399.6z M-75,341.6
	l28.6,44.8l43.2-24.5L41,386.3l23.8-41.8l51.8-1.7l-0.9-47l44.7-28.6L136,225.2l24.5-45.6l-43.3-26.1l-0.5-49.4l-47,1L41.3,60.3
	L-0.7,84.7l-45.5-24.5l-25.3,42.8l-50.2,0.9l0.9,46.9l-44.7,28.6l24.4,42.6l-24.5,44.9l43.7,26.8l0.1,48.6L-75,341.6z M-56.2,417.5
	c1.3-2.4,0.5-5.4-1.8-6.7c-2.4-1.3-5.4-0.5-6.7,1.8l-44,77.2l-8.3-59.1l-59.4,20.6l46-80.3c1.3-2.4,0.5-5.4-1.8-6.7
	c-2.4-1.3-5.4-0.5-6.7,1.8L-198,469.1l72.9-25.2l10.7,75.8L-56.2,417.5z M121.8,443.9l72.9,25.2l-59.1-103.1
	c-1.3-2.4-4.3-3.2-6.7-1.8c-2.4,1.3-3.2,4.3-1.8,6.7l46,80.3l-59.4-20.6l-8.3,59.1l-44-77.2c-1.3-2.4-4.3-3.2-6.7-1.8
	c-2.4,1.3-3.2,4.3-1.8,6.7l58.2,102.2L121.8,443.9z M-2.6,327.2c-57.3,0-103.8-46.6-103.8-103.8S-59.8,119.5-2.6,119.5
	c57.3,0,103.8,46.6,103.8,103.8S54.7,327.2-2.6,327.2z M-2.6,129.3c-51.8,0-94,42.2-94,94s42.2,94,94,94c51.8,0,94-42.2,94-94
	S49.3,129.3-2.6,129.3z M-2.6,343.2c-66.1,0-119.9-53.8-119.9-119.9S-68.7,103.5-2.6,103.5c66.1,0,119.9,53.8,119.9,119.9
	S63.5,343.2-2.6,343.2z M-2.6,113.3c-60.7,0-110.1,49.4-110.1,110.1c0,60.7,49.4,110.1,110.1,110.1S107.5,284,107.5,223.3
	C107.5,162.7,58.1,113.3-2.6,113.3z M32.8,274.5l-33.9-17.8L-35,274.5l6.5-37.8L-56,210l37.9-5.5l17-34.4l17,34.4l37.9,5.5
	l-27.4,26.7L32.8,274.5z M-34.9,216.8l16.9,16.5l-4,23.2l20.9-11l20.9,11l-4-23.2l16.9-16.5l-23.3-3.4l-10.4-21.1l-10.4,21.1
	L-34.9,216.8z"/>
</svg>
