<?xml version="1.0" encoding="utf-8"?>
<!-- Generator: Adobe Illustrator 19.0.0, SVG Export Plug-In . SVG Version: 6.00 Build 0)  -->
<svg version="1.1" id="Layer_1" xmlns="http://www.w3.org/2000/svg" xmlns:xlink="http://www.w3.org/1999/xlink" x="0px" y="0px"
	 viewBox="6 -6 512 512" enable-background="new 6 -6 512 512" xml:space="preserve">
<path d="M380.9,399.6v-82c0-12.3-10-22.3-22.3-22.3H71c-12.3,0-22.3,10-22.3,22.3v82c-9.2,3.1-15.9,11.9-15.9,22.1
	c0,12.9,10.5,23.4,23.4,23.4h317.2c12.9,0,23.4-10.5,23.4-23.4C396.7,411.5,390.1,402.8,380.9,399.6z M63.7,317.6
	c0-4,3.3-7.3,7.3-7.3h287.6c4,0,7.3,3.3,7.3,7.3v80.8H63.7V317.6z M373.4,430.1H56.2c-4.6,0-8.4-3.8-8.4-8.4c0-4.6,3.8-8.4,8.4-8.4
	h317.2c4.6,0,8.4,3.8,8.4,8.4C381.7,426.4,378,430.1,373.4,430.1z M395.7,324.1h-6.5v15h6.5c8.5,0,8.5,2,8.5,4.8v100.2
	c0,6.8-4.6,14.9-8.5,14.9H33.9c-4.4,0-10.5-8.6-10.5-14.9V343.9c0-1.6,0-4.8,10.5-4.8h6.5v-15h-6.5c-6.7,0-12.2,1.2-16.3,3.6
	c-5.9,3.4-9.2,9.2-9.2,16.3v100.2c0,6.3,2.6,13.5,6.9,19.3c5.1,6.8,11.8,10.6,18.6,10.6h6.5v32h15v-32h325.9v32h15v-32
	c14.8-0.4,23-17.8,23-29.9V343.9C419.2,336.5,416.1,324.1,395.7,324.1z M88.3,340.1h16v15h-16V340.1z M325.2,340.1h17v15h-17V340.1z
	 M207.3,340.1h16v15h-16V340.1z M9.1,167.6H254V-6H9.1V167.6z M24.1,9h215v143.6h-215V9z M32.9,17.8v126h197.4v-126H32.9z
	 M215.2,128.8H47.8v-96h167.4L215.2,128.8L215.2,128.8z M262.8,168.4v110.1h141.9V168.4H262.8z M389.7,263.6H277.8v-80.2h111.9
	V263.6z M286.6,192.2v62.6h94.3v-62.6H286.6z M365.9,239.8h-64.3v-32.6h64.3V239.8z M333.7,25.7c-34.7,0-63,28.3-63,63
	c0,34.7,28.3,63,63,63s63-28.3,63-63C396.7,54,368.5,25.7,333.7,25.7z M341.2,136.1v-8h-15v8c-20.2-3.2-36.2-19-39.8-39h8.8v-15
	h-9.1c2.9-20.9,19.3-37.6,40-40.8v10.8h15V41.3c20.8,3.3,37.2,19.9,40,40.8h-10.1v15h9.8C377.4,117.2,361.4,133,341.2,136.1z
	 M326.2,64.1v18h-25v15h40v-33H326.2z M476.2,466.8L476.2,466.8V290.1h-15v176.7h-39.8v38.8h94.3v-38.8L476.2,466.8L476.2,466.8z
	 M500.7,490.5h-64.3v-8.8h64.3V490.5z M437.2,97.1v173.6h23.9v12.4h15v-12.4h23.6V97.1H437.2z M484.8,232.1h-23.6v15h23.6v8.6h-32.6
	V112.1h32.6L484.8,232.1L484.8,232.1z M98.5,67.6l15.9-15.9l10.6,10.6l-15.9,15.9L98.5,67.6z M98.5,99.3L154,43.8l10.6,10.6
	l-55.5,55.5L98.5,99.3z M138.1,99.3L154,83.4L164.6,94l-15.9,15.9L138.1,99.3z"/>
</svg>
