<svg width="122" height="154" viewBox="0 0 122 154" xmlns="http://www.w3.org/2000/svg">
<path d="M32.1054 0H0V6.41657H32.1054V0Z" transform="translate(19.2632 19.25)"/>
<path d="M6.42096 0H0V6.41657H6.42096V0Z" transform="translate(19.2632 32.0835)"/>
<path d="M6.42096 0H0V6.41657H6.42096V0Z" transform="translate(32.1053 32.0835)"/>
<path d="M121.059 26.6068L95.3753 0.939941C94.7733 0.338379 93.9567 0 93.1055 0H9.63159C4.31224 0 5.51124e-08 4.30929 5.51124e-08 9.625V144.375C5.51124e-08 149.691 4.31224 154 9.63159 154H112.368C117.688 154 122 149.691 122 144.375V28.875C122 28.0241 121.662 27.2084 121.059 26.6068ZM115.579 144.375C115.579 146.147 114.142 147.583 112.368 147.583H9.63159C7.85847 147.583 6.42096 146.147 6.42096 144.375V9.625C6.42096 7.8531 7.85847 6.41657 9.63159 6.41657H91.7761L115.579 30.2033V144.375V144.375Z"/>
<path d="M9.63159 22.4584C7.85847 22.4584 6.42096 21.0219 6.42096 19.25V1.10149e-07H0V19.25C0 24.5657 4.31224 28.875 9.63159 28.875H16.0525V22.4584H9.63159Z" transform="translate(89.8949 3.20801)"/>
<path d="M35.3157 2.2397e-06H2.24124e-06V6.41657H38.5263V3.20813C38.5263 1.43623 37.0888 2.2397e-06 35.3157 2.2397e-06Z" transform="translate(54.5792 60.9585)"/>
<path d="M77.0524 16.0416H38.526V6.41657C38.526 2.87276 35.6513 -1.10149e-07 32.1051 -1.10149e-07H6.42096C2.87473 -1.10149e-07 -1.10225e-07 2.87276 -1.10225e-07 6.41657V73.7916C-1.10225e-07 77.3354 2.87473 80.2081 6.42096 80.2081H28.8948V73.7916H6.42096V6.41657H32.1051V19.25C32.1051 21.0219 33.5426 22.4584 35.3157 22.4584H77.0527V73.7919H54.5789V80.2081H77.0527C80.5989 80.2081 83.4736 77.3354 83.4736 73.7916V22.4581C83.4736 18.9143 80.5986 16.0416 77.0524 16.0416Z" transform="translate(19.2635 54.542)"/>
<path d="M12.8422 2.2397e-06H0V6.41657H12.8422V2.2397e-06Z" transform="translate(41.7371 70.5835)"/>
<path d="M17.382 0.939338C16.1284 -0.313116 14.0961 -0.313116 12.8422 0.939338L1.10225e-07 13.7728L4.53979 18.3095L15.1123 7.74421L25.6844 18.3092L30.2242 13.7725L17.382 0.939338Z" transform="translate(45.8878 89.834)"/>
<path d="M6.42095 2.34985e-06H-2.24124e-06V41.7084H6.42095V2.34985e-06Z" transform="translate(57.7896 93.0415)"/>
</svg>
