<svg width="97" height="68" viewBox="0 0 97 68" version="1.1" xmlns="http://www.w3.org/2000/svg" xmlns:xlink="http://www.w3.org/1999/xlink">
<path d="M 95.201 10.8618C 94.015 5.70983 89.801 1.90883 84.728 1.34183C 72.715 0.000825882 60.556 -0.00617371 48.453 0.000826286C 36.348 -0.00617371 24.187 0.000825882 12.174 1.34183C 7.104 1.90883 2.893 5.70983 1.707 10.8618C 0.0190001 18.1988 0 26.2078 0 33.7618C 0 41.3158 0 49.3238 1.688 56.6598C 2.872 61.8108 7.084 65.6118 12.157 66.1798C 24.169 67.5218 36.329 67.5288 48.434 67.5218C 60.541 67.5288 72.698 67.5218 84.709 66.1798C 89.779 65.6128 93.994 61.8118 95.18 56.6598C 96.869 49.3228 96.875 41.3148 96.875 33.7618C 96.875 26.2078 96.889 18.1988 95.201 10.8618ZM 35.936 48.7978C 35.936 38.0818 35.936 27.4778 35.936 16.7608C 46.203 22.1178 56.402 27.4388 66.734 32.8288C 56.434 38.1708 46.23 43.4598 35.936 48.7978Z"/>
<path d="M 35.936 16.7608L 35.936 48.7978C 46.23 43.4598 56.434 38.1708 66.734 32.8288C 56.402 27.4388 46.203 22.1178 35.936 16.7608Z"/>
<path d="M 35.936 16.7609L 35.936 48.7979C 46.23 43.4599 56.434 38.1709 66.734 32.8289C 56.402 27.4389 46.203 22.1179 35.936 16.7609Z"/>
<path id="Vector_2" d="M 0 0L 0 28C 9.02455 23.3346 17.9702 18.7121 27 14.0433C 17.9421 9.33246 9.00088 4.68196 0 0Z" transform="translate(38 19)" fill="#F2F2F2"/>
</svg>