<svg width="67" height="76" viewBox="0 0 67 76" xmlns="http://www.w3.org/2000/svg">
<path d="M62.5531 7.125H43.8761V5.98693C43.8761 2.68583 41.194 0 37.8975 0H29.1025C25.806 0 23.1239 2.68583 23.1239 5.98693V7.125H4.4469C1.99488 7.125 0 9.12267 0 11.5781V19.2969C0 20.1165 0.663774 20.7812 1.4823 20.7812H3.55752V36.7631C3.55752 37.5827 4.2213 38.2474 5.03982 38.2474C5.85835 38.2474 6.52212 37.5827 6.52212 36.7631V20.7812H26.3532C27.1718 20.7812 27.8355 20.1165 27.8355 19.2969C27.8355 18.4772 27.1718 17.8125 26.3532 17.8125H2.9646V11.5781C2.9646 10.7596 3.62956 10.0938 4.4469 10.0938H24.6062H42.3938H62.5531C63.3704 10.0938 64.0354 10.7596 64.0354 11.5781V17.8125H40.0036C39.1851 17.8125 38.5213 18.4772 38.5213 19.2969C38.5213 20.1165 39.1851 20.7812 40.0036 20.7812H60.4779V67.3906C60.4779 70.5008 57.951 73.0312 54.8451 73.0312H12.1549C9.049 73.0312 6.52212 70.5008 6.52212 67.3906V51.4088C6.52212 50.5891 5.85835 49.9244 5.03982 49.9244C4.2213 49.9244 3.55752 50.5891 3.55752 51.4088V67.3906C3.55752 72.1378 7.41432 76 12.1549 76H54.8451C59.5857 76 63.4425 72.1378 63.4425 67.3906V20.7812H65.5177C66.3362 20.7812 67 20.1165 67 19.2969V11.5781C67 9.12267 65.0051 7.125 62.5531 7.125ZM40.9115 7.125H26.0885V5.98693C26.0885 4.32265 27.4405 2.96875 29.1025 2.96875H37.8975C39.5595 2.96875 40.9115 4.32265 40.9115 5.98693V7.125Z"/>
<path d="M2.53014 0.434921C2.25458 0.158827 1.87215 0 1.4823 0C1.09246 0 0.710021 0.158679 0.434313 0.434921C0.158605 0.711163 0 1.09398 0 1.48438C0 1.87477 0.158457 2.25773 0.434313 2.53368C0.710021 2.80977 1.09246 2.96875 1.4823 2.96875C1.87215 2.96875 2.25458 2.80992 2.53014 2.53368C2.806 2.25773 2.9646 1.87477 2.9646 1.48438C2.9646 1.09398 2.806 0.711015 2.53014 0.434921Z" transform="translate(32.0177 18.7031)"/>
<path d="M5.03982 0C2.26081 0 0 2.26397 0 5.04688V37.1094C0 39.8923 2.26081 42.1562 5.03982 42.1562C7.81884 42.1562 10.0796 39.8923 10.0796 37.1094V5.04688C10.0796 2.26397 7.81884 0 5.03982 0ZM7.11504 37.1094C7.11504 38.2553 6.18416 39.1875 5.03982 39.1875C3.89549 39.1875 2.9646 38.2553 2.9646 37.1094V5.04688C2.9646 3.90094 3.89549 2.96875 5.03982 2.96875C6.18416 2.96875 7.11504 3.90094 7.11504 5.04688V37.1094Z" transform="translate(13.0442 25.8281)"/>
<path d="M5.03983 0C2.26081 0 -1.6285e-07 2.26397 -1.6285e-07 5.04688V37.1094C-1.6285e-07 39.8923 2.26081 42.1562 5.03983 42.1562C7.81884 42.1562 10.0796 39.8923 10.0796 37.1094V5.04688C10.0796 2.26397 7.81884 0 5.03983 0ZM7.11505 37.1094C7.11505 38.2553 6.18416 39.1875 5.03983 39.1875C3.89549 39.1875 2.9646 38.2553 2.9646 37.1094V5.04688C2.9646 3.90094 3.89549 2.96875 5.03983 2.96875C6.18416 2.96875 7.11505 3.90094 7.11505 5.04688V37.1094Z" transform="translate(28.479 25.8281)"/>
<path d="M5.03982 0C2.2608 0 -3.25701e-07 2.26397 -3.25701e-07 5.04688V37.1094C-3.25701e-07 39.8923 2.2608 42.1562 5.03982 42.1562C7.81884 42.1562 10.0796 39.8923 10.0796 37.1094V5.04688C10.0796 2.26397 7.81884 0 5.03982 0ZM7.11504 37.1094C7.11504 38.2553 6.18416 39.1875 5.03982 39.1875C3.89549 39.1875 2.9646 38.2553 2.9646 37.1094V5.04688C2.9646 3.90094 3.89549 2.96875 5.03982 2.96875C6.18416 2.96875 7.11504 3.90094 7.11504 5.04688V37.1094Z" transform="translate(43.9138 25.8281)"/>
<path d="M2.53014 0.434923C2.25458 0.15883 1.87215 -1.99318e-06 1.4823 -1.99318e-06C1.09246 -1.99318e-06 0.710022 0.158681 0.434314 0.434923C0.158606 0.711166 0 1.09398 0 1.48437C0 1.87625 0.158458 2.25773 0.434314 2.53368C0.710022 2.8114 1.09246 2.96875 1.4823 2.96875C1.87215 2.96875 2.25458 2.81126 2.53014 2.53368C2.806 2.25773 2.9646 1.87476 2.9646 1.48437C2.9646 1.09398 2.806 0.711017 2.53014 0.434923Z" transform="translate(3.5575 42.7988)"/>
</svg>
