<svg width="22" height="8" viewBox="0 0 22 8" version="1.1" xmlns="http://www.w3.org/2000/svg" xmlns:xlink="http://www.w3.org/1999/xlink">
<path id="Vector" d="M 22 4.00029C 22 3.83826 21.9264 3.68054 21.7966 3.56586C 21.6991 3.4796 21.5733 3.42144 21.4386 3.39813C 21.1095 1.47706 19.2304 0 16.9686 0C 14.91 0 13.1696 1.22399 12.6251 2.8921C 12.1484 2.61486 11.588 2.45911 11.0002 2.45911C 10.4123 2.45911 9.85185 2.61492 9.37511 2.89223C 8.83059 1.22399 7.09007 0 5.03141 0C 2.7697 0 0.890889 1.47706 0.561704 3.39813C 0.427037 3.42131 0.300815 3.47947 0.203185 3.56586C 0.0742222 3.68054 0 3.83826 0 3.99964C 0 4.16174 0.0742222 4.31939 0.203333 4.43414C 0.301407 4.52046 0.427407 4.57895 0.561926 4.60233C 0.891185 6.5232 2.77007 8 5.03156 8C 7.30837 8 9.19652 6.50322 9.50719 4.56369C 9.52911 4.53749 9.54963 4.51005 9.56718 4.48018C 9.85452 3.99054 10.4037 3.68644 11.0004 3.68644C 11.5969 3.68644 12.146 3.9906 12.4334 4.48018C 12.4509 4.50998 12.4713 4.53749 12.4933 4.56356C 12.8039 6.50316 14.692 8 16.9687 8C 19.2305 8 21.1096 6.52287 21.4387 4.60174C 21.5734 4.57849 21.6993 4.5204 21.7967 4.43407C 21.9264 4.31939 22 4.16174 22 4.00029ZM 5.03156 6.77274C 3.30407 6.77274 1.89867 5.5289 1.89867 4.00003C 1.89867 2.47116 3.30407 1.22733 5.03156 1.22733C 6.75926 1.22733 8.16489 2.47116 8.16489 4.00003C 8.16489 5.5289 6.75926 6.77274 5.03156 6.77274ZM 16.9686 6.77274C 15.241 6.77274 13.8353 5.5289 13.8353 4.00003C 13.8353 2.47116 15.241 1.22733 16.9686 1.22733C 18.6961 1.22733 20.1018 2.47116 20.1018 4.00003C 20.1018 5.5289 18.6961 6.77274 16.9686 6.77274Z" transform="translate(0 8) scale(1 -1)"/>
</svg>