<svg width="402" height="487" viewBox="0 0 402 487" xmlns="http://www.w3.org/2000/svg">
<path d="M393 289H355V94.8C355 91.9 353.6 89.3 351.5 87.7L351.8 87.4L268 3.6L267.7 3.9C266.1 1.5 263.4 0 260.3 0H9C4 0 0 4 0 9V478C0 483 4 487 9 487H346C351 487 355 483 355 478V436H393C398 436 402 432 402 427V298C402 293 398 289 393 289ZM269.3 30.4L324.7 85.8L269.3 85.7V30.4ZM337 469H18V18H251.3V94.7C251.3 99.7 255.3 103.7 260.3 103.7L337 103.8V289H115C110 289 106 293 106 298V427C106 432 110 436 115 436H337V469ZM384 418H124V307H384V418Z"/>
<path d="M45.3 451.5C40.3 451.5 36.3 447.5 36.3 442.5V372.2C36.3 367.2 40.3 363.2 45.3 363.2C50.3 363.2 54.3 367.2 54.3 372.2V442.5C54.3 447.5 50.2 451.5 45.3 451.5Z"/>
<path d="M45.3 348C40.3 348 36.3 344 36.3 339V327.2C36.3 322.2 40.3 318.2 45.3 318.2C50.3 318.2 54.3 322.2 54.3 327.2V339C54.3 344 50.2 348 45.3 348Z"/>
<path d="M182.309 375.209V403H166.351V323.969H193.273C201.089 323.969 207.313 326.394 211.945 331.243C216.613 336.092 218.947 342.388 218.947 350.132C218.947 357.876 216.649 363.991 212.054 368.478C207.458 372.966 201.089 375.209 192.948 375.209H182.309ZM182.309 361.911H193.273C196.313 361.911 198.665 360.916 200.33 358.925C201.994 356.935 202.826 354.04 202.826 350.241C202.826 346.296 201.976 343.166 200.275 340.85C198.574 338.498 196.295 337.304 193.436 337.268H182.309V361.911Z"/>
<path d="M229.64 403V323.969H250.538C259.765 323.969 267.111 326.901 272.575 332.763C278.075 338.625 280.88 346.658 280.988 356.863V369.673C280.988 380.058 278.238 388.218 272.738 394.153C267.274 400.051 259.729 403 250.104 403H229.64ZM245.598 337.268V389.756H250.375C255.694 389.756 259.44 388.363 261.611 385.576C263.782 382.754 264.922 377.905 265.03 371.03V357.297C265.03 349.915 263.999 344.777 261.936 341.882C259.874 338.951 256.364 337.413 251.406 337.268H245.598Z"/>
<path d="M333.259 370.758H308.454V403H292.496V323.969H336.245V337.268H308.454V357.514H333.259V370.758Z"/>
</svg>
