<?xml version="1.0" encoding="iso-8859-1"?>
<!-- Generator: Adobe Illustrator 19.0.0, SVG Export Plug-In . SVG Version: 6.00 Build 0)  -->
<svg version="1.1" id="Capa_1" xmlns="http://www.w3.org/2000/svg" xmlns:xlink="http://www.w3.org/1999/xlink" x="0px" y="0px"
	 viewBox="0 0 512.009 512.009" style="enable-background:new 0 0 512.009 512.009;" xml:space="preserve">
<g>
	<g>
		<g>
			<path d="M432.001,200.014c44.111,0,79.999-39.471,79.999-87.999V80.102c0.049-3.761-2.565-7.15-6.392-7.927L153.613,0.177
				c-0.669-0.143-1.333-0.187-1.985-0.16h-47.622c-0.058,0-0.114,0.007-0.172,0.009c-0.155,0.003-0.31,0.011-0.466,0.024
				c-0.111,0.009-0.222,0.019-0.332,0.032c-0.148,0.018-0.296,0.041-0.444,0.068c-0.115,0.021-0.229,0.042-0.342,0.067
				c-0.138,0.031-0.275,0.067-0.412,0.106c-0.118,0.033-0.235,0.067-0.351,0.106c-0.128,0.043-0.255,0.09-0.381,0.14
				c-0.12,0.047-0.24,0.095-0.357,0.147c-0.118,0.053-0.234,0.11-0.35,0.169c-0.121,0.061-0.241,0.125-0.358,0.192
				c-0.109,0.062-0.216,0.128-0.322,0.196c-0.118,0.075-0.234,0.153-0.348,0.234c-0.054,0.039-0.111,0.071-0.165,0.111L3.207,73.616
				c-0.052,0.039-0.097,0.083-0.148,0.123c-0.098,0.077-0.193,0.157-0.288,0.239c-0.114,0.099-0.225,0.198-0.333,0.302
				c-0.07,0.068-0.137,0.137-0.204,0.207C2.116,74.611,2,74.737,1.89,74.867c-0.049,0.059-0.096,0.119-0.144,0.179
				c-0.115,0.145-0.227,0.291-0.331,0.442c-0.041,0.059-0.078,0.12-0.117,0.18c-0.1,0.155-0.198,0.311-0.287,0.471
				c-0.039,0.07-0.074,0.143-0.111,0.214c-0.079,0.154-0.157,0.309-0.226,0.468c-0.038,0.087-0.071,0.176-0.106,0.265
				c-0.059,0.15-0.116,0.299-0.165,0.452c-0.032,0.098-0.059,0.198-0.087,0.298c-0.043,0.151-0.083,0.301-0.117,0.454
				c-0.022,0.099-0.04,0.2-0.058,0.301c-0.029,0.163-0.055,0.325-0.075,0.489c-0.011,0.09-0.018,0.181-0.026,0.273
				c-0.015,0.181-0.025,0.362-0.027,0.544c-0.001,0.04-0.006,0.079-0.006,0.119v31.999c0,4.416,3.584,8,8,8h24v24
				c0,4.416,3.584,8,8,8h32c4.416,0,8-3.576,8-8v-24h16V400.01h-16c-4.416,0-8,3.584-8,8v55.999h-16c-8.824,0-16,7.176-16,16v24
				c0,4.416,3.584,8,8,8h159.997c4.416,0,8-3.576,8-8v-24c0-8.824-7.176-16-16-16h-16V408.01c0-4.416-3.584-8-8-8h-16V120.015
				h199.997v143.998h-16c-2.464,0-4.792,1.136-6.304,3.08c-1.512,1.944-2.056,4.472-1.456,6.864l8,32
				c0.888,3.552,4.088,6.056,7.76,6.056h8v8c0,8.824,7.176,16,16,16h4.84c1.744,0,3.16,1.416,3.16,3.16
				c0,1.648-1.04,2.448-1.664,2.784c-0.624,0.328-1.864,0.752-3.24-0.16l-6.656-4.44c-3.688-2.464-8.648-1.464-11.096,2.216
				c-0.91,1.367-1.342,2.912-1.341,4.44H256.003c-8.824,0-16,7.176-16,16v111.998c0,8.824,7.176,16,16,16H480
				c8.824,0,16-7.176,16-16V360.011c0-8.824-7.176-16-16-16h-80.625c0.406-1.559,0.626-3.181,0.626-4.84
				c0-10.568-8.6-19.16-19.16-19.16h-4.84v-8h8c3.672,0,6.872-2.496,7.76-6.056l8-32c0.6-2.392,0.056-4.92-1.456-6.864
				s-3.84-3.08-6.304-3.08h-16v-94.105C388.774,188.789,408.402,200.014,432.001,200.014z M480.008,472.009H256.003V360.011H480
				L480.008,472.009z M377.753,296.012H358.25l-4-16h27.504L377.753,296.012z M432.001,184.014
				c-30.858,0-52.999-25.93-55.715-63.999h119.309C492.044,155.959,464.883,184.014,432.001,184.014z M160.005,17.812L425,72.016
				H160.005V17.812z M144.005,16.016v55.999h-32c0-13.951,0-55.999,0-55.999H144.005z M112.006,254.962l32,21.333v15.434l-32,21.333
				C112.006,292.709,112.006,282.275,112.006,254.962z M144.005,257.063l-32-21.333c0-7.556,0-7.749,0-15.434l32-21.333V257.063z
				 M112.006,332.294l32-21.333v58.1l-32-21.333C112.006,344.098,112.006,336.778,112.006,332.294z M144.005,179.731l-32,21.333
				c0-29.012,0-32.385,0-58.1l32,21.333V179.731z M144.005,88.015v16h-32c0-5.653,0-11.125,0-16H144.005z M72.006,72.016h-32h-8
				l63.999-47.999v47.999H72.006z M16.007,104.015v-16h16v16H16.007z M64.006,136.014h-16c0,0,0-47.999,0-47.999h16V136.014z
				 M80.006,104.015v-16h16v16H80.006z M200.004,496.009H56.006v-16h24h95.998h24V496.009z M168.005,464.009H88.006
				c0,0,0-47.999,0-47.999h16h47.999h16V464.009z M112.006,400.01c0,0,0-27.851,0-33.05l32,21.333v11.717H112.006z M144.005,145.065
				l-32-21.333c0-1.5,0-2.249,0-3.717h32V145.065z M160.005,88.015H496v16H368.003c0,0-0.001,0-0.001,0s-0.001,0-0.001,0H160.005
				V88.015z"/>
			<path d="M448,456.009c4.416,0,8-3.576,8-8v-63.999c0-4.416-3.584-8-8-8c-4.416,0-8,3.584-8,8v63.999
				C440,452.426,443.584,456.009,448,456.009z"/>
			<path d="M408.001,456.009c4.416,0,8-3.576,8-8v-63.999c0-4.416-3.584-8-8-8c-4.416,0-8,3.584-8,8v63.999
				C400.001,452.426,403.585,456.009,408.001,456.009z"/>
			<path d="M368.002,456.009c4.416,0,8-3.576,8-8v-63.999c0-4.416-3.584-8-8-8c-4.416,0-8,3.584-8,8v63.999
				C360.002,452.426,363.586,456.009,368.002,456.009z"/>
			<path d="M328.002,456.009c4.416,0,8-3.576,8-8v-63.999c0-4.416-3.584-8-8-8s-8,3.584-8,8v63.999
				C320.002,452.426,323.586,456.009,328.002,456.009z"/>
			<path d="M288.003,456.009c4.416,0,8-3.576,8-8v-63.999c0-4.416-3.584-8-8-8c-4.416,0-8,3.584-8,8v63.999
				C280.003,452.426,283.587,456.009,288.003,456.009z"/>
		</g>
	</g>
</g>
<g>
</g>
<g>
</g>
<g>
</g>
<g>
</g>
<g>
</g>
<g>
</g>
<g>
</g>
<g>
</g>
<g>
</g>
<g>
</g>
<g>
</g>
<g>
</g>
<g>
</g>
<g>
</g>
<g>
</g>
</svg>
