<svg width="34" height="34" viewBox="0 0 34 34" xmlns="http://www.w3.org/2000/svg">
<path d="M19.9354 11.498C19.9354 11.1016 20.2592 10.7778 20.6554 10.7778H22.4638C22.86 10.7778 23.1842 11.1016 23.1842 11.498V13.2222C23.1842 13.6182 22.86 13.9424 22.4638 13.9424H20.6554C20.2592 13.9424 19.9354 13.6182 19.9354 13.2222V11.498Z"/>
<path d="M21.7836 15.7661H23.1918L23.1921 22.5249C23.1921 22.875 22.9059 23.1611 22.556 23.1611H11.4141C11.0642 23.1611 10.778 22.8745 10.778 22.5249V15.7661H12.2475C12.1141 16.2012 12.0422 16.6616 12.0422 17.1387C12.0422 19.8003 14.2688 21.9575 17.0153 21.9575C19.7619 21.9575 21.9889 19.8003 21.9889 17.1387C21.9889 16.6621 21.9167 16.2012 21.7836 15.7661Z"/>
<path d="M13.8018 16.9653C13.8018 15.2456 15.2405 13.8516 17.0151 13.8516C18.79 13.8516 20.2288 15.2456 20.2288 16.9653C20.2288 18.6851 18.7899 20.0786 17.0151 20.0786C15.2405 20.0786 13.8018 18.6851 13.8018 16.9653Z"/>
<path fill-rule="evenodd" clip-rule="evenodd" d="M34 0H0V34H34V0ZM22.9465 9H11.0536C9.92389 9 9 9.83643 9 11.0537V22.9463C9 24.1636 9.92389 25 11.0536 25H22.9465C24.0759 25 25 24.1636 25 22.9463V11.0537C25 9.83643 24.0759 9 22.9465 9Z"/>
</svg>
