<svg width="34" height="34" viewBox="0 0 34 34" xmlns="http://www.w3.org/2000/svg">
<path d="M17.0007 9.58545C18.3724 9.58643 19.467 10.6816 19.4719 12.0571C19.4764 13.4326 18.3848 14.5347 17.0134 14.5396C15.6379 14.5444 14.5339 13.457 14.5236 12.0869C14.5129 10.6987 15.6174 9.5835 17.0007 9.58545Z"/>
<path fill-rule="evenodd" clip-rule="evenodd" d="M0 0H34V34H0V0ZM16.0163 21.0874C14.467 20.9258 13.0702 20.5439 11.8743 19.6074L11.7871 19.5396C11.6668 19.4468 11.5463 19.3535 11.4373 19.249C10.9138 18.7456 10.861 18.1694 11.2752 17.5757C11.6296 17.0674 12.2244 16.9316 12.8427 17.2231C12.9624 17.2798 13.0765 17.3506 13.1857 17.4263C15.4146 18.959 18.4764 19.0015 20.7136 17.4951C20.9352 17.3252 21.1722 17.1865 21.4468 17.1157C21.9807 16.9785 22.4786 17.1748 22.7652 17.6421C23.0925 18.1763 23.0883 18.6973 22.685 19.1118C22.0663 19.7476 21.3223 20.207 20.4955 20.5278C19.7138 20.8315 18.8575 20.9839 18.0101 21.0854L18.0956 21.1787L18.1107 21.1953C18.1766 21.2671 18.2227 21.3179 18.2782 21.3735L19.5427 22.6426C20.2736 23.375 21.0043 24.1079 21.7316 24.8438C22.1224 25.2393 22.204 25.7295 21.9889 26.1895C21.7536 26.6919 21.2271 27.0229 20.7107 26.9873C20.3835 26.9648 20.1284 26.8018 19.9017 26.5732C19.6542 26.3237 19.4053 26.0762 19.1563 25.8281L19.0459 25.7183L19.0181 25.6904C18.4396 25.1147 17.8612 24.5396 17.2979 23.9492C17.0502 23.6904 16.9312 23.7393 16.7126 23.9644C15.839 24.8643 14.9512 25.7505 14.0581 26.6318C13.657 27.0273 13.1799 27.0986 12.7148 26.8726C12.2205 26.6328 11.9059 26.1279 11.9301 25.6201C11.9469 25.2769 12.1156 25.0146 12.351 24.7793C13.2342 23.897 14.1154 23.0127 14.9965 22.1284L15.7616 21.3608C15.8081 21.3135 15.8527 21.2651 15.9058 21.207L16.0163 21.0874ZM11.946 12.0503C11.9299 14.8208 14.1962 17.1138 16.9601 17.123C19.7519 17.1328 22.0339 14.8921 22.0482 12.1274C22.0621 9.29736 19.8174 7.00732 17.0208 7C14.2297 6.99219 11.962 9.24951 11.946 12.0503Z"/>
</svg>
