<svg width="54" height="37" viewBox="0 0 54 37" version="1.1" xmlns="http://www.w3.org/2000/svg" xmlns:xlink="http://www.w3.org/1999/xlink">
<path id="Vector" d="M 53.2645 16.7322L 37.195 0.732151C 36.2146 -0.24405 34.6245 -0.24405 33.6441 0.732151C 32.6634 1.70855 32.6634 3.29135 33.6441 4.26776L 45.4272 16L 2.51086 16C 1.12426 16 0 17.1194 0 18.5C 0 19.8804 1.12426 21 2.51086 21L 45.4272 21L 33.6445 32.7322C 32.6638 33.7086 32.6638 35.2914 33.6445 36.2678C 34.1346 36.7556 34.7774 37 35.42 37C 36.0625 37 36.7051 36.7556 37.1954 36.2678L 53.2645 20.2678C 54.2452 19.2914 54.2452 17.7086 53.2645 16.7322Z" transform="translate(-0.000244141 0)"/>
</svg>