<svg width="493" height="410" viewBox="0 0 493 410" xmlns="http://www.w3.org/2000/svg">
<path d="M484.14 185.54L306.46 7.856C301.388 2.784 294.628 6.71387e-07 287.42 6.71387e-07C280.204 6.71387e-07 273.448 2.788 268.376 7.856L252.244 23.992C247.176 29.056 244.384 35.82 244.384 43.032C244.384 50.24 247.176 57.232 252.244 62.296L355.9 166.18H26.58C11.732 166.18 0 177.804 0 192.656V215.468C0 230.32 11.732 243.116 26.58 243.116H357.076L252.248 347.58C247.18 352.652 244.388 359.232 244.388 366.444C244.388 373.648 247.18 380.324 252.248 385.392L268.38 401.476C273.452 406.548 280.208 409.312 287.424 409.312C294.632 409.312 301.392 406.512 306.464 401.44L484.144 223.76C489.228 218.672 492.024 211.88 492.004 204.66C492.02 197.416 489.228 190.62 484.14 185.54Z"/>
</svg>
