<svg width="200" height="200" viewBox="0 0 200 200" xmlns="http://www.w3.org/2000/svg">
<path fill-rule="evenodd" clip-rule="evenodd" d="M200 0H0V200H200V0ZM138.221 71.8413C142.37 71.3477 146.319 70.2415 150 68.6106C147.257 72.7224 143.77 76.3342 139.74 79.2087L139.808 81.8645C139.808 108.972 119.181 140.229 81.4443 140.229C69.8589 140.229 59.0796 136.829 50 130.999C51.606 131.18 53.2368 131.28 54.8926 131.28C64.5034 131.28 73.3521 128.012 80.3691 122.513C71.396 122.351 63.8223 116.42 61.2104 108.266C62.4663 108.516 63.7476 108.647 65.0723 108.647C66.9468 108.647 68.7588 108.391 70.4775 107.928C61.0977 106.041 54.0244 97.749 54.0244 87.8132V87.5571C56.7925 89.0942 59.9541 90.0193 63.3164 90.1316C57.8174 86.4575 54.1929 80.1772 54.1929 73.0598C54.1929 69.2979 55.1987 65.7737 56.9673 62.7493C67.084 75.1594 82.2002 83.3267 99.2466 84.1829C98.897 82.6831 98.7158 81.1145 98.7158 79.5088C98.7158 68.1858 107.901 59 119.23 59C125.136 59 130.46 61.4871 134.203 65.48C138.877 64.5552 143.264 62.8491 147.238 60.4998C145.701 65.28 142.458 69.3042 138.221 71.8413Z"/>
</svg>
