<svg width="43" height="43" viewBox="0 0 43 43" version="1.1" xmlns="http://www.w3.org/2000/svg" xmlns:xlink="http://www.w3.org/1999/xlink">
<path fill-rule="evenodd" clip-rule="evenodd" d="M 25.875 16.8751L 19.125 16.8751L 19.125 10.125C 19.125 9.50366 18.6213 9 18 9C 17.3787 9 16.8751 9.50366 16.8751 10.125L 16.8751 16.875L 10.1251 16.875C 9.50378 16.875 9 17.3787 9 18C 9 18.6213 9.50378 19.125 10.1251 19.125L 16.8751 19.125L 16.8751 25.875C 16.8751 26.4963 17.3787 27 18 27C 18.6213 27 19.125 26.4963 19.125 25.875L 19.125 19.125L 25.875 19.125C 26.4963 19.125 27 18.6213 27 18C 27.0001 17.3787 26.4963 16.8751 25.875 16.8751Z"/>
<path d="M 42.6281 40.8071L 32.1761 30.3574C 34.9798 27.1348 36.6773 22.9302 36.6773 18.3346C 36.6773 8.21863 28.4473 0 18.3387 0C 8.22045 0 0 8.22816 0 18.3346C 0 28.441 8.22998 36.6692 18.3387 36.6692C 22.9352 36.6692 27.1408 34.9721 30.3642 32.169L 40.8161 42.6186C 41.0641 42.8665 41.3979 43 41.7221 43C 42.0464 43 42.3801 42.8761 42.6281 42.6186C 43.124 42.1228 43.124 41.3029 42.6281 40.8071ZM 2.56531 18.3346C 2.56531 9.63925 9.64138 2.57428 18.3291 2.57428C 27.0264 2.57428 34.0929 9.64878 34.0929 18.3346C 34.0929 27.0204 27.0264 34.1044 18.3291 34.1044C 9.64138 34.1044 2.56531 27.0299 2.56531 18.3346Z"/>
</svg>