<svg width="34" height="34" viewBox="0 0 34 34" xmlns="http://www.w3.org/2000/svg">
<path fill-rule="evenodd" clip-rule="evenodd" d="M34 0H0V34H34V0ZM27.7996 22.6343C27.8248 22.6743 27.8499 22.7222 27.8793 22.7783C27.9045 22.8384 27.9338 22.9385 27.959 23.0864C27.9884 23.231 27.9884 23.3589 27.9548 23.4751C27.9255 23.5913 27.8248 23.6953 27.6569 23.7915C27.4933 23.8877 27.2542 23.9355 26.952 23.9355L23.8849 23.98C23.692 24.02 23.4696 24 23.2137 23.9238C22.9577 23.8477 22.7479 23.7637 22.5885 23.6714L22.3494 23.5352C22.1102 23.375 21.829 23.1309 21.5102 22.8022C21.1871 22.4736 20.9144 22.1816 20.6878 21.917C20.4612 21.6528 20.2179 21.4326 19.9578 21.2524C19.6976 21.0762 19.4753 21.0161 19.2823 21.0762C19.2571 21.084 19.2235 21.0962 19.1857 21.1162C19.1438 21.1318 19.0767 21.188 18.9802 21.2803C18.8879 21.3726 18.7997 21.4844 18.7242 21.6167C18.6445 21.749 18.5774 21.9453 18.5186 22.2095C18.4557 22.4697 18.4305 22.7661 18.4389 23.0947C18.4389 23.2109 18.4263 23.3149 18.397 23.4111C18.3718 23.5073 18.3424 23.5791 18.3088 23.6235L18.2627 23.6792C18.1201 23.8237 17.9103 23.9077 17.6292 23.9316H16.2529C15.6865 23.9639 15.1033 23.8999 14.5033 23.7437C13.9075 23.5874 13.3831 23.3872 12.9299 23.1387C12.481 22.8906 12.0698 22.6382 11.6964 22.3818C11.3271 22.1255 11.046 21.9092 10.853 21.7246L10.5551 21.4482C10.4754 21.3726 10.3621 21.2563 10.2237 21.104C10.0852 20.9517 9.79993 20.6035 9.36774 20.0625C8.93561 19.522 8.51184 18.9453 8.09644 18.3364C7.68109 17.7275 7.19019 16.9263 6.62793 15.9253C6.06573 14.9238 5.54126 13.8906 5.07135 12.8013C5.02515 12.6807 5 12.5767 5 12.4927C5 12.4087 5.01257 12.3486 5.03778 12.3086L5.08392 12.2402C5.20557 12.0962 5.43219 12.0239 5.76782 12.0239L9.04889 12C9.14539 12.0161 9.23767 12.04 9.32581 12.0762C9.41388 12.1079 9.48102 12.1401 9.5188 12.1724L9.57751 12.2085C9.70758 12.2925 9.80414 12.4126 9.86707 12.5728C10.0265 12.957 10.2069 13.3496 10.4167 13.7583C10.6223 14.167 10.7859 14.4795 10.9076 14.6914L11.1006 15.0239C11.3314 15.4805 11.5579 15.877 11.7719 16.2134C11.9901 16.5498 12.1831 16.8105 12.3551 16.9985C12.5229 17.187 12.6908 17.3311 12.8502 17.439C13.0096 17.5474 13.1439 17.5996 13.2572 17.5996C13.3705 17.5996 13.4753 17.5796 13.5803 17.5435C13.597 17.5352 13.6138 17.5195 13.639 17.4873C13.66 17.4551 13.7103 17.3711 13.7817 17.2349C13.8572 17.0986 13.9075 16.9185 13.9453 16.6982C13.9789 16.478 14.0166 16.1694 14.0586 15.7729C14.0748 15.6025 14.084 15.521 14.0863 15.439C14.0894 15.3306 14.0801 15.2212 14.0586 14.9038C14.0418 14.5996 14.004 14.3232 13.9495 14.0708C13.895 13.8223 13.8362 13.646 13.7817 13.5459L13.7103 13.4097C13.5089 13.1494 13.1691 12.9854 12.6908 12.917C12.5859 12.9014 12.6069 12.8091 12.7495 12.6406C12.8838 12.4927 13.0348 12.3804 13.2026 12.2964C13.6264 12.0962 14.5789 12.0039 16.0641 12.02C16.7187 12.0278 17.2557 12.0762 17.6795 12.1685C17.8389 12.2085 17.9732 12.2603 18.0823 12.3242C18.1913 12.3926 18.2753 12.4849 18.3298 12.6006C18.3844 12.7168 18.4263 12.8413 18.4557 12.9653C18.485 13.0933 18.4977 13.2656 18.4977 13.4858C18.4977 13.7061 18.4935 13.9185 18.485 14.1147C18.4814 14.1997 18.4778 14.1929 18.4738 14.186C18.4686 14.1763 18.4628 14.166 18.4557 14.3589C18.4431 14.6997 18.4389 15.0161 18.4389 15.3042C18.4389 15.3887 18.4347 15.5488 18.4263 15.7852L18.4249 15.8643C18.4213 16.063 18.4184 16.2202 18.4221 16.3335C18.4263 16.4658 18.4389 16.6182 18.4641 16.7983C18.4893 16.9746 18.5354 17.1226 18.6025 17.2432C18.6697 17.3633 18.7578 17.4551 18.8711 17.5234C18.9261 17.5332 18.981 17.5454 19.0383 17.5586L19.0767 17.5674C19.148 17.5835 19.2529 17.5435 19.3871 17.4434C19.5256 17.3472 19.6766 17.2148 19.8445 17.0508C20.0123 16.8862 20.2179 16.6343 20.4655 16.2856C20.713 15.937 20.9857 15.5288 21.2794 15.0562C21.762 14.2632 22.1857 13.4058 22.5633 12.4849C22.5927 12.4087 22.6346 12.3403 22.6808 12.2842C22.7269 12.2285 22.7689 12.1885 22.8109 12.1641L22.857 12.1279L22.9158 12.1001L23.071 12.064C23.1759 12.0439 23.2556 12.04 23.3102 12.0601L26.759 12.0361C27.0695 11.9961 27.3254 12.0078 27.5269 12.064C27.7241 12.1201 27.8499 12.1841 27.8961 12.2524L27.9674 12.3643C28.152 12.8491 27.5521 13.9707 26.1716 15.7251C25.9786 15.9692 25.7185 16.2935 25.3912 16.6982C24.7703 17.459 24.4094 17.96 24.3129 18.1963C24.1786 18.5088 24.2332 18.8169 24.4808 19.1216C24.6151 19.2817 24.9381 19.5942 25.45 20.0586H25.4626L25.4752 20.0708L25.4877 20.0825L25.5129 20.1069C26.6374 21.104 27.401 21.9492 27.7996 22.6343Z"/>
</svg>
